# MagicaVoxel @ Ephtracy

# group
o 

# material
mtllib arm_right-0.mtl
usemtl palette

# normals
vn -1 0 0
vn 1 0 0
vn 0 0 1
vn 0 0 -1
vn 0 -1 0
vn 0 1 0

# texcoords
vt 0.865234 0.5
vt 0.923828 0.5
vt 0.939453 0.5
vt 0.958984 0.5
vt 0.986328 0.5

# verts
v -0.1 -0.7 0.7
v -0.1 -0.7 0.5
v -0.1 0.2 0.8
v -0.1 0.2 0.7
v -0.1 0.4 0.7
v -0.1 0.4 0.6
v -0.1 0.5 0.7
v -0.1 0.5 0.6
v -0.1 0.5 0.5
v -0.1 0.6 0.8
v -0.1 0.6 0.6
v 0 -0.7 0.8
v 0 -0.7 0.7
v 0 -0.7 0.5
v 0 -0.7 0.4
v 0 0.2 0.8
v 0 0.2 0.7
v 0 0.5 0.6
v 0 0.5 0.5
v 0 0.5 0.4
v 0 0.6 0.6
v 0 0.6 0.5
v 0.2 -0.7 0.8
v 0.2 -0.7 0.7
v 0.2 -0.7 0.5
v 0.2 -0.7 0.4
v 0.2 0.2 0.8
v 0.2 0.2 0.7
v 0.2 0.5 0.6
v 0.2 0.5 0.5
v 0.2 0.5 0.4
v 0.2 0.6 0.6
v 0.2 0.6 0.5
v 0.3 -0.7 0.7
v 0.3 -0.7 0.5
v 0.3 0.2 0.8
v 0.3 0.2 0.7
v 0.3 0.4 0.7
v 0.3 0.4 0.6
v 0.3 0.5 0.7
v 0.3 0.5 0.6
v 0.3 0.5 0.5
v 0.3 0.6 0.8
v 0.3 0.6 0.6
v -0.1 0.2 0.8
v -0.1 0.6 0.8
v 0 -0.7 0.8
v 0 0.2 0.8
v 0 0.5 0.8
v 0 0.6 0.8
v 0.1 0.5 0.8
v 0.1 0.6 0.8
v 0.2 -0.7 0.8
v 0.2 0.2 0.8
v 0.2 0.5 0.8
v 0.2 0.6 0.8
v 0.3 0.2 0.8
v 0.3 0.6 0.8
v -0.1 -0.7 0.7
v -0.1 0.2 0.7
v 0 -0.7 0.7
v 0 0.2 0.7
v 0.2 -0.7 0.7
v 0.2 0.2 0.7
v 0.3 -0.7 0.7
v 0.3 0.2 0.7
v -0.1 0.5 0.6
v -0.1 0.6 0.6
v 0 0.5 0.6
v 0 0.6 0.6
v 0.2 0.5 0.6
v 0.2 0.6 0.6
v 0.3 0.5 0.6
v 0.3 0.6 0.6
v -0.1 -0.7 0.5
v -0.1 0.5 0.5
v 0 -0.7 0.5
v 0 0.5 0.5
v 0 0.6 0.5
v 0.2 -0.7 0.5
v 0.2 0.5 0.5
v 0.2 0.6 0.5
v 0.3 -0.7 0.5
v 0.3 0.5 0.5
v 0 -0.7 0.4
v 0 0.5 0.4
v 0.2 -0.7 0.4
v 0.2 0.5 0.4
v 0 -0.7 0.8
v 0.2 -0.7 0.8
v -0.1 -0.7 0.7
v 0 -0.7 0.7
v 0.2 -0.7 0.7
v 0.3 -0.7 0.7
v -0.1 -0.7 0.5
v 0 -0.7 0.5
v 0.2 -0.7 0.5
v 0.3 -0.7 0.5
v 0 -0.7 0.4
v 0.2 -0.7 0.4
v -0.1 0.2 0.8
v 0 0.2 0.8
v 0.2 0.2 0.8
v 0.3 0.2 0.8
v -0.1 0.2 0.7
v 0 0.2 0.7
v 0.2 0.2 0.7
v 0.3 0.2 0.7
v -0.1 0.5 0.6
v 0 0.5 0.6
v 0.2 0.5 0.6
v 0.3 0.5 0.6
v -0.1 0.5 0.5
v 0 0.5 0.5
v 0.2 0.5 0.5
v 0.3 0.5 0.5
v 0 0.5 0.4
v 0.2 0.5 0.4
v -0.1 0.6 0.8
v 0 0.6 0.8
v 0.1 0.6 0.8
v 0.2 0.6 0.8
v 0.3 0.6 0.8
v -0.1 0.6 0.6
v 0 0.6 0.6
v 0.1 0.6 0.6
v 0.2 0.6 0.6
v 0.3 0.6 0.6
v 0 0.6 0.5
v 0.2 0.6 0.5

# faces
f 4/5/1 2/5/1 1/5/1
f 5/5/1 2/5/1 4/5/1
f 5/5/1 4/5/1 3/5/1
f 6/5/1 2/5/1 5/5/1
f 7/5/1 5/5/1 3/5/1
f 7/2/1 6/2/1 5/2/1
f 8/5/1 2/5/1 6/5/1
f 8/2/1 6/2/1 7/2/1
f 9/5/1 2/5/1 8/5/1
f 10/5/1 7/5/1 3/5/1
f 10/5/1 8/5/1 7/5/1
f 11/5/1 8/5/1 10/5/1
f 16/5/1 13/5/1 12/5/1
f 17/5/1 13/5/1 16/5/1
f 19/5/1 15/5/1 14/5/1
f 20/5/1 15/5/1 19/5/1
f 21/2/1 19/2/1 18/2/1
f 22/2/1 19/2/1 21/2/1
f 23/5/2 24/5/2 27/5/2
f 27/5/2 24/5/2 28/5/2
f 25/5/2 26/5/2 30/5/2
f 30/5/2 26/5/2 31/5/2
f 29/2/2 30/2/2 32/2/2
f 32/2/2 30/2/2 33/2/2
f 34/5/2 35/5/2 37/5/2
f 37/5/2 35/5/2 38/5/2
f 36/5/2 37/5/2 38/5/2
f 38/5/2 35/5/2 39/5/2
f 36/5/2 38/5/2 40/5/2
f 38/2/2 39/2/2 40/2/2
f 39/5/2 35/5/2 41/5/2
f 40/2/2 39/2/2 41/2/2
f 41/5/2 35/5/2 42/5/2
f 36/5/2 40/5/2 43/5/2
f 40/5/2 41/5/2 43/5/2
f 43/5/2 41/5/2 44/5/2
f 48/5/3 46/5/3 45/5/3
f 49/5/3 46/5/3 48/5/3
f 50/5/3 46/5/3 49/5/3
f 51/5/3 48/5/3 47/5/3
f 51/5/3 49/5/3 48/5/3
f 51/4/3 50/4/3 49/4/3
f 52/4/3 50/4/3 51/4/3
f 53/5/3 51/5/3 47/5/3
f 54/5/3 51/5/3 53/5/3
f 55/3/3 52/3/3 51/3/3
f 55/5/3 51/5/3 54/5/3
f 56/3/3 52/3/3 55/3/3
f 57/5/3 55/5/3 54/5/3
f 57/5/3 56/5/3 55/5/3
f 58/5/3 56/5/3 57/5/3
f 61/5/3 60/5/3 59/5/3
f 62/5/3 60/5/3 61/5/3
f 65/5/3 64/5/3 63/5/3
f 66/5/3 64/5/3 65/5/3
f 67/5/4 68/5/4 69/5/4
f 69/5/4 68/5/4 70/5/4
f 71/5/4 72/5/4 73/5/4
f 73/5/4 72/5/4 74/5/4
f 75/5/4 76/5/4 77/5/4
f 77/5/4 76/5/4 78/5/4
f 78/2/4 79/2/4 81/2/4
f 81/2/4 79/2/4 82/2/4
f 80/5/4 81/5/4 83/5/4
f 83/5/4 81/5/4 84/5/4
f 85/5/4 86/5/4 87/5/4
f 87/5/4 86/5/4 88/5/4
f 92/5/5 90/5/5 89/5/5
f 93/5/5 90/5/5 92/5/5
f 95/5/5 92/5/5 91/5/5
f 96/1/5 93/1/5 92/1/5
f 96/5/5 92/5/5 95/5/5
f 97/5/5 94/5/5 93/5/5
f 97/1/5 93/1/5 96/1/5
f 98/5/5 94/5/5 97/5/5
f 99/5/5 97/5/5 96/5/5
f 100/5/5 97/5/5 99/5/5
f 105/5/5 102/5/5 101/5/5
f 106/5/5 102/5/5 105/5/5
f 107/5/5 104/5/5 103/5/5
f 108/5/5 104/5/5 107/5/5
f 109/5/6 110/5/6 113/5/6
f 113/5/6 110/5/6 114/5/6
f 111/5/6 112/5/6 115/5/6
f 115/5/6 112/5/6 116/5/6
f 114/5/6 115/5/6 117/5/6
f 117/5/6 115/5/6 118/5/6
f 119/5/6 120/5/6 124/5/6
f 120/4/6 121/4/6 125/4/6
f 124/5/6 120/5/6 125/5/6
f 121/3/6 122/3/6 126/3/6
f 125/4/6 121/4/6 126/4/6
f 122/5/6 123/5/6 127/5/6
f 126/3/6 122/3/6 127/3/6
f 127/5/6 123/5/6 128/5/6
f 125/2/6 126/2/6 129/2/6
f 126/2/6 127/2/6 129/2/6
f 129/2/6 127/2/6 130/2/6
