# MagicaVoxel @ Ephtracy

# group
o 

# material
mtllib head_robot-0.mtl
usemtl palette

# normals
vn -1 0 0
vn 1 0 0
vn 0 0 1
vn 0 0 -1
vn 0 -1 0
vn 0 1 0

# texcoords
vt 0.865234 0.5
vt 0.896484 0.5
vt 0.923828 0.5
vt 0.927734 0.5
vt 0.939453 0.5
vt 0.955078 0.5
vt 0.958984 0.5
vt 0.986328 0.5
vt 0.990234 0.5

# verts
v -0.3 -0.8 0.3
v -0.3 -0.8 -0.3
v -0.3 -0.7 0.2
v -0.3 -0.7 0.1
v -0.3 -0.7 -0.1
v -0.3 -0.7 -0.2
v -0.3 -0.6 0.2
v -0.3 -0.6 0.1
v -0.3 -0.6 0
v -0.3 -0.6 -0.1
v -0.3 -0.6 -0.2
v -0.3 -0.5 0.1
v -0.3 -0.5 0
v -0.3 -0.5 -0.1
v -0.3 -0.4 0.1
v -0.3 -0.4 0
v -0.3 -0.4 -0.1
v -0.3 -0.3 0.2
v -0.3 -0.3 0.1
v -0.3 -0.3 0
v -0.3 -0.3 -0.1
v -0.3 -0.3 -0.2
v -0.3 -0.2 0.2
v -0.3 -0.2 0.1
v -0.3 -0.2 -0.1
v -0.3 -0.2 -0.2
v -0.3 -0.1 0.3
v -0.3 -0.1 -0.3
v -0.3 0 0.3
v -0.3 0 -0.3
v -0.3 0.2 0.3
v -0.3 0.2 -0.3
v -0.2 -0.8 0.4
v -0.2 -0.8 0.3
v -0.2 -0.8 -0.3
v -0.2 -0.8 -0.4
v -0.2 -0.1 0.3
v -0.2 -0.1 -0.3
v -0.2 0 0.3
v -0.2 0 -0.3
v -0.2 0.2 0.3
v -0.2 0.2 -0.3
v -0.2 0.3 0.4
v -0.2 0.3 -0.4
v 0.5 -0.8 0.4
v 0.5 -0.8 0.2
v 0.5 -0.8 -0.2
v 0.5 -0.8 -0.4
v 0.5 -0.7 0.3
v 0.5 -0.7 0.2
v 0.5 -0.7 -0.2
v 0.5 -0.7 -0.3
v 0.5 -0.6 0.3
v 0.5 -0.6 0.2
v 0.5 -0.6 -0.2
v 0.5 -0.6 -0.3
v 0.5 0.1 0.3
v 0.5 0.1 0.2
v 0.5 0.1 -0.2
v 0.5 0.1 -0.3
v 0.5 0.2 0.3
v 0.5 0.2 0.2
v 0.5 0.2 -0.2
v 0.5 0.2 -0.3
v 0.5 0.3 0.4
v 0.5 0.3 -0.4
v 0.6 -0.8 0.2
v 0.6 -0.8 0.1
v 0.6 -0.8 0
v 0.6 -0.8 -0.1
v 0.6 -0.8 -0.2
v 0.6 0.1 0.2
v 0.6 0.1 0.1
v 0.6 0.1 0
v 0.6 0.1 -0.1
v 0.6 0.1 -0.2
v 0.6 0.2 0.2
v 0.6 0.2 -0.2
v -0.2 -0.8 0.4
v -0.2 0.3 0.4
v -0.1 -0.7 0.4
v -0.1 -0.6 0.4
v -0.1 -0.2 0.4
v -0.1 0.1 0.4
v 0 -0.7 0.4
v 0 -0.6 0.4
v 0 -0.3 0.4
v 0 -0.2 0.4
v 0 -0.1 0.4
v 0 0 0.4
v 0 0.1 0.4
v 0 0.2 0.4
v 0.2 -0.5 0.4
v 0.2 -0.4 0.4
v 0.2 -0.3 0.4
v 0.2 -0.2 0.4
v 0.2 -0.1 0.4
v 0.2 0 0.4
v 0.2 0.1 0.4
v 0.2 0.2 0.4
v 0.3 -0.7 0.4
v 0.3 -0.5 0.4
v 0.3 -0.4 0.4
v 0.3 -0.3 0.4
v 0.3 -0.2 0.4
v 0.3 -0.1 0.4
v 0.3 0.1 0.4
v 0.3 0.2 0.4
v 0.4 -0.7 0.4
v 0.4 -0.3 0.4
v 0.4 0.1 0.4
v 0.4 0.2 0.4
v 0.5 -0.8 0.4
v 0.5 0.3 0.4
v -0.3 -0.8 0.3
v -0.3 -0.1 0.3
v -0.3 0 0.3
v -0.3 0.2 0.3
v -0.2 -0.8 0.3
v -0.2 -0.1 0.3
v -0.2 0 0.3
v -0.2 0.2 0.3
v 0.5 -0.8 0.2
v 0.5 -0.7 0.2
v 0.5 -0.6 0.2
v 0.5 0.1 0.2
v 0.5 0.2 0.2
v 0.6 -0.8 0.2
v 0.6 0.1 0.2
v 0.6 0.2 0.2
v 0.5 -0.8 -0.2
v 0.5 -0.7 -0.2
v 0.5 -0.6 -0.2
v 0.5 0.1 -0.2
v 0.5 0.2 -0.2
v 0.6 -0.8 -0.2
v 0.6 0.1 -0.2
v 0.6 0.2 -0.2
v -0.3 -0.8 -0.3
v -0.3 -0.1 -0.3
v -0.3 0 -0.3
v -0.3 0.2 -0.3
v -0.2 -0.8 -0.3
v -0.2 -0.1 -0.3
v -0.2 0 -0.3
v -0.2 0.2 -0.3
v -0.2 -0.8 -0.4
v -0.2 0.3 -0.4
v -0.1 -0.7 -0.4
v -0.1 -0.3 -0.4
v -0.1 0.1 -0.4
v -0.1 0.2 -0.4
v 0 -0.7 -0.4
v 0 -0.5 -0.4
v 0 -0.4 -0.4
v 0 -0.3 -0.4
v 0 -0.2 -0.4
v 0 -0.1 -0.4
v 0 0.1 -0.4
v 0 0.2 -0.4
v 0.1 -0.5 -0.4
v 0.1 -0.4 -0.4
v 0.1 -0.3 -0.4
v 0.1 -0.2 -0.4
v 0.1 -0.1 -0.4
v 0.1 0 -0.4
v 0.1 0.1 -0.4
v 0.1 0.2 -0.4
v 0.3 -0.7 -0.4
v 0.3 -0.6 -0.4
v 0.3 -0.3 -0.4
v 0.3 -0.2 -0.4
v 0.3 -0.1 -0.4
v 0.3 0 -0.4
v 0.3 0.1 -0.4
v 0.3 0.2 -0.4
v 0.4 -0.7 -0.4
v 0.4 -0.6 -0.4
v 0.4 -0.2 -0.4
v 0.4 0.1 -0.4
v 0.5 -0.8 -0.4
v 0.5 0.3 -0.4
v -0.2 -0.8 0.4
v 0.5 -0.8 0.4
v -0.3 -0.8 0.3
v -0.2 -0.8 0.3
v 0.5 -0.8 0.2
v 0.6 -0.8 0.2
v 0.5 -0.8 0.1
v 0.6 -0.8 0.1
v 0.5 -0.8 0
v 0.6 -0.8 0
v 0.5 -0.8 -0.1
v 0.6 -0.8 -0.1
v 0.5 -0.8 -0.2
v 0.6 -0.8 -0.2
v -0.3 -0.8 -0.3
v -0.2 -0.8 -0.3
v -0.2 -0.8 -0.4
v 0.5 -0.8 -0.4
v -0.3 0 0.3
v -0.2 0 0.3
v -0.3 0 -0.3
v -0.2 0 -0.3
v -0.3 -0.1 0.3
v -0.2 -0.1 0.3
v -0.3 -0.1 -0.3
v -0.2 -0.1 -0.3
v -0.3 0.2 0.3
v -0.2 0.2 0.3
v 0.5 0.2 0.2
v 0.6 0.2 0.2
v 0.5 0.2 -0.2
v 0.6 0.2 -0.2
v -0.3 0.2 -0.3
v -0.2 0.2 -0.3
v -0.2 0.3 0.4
v 0.5 0.3 0.4
v -0.1 0.3 0.3
v 0 0.3 0.3
v 0.3 0.3 0.3
v 0.4 0.3 0.3
v -0.1 0.3 0.2
v 0 0.3 0.2
v 0.3 0.3 0.2
v 0.4 0.3 0.2
v -0.1 0.3 -0.2
v 0 0.3 -0.2
v 0.3 0.3 -0.2
v 0.4 0.3 -0.2
v -0.1 0.3 -0.3
v 0 0.3 -0.3
v 0.3 0.3 -0.3
v 0.4 0.3 -0.3
v -0.2 0.3 -0.4
v 0.5 0.3 -0.4

# faces
f 3/3/1 2/3/1 1/3/1
f 4/3/1 2/3/1 3/3/1
f 5/3/1 2/3/1 4/3/1
f 6/3/1 2/3/1 5/3/1
f 7/3/1 3/3/1 1/3/1
f 7/1/1 4/1/1 3/1/1
f 8/5/1 5/5/1 4/5/1
f 8/1/1 4/1/1 7/1/1
f 9/5/1 5/5/1 8/5/1
f 10/1/1 6/1/1 5/1/1
f 10/5/1 5/5/1 9/5/1
f 11/3/1 2/3/1 6/3/1
f 11/1/1 6/1/1 10/1/1
f 12/5/1 9/5/1 8/5/1
f 12/5/1 8/5/1 7/5/1
f 13/1/1 10/1/1 9/1/1
f 13/5/1 9/5/1 12/5/1
f 14/5/1 11/5/1 10/5/1
f 14/1/1 10/1/1 13/1/1
f 15/5/1 12/5/1 7/5/1
f 15/1/1 13/1/1 12/1/1
f 16/5/1 14/5/1 13/5/1
f 16/1/1 13/1/1 15/1/1
f 17/5/1 11/5/1 14/5/1
f 17/5/1 14/5/1 16/5/1
f 18/5/1 16/5/1 15/5/1
f 18/3/1 7/3/1 1/3/1
f 18/5/1 15/5/1 7/5/1
f 19/5/1 16/5/1 18/5/1
f 20/1/1 17/1/1 16/1/1
f 20/5/1 16/5/1 19/5/1
f 21/5/1 11/5/1 17/5/1
f 21/1/1 17/1/1 20/1/1
f 22/3/1 2/3/1 11/3/1
f 22/5/1 11/5/1 21/5/1
f 23/1/1 19/1/1 18/1/1
f 23/3/1 18/3/1 1/3/1
f 24/5/1 20/5/1 19/5/1
f 24/1/1 19/1/1 23/1/1
f 24/5/1 21/5/1 20/5/1
f 25/1/1 22/1/1 21/1/1
f 25/5/1 21/5/1 24/5/1
f 26/3/1 2/3/1 22/3/1
f 26/1/1 22/1/1 25/1/1
f 27/3/1 23/3/1 1/3/1
f 27/3/1 24/3/1 23/3/1
f 27/3/1 26/3/1 25/3/1
f 27/3/1 25/3/1 24/3/1
f 28/3/1 2/3/1 26/3/1
f 28/3/1 26/3/1 27/3/1
f 31/7/1 30/7/1 29/7/1
f 32/7/1 30/7/1 31/7/1
f 37/8/1 34/8/1 33/8/1
f 38/8/1 36/8/1 35/8/1
f 39/8/1 37/8/1 33/8/1
f 39/8/1 38/8/1 37/8/1
f 40/8/1 36/8/1 38/8/1
f 40/8/1 38/8/1 39/8/1
f 41/8/1 39/8/1 33/8/1
f 42/8/1 36/8/1 40/8/1
f 43/8/1 41/8/1 33/8/1
f 43/8/1 42/8/1 41/8/1
f 44/8/1 36/8/1 42/8/1
f 44/8/1 42/8/1 43/8/1
f 45/8/2 46/8/2 49/8/2
f 49/8/2 46/8/2 50/8/2
f 47/8/2 48/8/2 51/8/2
f 51/8/2 48/8/2 52/8/2
f 49/3/2 50/3/2 53/3/2
f 45/8/2 49/8/2 53/8/2
f 53/3/2 50/3/2 54/3/2
f 51/3/2 52/3/2 55/3/2
f 52/8/2 48/8/2 56/8/2
f 55/3/2 52/3/2 56/3/2
f 53/8/2 54/8/2 57/8/2
f 45/8/2 53/8/2 57/8/2
f 57/8/2 54/8/2 58/8/2
f 55/8/2 56/8/2 59/8/2
f 56/8/2 48/8/2 60/8/2
f 59/8/2 56/8/2 60/8/2
f 57/3/2 58/3/2 61/3/2
f 45/8/2 57/8/2 61/8/2
f 61/3/2 58/3/2 62/3/2
f 59/3/2 60/3/2 63/3/2
f 60/8/2 48/8/2 64/8/2
f 63/3/2 60/3/2 64/3/2
f 62/8/2 63/8/2 65/8/2
f 61/8/2 62/8/2 65/8/2
f 63/8/2 64/8/2 65/8/2
f 45/8/2 61/8/2 65/8/2
f 64/8/2 48/8/2 66/8/2
f 65/8/2 64/8/2 66/8/2
f 67/7/2 68/7/2 72/7/2
f 68/4/2 69/4/2 73/4/2
f 72/7/2 68/7/2 73/7/2
f 69/2/2 70/2/2 74/2/2
f 73/4/2 69/4/2 74/4/2
f 70/5/2 71/5/2 75/5/2
f 74/2/2 70/2/2 75/2/2
f 75/5/2 71/5/2 76/5/2
f 73/6/2 74/6/2 77/6/2
f 72/6/2 73/6/2 77/6/2
f 75/6/2 76/6/2 77/6/2
f 74/6/2 75/6/2 77/6/2
f 77/6/2 76/6/2 78/6/2
f 81/8/3 80/8/3 79/8/3
f 82/8/3 80/8/3 81/8/3
f 83/8/3 80/8/3 82/8/3
f 84/8/3 80/8/3 83/8/3
f 85/8/3 81/8/3 79/8/3
f 85/3/3 82/3/3 81/3/3
f 86/8/3 83/8/3 82/8/3
f 86/3/3 82/3/3 85/3/3
f 87/8/3 83/8/3 86/8/3
f 88/9/3 84/9/3 83/9/3
f 88/8/3 83/8/3 87/8/3
f 89/9/3 84/9/3 88/9/3
f 90/9/3 84/9/3 89/9/3
f 91/8/3 80/8/3 84/8/3
f 91/9/3 84/9/3 90/9/3
f 92/8/3 80/8/3 91/8/3
f 93/8/3 87/8/3 86/8/3
f 93/8/3 86/8/3 85/8/3
f 94/8/3 87/8/3 93/8/3
f 95/9/3 88/9/3 87/9/3
f 95/8/3 87/8/3 94/8/3
f 96/8/3 89/8/3 88/8/3
f 96/9/3 88/9/3 95/9/3
f 97/9/3 90/9/3 89/9/3
f 97/8/3 89/8/3 96/8/3
f 98/8/3 91/8/3 90/8/3
f 98/9/3 90/9/3 97/9/3
f 99/9/3 92/9/3 91/9/3
f 99/8/3 91/8/3 98/8/3
f 100/8/3 80/8/3 92/8/3
f 100/9/3 92/9/3 99/9/3
f 101/8/3 85/8/3 79/8/3
f 101/8/3 93/8/3 85/8/3
f 102/9/3 94/9/3 93/9/3
f 102/8/3 93/8/3 101/8/3
f 103/8/3 96/8/3 95/8/3
f 103/9/3 94/9/3 102/9/3
f 103/8/3 95/8/3 94/8/3
f 104/8/3 96/8/3 103/8/3
f 105/9/3 97/9/3 96/9/3
f 105/8/3 96/8/3 104/8/3
f 106/8/3 99/8/3 98/8/3
f 106/9/3 97/9/3 105/9/3
f 106/8/3 98/8/3 97/8/3
f 106/8/3 100/8/3 99/8/3
f 107/8/3 100/8/3 106/8/3
f 108/8/3 80/8/3 100/8/3
f 108/8/3 100/8/3 107/8/3
f 109/9/3 102/9/3 101/9/3
f 109/9/3 103/9/3 102/9/3
f 109/8/3 101/8/3 79/8/3
f 109/9/3 104/9/3 103/9/3
f 110/8/3 105/8/3 104/8/3
f 110/9/3 104/9/3 109/9/3
f 110/8/3 107/8/3 106/8/3
f 110/8/3 106/8/3 105/8/3
f 111/3/3 108/3/3 107/3/3
f 111/8/3 107/8/3 110/8/3
f 112/8/3 80/8/3 108/8/3
f 112/3/3 108/3/3 111/3/3
f 113/8/3 111/8/3 110/8/3
f 113/8/3 109/8/3 79/8/3
f 113/8/3 112/8/3 111/8/3
f 113/8/3 110/8/3 109/8/3
f 114/8/3 80/8/3 112/8/3
f 114/8/3 112/8/3 113/8/3
f 119/3/3 116/3/3 115/3/3
f 120/3/3 116/3/3 119/3/3
f 121/7/3 118/7/3 117/7/3
f 122/7/3 118/7/3 121/7/3
f 128/7/3 124/7/3 123/7/3
f 128/7/3 125/7/3 124/7/3
f 128/7/3 126/7/3 125/7/3
f 129/6/3 127/6/3 126/6/3
f 129/7/3 126/7/3 128/7/3
f 130/6/3 127/6/3 129/6/3
f 131/5/4 132/5/4 136/5/4
f 132/5/4 133/5/4 136/5/4
f 133/5/4 134/5/4 136/5/4
f 134/6/4 135/6/4 137/6/4
f 136/5/4 134/5/4 137/5/4
f 137/6/4 135/6/4 138/6/4
f 139/3/4 140/3/4 143/3/4
f 143/3/4 140/3/4 144/3/4
f 141/7/4 142/7/4 145/7/4
f 145/7/4 142/7/4 146/7/4
f 147/8/4 148/8/4 149/8/4
f 149/8/4 148/8/4 150/8/4
f 150/8/4 148/8/4 151/8/4
f 151/8/4 148/8/4 152/8/4
f 147/8/4 149/8/4 153/8/4
f 149/9/4 150/9/4 153/9/4
f 153/9/4 150/9/4 154/9/4
f 154/9/4 150/9/4 155/9/4
f 150/8/4 151/8/4 156/8/4
f 155/9/4 150/9/4 156/9/4
f 156/8/4 151/8/4 157/8/4
f 157/8/4 151/8/4 158/8/4
f 151/3/4 152/3/4 159/3/4
f 158/8/4 151/8/4 159/8/4
f 152/8/4 148/8/4 160/8/4
f 159/3/4 152/3/4 160/3/4
f 154/9/4 155/9/4 161/9/4
f 153/8/4 154/8/4 161/8/4
f 155/8/4 156/8/4 162/8/4
f 161/9/4 155/9/4 162/9/4
f 156/8/4 157/8/4 162/8/4
f 162/8/4 157/8/4 163/8/4
f 157/9/4 158/9/4 164/9/4
f 163/8/4 157/8/4 164/8/4
f 158/8/4 159/8/4 165/8/4
f 164/9/4 158/9/4 165/9/4
f 159/8/4 160/8/4 165/8/4
f 165/8/4 160/8/4 166/8/4
f 166/8/4 160/8/4 167/8/4
f 160/8/4 148/8/4 168/8/4
f 167/8/4 160/8/4 168/8/4
f 162/8/4 163/8/4 169/8/4
f 147/8/4 153/8/4 169/8/4
f 161/8/4 162/8/4 169/8/4
f 153/8/4 161/8/4 169/8/4
f 169/8/4 163/8/4 170/8/4
f 163/9/4 164/9/4 171/9/4
f 170/8/4 163/8/4 171/8/4
f 164/8/4 165/8/4 172/8/4
f 171/9/4 164/9/4 172/9/4
f 165/9/4 166/9/4 173/9/4
f 172/8/4 165/8/4 173/8/4
f 166/8/4 167/8/4 174/8/4
f 173/9/4 166/9/4 174/9/4
f 167/9/4 168/9/4 175/9/4
f 174/8/4 167/8/4 175/8/4
f 168/8/4 148/8/4 176/8/4
f 175/9/4 168/9/4 176/9/4
f 169/3/4 170/3/4 177/3/4
f 147/8/4 169/8/4 177/8/4
f 171/8/4 172/8/4 178/8/4
f 177/3/4 170/3/4 178/3/4
f 170/8/4 171/8/4 178/8/4
f 174/9/4 175/9/4 179/9/4
f 178/8/4 172/8/4 179/8/4
f 172/9/4 173/9/4 179/9/4
f 173/9/4 174/9/4 179/9/4
f 175/8/4 176/8/4 180/8/4
f 179/9/4 175/9/4 180/9/4
f 177/8/4 178/8/4 181/8/4
f 178/8/4 179/8/4 181/8/4
f 179/8/4 180/8/4 181/8/4
f 147/8/4 177/8/4 181/8/4
f 176/8/4 148/8/4 182/8/4
f 181/8/4 180/8/4 182/8/4
f 180/8/4 176/8/4 182/8/4
f 186/8/5 184/8/5 183/8/5
f 187/8/5 184/8/5 186/8/5
f 189/8/5 187/8/5 186/8/5
f 189/7/5 188/7/5 187/7/5
f 190/7/5 188/7/5 189/7/5
f 191/8/5 189/8/5 186/8/5
f 191/4/5 190/4/5 189/4/5
f 192/4/5 190/4/5 191/4/5
f 193/8/5 191/8/5 186/8/5
f 193/2/5 192/2/5 191/2/5
f 194/2/5 192/2/5 193/2/5
f 195/8/5 193/8/5 186/8/5
f 195/5/5 194/5/5 193/5/5
f 196/5/5 194/5/5 195/5/5
f 197/3/5 186/3/5 185/3/5
f 198/8/5 195/8/5 186/8/5
f 198/3/5 186/3/5 197/3/5
f 199/8/5 195/8/5 198/8/5
f 200/8/5 195/8/5 199/8/5
f 203/7/5 202/7/5 201/7/5
f 204/7/5 202/7/5 203/7/5
f 205/3/6 206/3/6 207/3/6
f 207/3/6 206/3/6 208/3/6
f 211/6/6 212/6/6 213/6/6
f 213/6/6 212/6/6 214/6/6
f 209/7/6 210/7/6 215/7/6
f 215/7/6 210/7/6 216/7/6
f 217/8/6 218/8/6 219/8/6
f 219/8/6 218/8/6 220/8/6
f 220/8/6 218/8/6 221/8/6
f 221/8/6 218/8/6 222/8/6
f 217/8/6 219/8/6 223/8/6
f 219/3/6 220/3/6 223/3/6
f 220/8/6 221/8/6 224/8/6
f 223/3/6 220/3/6 224/3/6
f 221/3/6 222/3/6 225/3/6
f 224/8/6 221/8/6 225/8/6
f 222/8/6 218/8/6 226/8/6
f 225/3/6 222/3/6 226/3/6
f 224/8/6 225/8/6 227/8/6
f 223/8/6 224/8/6 227/8/6
f 225/8/6 226/8/6 227/8/6
f 217/8/6 223/8/6 227/8/6
f 227/8/6 226/8/6 228/8/6
f 228/8/6 226/8/6 229/8/6
f 226/8/6 218/8/6 230/8/6
f 229/8/6 226/8/6 230/8/6
f 217/8/6 227/8/6 231/8/6
f 227/3/6 228/3/6 231/3/6
f 228/8/6 229/8/6 232/8/6
f 231/3/6 228/3/6 232/3/6
f 229/3/6 230/3/6 233/3/6
f 232/8/6 229/8/6 233/8/6
f 230/8/6 218/8/6 234/8/6
f 233/3/6 230/3/6 234/3/6
f 217/8/6 231/8/6 235/8/6
f 232/8/6 233/8/6 235/8/6
f 233/8/6 234/8/6 235/8/6
f 231/8/6 232/8/6 235/8/6
f 234/8/6 218/8/6 236/8/6
f 235/8/6 234/8/6 236/8/6
