# MagicaVoxel @ Ephtracy

# group
o 

# material
mtllib arm_left-0.mtl
usemtl palette

# normals
vn -1 0 0
vn 1 0 0
vn 0 0 1
vn 0 0 -1
vn 0 -1 0
vn 0 1 0

# texcoords
vt 0.919922 0.5
vt 0.939453 0.5
vt 0.951172 0.5
vt 0.970703 0.5
vt 0.982422 0.5
vt 0.986328 0.5
vt 0.990234 0.5

# verts
v -0.1 1.7 -0.7
v -0.1 1.7 -0.9
v -0.1 1.9 -0.7
v -0.1 1.9 -0.9
v -0.1 2 -0.7
v -0.1 2 -0.9
v -0.1 2.6 -0.7
v -0.1 2.6 -0.8
v -0.1 2.7 -0.6
v -0.1 2.7 -0.7
v -0.1 2.7 -0.8
v -0.1 2.8 -0.7
v -0.1 2.8 -0.8
v -0.1 2.9 -0.7
v -0.1 2.9 -0.8
v -0.1 3 -0.6
v -0.1 3 -0.9
v 1.49012e-008 1.6 -0.7
v 1.49012e-008 1.6 -0.9
v 1.49012e-008 1.7 -0.6
v 1.49012e-008 1.7 -0.7
v 1.49012e-008 1.7 -0.9
v 1.49012e-008 1.7 -1
v 1.49012e-008 1.9 -0.6
v 1.49012e-008 1.9 -0.7
v 1.49012e-008 1.9 -0.9
v 1.49012e-008 1.9 -1
v 1.49012e-008 2 -0.6
v 1.49012e-008 2 -0.7
v 1.49012e-008 2 -0.9
v 1.49012e-008 2 -1
v 1.49012e-008 2.5 -0.9
v 1.49012e-008 2.5 -1
v 1.49012e-008 2.6 -0.6
v 1.49012e-008 2.6 -0.7
v 1.49012e-008 2.6 -0.9
v 1.49012e-008 2.6 -1
v 1.49012e-008 2.7 -0.6
v 1.49012e-008 2.7 -0.7
v 1.49012e-008 3 -0.6
v 1.49012e-008 3 -0.9
v 1.49012e-008 3 -1
v 1.49012e-008 3.1 -0.6
v 1.49012e-008 3.1 -0.9
v 0.2 1.6 -0.7
v 0.2 1.6 -0.9
v 0.2 1.7 -0.6
v 0.2 1.7 -0.7
v 0.2 1.7 -0.9
v 0.2 1.7 -1
v 0.2 1.9 -0.6
v 0.2 1.9 -0.7
v 0.2 1.9 -0.9
v 0.2 1.9 -1
v 0.2 2 -0.6
v 0.2 2 -0.7
v 0.2 2 -0.9
v 0.2 2 -1
v 0.2 2.2 -0.7
v 0.2 2.3 -0.7
v 0.2 2.3 -0.9
v 0.2 2.4 -0.9
v 0.2 2.6 -0.9
v 0.2 2.6 -1
v 0.2 2.7 -0.6
v 0.2 2.7 -0.7
v 0.2 2.7 -0.9
v 0.2 2.7 -1
v 0.2 3 -0.6
v 0.2 3 -0.9
v 0.2 3 -1
v 0.2 3.1 -0.6
v 0.2 3.1 -0.9
v 0.3 1.7 -0.7
v 0.3 1.7 -0.9
v 0.3 1.9 -0.7
v 0.3 1.9 -0.9
v 0.3 2 -0.7
v 0.3 2 -0.9
v 0.3 2.2 -0.7
v 0.3 2.2 -0.8
v 0.3 2.3 -0.7
v 0.3 2.3 -0.8
v 0.3 2.3 -0.9
v 0.3 2.4 -0.8
v 0.3 2.4 -0.9
v 0.3 2.7 -0.6
v 0.3 2.7 -0.7
v 0.3 3 -0.6
v 0.3 3 -0.9
v -0.1 2.7 -0.6
v -0.1 3 -0.6
v 1.49012e-008 1.7 -0.6
v 1.49012e-008 1.9 -0.6
v 1.49012e-008 2 -0.6
v 1.49012e-008 2.6 -0.6
v 1.49012e-008 2.7 -0.6
v 1.49012e-008 2.8 -0.6
v 1.49012e-008 2.9 -0.6
v 1.49012e-008 3 -0.6
v 1.49012e-008 3.1 -0.6
v 0.1 2.6 -0.6
v 0.1 2.7 -0.6
v 0.2 1.7 -0.6
v 0.2 1.9 -0.6
v 0.2 2 -0.6
v 0.2 2.7 -0.6
v 0.2 2.8 -0.6
v 0.2 2.9 -0.6
v 0.2 3 -0.6
v 0.2 3.1 -0.6
v 0.3 2.7 -0.6
v 0.3 3 -0.6
v -0.1 1.7 -0.7
v -0.1 1.9 -0.7
v -0.1 2 -0.7
v -0.1 2.6 -0.7
v -0.1 2.7 -0.7
v 1.49012e-008 1.6 -0.7
v 1.49012e-008 1.7 -0.7
v 1.49012e-008 1.9 -0.7
v 1.49012e-008 2 -0.7
v 1.49012e-008 2.6 -0.7
v 1.49012e-008 2.7 -0.7
v 0.2 1.6 -0.7
v 0.2 1.7 -0.7
v 0.2 1.9 -0.7
v 0.2 2 -0.7
v 0.2 2.2 -0.7
v 0.2 2.3 -0.7
v 0.2 2.7 -0.7
v 0.3 1.7 -0.7
v 0.3 1.9 -0.7
v 0.3 2 -0.7
v 0.3 2.2 -0.7
v 0.3 2.3 -0.7
v 0.3 2.7 -0.7
v -0.1 1.7 -0.9
v -0.1 1.9 -0.9
v -0.1 2 -0.9
v -0.1 3 -0.9
v 1.49012e-008 1.6 -0.9
v 1.49012e-008 1.7 -0.9
v 1.49012e-008 1.9 -0.9
v 1.49012e-008 2 -0.9
v 1.49012e-008 2.5 -0.9
v 1.49012e-008 2.6 -0.9
v 1.49012e-008 3 -0.9
v 1.49012e-008 3.1 -0.9
v 0.2 1.6 -0.9
v 0.2 1.7 -0.9
v 0.2 1.9 -0.9
v 0.2 2 -0.9
v 0.2 2.3 -0.9
v 0.2 2.4 -0.9
v 0.2 2.6 -0.9
v 0.2 2.7 -0.9
v 0.2 3 -0.9
v 0.2 3.1 -0.9
v 0.3 1.7 -0.9
v 0.3 1.9 -0.9
v 0.3 2 -0.9
v 0.3 2.3 -0.9
v 0.3 2.4 -0.9
v 0.3 3 -0.9
v 1.49012e-008 1.7 -1
v 1.49012e-008 1.9 -1
v 1.49012e-008 2 -1
v 1.49012e-008 2.5 -1
v 1.49012e-008 2.6 -1
v 1.49012e-008 3 -1
v 0.1 2.5 -1
v 0.1 2.6 -1
v 0.1 2.7 -1
v 0.2 1.7 -1
v 0.2 1.9 -1
v 0.2 2 -1
v 0.2 2.6 -1
v 0.2 2.7 -1
v 0.2 3 -1
v 1.49012e-008 1.6 -0.7
v 0.2 1.6 -0.7
v 1.49012e-008 1.6 -0.9
v 0.2 1.6 -0.9
v 1.49012e-008 1.7 -0.6
v 0.2 1.7 -0.6
v -0.1 1.7 -0.7
v 1.49012e-008 1.7 -0.7
v 0.2 1.7 -0.7
v 0.3 1.7 -0.7
v -0.1 1.7 -0.9
v 1.49012e-008 1.7 -0.9
v 0.2 1.7 -0.9
v 0.3 1.7 -0.9
v 1.49012e-008 1.7 -1
v 0.2 1.7 -1
v 1.49012e-008 2 -0.6
v 0.2 2 -0.6
v -0.1 2 -0.7
v 1.49012e-008 2 -0.7
v 0.2 2 -0.7
v 0.3 2 -0.7
v -0.1 2 -0.9
v 1.49012e-008 2 -0.9
v 0.2 2 -0.9
v 0.3 2 -0.9
v 1.49012e-008 2 -1
v 0.2 2 -1
v -0.1 2.7 -0.6
v 1.49012e-008 2.7 -0.6
v 0.2 2.7 -0.6
v 0.3 2.7 -0.6
v -0.1 2.7 -0.7
v 1.49012e-008 2.7 -0.7
v 0.2 2.7 -0.7
v 0.3 2.7 -0.7
v 1.49012e-008 1.9 -0.6
v 0.2 1.9 -0.6
v -0.1 1.9 -0.7
v 1.49012e-008 1.9 -0.7
v 0.2 1.9 -0.7
v 0.3 1.9 -0.7
v -0.1 1.9 -0.9
v 1.49012e-008 1.9 -0.9
v 0.2 1.9 -0.9
v 0.3 1.9 -0.9
v 1.49012e-008 1.9 -1
v 0.2 1.9 -1
v -0.1 3 -0.6
v 1.49012e-008 3 -0.6
v 0.2 3 -0.6
v 0.3 3 -0.6
v -0.1 3 -0.9
v 1.49012e-008 3 -0.9
v 0.2 3 -0.9
v 0.3 3 -0.9
v 1.49012e-008 3 -1
v 0.2 3 -1
v 1.49012e-008 3.1 -0.6
v 0.2 3.1 -0.6
v 1.49012e-008 3.1 -0.9
v 0.2 3.1 -0.9

# faces
f 3/2/1 2/2/1 1/2/1
f 4/2/1 2/2/1 3/2/1
f 7/6/1 6/6/1 5/6/1
f 8/6/1 6/6/1 7/6/1
f 10/5/1 8/5/1 7/5/1
f 11/6/1 6/6/1 8/6/1
f 11/5/1 8/5/1 10/5/1
f 12/6/1 10/6/1 9/6/1
f 12/3/1 11/3/1 10/3/1
f 13/6/1 6/6/1 11/6/1
f 13/3/1 11/3/1 12/3/1
f 14/6/1 12/6/1 9/6/1
f 14/1/1 13/1/1 12/1/1
f 15/6/1 6/6/1 13/6/1
f 15/1/1 13/1/1 14/1/1
f 16/6/1 14/6/1 9/6/1
f 16/6/1 15/6/1 14/6/1
f 17/6/1 6/6/1 15/6/1
f 17/6/1 15/6/1 16/6/1
f 21/2/1 19/2/1 18/2/1
f 22/2/1 19/2/1 21/2/1
f 24/2/1 21/2/1 20/2/1
f 25/2/1 21/2/1 24/2/1
f 26/2/1 23/2/1 22/2/1
f 27/2/1 23/2/1 26/2/1
f 29/4/1 26/4/1 25/4/1
f 30/4/1 26/4/1 29/4/1
f 32/6/1 31/6/1 30/6/1
f 33/6/1 31/6/1 32/6/1
f 34/6/1 29/6/1 28/6/1
f 35/6/1 29/6/1 34/6/1
f 36/2/1 33/2/1 32/2/1
f 37/2/1 33/2/1 36/2/1
f 38/3/1 35/3/1 34/3/1
f 39/3/1 35/3/1 38/3/1
f 41/6/1 37/6/1 36/6/1
f 42/6/1 37/6/1 41/6/1
f 43/6/1 41/6/1 40/6/1
f 44/6/1 41/6/1 43/6/1
f 45/2/2 46/2/2 48/2/2
f 48/2/2 46/2/2 49/2/2
f 47/2/2 48/2/2 51/2/2
f 51/2/2 48/2/2 52/2/2
f 49/2/2 50/2/2 53/2/2
f 53/2/2 50/2/2 54/2/2
f 52/4/2 53/4/2 56/4/2
f 56/4/2 53/4/2 57/4/2
f 55/6/2 56/6/2 59/6/2
f 55/6/2 59/6/2 60/6/2
f 57/6/2 58/6/2 61/6/2
f 61/6/2 58/6/2 62/6/2
f 62/6/2 58/6/2 63/6/2
f 63/6/2 58/6/2 64/6/2
f 55/6/2 60/6/2 65/6/2
f 65/6/2 60/6/2 66/6/2
f 63/2/2 64/2/2 67/2/2
f 67/2/2 64/2/2 68/2/2
f 67/6/2 68/6/2 70/6/2
f 70/6/2 68/6/2 71/6/2
f 69/6/2 70/6/2 72/6/2
f 72/6/2 70/6/2 73/6/2
f 74/2/2 75/2/2 76/2/2
f 76/2/2 75/2/2 77/2/2
f 78/6/2 79/6/2 80/6/2
f 80/6/2 79/6/2 81/6/2
f 80/2/2 81/2/2 82/2/2
f 81/6/2 79/6/2 83/6/2
f 82/2/2 81/2/2 83/2/2
f 83/6/2 79/6/2 84/6/2
f 82/6/2 83/6/2 85/6/2
f 83/2/2 84/2/2 85/2/2
f 85/2/2 84/2/2 86/2/2
f 82/6/2 85/6/2 88/6/2
f 85/6/2 86/6/2 88/6/2
f 87/6/2 88/6/2 89/6/2
f 88/6/2 86/6/2 90/6/2
f 89/6/2 88/6/2 90/6/2
f 97/6/3 92/6/3 91/6/3
f 98/6/3 92/6/3 97/6/3
f 99/6/3 92/6/3 98/6/3
f 100/6/3 92/6/3 99/6/3
f 102/6/3 96/6/3 95/6/3
f 102/3/3 97/3/3 96/3/3
f 102/3/3 98/3/3 97/3/3
f 103/3/3 98/3/3 102/3/3
f 104/2/3 94/2/3 93/2/3
f 105/2/3 94/2/3 104/2/3
f 106/6/3 102/6/3 95/6/3
f 106/6/3 103/6/3 102/6/3
f 107/3/3 98/3/3 103/3/3
f 107/6/3 103/6/3 106/6/3
f 108/1/3 99/1/3 98/1/3
f 108/3/3 98/3/3 107/3/3
f 109/3/3 100/3/3 99/3/3
f 109/1/3 99/1/3 108/1/3
f 110/6/3 101/6/3 100/6/3
f 110/3/3 100/3/3 109/3/3
f 111/6/3 101/6/3 110/6/3
f 112/6/3 109/6/3 108/6/3
f 112/6/3 108/6/3 107/6/3
f 112/6/3 110/6/3 109/6/3
f 113/6/3 110/6/3 112/6/3
f 120/2/3 115/2/3 114/2/3
f 121/2/3 115/2/3 120/2/3
f 122/6/3 117/6/3 116/6/3
f 123/5/3 118/5/3 117/5/3
f 123/6/3 117/6/3 122/6/3
f 124/5/3 118/5/3 123/5/3
f 125/2/3 120/2/3 119/2/3
f 126/2/3 120/2/3 125/2/3
f 127/4/3 122/4/3 121/4/3
f 128/4/3 122/4/3 127/4/3
f 132/2/3 127/2/3 126/2/3
f 133/2/3 127/2/3 132/2/3
f 134/6/3 129/6/3 128/6/3
f 135/2/3 130/2/3 129/2/3
f 135/6/3 129/6/3 134/6/3
f 136/6/3 131/6/3 130/6/3
f 136/2/3 130/2/3 135/2/3
f 137/6/3 131/6/3 136/6/3
f 138/2/4 139/2/4 143/2/4
f 143/2/4 139/2/4 144/2/4
f 140/6/4 141/6/4 145/6/4
f 145/6/4 141/6/4 146/6/4
f 146/6/4 141/6/4 147/6/4
f 147/6/4 141/6/4 148/6/4
f 142/2/4 143/2/4 150/2/4
f 150/2/4 143/2/4 151/2/4
f 144/4/4 145/4/4 152/4/4
f 152/4/4 145/4/4 153/4/4
f 148/6/4 149/6/4 158/6/4
f 158/6/4 149/6/4 159/6/4
f 151/2/4 152/2/4 160/2/4
f 160/2/4 152/2/4 161/2/4
f 153/6/4 154/6/4 162/6/4
f 154/2/4 155/2/4 163/2/4
f 162/6/4 154/6/4 163/6/4
f 156/6/4 157/6/4 164/6/4
f 163/2/4 155/2/4 164/2/4
f 157/6/4 158/6/4 164/6/4
f 155/6/4 156/6/4 164/6/4
f 164/6/4 158/6/4 165/6/4
f 168/6/4 169/6/4 172/6/4
f 169/2/4 170/2/4 172/2/4
f 170/6/4 171/6/4 173/6/4
f 172/2/4 170/2/4 173/2/4
f 173/6/4 171/6/4 174/6/4
f 166/2/4 167/2/4 175/2/4
f 175/2/4 167/2/4 176/2/4
f 168/6/4 172/6/4 177/6/4
f 172/6/4 173/6/4 177/6/4
f 173/2/4 174/2/4 178/2/4
f 177/6/4 173/6/4 178/6/4
f 174/6/4 171/6/4 179/6/4
f 178/2/4 174/2/4 179/2/4
f 179/6/4 171/6/4 180/6/4
f 183/2/5 182/2/5 181/2/5
f 184/2/5 182/2/5 183/2/5
f 188/2/5 186/2/5 185/2/5
f 189/2/5 186/2/5 188/2/5
f 191/2/5 188/2/5 187/2/5
f 192/2/5 188/2/5 191/2/5
f 193/2/5 190/2/5 189/2/5
f 194/2/5 190/2/5 193/2/5
f 195/2/5 193/2/5 192/2/5
f 196/2/5 193/2/5 195/2/5
f 200/6/5 198/6/5 197/6/5
f 201/6/5 198/6/5 200/6/5
f 203/6/5 200/6/5 199/6/5
f 204/6/5 200/6/5 203/6/5
f 205/6/5 202/6/5 201/6/5
f 206/6/5 202/6/5 205/6/5
f 207/6/5 205/6/5 204/6/5
f 208/6/5 205/6/5 207/6/5
f 213/6/5 210/6/5 209/6/5
f 214/6/5 210/6/5 213/6/5
f 215/6/5 212/6/5 211/6/5
f 216/6/5 212/6/5 215/6/5
f 217/2/6 218/2/6 220/2/6
f 220/2/6 218/2/6 221/2/6
f 219/2/6 220/2/6 223/2/6
f 223/2/6 220/2/6 224/2/6
f 221/2/6 222/2/6 225/2/6
f 225/2/6 222/2/6 226/2/6
f 224/2/6 225/2/6 227/2/6
f 227/2/6 225/2/6 228/2/6
f 229/6/6 230/6/6 233/6/6
f 233/6/6 230/6/6 234/6/6
f 231/6/6 232/6/6 235/6/6
f 235/6/6 232/6/6 236/6/6
f 234/6/6 235/6/6 237/6/6
f 237/6/6 235/6/6 238/6/6
f 239/6/6 240/6/6 241/6/6
f 241/6/6 240/6/6 242/6/6
