# MagicaVoxel @ Ephtracy

# group
o 

# material
mtllib finger-0.mtl
usemtl palette

# normals
vn -1 0 0
vn 1 0 0
vn 0 0 1
vn 0 0 -1
vn 0 -1 0
vn 0 1 0

# texcoords
vt 0.908203 0.5
vt 0.919922 0.5
vt 0.939453 0.5
vt 0.951172 0.5
vt 0.970703 0.5
vt 0.982422 0.5

# verts
v -0.2 -0.8 0.1
v -0.2 -0.8 -0.1
v -0.2 -0.7 0.1
v -0.2 -0.7 -0.1
v -0.2 -0.4 0.1
v -0.2 -0.4 0
v -0.2 -0.3 0.1
v -0.2 -0.3 0
v -0.2 -0.3 -0.1
v -0.2 -0.2 0
v -0.2 -0.2 -0.1
v -0.2 -0.1 0
v -0.2 -0.1 -0.1
v -0.2 0 0.1
v -0.2 0 0
v -0.2 0 -0.1
v -0.2 0.1 0.1
v -0.2 0.1 0
v -0.2 0.2 0.2
v -0.2 0.2 0.1
v -0.2 0.2 0
v -0.2 0.2 -0.1
v -0.2 0.3 0.1
v -0.2 0.3 0
v -0.2 0.3 -0.1
v -0.2 0.4 0.2
v -0.2 0.4 0.1
v -0.2 0.5 0.1
v -0.2 0.5 0
v -0.2 0.5 -0.1
v -0.2 0.6 0.2
v -0.2 0.6 0.1
v -0.2 0.6 0
v -0.1 -0.8 0.2
v -0.1 -0.8 0.1
v -0.1 -0.8 -0.1
v -0.1 -0.8 -0.2
v -0.1 -0.7 0.1
v -0.1 -0.7 -0.1
v -0.1 -0.4 0.2
v -0.1 -0.4 0.1
v -0.1 -0.3 0.2
v -0.1 -0.3 0.1
v -0.1 -0.3 -0.1
v -0.1 -0.3 -0.2
v -0.1 -0.2 -0.1
v -0.1 -0.2 -0.2
v -0.1 -0.1 -0.1
v -0.1 0 0.2
v -0.1 0 0.1
v -0.1 0 -0.1
v -0.1 0.1 0.2
v -0.1 0.1 0.1
v -0.1 0.2 0.2
v -0.1 0.2 0.1
v -0.1 0.2 -0.1
v -0.1 0.2 -0.2
v -0.1 0.3 -0.1
v -0.1 0.3 -0.2
v -0.1 0.5 0
v -0.1 0.5 -0.1
v -0.1 0.5 -0.2
v -0.1 0.6 0
v -0.1 0.6 -0.1
v 0.1 -0.5 0.1
v 0.1 -0.5 0
v 0.1 -0.5 -0.1
v 0.1 -0.4 0.1
v 0.1 -0.4 0
v 0.1 -0.3 0.1
v 0.1 -0.3 0
v 0.1 -0.1 0.1
v 0.1 -0.1 0
v 0.1 0 0.1
v 0.1 0 0
v 0.1 0 -0.1
v 0.1 0.1 0
v 0.1 0.1 -0.1
v 0.1 0.2 0
v 0.1 0.2 -0.1
v 0.1 0.3 0.1
v 0.1 0.3 0
v 0.1 0.3 -0.1
v 0.1 0.4 0
v 0.1 0.4 -0.1
v 0.1 0.5 0.1
v 0.1 0.5 0
v 0.1 0.5 -0.1
v -0.1 -0.5 0.1
v -0.1 -0.5 -0.1
v -0.1 -0.4 0.1
v -0.1 -0.4 0
v -0.1 -0.3 0.1
v -0.1 -0.3 0
v -0.1 -0.3 -0.1
v -0.1 -0.2 0
v -0.1 -0.2 -0.1
v -0.1 -0.1 0
v -0.1 -0.1 -0.1
v -0.1 0 0.1
v -0.1 0 0
v -0.1 0 -0.1
v -0.1 0.1 0.1
v -0.1 0.1 0
v -0.1 0.2 0.1
v -0.1 0.2 0
v -0.1 0.2 -0.1
v -0.1 0.3 0.1
v -0.1 0.3 0
v -0.1 0.3 -0.1
v -0.1 0.5 0.1
v -0.1 0.5 0
v -0.1 0.5 -0.1
v 0.1 -0.8 0.2
v 0.1 -0.8 0.1
v 0.1 -0.8 -0.1
v 0.1 -0.8 -0.2
v 0.1 -0.6 0.1
v 0.1 -0.6 -0.1
v 0.1 -0.6 -0.2
v 0.1 -0.5 0.1
v 0.1 -0.5 -0.1
v 0.1 -0.5 -0.2
v 0.1 -0.4 0.1
v 0.1 -0.3 0.1
v 0.1 -0.1 0.2
v 0.1 -0.1 0.1
v 0.1 0 0.2
v 0.1 0 0.1
v 0.1 0 -0.1
v 0.1 0.1 -0.1
v 0.1 0.2 0.2
v 0.1 0.2 0.1
v 0.1 0.2 -0.1
v 0.1 0.3 -0.1
v 0.1 0.4 -0.1
v 0.1 0.5 0
v 0.1 0.5 -0.1
v 0.1 0.5 -0.2
v 0.1 0.6 0
v 0.1 0.6 -0.1
v 0.2 -0.8 0.1
v 0.2 -0.8 -0.1
v 0.2 -0.6 0.1
v 0.2 -0.6 0
v 0.2 -0.6 -0.1
v 0.2 -0.5 0.1
v 0.2 -0.5 0
v 0.2 -0.5 -0.1
v 0.2 -0.4 0.1
v 0.2 -0.4 0
v 0.2 -0.3 0.1
v 0.2 -0.3 0
v 0.2 -0.1 0.1
v 0.2 -0.1 0
v 0.2 0 0.1
v 0.2 0 0
v 0.2 0 -0.1
v 0.2 0.1 0
v 0.2 0.1 -0.1
v 0.2 0.2 0.2
v 0.2 0.2 0.1
v 0.2 0.2 0
v 0.2 0.2 -0.1
v 0.2 0.3 0
v 0.2 0.3 -0.1
v 0.2 0.4 0
v 0.2 0.4 -0.1
v 0.2 0.5 0.1
v 0.2 0.5 0
v 0.2 0.5 -0.1
v 0.2 0.6 0.2
v 0.2 0.6 0.1
v 0.2 0.6 0
v -0.2 0.2 0.2
v -0.2 0.4 0.2
v -0.2 0.6 0.2
v -0.1 -0.8 0.2
v -0.1 -0.4 0.2
v -0.1 -0.3 0.2
v -0.1 0 0.2
v -0.1 0.1 0.2
v -0.1 0.2 0.2
v -0.1 0.3 0.2
v -0.1 0.4 0.2
v -0.1 0.6 0.2
v 0 -0.4 0.2
v 0 -0.3 0.2
v 0 -0.1 0.2
v 0 0 0.2
v 0 0.1 0.2
v 0 0.2 0.2
v 0 0.3 0.2
v 0.1 -0.8 0.2
v 0.1 -0.1 0.2
v 0.1 0 0.2
v 0.1 0.2 0.2
v 0.1 0.3 0.2
v 0.1 0.6 0.2
v 0.2 0.2 0.2
v 0.2 0.6 0.2
v -0.2 -0.8 0.1
v -0.2 -0.7 0.1
v -0.2 -0.4 0.1
v -0.2 -0.3 0.1
v -0.2 0 0.1
v -0.2 0.1 0.1
v -0.2 0.2 0.1
v -0.1 -0.8 0.1
v -0.1 -0.7 0.1
v -0.1 -0.4 0.1
v -0.1 -0.3 0.1
v -0.1 0 0.1
v -0.1 0.1 0.1
v -0.1 0.2 0.1
v 0.1 -0.8 0.1
v 0.1 -0.6 0.1
v 0.1 -0.5 0.1
v 0.1 -0.4 0.1
v 0.1 -0.3 0.1
v 0.1 -0.1 0.1
v 0.1 0 0.1
v 0.1 0.2 0.1
v 0.2 -0.8 0.1
v 0.2 -0.6 0.1
v 0.2 -0.5 0.1
v 0.2 -0.4 0.1
v 0.2 -0.3 0.1
v 0.2 -0.1 0.1
v 0.2 0 0.1
v 0.2 0.2 0.1
v -0.1 -0.5 -0.1
v -0.1 -0.3 -0.1
v -0.1 -0.2 -0.1
v -0.1 -0.1 -0.1
v -0.1 0 -0.1
v -0.1 0.2 -0.1
v -0.1 0.3 -0.1
v -0.1 0.5 -0.1
v 0 -0.3 -0.1
v 0 -0.2 -0.1
v 0 0.2 -0.1
v 0 0.3 -0.1
v 0 0.5 -0.1
v 0.1 -0.5 -0.1
v 0.1 0 -0.1
v 0.1 0.1 -0.1
v 0.1 0.2 -0.1
v 0.1 0.3 -0.1
v 0.1 0.4 -0.1
v 0.1 0.5 -0.1
v -0.1 -0.5 0.1
v -0.1 -0.4 0.1
v -0.1 -0.3 0.1
v -0.1 0 0.1
v -0.1 0.1 0.1
v -0.1 0.2 0.1
v -0.1 0.3 0.1
v -0.1 0.5 0.1
v 0 -0.4 0.1
v 0 -0.3 0.1
v 0 -0.1 0.1
v 0 0 0.1
v 0 0.1 0.1
v 0 0.2 0.1
v 0 0.3 0.1
v 0.1 -0.5 0.1
v 0.1 -0.4 0.1
v 0.1 -0.3 0.1
v 0.1 -0.1 0.1
v 0.1 0 0.1
v 0.1 0.3 0.1
v 0.1 0.5 0.1
v -0.2 0.5 0
v -0.2 0.6 0
v -0.1 0.5 0
v -0.1 0.6 0
v 0.1 0.5 0
v 0.1 0.6 0
v 0.2 0.5 0
v 0.2 0.6 0
v -0.2 -0.8 -0.1
v -0.2 -0.7 -0.1
v -0.2 -0.3 -0.1
v -0.2 -0.2 -0.1
v -0.2 -0.1 -0.1
v -0.2 0 -0.1
v -0.2 0.2 -0.1
v -0.2 0.3 -0.1
v -0.2 0.5 -0.1
v -0.1 -0.8 -0.1
v -0.1 -0.7 -0.1
v -0.1 -0.3 -0.1
v -0.1 -0.2 -0.1
v -0.1 -0.1 -0.1
v -0.1 0 -0.1
v -0.1 0.2 -0.1
v -0.1 0.3 -0.1
v -0.1 0.5 -0.1
v -0.1 0.6 -0.1
v 0 0.5 -0.1
v 0 0.6 -0.1
v 0.1 -0.8 -0.1
v 0.1 -0.6 -0.1
v 0.1 -0.5 -0.1
v 0.1 0 -0.1
v 0.1 0.1 -0.1
v 0.1 0.2 -0.1
v 0.1 0.3 -0.1
v 0.1 0.4 -0.1
v 0.1 0.5 -0.1
v 0.1 0.6 -0.1
v 0.2 -0.8 -0.1
v 0.2 -0.6 -0.1
v 0.2 -0.5 -0.1
v 0.2 0 -0.1
v 0.2 0.1 -0.1
v 0.2 0.2 -0.1
v 0.2 0.3 -0.1
v 0.2 0.4 -0.1
v 0.2 0.5 -0.1
v -0.1 -0.8 -0.2
v -0.1 -0.3 -0.2
v -0.1 -0.2 -0.2
v -0.1 0.2 -0.2
v -0.1 0.3 -0.2
v -0.1 0.5 -0.2
v 0 -0.6 -0.2
v 0 -0.5 -0.2
v 0 -0.3 -0.2
v 0 -0.2 -0.2
v 0 0.2 -0.2
v 0 0.3 -0.2
v 0.1 -0.8 -0.2
v 0.1 -0.6 -0.2
v 0.1 -0.5 -0.2
v 0.1 0.5 -0.2
v -0.1 -0.8 0.2
v 0.1 -0.8 0.2
v -0.2 -0.8 0.1
v -0.1 -0.8 0.1
v 0.1 -0.8 0.1
v 0.2 -0.8 0.1
v -0.2 -0.8 -0.1
v -0.1 -0.8 -0.1
v 0.1 -0.8 -0.1
v 0.2 -0.8 -0.1
v -0.1 -0.8 -0.2
v 0.1 -0.8 -0.2
v -0.2 0.2 0.2
v -0.1 0.2 0.2
v 0.1 0.2 0.2
v 0.2 0.2 0.2
v -0.2 0.2 0.1
v -0.1 0.2 0.1
v 0.1 0.2 0.1
v 0.2 0.2 0.1
v -0.1 0.5 0.1
v 0.1 0.5 0.1
v -0.1 0.5 0
v 0 0.5 0
v 0.1 0.5 0
v -0.1 0.5 -0.1
v 0 0.5 -0.1
v 0.1 0.5 -0.1
v -0.1 -0.5 0.1
v 0.1 -0.5 0.1
v 0.1 -0.5 0
v -0.1 -0.5 -0.1
v 0.1 -0.5 -0.1
v -0.2 0.5 0
v -0.1 0.5 0
v 0.1 0.5 0
v 0.2 0.5 0
v -0.2 0.5 -0.1
v -0.1 0.5 -0.1
v 0 0.5 -0.1
v 0.1 0.5 -0.1
v 0.2 0.5 -0.1
v -0.1 0.5 -0.2
v 0.1 0.5 -0.2
v -0.2 0.6 0.2
v -0.1 0.6 0.2
v 0.1 0.6 0.2
v 0.2 0.6 0.2
v -0.2 0.6 0.1
v -0.1 0.6 0.1
v 0.1 0.6 0.1
v 0.2 0.6 0.1
v -0.2 0.6 0
v -0.1 0.6 0
v 0 0.6 0
v 0.1 0.6 0
v 0.2 0.6 0
v -0.1 0.6 -0.1
v 0 0.6 -0.1
v 0.1 0.6 -0.1

# faces
f 3/1/1 2/1/1 1/1/1
f 4/1/1 2/1/1 3/1/1
f 5/3/1 4/3/1 3/3/1
f 6/3/1 4/3/1 5/3/1
f 7/1/1 6/1/1 5/1/1
f 8/3/1 4/3/1 6/3/1
f 8/1/1 6/1/1 7/1/1
f 9/3/1 4/3/1 8/3/1
f 10/3/1 8/3/1 7/3/1
f 10/6/1 9/6/1 8/6/1
f 11/6/1 9/6/1 10/6/1
f 12/3/1 10/3/1 7/3/1
f 12/4/1 11/4/1 10/4/1
f 13/4/1 11/4/1 12/4/1
f 14/3/1 12/3/1 7/3/1
f 15/2/1 13/2/1 12/2/1
f 15/3/1 12/3/1 14/3/1
f 16/2/1 13/2/1 15/2/1
f 17/6/1 15/6/1 14/6/1
f 18/3/1 16/3/1 15/3/1
f 18/6/1 15/6/1 17/6/1
f 20/4/1 18/4/1 17/4/1
f 21/3/1 16/3/1 18/3/1
f 21/4/1 18/4/1 20/4/1
f 22/3/1 16/3/1 21/3/1
f 23/2/1 20/2/1 19/2/1
f 23/4/1 21/4/1 20/4/1
f 24/1/1 22/1/1 21/1/1
f 24/4/1 21/4/1 23/4/1
f 25/1/1 22/1/1 24/1/1
f 26/2/1 23/2/1 19/2/1
f 27/3/1 24/3/1 23/3/1
f 27/2/1 23/2/1 26/2/1
f 27/3/1 25/3/1 24/3/1
f 28/3/1 27/3/1 26/3/1
f 28/3/1 25/3/1 27/3/1
f 29/3/1 25/3/1 28/3/1
f 30/3/1 25/3/1 29/3/1
f 31/3/1 28/3/1 26/3/1
f 32/1/1 29/1/1 28/1/1
f 32/3/1 28/3/1 31/3/1
f 33/1/1 29/1/1 32/1/1
f 38/3/1 35/3/1 34/3/1
f 39/3/1 37/3/1 36/3/1
f 40/3/1 38/3/1 34/3/1
f 41/3/1 38/3/1 40/3/1
f 42/1/1 41/1/1 40/1/1
f 43/1/1 41/1/1 42/1/1
f 44/3/1 37/3/1 39/3/1
f 45/3/1 37/3/1 44/3/1
f 46/6/1 45/6/1 44/6/1
f 47/6/1 45/6/1 46/6/1
f 48/3/1 47/3/1 46/3/1
f 49/3/1 43/3/1 42/3/1
f 50/3/1 43/3/1 49/3/1
f 51/3/1 47/3/1 48/3/1
f 52/6/1 50/6/1 49/6/1
f 53/6/1 50/6/1 52/6/1
f 54/4/1 53/4/1 52/4/1
f 55/4/1 53/4/1 54/4/1
f 56/3/1 47/3/1 51/3/1
f 57/3/1 47/3/1 56/3/1
f 58/1/1 57/1/1 56/1/1
f 59/1/1 57/1/1 58/1/1
f 61/3/1 59/3/1 58/3/1
f 62/3/1 59/3/1 61/3/1
f 63/1/1 61/1/1 60/1/1
f 64/1/1 61/1/1 63/1/1
f 68/4/1 66/4/1 65/4/1
f 69/3/1 67/3/1 66/3/1
f 69/4/1 66/4/1 68/4/1
f 70/2/1 69/2/1 68/2/1
f 71/3/1 67/3/1 69/3/1
f 71/2/1 69/2/1 70/2/1
f 72/3/1 71/3/1 70/3/1
f 73/3/1 67/3/1 71/3/1
f 73/3/1 71/3/1 72/3/1
f 74/1/1 73/1/1 72/1/1
f 75/3/1 67/3/1 73/3/1
f 75/1/1 73/1/1 74/1/1
f 76/3/1 67/3/1 75/3/1
f 77/3/1 75/3/1 74/3/1
f 77/6/1 76/6/1 75/6/1
f 78/6/1 76/6/1 77/6/1
f 79/3/1 77/3/1 74/3/1
f 79/4/1 78/4/1 77/4/1
f 80/4/1 78/4/1 79/4/1
f 81/3/1 79/3/1 74/3/1
f 82/2/1 80/2/1 79/2/1
f 82/3/1 79/3/1 81/3/1
f 83/2/1 80/2/1 82/2/1
f 84/3/1 82/3/1 81/3/1
f 84/3/1 83/3/1 82/3/1
f 85/3/1 83/3/1 84/3/1
f 86/3/1 84/3/1 81/3/1
f 87/1/1 85/1/1 84/1/1
f 87/3/1 84/3/1 86/3/1
f 88/1/1 85/1/1 87/1/1
f 89/3/2 90/3/2 91/3/2
f 91/3/2 90/3/2 92/3/2
f 91/1/2 92/1/2 93/1/2
f 92/3/2 90/3/2 94/3/2
f 93/1/2 92/1/2 94/1/2
f 94/3/2 90/3/2 95/3/2
f 93/3/2 94/3/2 96/3/2
f 94/6/2 95/6/2 96/6/2
f 96/6/2 95/6/2 97/6/2
f 93/3/2 96/3/2 98/3/2
f 96/4/2 97/4/2 98/4/2
f 98/4/2 97/4/2 99/4/2
f 93/3/2 98/3/2 100/3/2
f 98/2/2 99/2/2 101/2/2
f 100/3/2 98/3/2 101/3/2
f 101/2/2 99/2/2 102/2/2
f 100/6/2 101/6/2 103/6/2
f 101/3/2 102/3/2 104/3/2
f 103/6/2 101/6/2 104/6/2
f 103/4/2 104/4/2 105/4/2
f 104/3/2 102/3/2 106/3/2
f 105/4/2 104/4/2 106/4/2
f 106/3/2 102/3/2 107/3/2
f 105/4/2 106/4/2 108/4/2
f 106/1/2 107/1/2 109/1/2
f 108/4/2 106/4/2 109/4/2
f 109/1/2 107/1/2 110/1/2
f 108/3/2 109/3/2 111/3/2
f 109/3/2 110/3/2 111/3/2
f 111/3/2 110/3/2 112/3/2
f 112/3/2 110/3/2 113/3/2
f 114/3/2 115/3/2 118/3/2
f 116/3/2 117/3/2 119/3/2
f 119/3/2 117/3/2 120/3/2
f 114/3/2 118/3/2 121/3/2
f 119/1/2 120/1/2 122/1/2
f 122/1/2 120/1/2 123/1/2
f 114/3/2 121/3/2 124/3/2
f 114/3/2 124/3/2 125/3/2
f 114/3/2 125/3/2 126/3/2
f 126/3/2 125/3/2 127/3/2
f 126/1/2 127/1/2 128/1/2
f 128/1/2 127/1/2 129/1/2
f 122/3/2 123/3/2 130/3/2
f 130/3/2 123/3/2 131/3/2
f 128/3/2 129/3/2 132/3/2
f 132/3/2 129/3/2 133/3/2
f 131/3/2 123/3/2 134/3/2
f 134/3/2 123/3/2 135/3/2
f 135/3/2 123/3/2 136/3/2
f 136/3/2 123/3/2 138/3/2
f 138/3/2 123/3/2 139/3/2
f 137/3/2 138/3/2 140/3/2
f 140/3/2 138/3/2 141/3/2
f 142/3/2 143/3/2 144/3/2
f 144/3/2 143/3/2 145/3/2
f 145/3/2 143/3/2 146/3/2
f 144/6/2 145/6/2 147/6/2
f 145/1/2 146/1/2 148/1/2
f 147/6/2 145/6/2 148/6/2
f 148/1/2 146/1/2 149/1/2
f 147/4/2 148/4/2 150/4/2
f 148/3/2 149/3/2 151/3/2
f 150/4/2 148/4/2 151/4/2
f 150/2/2 151/2/2 152/2/2
f 151/3/2 149/3/2 153/3/2
f 152/2/2 151/2/2 153/2/2
f 152/3/2 153/3/2 154/3/2
f 153/3/2 149/3/2 155/3/2
f 154/3/2 153/3/2 155/3/2
f 154/1/2 155/1/2 156/1/2
f 155/3/2 149/3/2 157/3/2
f 156/1/2 155/1/2 157/1/2
f 157/3/2 149/3/2 158/3/2
f 156/3/2 157/3/2 159/3/2
f 157/6/2 158/6/2 159/6/2
f 159/6/2 158/6/2 160/6/2
f 156/3/2 159/3/2 162/3/2
f 159/4/2 160/4/2 163/4/2
f 162/3/2 159/3/2 163/3/2
f 163/4/2 160/4/2 164/4/2
f 161/3/2 162/3/2 165/3/2
f 162/3/2 163/3/2 165/3/2
f 163/2/2 164/2/2 165/2/2
f 165/2/2 164/2/2 166/2/2
f 161/3/2 165/3/2 167/3/2
f 165/3/2 166/3/2 167/3/2
f 167/3/2 166/3/2 168/3/2
f 161/3/2 167/3/2 169/3/2
f 167/1/2 168/1/2 170/1/2
f 169/3/2 167/3/2 170/3/2
f 170/1/2 168/1/2 171/1/2
f 161/3/2 169/3/2 172/3/2
f 169/1/2 170/1/2 173/1/2
f 172/3/2 169/3/2 173/3/2
f 173/1/2 170/1/2 174/1/2
f 183/2/3 176/2/3 175/2/3
f 184/2/3 176/2/3 183/2/3
f 185/3/3 177/3/3 176/3/3
f 185/2/3 176/2/3 184/2/3
f 186/3/3 177/3/3 185/3/3
f 187/3/3 179/3/3 178/3/3
f 187/1/3 180/1/3 179/1/3
f 188/3/3 181/3/3 180/3/3
f 188/1/3 180/1/3 187/1/3
f 189/3/3 181/3/3 188/3/3
f 190/6/3 182/6/3 181/6/3
f 190/3/3 181/3/3 189/3/3
f 191/4/3 183/4/3 182/4/3
f 191/6/3 182/6/3 190/6/3
f 192/2/3 184/2/3 183/2/3
f 192/4/3 183/4/3 191/4/3
f 193/5/3 186/5/3 185/5/3
f 193/2/3 184/2/3 192/2/3
f 193/5/3 185/5/3 184/5/3
f 194/3/3 189/3/3 188/3/3
f 194/3/3 187/3/3 178/3/3
f 194/3/3 188/3/3 187/3/3
f 195/1/3 190/1/3 189/1/3
f 195/3/3 189/3/3 194/3/3
f 196/3/3 191/3/3 190/3/3
f 196/1/3 190/1/3 195/1/3
f 196/3/3 192/3/3 191/3/3
f 196/3/3 193/3/3 192/3/3
f 197/3/3 193/3/3 196/3/3
f 198/5/3 186/5/3 193/5/3
f 198/3/3 193/3/3 197/3/3
f 199/5/3 186/5/3 198/5/3
f 200/3/3 199/3/3 198/3/3
f 200/3/3 198/3/3 197/3/3
f 201/3/3 199/3/3 200/3/3
f 209/1/3 203/1/3 202/1/3
f 210/3/3 204/3/3 203/3/3
f 210/1/3 203/1/3 209/1/3
f 211/1/3 205/1/3 204/1/3
f 211/3/3 204/3/3 210/3/3
f 212/3/3 206/3/3 205/3/3
f 212/1/3 205/1/3 211/1/3
f 213/6/3 207/6/3 206/6/3
f 213/3/3 206/3/3 212/3/3
f 214/4/3 208/4/3 207/4/3
f 214/6/3 207/6/3 213/6/3
f 215/4/3 208/4/3 214/4/3
f 224/3/3 217/3/3 216/3/3
f 225/6/3 218/6/3 217/6/3
f 225/3/3 217/3/3 224/3/3
f 226/4/3 219/4/3 218/4/3
f 226/6/3 218/6/3 225/6/3
f 227/2/3 220/2/3 219/2/3
f 227/4/3 219/4/3 226/4/3
f 228/3/3 221/3/3 220/3/3
f 228/2/3 220/2/3 227/2/3
f 229/1/3 222/1/3 221/1/3
f 229/3/3 221/3/3 228/3/3
f 230/3/3 223/3/3 222/3/3
f 230/1/3 222/1/3 229/1/3
f 231/3/3 223/3/3 230/3/3
f 240/3/3 233/3/3 232/3/3
f 240/6/3 234/6/3 233/6/3
f 241/3/3 235/3/3 234/3/3
f 241/6/3 234/6/3 240/6/3
f 241/3/3 236/3/3 235/3/3
f 241/3/3 237/3/3 236/3/3
f 242/1/3 238/1/3 237/1/3
f 242/3/3 237/3/3 241/3/3
f 243/3/3 239/3/3 238/3/3
f 243/1/3 238/1/3 242/1/3
f 244/3/3 239/3/3 243/3/3
f 245/3/3 242/3/3 241/3/3
f 245/3/3 241/3/3 240/3/3
f 245/3/3 244/3/3 243/3/3
f 245/3/3 243/3/3 242/3/3
f 245/3/3 240/3/3 232/3/3
f 246/3/3 244/3/3 245/3/3
f 247/3/3 244/3/3 246/3/3
f 248/3/3 244/3/3 247/3/3
f 249/3/3 244/3/3 248/3/3
f 250/3/3 244/3/3 249/3/3
f 251/3/3 244/3/3 250/3/3
f 252/3/4 253/3/4 260/3/4
f 253/1/4 254/1/4 260/1/4
f 254/3/4 255/3/4 261/3/4
f 260/1/4 254/1/4 261/1/4
f 261/3/4 255/3/4 262/3/4
f 255/6/4 256/6/4 263/6/4
f 262/3/4 255/3/4 263/3/4
f 256/4/4 257/4/4 264/4/4
f 263/6/4 256/6/4 264/6/4
f 257/2/4 258/2/4 265/2/4
f 264/4/4 257/4/4 265/4/4
f 258/5/4 259/5/4 266/5/4
f 265/2/4 258/2/4 266/2/4
f 252/3/4 260/3/4 267/3/4
f 261/3/4 262/3/4 267/3/4
f 260/3/4 261/3/4 267/3/4
f 267/3/4 262/3/4 268/3/4
f 268/3/4 262/3/4 269/3/4
f 262/1/4 263/1/4 270/1/4
f 269/3/4 262/3/4 270/3/4
f 264/3/4 265/3/4 271/3/4
f 270/1/4 263/1/4 271/1/4
f 263/3/4 264/3/4 271/3/4
f 265/3/4 266/3/4 271/3/4
f 266/5/4 259/5/4 272/5/4
f 271/3/4 266/3/4 272/3/4
f 272/5/4 259/5/4 273/5/4
f 274/1/4 275/1/4 276/1/4
f 276/1/4 275/1/4 277/1/4
f 278/1/4 279/1/4 280/1/4
f 280/1/4 279/1/4 281/1/4
f 282/1/4 283/1/4 291/1/4
f 283/3/4 284/3/4 292/3/4
f 291/1/4 283/1/4 292/1/4
f 284/6/4 285/6/4 293/6/4
f 292/3/4 284/3/4 293/3/4
f 285/4/4 286/4/4 294/4/4
f 293/6/4 285/6/4 294/6/4
f 286/2/4 287/2/4 295/2/4
f 294/4/4 286/4/4 295/4/4
f 287/3/4 288/3/4 296/3/4
f 295/2/4 287/2/4 296/2/4
f 288/1/4 289/1/4 297/1/4
f 296/3/4 288/3/4 297/3/4
f 289/3/4 290/3/4 298/3/4
f 297/1/4 289/1/4 298/1/4
f 298/3/4 290/3/4 299/3/4
f 299/1/4 300/1/4 301/1/4
f 301/1/4 300/1/4 302/1/4
f 301/3/4 302/3/4 311/3/4
f 311/3/4 302/3/4 312/3/4
f 303/3/4 304/3/4 313/3/4
f 304/1/4 305/1/4 314/1/4
f 313/3/4 304/3/4 314/3/4
f 305/3/4 306/3/4 315/3/4
f 314/1/4 305/1/4 315/1/4
f 306/6/4 307/6/4 316/6/4
f 315/3/4 306/3/4 316/3/4
f 307/4/4 308/4/4 317/4/4
f 316/6/4 307/6/4 317/6/4
f 308/2/4 309/2/4 318/2/4
f 317/4/4 308/4/4 318/4/4
f 309/3/4 310/3/4 319/3/4
f 318/2/4 309/2/4 319/2/4
f 310/1/4 311/1/4 320/1/4
f 319/3/4 310/3/4 320/3/4
f 320/1/4 311/1/4 321/1/4
f 322/3/4 323/3/4 328/3/4
f 328/3/4 323/3/4 329/3/4
f 323/6/4 324/6/4 330/6/4
f 329/3/4 323/3/4 330/3/4
f 324/3/4 325/3/4 331/3/4
f 330/6/4 324/6/4 331/6/4
f 325/1/4 326/1/4 332/1/4
f 331/3/4 325/3/4 332/3/4
f 326/3/4 327/3/4 333/3/4
f 332/1/4 326/1/4 333/1/4
f 322/3/4 328/3/4 334/3/4
f 328/1/4 329/1/4 335/1/4
f 334/3/4 328/3/4 335/3/4
f 331/3/4 332/3/4 336/3/4
f 335/1/4 329/1/4 336/1/4
f 329/3/4 330/3/4 336/3/4
f 332/3/4 333/3/4 336/3/4
f 330/3/4 331/3/4 336/3/4
f 333/3/4 327/3/4 337/3/4
f 336/3/4 333/3/4 337/3/4
f 341/3/5 339/3/5 338/3/5
f 342/3/5 339/3/5 341/3/5
f 344/1/5 341/1/5 340/1/5
f 345/3/5 343/3/5 342/3/5
f 345/1/5 341/1/5 344/1/5
f 345/3/5 342/3/5 341/3/5
f 346/3/5 343/3/5 345/3/5
f 347/3/5 343/3/5 346/3/5
f 348/3/5 346/3/5 345/3/5
f 349/3/5 346/3/5 348/3/5
f 354/2/5 351/2/5 350/2/5
f 355/2/5 351/2/5 354/2/5
f 356/3/5 353/3/5 352/3/5
f 357/3/5 353/3/5 356/3/5
f 360/3/5 359/3/5 358/3/5
f 361/3/5 359/3/5 360/3/5
f 362/3/5 359/3/5 361/3/5
f 363/1/5 361/1/5 360/1/5
f 364/3/5 362/3/5 361/3/5
f 364/1/5 361/1/5 363/1/5
f 365/3/5 362/3/5 364/3/5
f 366/3/6 367/3/6 368/3/6
f 366/3/6 368/3/6 369/3/6
f 369/3/6 368/3/6 370/3/6
f 371/3/6 372/3/6 375/3/6
f 375/3/6 372/3/6 376/3/6
f 373/1/6 374/1/6 378/1/6
f 378/1/6 374/1/6 379/1/6
f 376/3/6 377/3/6 380/3/6
f 377/3/6 378/3/6 380/3/6
f 380/3/6 378/3/6 381/3/6
f 382/3/6 383/3/6 386/3/6
f 383/5/6 384/5/6 387/5/6
f 386/3/6 383/3/6 387/3/6
f 384/3/6 385/3/6 388/3/6
f 387/5/6 384/5/6 388/5/6
f 388/3/6 385/3/6 389/3/6
f 386/1/6 387/1/6 390/1/6
f 387/3/6 388/3/6 391/3/6
f 390/1/6 387/1/6 391/1/6
f 391/3/6 388/3/6 392/3/6
f 388/1/6 389/1/6 393/1/6
f 392/3/6 388/3/6 393/3/6
f 393/1/6 389/1/6 394/1/6
f 391/1/6 392/1/6 395/1/6
f 392/3/6 393/3/6 396/3/6
f 395/1/6 392/1/6 396/1/6
f 396/3/6 393/3/6 397/3/6
