# MagicaVoxel @ Ephtracy

# group
o 

# material
mtllib head-0.mtl
usemtl palette

# normals
vn -1 0 0
vn 1 0 0
vn 0 0 1
vn 0 0 -1
vn 0 -1 0
vn 0 1 0

# texcoords
vt 0.888672 0.5
vt 0.919922 0.5
vt 0.939453 0.5
vt 0.951172 0.5
vt 0.970703 0.5
vt 0.978516 0.5
vt 0.982422 0.5

# verts
v -0.5 3.6 0.1
v -0.5 3.6 0
v -0.5 3.7 0.1
v -0.5 3.7 0
v -0.4 3.6 0
v -0.4 3.6 -0.1
v -0.4 3.7 0
v -0.4 3.7 -0.1
v -0.3 3.2 0.3
v -0.3 3.2 -0.3
v -0.3 3.3 0.2
v -0.3 3.3 0.1
v -0.3 3.3 0
v -0.3 3.3 -0.2
v -0.3 3.4 0.2
v -0.3 3.4 0.1
v -0.3 3.4 0
v -0.3 3.4 -0.2
v -0.3 3.5 -0.2
v -0.3 3.5 -0.3
v -0.3 3.6 0.1
v -0.3 3.6 0
v -0.3 3.6 -0.1
v -0.3 3.6 -0.2
v -0.3 3.6 -0.3
v -0.3 3.7 0.1
v -0.3 3.7 0
v -0.3 3.7 -0.1
v -0.3 3.8 0.2
v -0.3 3.8 0.1
v -0.3 3.8 -0.1
v -0.3 3.8 -0.3
v -0.3 3.9 0.2
v -0.3 3.9 0.1
v -0.3 3.9 0
v -0.3 3.9 -0.1
v -0.3 4.1 0.3
v -0.3 4.1 0
v -0.2 3.2 0.4
v -0.2 3.2 0.3
v -0.2 3.2 -0.3
v -0.2 3.2 -0.4
v -0.2 3.3 0.4
v -0.2 3.3 0.3
v -0.2 3.4 -0.3
v -0.2 3.4 -0.4
v -0.2 3.5 0.4
v -0.2 3.5 0.3
v -0.2 3.5 -0.3
v -0.2 3.5 -0.4
v -0.2 3.6 -0.3
v -0.2 3.8 -0.1
v -0.2 3.8 -0.2
v -0.2 3.8 -0.3
v -0.2 3.8 -0.4
v -0.2 3.9 -0.1
v -0.2 3.9 -0.2
v -0.2 4 0.4
v -0.2 4 0.3
v -0.2 4.1 0.3
v -0.2 4.1 0
v -0.2 4.2 0.4
v -0.2 4.2 0.3
v -0.2 4.2 0
v -0.1 3.9 0
v -0.1 3.9 -0.1
v -0.1 3.9 -0.2
v -0.1 4 0
v -0.1 4 -0.1
v -0.1 4 -0.2
v -0.1 4.2 0.3
v -0.1 4.2 0.1
v -0.1 4.2 0
v -0.1 4.3 0.3
v -0.1 4.3 0.1
v -0.1 4.3 0
v 0 3.7 -0.4
v 0 3.7 -0.5
v 0 3.8 -0.2
v 0 3.8 -0.3
v 0 3.8 -0.4
v 0 3.8 -0.5
v 0 3.9 -0.2
v 0 3.9 -0.3
v 0 3.9 -0.4
v 0 4 0
v 0 4 -0.1
v 0 4 -0.2
v 0 4 -0.3
v 0 4.1 0
v 0 4.1 -0.1
v 0 4.1 -0.2
v 0 4.2 0
v 0 4.2 -0.1
v 0.1 3.5 0.5
v 0.1 3.5 0.4
v 0.1 3.5 -0.4
v 0.1 3.5 -0.5
v 0.1 3.6 0.5
v 0.1 3.6 0.4
v 0.1 3.6 -0.4
v 0.1 3.6 -0.5
v 0.1 3.8 -0.4
v 0.1 3.8 -0.5
v 0.1 3.9 -0.3
v 0.1 3.9 -0.4
v 0.1 3.9 -0.5
v 0.1 4 -0.2
v 0.1 4 -0.3
v 0.1 4.1 -0.1
v 0.1 4.1 -0.2
v 0.1 4.1 -0.3
v 0.1 4.2 0
v 0.1 4.2 -0.1
v 0.1 4.2 -0.2
v 0.1 4.2 -0.3
v 0.1 4.2 -0.4
v 0.1 4.3 0
v 0.1 4.3 -0.3
v 0.2 3.6 0.5
v 0.2 3.6 0.4
v 0.2 3.6 -0.4
v 0.2 3.6 -0.5
v 0.2 3.7 0.4
v 0.2 3.7 -0.4
v 0.2 3.8 0.5
v 0.2 3.8 0.4
v 0.2 3.8 -0.4
v 0.2 3.8 -0.5
v 0.1 3.7 -0.4
v 0.1 3.7 -0.5
v 0.1 3.8 -0.4
v 0.1 3.8 -0.5
v 0.2 3.5 0.5
v 0.2 3.5 0.4
v 0.2 3.5 -0.4
v 0.2 3.5 -0.5
v 0.2 3.6 0.5
v 0.2 3.6 0.4
v 0.2 3.6 -0.4
v 0.2 3.6 -0.5
v 0.2 3.8 -0.4
v 0.2 3.8 -0.5
v 0.2 3.9 -0.4
v 0.2 3.9 -0.5
v 0.3 3.6 0.5
v 0.3 3.6 0.4
v 0.3 3.6 -0.4
v 0.3 3.6 -0.5
v 0.3 3.8 0.5
v 0.3 3.8 0.4
v 0.3 3.8 -0.4
v 0.3 3.8 -0.5
v 0.4 4.2 0.3
v 0.4 4.2 0.1
v 0.4 4.2 0
v 0.4 4.2 -0.3
v 0.4 4.3 0.3
v 0.4 4.3 0.1
v 0.4 4.3 0
v 0.4 4.3 -0.3
v 0.5 3.2 0.4
v 0.5 3.2 0.2
v 0.5 3.2 -0.4
v 0.5 3.3 0.4
v 0.5 3.3 0.3
v 0.5 3.3 0.2
v 0.5 3.3 -0.3
v 0.5 3.9 0.3
v 0.5 4 -0.3
v 0.5 4 -0.4
v 0.5 4.1 0.4
v 0.5 4.1 0.3
v 0.5 4.1 0.2
v 0.5 4.1 0.1
v 0.5 4.1 0
v 0.5 4.1 -0.3
v 0.5 4.1 -0.4
v 0.5 4.2 0.4
v 0.5 4.2 0.3
v 0.5 4.2 0.1
v 0.5 4.2 0
v 0.5 4.2 -0.3
v 0.5 4.2 -0.4
v 0.6 3.3 0.3
v 0.6 3.3 -0.3
v 0.6 3.4 0.2
v 0.6 3.4 0.1
v 0.6 3.6 0.2
v 0.6 3.6 0.1
v 0.6 3.7 -0.1
v 0.6 3.7 -0.2
v 0.6 3.8 -0.1
v 0.6 3.8 -0.2
v 0.6 3.9 0.3
v 0.6 3.9 0.2
v 0.6 3.9 -0.1
v 0.6 3.9 -0.2
v 0.6 4 -0.1
v 0.6 4 -0.2
v 0.6 4.1 0.3
v 0.6 4.1 0.2
v 0.6 4.1 -0.3
v 0.1 3.5 0.5
v 0.1 3.6 0.5
v 0.2 3.5 0.5
v 0.2 3.6 0.5
v 0.2 3.8 0.5
v 0.3 3.6 0.5
v 0.3 3.8 0.5
v -0.2 3.2 0.4
v -0.2 3.3 0.4
v -0.2 3.5 0.4
v -0.2 4 0.4
v -0.2 4.2 0.4
v -0.1 3.3 0.4
v -0.1 3.5 0.4
v -0.1 4 0.4
v -0.1 4.2 0.4
v 0 3.5 0.4
v 0 3.6 0.4
v 0.1 3.5 0.4
v 0.1 3.6 0.4
v 0.1 3.7 0.4
v 0.1 3.8 0.4
v 0.1 4.1 0.4
v 0.1 4.2 0.4
v 0.2 3.2 0.4
v 0.2 3.3 0.4
v 0.2 3.5 0.4
v 0.2 3.6 0.4
v 0.2 3.7 0.4
v 0.2 3.8 0.4
v 0.2 4.1 0.4
v 0.2 4.2 0.4
v 0.3 3.5 0.4
v 0.3 3.6 0.4
v 0.3 3.8 0.4
v 0.4 3.2 0.4
v 0.4 3.3 0.4
v 0.4 4.1 0.4
v 0.4 4.2 0.4
v 0.5 3.2 0.4
v 0.5 3.3 0.4
v 0.5 4.1 0.4
v 0.5 4.2 0.4
v -0.3 3.2 0.3
v -0.3 4.1 0.3
v -0.2 3.2 0.3
v -0.2 3.3 0.3
v -0.2 3.5 0.3
v -0.2 4 0.3
v -0.2 4.1 0.3
v -0.1 4.2 0.3
v -0.1 4.3 0.3
v 0 4.2 0.3
v 0 4.3 0.3
v 0.1 4.2 0.3
v 0.1 4.3 0.3
v 0.2 4.2 0.3
v 0.4 4.2 0.3
v 0.4 4.3 0.3
v 0.5 3.3 0.3
v 0.5 3.9 0.3
v 0.5 4.1 0.3
v 0.6 3.3 0.3
v 0.6 3.9 0.3
v 0.6 4.1 0.3
v -0.5 3.6 0.1
v -0.5 3.7 0.1
v -0.4 3.6 0.1
v -0.4 3.7 0.1
v -0.3 3.6 0.1
v -0.3 3.7 0.1
v -0.5 3.6 0
v -0.5 3.7 0
v -0.4 3.6 0
v -0.4 3.7 0
v -0.3 3.9 0
v -0.3 4.1 0
v -0.2 3.9 0
v -0.2 4.1 0
v -0.2 4.2 0
v -0.1 3.9 0
v -0.1 4 0
v -0.1 4.1 0
v -0.1 4.2 0
v -0.1 4.3 0
v 0 4 0
v 0 4.1 0
v 0 4.2 0
v 0.1 4.2 0
v 0.1 4.3 0
v -0.4 3.6 -0.1
v -0.4 3.7 -0.1
v -0.3 3.6 -0.1
v -0.3 3.7 -0.1
v -0.3 3.8 -0.1
v -0.3 3.9 -0.1
v -0.2 3.8 -0.1
v -0.2 3.9 -0.1
v 0 4.1 -0.1
v 0 4.2 -0.1
v 0.1 4.1 -0.1
v 0.1 4.2 -0.1
v -0.2 3.8 -0.2
v -0.2 3.9 -0.2
v -0.1 3.8 -0.2
v -0.1 3.9 -0.2
v -0.1 4 -0.2
v 0 3.8 -0.2
v 0 3.9 -0.2
v 0 4 -0.2
v 0 4.1 -0.2
v 0.1 4 -0.2
v 0.1 4.1 -0.2
v -0.3 3.2 -0.3
v -0.3 3.5 -0.3
v -0.3 3.6 -0.3
v -0.3 3.8 -0.3
v -0.2 3.2 -0.3
v -0.2 3.4 -0.3
v -0.2 3.5 -0.3
v -0.2 3.6 -0.3
v -0.2 3.8 -0.3
v 0 3.9 -0.3
v 0 4 -0.3
v 0.1 3.9 -0.3
v 0.1 4 -0.3
v 0.1 4.2 -0.3
v 0.1 4.3 -0.3
v 0.2 4.2 -0.3
v 0.2 4.3 -0.3
v 0.3 4.2 -0.3
v 0.4 4.2 -0.3
v 0.4 4.3 -0.3
v 0.5 3.3 -0.3
v 0.5 4 -0.3
v 0.5 4.1 -0.3
v 0.6 3.3 -0.3
v 0.6 4.1 -0.3
v -0.2 3.2 -0.4
v -0.2 3.4 -0.4
v -0.2 3.5 -0.4
v -0.2 3.8 -0.4
v -0.1 3.4 -0.4
v -0.1 3.5 -0.4
v 0 3.5 -0.4
v 0 3.6 -0.4
v 0 3.7 -0.4
v 0 3.8 -0.4
v 0 3.9 -0.4
v 0.1 3.2 -0.4
v 0.1 3.3 -0.4
v 0.1 3.5 -0.4
v 0.1 3.6 -0.4
v 0.1 3.7 -0.4
v 0.1 3.8 -0.4
v 0.1 3.9 -0.4
v 0.1 4.2 -0.4
v 0.2 3.5 -0.4
v 0.2 3.6 -0.4
v 0.2 3.7 -0.4
v 0.2 3.8 -0.4
v 0.2 3.9 -0.4
v 0.3 3.6 -0.4
v 0.3 3.8 -0.4
v 0.3 4.1 -0.4
v 0.3 4.2 -0.4
v 0.4 3.2 -0.4
v 0.4 3.3 -0.4
v 0.4 4 -0.4
v 0.4 4.1 -0.4
v 0.4 4.2 -0.4
v 0.5 3.2 -0.4
v 0.5 4 -0.4
v 0.5 4.1 -0.4
v 0.5 4.2 -0.4
v 0 3.7 -0.5
v 0 3.8 -0.5
v 0.1 3.5 -0.5
v 0.1 3.6 -0.5
v 0.1 3.7 -0.5
v 0.1 3.8 -0.5
v 0.1 3.9 -0.5
v 0.2 3.5 -0.5
v 0.2 3.6 -0.5
v 0.2 3.8 -0.5
v 0.2 3.9 -0.5
v 0.3 3.6 -0.5
v 0.3 3.8 -0.5
v -0.2 3.2 0.4
v 0.2 3.2 0.4
v 0.4 3.2 0.4
v 0.5 3.2 0.4
v -0.3 3.2 0.3
v -0.2 3.2 0.3
v 0.2 3.2 0.3
v 0.4 3.2 0.3
v -0.1 3.2 0.2
v 0.4 3.2 0.2
v 0.5 3.2 0.2
v 0 3.2 0.1
v 0.3 3.2 0.1
v 0 3.2 -0.1
v 0.3 3.2 -0.1
v -0.1 3.2 -0.2
v 0.4 3.2 -0.2
v -0.3 3.2 -0.3
v -0.2 3.2 -0.3
v 0.1 3.2 -0.3
v 0.4 3.2 -0.3
v -0.2 3.2 -0.4
v 0.1 3.2 -0.4
v 0.4 3.2 -0.4
v 0.5 3.2 -0.4
v 0.5 3.3 0.3
v 0.6 3.3 0.3
v 0.5 3.3 0.2
v 0.5 3.3 -0.3
v 0.6 3.3 -0.3
v 0.1 3.5 0.5
v 0.2 3.5 0.5
v 0.1 3.5 0.4
v 0.2 3.5 0.4
v 0.1 3.5 -0.4
v 0.2 3.5 -0.4
v 0.1 3.5 -0.5
v 0.2 3.5 -0.5
v 0.2 3.6 0.5
v 0.3 3.6 0.5
v 0.2 3.6 0.4
v 0.3 3.6 0.4
v -0.5 3.6 0.1
v -0.4 3.6 0.1
v -0.3 3.6 0.1
v -0.5 3.6 0
v -0.4 3.6 0
v -0.3 3.6 0
v -0.4 3.6 -0.1
v -0.3 3.6 -0.1
v 0.2 3.6 -0.4
v 0.3 3.6 -0.4
v 0.2 3.6 -0.5
v 0.3 3.6 -0.5
v 0 3.7 -0.4
v 0.1 3.7 -0.4
v 0 3.7 -0.5
v 0.1 3.7 -0.5
v 0.1 3.8 -0.4
v 0.2 3.8 -0.4
v 0.1 3.8 -0.5
v 0.2 3.8 -0.5
v 0.1 3.6 0.5
v 0.2 3.6 0.5
v 0.1 3.6 0.4
v 0.2 3.6 0.4
v 0.1 3.6 -0.4
v 0.2 3.6 -0.4
v 0.1 3.6 -0.5
v 0.2 3.6 -0.5
v -0.5 3.7 0.1
v -0.4 3.7 0.1
v -0.3 3.7 0.1
v -0.5 3.7 0
v -0.4 3.7 0
v -0.3 3.7 0
v -0.4 3.7 -0.1
v -0.3 3.7 -0.1
v 0.2 3.8 0.5
v 0.3 3.8 0.5
v 0.2 3.8 0.4
v 0.3 3.8 0.4
v -0.3 3.8 -0.1
v -0.2 3.8 -0.1
v -0.2 3.8 -0.2
v -0.1 3.8 -0.2
v 0 3.8 -0.2
v -0.3 3.8 -0.3
v -0.2 3.8 -0.3
v -0.1 3.8 -0.3
v 0 3.8 -0.3
v -0.2 3.8 -0.4
v 0 3.8 -0.4
v 0.1 3.8 -0.4
v 0.2 3.8 -0.4
v 0.3 3.8 -0.4
v 0 3.8 -0.5
v 0.1 3.8 -0.5
v 0.2 3.8 -0.5
v 0.3 3.8 -0.5
v -0.3 3.9 0
v -0.2 3.9 0
v -0.1 3.9 0
v -0.3 3.9 -0.1
v -0.2 3.9 -0.1
v -0.1 3.9 -0.1
v -0.2 3.9 -0.2
v -0.1 3.9 -0.2
v 0 3.9 -0.3
v 0.1 3.9 -0.3
v 0 3.9 -0.4
v 0.1 3.9 -0.4
v 0.2 3.9 -0.4
v 0.1 3.9 -0.5
v 0.2 3.9 -0.5
v -0.1 4 0
v 0 4 0
v -0.1 4 -0.1
v 0 4 -0.1
v -0.1 4 -0.2
v 0 4 -0.2
v 0.1 4 -0.2
v 0 4 -0.3
v 0.1 4 -0.3
v -0.3 4.1 0.3
v -0.2 4.1 0.3
v 0.5 4.1 0.3
v 0.6 4.1 0.3
v 0.5 4.1 0.2
v 0.6 4.1 0.2
v 0.5 4.1 0.1
v -0.3 4.1 0
v -0.2 4.1 0
v 0.5 4.1 0
v 0 4.1 -0.1
v 0.1 4.1 -0.1
v 0 4.1 -0.2
v 0.1 4.1 -0.2
v 0.5 4.1 -0.3
v 0.6 4.1 -0.3
v -0.2 4.2 0.4
v -0.1 4.2 0.4
v 0.1 4.2 0.4
v 0.2 4.2 0.4
v 0.4 4.2 0.4
v 0.5 4.2 0.4
v -0.2 4.2 0.3
v -0.1 4.2 0.3
v 0 4.2 0.3
v 0.1 4.2 0.3
v 0.2 4.2 0.3
v 0.4 4.2 0.3
v 0.5 4.2 0.3
v -0.1 4.2 0.1
v 0.4 4.2 0.1
v 0.5 4.2 0.1
v -0.2 4.2 0
v -0.1 4.2 0
v 0 4.2 0
v 0.1 4.2 0
v 0.4 4.2 0
v 0.5 4.2 0
v 0 4.2 -0.1
v 0.1 4.2 -0.1
v 0.1 4.2 -0.3
v 0.2 4.2 -0.3
v 0.3 4.2 -0.3
v 0.4 4.2 -0.3
v 0.5 4.2 -0.3
v 0.1 4.2 -0.4
v 0.3 4.2 -0.4
v 0.4 4.2 -0.4
v 0.5 4.2 -0.4
v -0.1 4.3 0.3
v 0 4.3 0.3
v 0.1 4.3 0.3
v 0.4 4.3 0.3
v 0 4.3 0.2
v 0.1 4.3 0.2
v 0.2 4.3 0.2
v 0.3 4.3 0.2
v -0.1 4.3 0.1
v 0.1 4.3 0.1
v 0.2 4.3 0.1
v 0.3 4.3 0.1
v 0.4 4.3 0.1
v -0.1 4.3 0
v 0.1 4.3 0
v 0.2 4.3 0
v 0.3 4.3 0
v 0.4 4.3 0
v 0.1 4.3 -0.3
v 0.2 4.3 -0.3
v 0.4 4.3 -0.3

# faces
f 3/3/1 2/3/1 1/3/1
f 4/3/1 2/3/1 3/3/1
f 7/3/1 6/3/1 5/3/1
f 8/3/1 6/3/1 7/3/1
f 11/3/1 10/3/1 9/3/1
f 12/3/1 10/3/1 11/3/1
f 13/3/1 10/3/1 12/3/1
f 14/3/1 10/3/1 13/3/1
f 15/3/1 11/3/1 9/3/1
f 15/4/1 12/4/1 11/4/1
f 16/3/1 13/3/1 12/3/1
f 16/4/1 12/4/1 15/4/1
f 17/4/1 14/4/1 13/4/1
f 17/3/1 13/3/1 16/3/1
f 18/3/1 10/3/1 14/3/1
f 18/4/1 14/4/1 17/4/1
f 19/3/1 17/3/1 16/3/1
f 19/3/1 10/3/1 18/3/1
f 19/3/1 18/3/1 17/3/1
f 19/3/1 16/3/1 15/3/1
f 20/3/1 10/3/1 19/3/1
f 21/3/1 19/3/1 15/3/1
f 22/3/1 19/3/1 21/3/1
f 23/3/1 19/3/1 22/3/1
f 24/5/1 20/5/1 19/5/1
f 24/3/1 19/3/1 23/3/1
f 25/5/1 20/5/1 24/5/1
f 26/3/1 21/3/1 15/3/1
f 28/3/1 25/3/1 24/3/1
f 28/3/1 24/3/1 23/3/1
f 29/3/1 15/3/1 9/3/1
f 29/3/1 28/3/1 27/3/1
f 29/3/1 27/3/1 26/3/1
f 29/3/1 26/3/1 15/3/1
f 30/3/1 28/3/1 29/3/1
f 31/3/1 25/3/1 28/3/1
f 31/3/1 28/3/1 30/3/1
f 32/3/1 25/3/1 31/3/1
f 33/1/1 30/1/1 29/1/1
f 33/3/1 29/3/1 9/3/1
f 34/3/1 31/3/1 30/3/1
f 34/1/1 30/1/1 33/1/1
f 35/3/1 31/3/1 34/3/1
f 36/3/1 31/3/1 35/3/1
f 37/3/1 33/3/1 9/3/1
f 37/3/1 34/3/1 33/3/1
f 37/3/1 35/3/1 34/3/1
f 38/3/1 35/3/1 37/3/1
f 43/3/1 40/3/1 39/3/1
f 44/3/1 40/3/1 43/3/1
f 45/3/1 42/3/1 41/3/1
f 46/3/1 42/3/1 45/3/1
f 47/5/1 44/5/1 43/5/1
f 48/5/1 44/5/1 47/5/1
f 49/5/1 46/5/1 45/5/1
f 50/5/1 46/5/1 49/5/1
f 51/3/1 50/3/1 49/3/1
f 54/3/1 50/3/1 51/3/1
f 55/3/1 50/3/1 54/3/1
f 56/4/1 53/4/1 52/4/1
f 57/4/1 53/4/1 56/4/1
f 58/3/1 48/3/1 47/3/1
f 59/3/1 48/3/1 58/3/1
f 60/5/1 59/5/1 58/5/1
f 62/5/1 60/5/1 58/5/1
f 63/3/1 61/3/1 60/3/1
f 63/5/1 60/5/1 62/5/1
f 64/3/1 61/3/1 63/3/1
f 68/4/1 66/4/1 65/4/1
f 69/2/1 67/2/1 66/2/1
f 69/4/1 66/4/1 68/4/1
f 70/2/1 67/2/1 69/2/1
f 74/6/1 72/6/1 71/6/1
f 75/3/1 73/3/1 72/3/1
f 75/6/1 72/6/1 74/6/1
f 76/3/1 73/3/1 75/3/1
f 81/3/1 78/3/1 77/3/1
f 82/3/1 78/3/1 81/3/1
f 83/2/1 80/2/1 79/2/1
f 84/3/1 81/3/1 80/3/1
f 84/2/1 80/2/1 83/2/1
f 85/3/1 81/3/1 84/3/1
f 88/4/1 84/4/1 83/4/1
f 89/4/1 84/4/1 88/4/1
f 90/7/1 87/7/1 86/7/1
f 91/4/1 88/4/1 87/4/1
f 91/7/1 87/7/1 90/7/1
f 92/4/1 88/4/1 91/4/1
f 93/4/1 91/4/1 90/4/1
f 94/4/1 91/4/1 93/4/1
f 99/3/1 96/3/1 95/3/1
f 100/3/1 96/3/1 99/3/1
f 101/3/1 98/3/1 97/3/1
f 102/3/1 98/3/1 101/3/1
f 106/3/1 104/3/1 103/3/1
f 107/3/1 104/3/1 106/3/1
f 109/3/1 106/3/1 105/3/1
f 111/4/1 109/4/1 108/4/1
f 112/3/1 106/3/1 109/3/1
f 112/4/1 109/4/1 111/4/1
f 114/2/1 111/2/1 110/2/1
f 115/7/1 112/7/1 111/7/1
f 115/2/1 111/2/1 114/2/1
f 116/3/1 106/3/1 112/3/1
f 116/7/1 112/7/1 115/7/1
f 117/3/1 106/3/1 116/3/1
f 118/3/1 115/3/1 114/3/1
f 118/3/1 114/3/1 113/3/1
f 118/3/1 116/3/1 115/3/1
f 119/3/1 116/3/1 118/3/1
f 124/3/1 121/3/1 120/3/1
f 125/3/1 123/3/1 122/3/1
f 126/3/1 124/3/1 120/3/1
f 127/3/1 124/3/1 126/3/1
f 128/3/1 123/3/1 125/3/1
f 129/3/1 123/3/1 128/3/1
f 130/3/2 131/3/2 132/3/2
f 132/3/2 131/3/2 133/3/2
f 134/3/2 135/3/2 138/3/2
f 138/3/2 135/3/2 139/3/2
f 136/3/2 137/3/2 140/3/2
f 140/3/2 137/3/2 141/3/2
f 142/3/2 143/3/2 144/3/2
f 144/3/2 143/3/2 145/3/2
f 146/3/2 147/3/2 150/3/2
f 150/3/2 147/3/2 151/3/2
f 148/3/2 149/3/2 152/3/2
f 152/3/2 149/3/2 153/3/2
f 154/6/2 155/6/2 158/6/2
f 155/3/2 156/3/2 159/3/2
f 158/6/2 155/6/2 159/6/2
f 156/6/2 157/6/2 160/6/2
f 159/3/2 156/3/2 160/3/2
f 160/6/2 157/6/2 161/6/2
f 162/5/2 163/5/2 165/5/2
f 165/5/2 163/5/2 166/5/2
f 163/3/2 164/3/2 167/3/2
f 166/5/2 163/5/2 167/5/2
f 167/3/2 164/3/2 168/3/2
f 165/3/2 166/3/2 169/3/2
f 168/3/2 164/3/2 170/3/2
f 170/3/2 164/3/2 171/3/2
f 165/3/2 169/3/2 172/3/2
f 172/3/2 169/3/2 173/3/2
f 170/5/2 171/5/2 177/5/2
f 177/5/2 171/5/2 178/5/2
f 172/5/2 173/5/2 179/5/2
f 173/6/2 174/6/2 180/6/2
f 179/5/2 173/5/2 180/5/2
f 174/6/2 175/6/2 180/6/2
f 175/3/2 176/3/2 181/3/2
f 180/6/2 175/6/2 181/6/2
f 176/6/2 177/6/2 182/6/2
f 181/3/2 176/3/2 182/3/2
f 177/3/2 178/3/2 183/3/2
f 182/6/2 177/6/2 183/6/2
f 183/3/2 178/3/2 184/3/2
f 185/6/2 186/6/2 187/6/2
f 187/6/2 186/6/2 188/6/2
f 185/6/2 187/6/2 189/6/2
f 187/3/2 188/3/2 189/3/2
f 188/6/2 186/6/2 190/6/2
f 189/3/2 188/3/2 190/3/2
f 189/6/2 190/6/2 191/6/2
f 190/6/2 186/6/2 191/6/2
f 191/6/2 186/6/2 192/6/2
f 189/6/2 191/6/2 193/6/2
f 191/7/2 192/7/2 193/7/2
f 192/6/2 186/6/2 194/6/2
f 193/7/2 192/7/2 194/7/2
f 185/6/2 189/6/2 195/6/2
f 189/6/2 193/6/2 195/6/2
f 195/6/2 193/6/2 196/6/2
f 193/4/2 194/4/2 197/4/2
f 196/6/2 193/6/2 197/6/2
f 194/6/2 186/6/2 198/6/2
f 197/4/2 194/4/2 198/4/2
f 196/6/2 197/6/2 199/6/2
f 197/2/2 198/2/2 199/2/2
f 198/6/2 186/6/2 200/6/2
f 199/2/2 198/2/2 200/2/2
f 195/3/2 196/3/2 201/3/2
f 196/6/2 199/6/2 202/6/2
f 201/3/2 196/3/2 202/3/2
f 199/6/2 200/6/2 202/6/2
f 200/6/2 186/6/2 203/6/2
f 202/6/2 200/6/2 203/6/2
f 206/3/3 205/3/3 204/3/3
f 207/3/3 205/3/3 206/3/3
f 209/3/3 208/3/3 207/3/3
f 210/3/3 208/3/3 209/3/3
f 216/3/3 212/3/3 211/3/3
f 216/5/3 213/5/3 212/5/3
f 217/3/3 214/3/3 213/3/3
f 217/5/3 213/5/3 216/5/3
f 218/5/3 215/5/3 214/5/3
f 218/3/3 214/3/3 217/3/3
f 219/5/3 215/5/3 218/5/3
f 220/3/3 217/3/3 216/3/3
f 220/3/3 218/3/3 217/3/3
f 220/3/3 219/3/3 218/3/3
f 221/3/3 219/3/3 220/3/3
f 222/3/3 220/3/3 216/3/3
f 222/4/3 221/4/3 220/4/3
f 223/3/3 219/3/3 221/3/3
f 223/4/3 221/4/3 222/4/3
f 224/3/3 219/3/3 223/3/3
f 225/3/3 219/3/3 224/3/3
f 226/3/3 219/3/3 225/3/3
f 227/3/3 219/3/3 226/3/3
f 228/3/3 216/3/3 211/3/3
f 228/3/3 222/3/3 216/3/3
f 229/3/3 222/3/3 228/3/3
f 230/3/3 222/3/3 229/3/3
f 231/4/3 224/4/3 223/4/3
f 232/2/3 225/2/3 224/2/3
f 232/4/3 224/4/3 231/4/3
f 233/3/3 226/3/3 225/3/3
f 233/2/3 225/2/3 232/2/3
f 234/2/3 227/2/3 226/2/3
f 234/3/3 226/3/3 233/3/3
f 235/2/3 227/2/3 234/2/3
f 236/3/3 230/3/3 229/3/3
f 236/7/3 231/7/3 230/7/3
f 237/7/3 231/7/3 236/7/3
f 238/3/3 235/3/3 234/3/3
f 238/3/3 234/3/3 233/3/3
f 239/7/3 229/7/3 228/7/3
f 240/3/3 237/3/3 236/3/3
f 240/7/3 229/7/3 239/7/3
f 240/3/3 236/3/3 229/3/3
f 240/3/3 238/3/3 237/3/3
f 241/3/3 235/3/3 238/3/3
f 241/3/3 238/3/3 240/3/3
f 242/3/3 235/3/3 241/3/3
f 243/5/3 240/5/3 239/5/3
f 244/3/3 241/3/3 240/3/3
f 244/5/3 240/5/3 243/5/3
f 245/5/3 242/5/3 241/5/3
f 245/3/3 241/3/3 244/3/3
f 246/5/3 242/5/3 245/5/3
f 249/3/3 248/3/3 247/3/3
f 250/3/3 248/3/3 249/3/3
f 251/3/3 248/3/3 250/3/3
f 252/3/3 248/3/3 251/3/3
f 253/3/3 248/3/3 252/3/3
f 256/6/3 255/6/3 254/6/3
f 257/6/3 255/6/3 256/6/3
f 258/3/3 257/3/3 256/3/3
f 259/3/3 257/3/3 258/3/3
f 260/6/3 259/6/3 258/6/3
f 261/6/3 259/6/3 260/6/3
f 262/6/3 259/6/3 261/6/3
f 266/6/3 264/6/3 263/6/3
f 267/3/3 265/3/3 264/3/3
f 267/6/3 264/6/3 266/6/3
f 268/3/3 265/3/3 267/3/3
f 271/3/3 270/3/3 269/3/3
f 272/3/3 270/3/3 271/3/3
f 273/5/3 272/5/3 271/5/3
f 274/5/3 272/5/3 273/5/3
f 275/3/4 276/3/4 277/3/4
f 277/3/4 276/3/4 278/3/4
f 279/3/4 280/3/4 281/3/4
f 281/3/4 280/3/4 282/3/4
f 281/7/4 282/7/4 284/7/4
f 284/7/4 282/7/4 285/7/4
f 282/3/4 283/3/4 286/3/4
f 285/7/4 282/7/4 286/7/4
f 286/3/4 283/3/4 287/3/4
f 285/7/4 286/7/4 289/7/4
f 286/2/4 287/2/4 290/2/4
f 289/7/4 286/7/4 290/7/4
f 287/3/4 288/3/4 291/3/4
f 290/2/4 287/2/4 291/2/4
f 291/3/4 288/3/4 292/3/4
f 292/3/4 288/3/4 293/3/4
f 294/3/4 295/3/4 296/3/4
f 296/3/4 295/3/4 297/3/4
f 298/3/4 299/3/4 300/3/4
f 300/3/4 299/3/4 301/3/4
f 302/4/4 303/4/4 304/4/4
f 304/4/4 303/4/4 305/4/4
f 306/4/4 307/4/4 308/4/4
f 308/4/4 307/4/4 309/4/4
f 308/4/4 309/4/4 311/4/4
f 309/2/4 310/2/4 312/2/4
f 311/4/4 309/4/4 312/4/4
f 312/2/4 310/2/4 313/2/4
f 313/4/4 314/4/4 315/4/4
f 315/4/4 314/4/4 316/4/4
f 317/3/4 318/3/4 321/3/4
f 321/3/4 318/3/4 322/3/4
f 318/5/4 319/5/4 323/5/4
f 322/3/4 318/3/4 323/3/4
f 319/3/4 320/3/4 324/3/4
f 323/5/4 319/5/4 324/5/4
f 324/3/4 320/3/4 325/3/4
f 326/4/4 327/4/4 328/4/4
f 328/4/4 327/4/4 329/4/4
f 330/3/4 331/3/4 332/3/4
f 332/3/4 331/3/4 333/3/4
f 332/6/4 333/6/4 334/6/4
f 334/6/4 333/6/4 335/6/4
f 335/6/4 333/6/4 336/6/4
f 337/6/4 338/6/4 340/6/4
f 338/6/4 339/6/4 340/6/4
f 340/6/4 339/6/4 341/6/4
f 342/3/4 343/3/4 346/3/4
f 343/5/4 344/5/4 346/5/4
f 344/3/4 345/3/4 347/3/4
f 346/5/4 344/5/4 347/5/4
f 346/3/4 347/3/4 348/3/4
f 347/3/4 345/3/4 348/3/4
f 348/3/4 345/3/4 349/3/4
f 349/3/4 345/3/4 350/3/4
f 350/3/4 345/3/4 351/3/4
f 342/3/4 346/3/4 353/3/4
f 346/3/4 348/3/4 353/3/4
f 353/3/4 348/3/4 354/3/4
f 348/7/4 349/7/4 355/7/4
f 354/3/4 348/3/4 355/3/4
f 349/3/4 350/3/4 356/3/4
f 355/7/4 349/7/4 356/7/4
f 356/3/4 350/3/4 357/3/4
f 351/3/4 352/3/4 358/3/4
f 358/3/4 352/3/4 359/3/4
f 354/3/4 355/3/4 361/3/4
f 356/4/4 357/4/4 362/4/4
f 357/2/4 358/2/4 363/2/4
f 362/4/4 357/4/4 363/4/4
f 363/2/4 358/2/4 364/2/4
f 359/3/4 360/3/4 365/3/4
f 361/3/4 362/3/4 366/3/4
f 364/3/4 365/3/4 367/3/4
f 365/3/4 360/3/4 368/3/4
f 367/3/4 365/3/4 368/3/4
f 368/3/4 360/3/4 369/3/4
f 353/5/4 354/5/4 370/5/4
f 354/3/4 361/3/4 371/3/4
f 370/5/4 354/5/4 371/5/4
f 361/3/4 366/3/4 371/3/4
f 366/3/4 367/3/4 371/3/4
f 367/3/4 368/3/4 371/3/4
f 371/3/4 368/3/4 372/3/4
f 368/5/4 369/5/4 373/5/4
f 372/3/4 368/3/4 373/3/4
f 373/5/4 369/5/4 374/5/4
f 371/3/4 372/3/4 375/3/4
f 370/3/4 371/3/4 375/3/4
f 372/5/4 373/5/4 376/5/4
f 375/3/4 372/3/4 376/3/4
f 373/3/4 374/3/4 377/3/4
f 376/5/4 373/5/4 377/5/4
f 377/3/4 374/3/4 378/3/4
f 379/3/4 380/3/4 383/3/4
f 383/3/4 380/3/4 384/3/4
f 381/3/4 382/3/4 386/3/4
f 386/3/4 382/3/4 387/3/4
f 384/3/4 385/3/4 388/3/4
f 388/3/4 385/3/4 389/3/4
f 387/3/4 388/3/4 390/3/4
f 390/3/4 388/3/4 391/3/4
f 397/3/5 393/3/5 392/3/5
f 398/7/5 394/7/5 393/7/5
f 398/3/5 393/3/5 397/3/5
f 399/5/5 395/5/5 394/5/5
f 399/7/5 394/7/5 398/7/5
f 400/3/5 398/3/5 397/3/5
f 400/3/5 397/3/5 396/3/5
f 400/3/5 399/3/5 398/3/5
f 401/5/5 395/5/5 399/5/5
f 401/3/5 399/3/5 400/3/5
f 402/5/5 395/5/5 401/5/5
f 403/4/5 401/4/5 400/4/5
f 404/4/5 401/4/5 403/4/5
f 405/4/5 403/4/5 400/4/5
f 405/2/5 404/2/5 403/2/5
f 406/4/5 401/4/5 404/4/5
f 406/2/5 404/2/5 405/2/5
f 407/3/5 400/3/5 396/3/5
f 407/4/5 405/4/5 400/4/5
f 407/4/5 406/4/5 405/4/5
f 408/4/5 401/4/5 406/4/5
f 408/4/5 406/4/5 407/4/5
f 408/3/5 402/3/5 401/3/5
f 409/3/5 407/3/5 396/3/5
f 409/3/5 408/3/5 407/3/5
f 410/3/5 408/3/5 409/3/5
f 411/3/5 408/3/5 410/3/5
f 412/3/5 402/3/5 408/3/5
f 412/3/5 408/3/5 411/3/5
f 413/3/5 411/3/5 410/3/5
f 414/5/5 412/5/5 411/5/5
f 414/3/5 411/3/5 413/3/5
f 415/3/5 402/3/5 412/3/5
f 415/5/5 412/5/5 414/5/5
f 416/3/5 402/3/5 415/3/5
f 419/6/5 418/6/5 417/6/5
f 420/6/5 418/6/5 419/6/5
f 421/6/5 418/6/5 420/6/5
f 424/3/5 423/3/5 422/3/5
f 425/3/5 423/3/5 424/3/5
f 428/3/5 427/3/5 426/3/5
f 429/3/5 427/3/5 428/3/5
f 432/3/5 431/3/5 430/3/5
f 433/3/5 431/3/5 432/3/5
f 437/3/5 435/3/5 434/3/5
f 438/5/5 436/5/5 435/5/5
f 438/3/5 435/3/5 437/3/5
f 439/5/5 436/5/5 438/5/5
f 440/3/5 439/3/5 438/3/5
f 441/3/5 439/3/5 440/3/5
f 444/3/5 443/3/5 442/3/5
f 445/3/5 443/3/5 444/3/5
f 448/3/5 447/3/5 446/3/5
f 449/3/5 447/3/5 448/3/5
f 452/3/5 451/3/5 450/3/5
f 453/3/5 451/3/5 452/3/5
f 454/3/6 455/3/6 456/3/6
f 456/3/6 455/3/6 457/3/6
f 458/3/6 459/3/6 460/3/6
f 460/3/6 459/3/6 461/3/6
f 462/3/6 463/3/6 465/3/6
f 463/5/6 464/5/6 466/5/6
f 465/3/6 463/3/6 466/3/6
f 466/5/6 464/5/6 467/5/6
f 466/3/6 467/3/6 468/3/6
f 468/3/6 467/3/6 469/3/6
f 470/3/6 471/3/6 472/3/6
f 472/3/6 471/3/6 473/3/6
f 474/3/6 475/3/6 476/3/6
f 474/3/6 476/3/6 479/3/6
f 476/2/6 477/2/6 480/2/6
f 479/3/6 476/3/6 480/3/6
f 477/7/6 478/7/6 481/7/6
f 480/2/6 477/2/6 481/2/6
f 481/7/6 478/7/6 482/7/6
f 480/3/6 481/3/6 483/3/6
f 481/3/6 482/3/6 483/3/6
f 483/3/6 482/3/6 484/3/6
f 484/3/6 485/3/6 488/3/6
f 488/3/6 485/3/6 489/3/6
f 486/3/6 487/3/6 490/3/6
f 490/3/6 487/3/6 491/3/6
f 492/3/6 493/3/6 495/3/6
f 493/7/6 494/7/6 496/7/6
f 495/3/6 493/3/6 496/3/6
f 496/7/6 494/7/6 497/7/6
f 496/4/6 497/4/6 498/4/6
f 498/4/6 497/4/6 499/4/6
f 500/3/6 501/3/6 502/3/6
f 502/3/6 501/3/6 503/3/6
f 503/3/6 504/3/6 505/3/6
f 505/3/6 504/3/6 506/3/6
f 507/4/6 508/4/6 509/4/6
f 509/4/6 508/4/6 510/4/6
f 509/2/6 510/2/6 511/2/6
f 511/2/6 510/2/6 512/2/6
f 512/4/6 513/4/6 514/4/6
f 514/4/6 513/4/6 515/4/6
f 518/3/6 519/3/6 520/3/6
f 520/3/6 519/3/6 521/3/6
f 520/6/6 521/6/6 522/6/6
f 516/3/6 517/3/6 523/3/6
f 523/3/6 517/3/6 524/3/6
f 522/6/6 521/6/6 525/6/6
f 526/4/6 527/4/6 528/4/6
f 528/4/6 527/4/6 529/4/6
f 525/6/6 521/6/6 530/6/6
f 530/6/6 521/6/6 531/6/6
f 532/5/6 533/5/6 538/5/6
f 533/3/6 534/3/6 539/3/6
f 538/5/6 533/5/6 539/5/6
f 539/3/6 534/3/6 540/3/6
f 534/2/6 535/2/6 541/2/6
f 540/3/6 534/3/6 541/3/6
f 535/3/6 536/3/6 542/3/6
f 541/2/6 535/2/6 542/2/6
f 536/5/6 537/5/6 543/5/6
f 542/3/6 536/3/6 543/3/6
f 543/5/6 537/5/6 544/5/6
f 538/3/6 539/3/6 545/3/6
f 543/6/6 544/6/6 546/6/6
f 546/6/6 544/6/6 547/6/6
f 538/3/6 545/3/6 548/3/6
f 548/3/6 545/3/6 549/3/6
f 546/3/6 547/3/6 552/3/6
f 552/3/6 547/3/6 553/3/6
f 550/4/6 551/4/6 554/4/6
f 554/4/6 551/4/6 555/4/6
f 552/6/6 553/6/6 559/6/6
f 559/6/6 553/6/6 560/6/6
f 557/3/6 558/3/6 561/3/6
f 556/3/6 557/3/6 561/3/6
f 558/5/6 559/5/6 562/5/6
f 561/3/6 558/3/6 562/3/6
f 559/3/6 560/3/6 563/3/6
f 562/5/6 559/5/6 563/5/6
f 563/3/6 560/3/6 564/3/6
f 565/6/6 566/6/6 569/6/6
f 566/3/6 567/3/6 569/3/6
f 567/6/6 568/6/6 570/6/6
f 569/3/6 567/3/6 570/3/6
f 570/6/6 568/6/6 571/6/6
f 571/6/6 568/6/6 572/6/6
f 565/6/6 569/6/6 573/6/6
f 569/6/6 570/6/6 573/6/6
f 570/6/6 571/6/6 573/6/6
f 573/6/6 571/6/6 574/6/6
f 571/3/6 572/3/6 575/3/6
f 574/6/6 571/6/6 575/6/6
f 572/6/6 568/6/6 576/6/6
f 575/3/6 572/3/6 576/3/6
f 576/6/6 568/6/6 577/6/6
f 573/3/6 574/3/6 578/3/6
f 574/6/6 575/6/6 579/6/6
f 578/3/6 574/3/6 579/3/6
f 575/6/6 576/6/6 579/6/6
f 579/6/6 576/6/6 580/6/6
f 576/3/6 577/3/6 581/3/6
f 580/6/6 576/6/6 581/6/6
f 581/3/6 577/3/6 582/3/6
f 579/3/6 580/3/6 583/3/6
f 581/6/6 582/6/6 584/6/6
f 583/3/6 580/3/6 584/3/6
f 580/6/6 581/6/6 584/6/6
f 584/6/6 582/6/6 585/6/6
