# MagicaVoxel @ Ephtracy

# group
o 

# material
mtllib legs-0.mtl
usemtl palette

# normals
vn -1 0 0
vn 1 0 0
vn 0 0 1
vn 0 0 -1
vn 0 -1 0
vn 0 1 0

# texcoords
vt 0.919922 0.5
vt 0.939453 0.5
vt 0.943359 0.5
vt 0.951172 0.5
vt 0.970703 0.5
vt 0.974609 0.5
vt 0.978516 0.5
vt 0.982422 0.5

# verts
v -0.3 0 0.5
v -0.3 0 0.4
v -0.3 0 0.2
v -0.3 0 0.1
v -0.3 0 -0.2
v -0.3 0 -0.3
v -0.3 0 -0.4
v -0.3 0 -0.5
v -0.3 0.1 0.5
v -0.3 0.1 0.4
v -0.3 0.1 0.2
v -0.3 0.1 0.1
v -0.3 0.1 -0.2
v -0.3 0.1 -0.3
v -0.3 0.1 -0.4
v -0.3 0.1 -0.5
v -0.2 0 0.4
v -0.2 0 0.3
v -0.2 0 0.2
v -0.2 0 -0.1
v -0.2 0 -0.2
v -0.2 0 -0.3
v -0.2 0 -0.4
v -0.2 0.1 0.5
v -0.2 0.1 0.4
v -0.2 0.1 0.3
v -0.2 0.1 0.2
v -0.2 0.1 0.1
v -0.2 0.1 -0.2
v -0.2 0.1 -0.3
v -0.2 0.1 -0.4
v -0.2 0.1 -0.5
v -0.2 0.2 0.5
v -0.2 0.2 0.1
v -0.2 0.2 -0.1
v -0.2 0.2 -0.5
v -0.2 0.6 0.5
v -0.2 0.6 0.3
v -0.2 0.6 0.2
v -0.2 0.6 0.1
v -0.2 0.6 -0.1
v -0.2 0.6 -0.2
v -0.2 0.6 -0.3
v -0.2 0.6 -0.5
v -0.2 0.7 0.3
v -0.2 0.7 0.2
v -0.2 0.7 -0.1
v -0.2 0.7 -0.2
v -0.2 0.7 -0.3
v -0.2 0.8 0.5
v -0.2 0.8 0.2
v -0.2 0.8 -0.1
v -0.2 0.8 -0.2
v -0.2 0.8 -0.5
v -0.2 0.9 0.5
v -0.2 0.9 0.2
v -0.2 0.9 -0.2
v -0.2 0.9 -0.5
v -0.2 1 0.5
v -0.2 1 0.1
v -0.2 1 -0.1
v -0.2 1 -0.5
v -0.1 0.2 0.5
v -0.1 0.2 0.1
v -0.1 0.2 -0.1
v -0.1 0.2 -0.5
v -0.1 0.4 0.3
v -0.1 0.4 0.1
v -0.1 0.4 -0.1
v -0.1 0.4 -0.3
v -0.1 0.5 0.3
v -0.1 0.5 0.1
v -0.1 0.5 -0.1
v -0.1 0.5 -0.3
v -0.1 0.6 0.5
v -0.1 0.6 0.3
v -0.1 0.6 0.2
v -0.1 0.6 0.1
v -0.1 0.6 -0.1
v -0.1 0.6 -0.2
v -0.1 0.6 -0.3
v -0.1 0.6 -0.5
v -0.1 1 0.5
v -0.1 1 0.4
v -0.1 1 0.1
v -0.1 1 -0.1
v -0.1 1 -0.5
v -0.1 1.1 0.5
v -0.1 1.1 0.4
v -0.1 1.1 0.3
v -0.1 1.1 -0.2
v -0.1 1.1 -0.3
v -0.1 1.2 0.5
v -0.1 1.2 0.4
v -0.1 1.2 -0.2
v -0.1 1.2 -0.3
v -0.1 1.2 -0.4
v -0.1 1.3 0.4
v -0.1 1.3 0.3
v -0.1 1.3 0.2
v -0.1 1.3 0.1
v -0.1 1.3 -0.2
v -0.1 1.3 -0.3
v -0.1 1.3 -0.4
v -0.1 1.5 0.2
v -0.1 1.5 0.1
v -0.1 1.6 0.5
v -0.1 1.6 0.1
v -0.1 1.6 -0.1
v -0.1 1.6 -0.5
v 0.2 0.5 0.5
v 0.2 0.5 0.4
v 0.2 0.5 0.2
v 0.2 0.5 0.1
v 0.2 0.5 -0.1
v 0.2 0.5 -0.2
v 0.2 0.5 -0.4
v 0.2 0.5 -0.5
v 0.2 0.6 0.4
v 0.2 0.6 0.2
v 0.2 0.6 0.1
v 0.2 0.6 -0.2
v 0.2 0.6 -0.4
v 0.2 0.7 0.5
v 0.2 0.7 0.3
v 0.2 0.7 -0.3
v 0.2 0.7 -0.5
v 0.2 0.8 0.5
v 0.2 0.8 0.3
v 0.2 0.8 -0.3
v 0.2 0.8 -0.5
v 0.2 0.9 0.3
v 0.2 0.9 0.1
v 0.2 0.9 -0.1
v 0.2 0.9 -0.3
v 0.2 1 0.3
v 0.2 1 0.1
v 0.2 1 -0.1
v 0.2 1 -0.3
v 0.2 1.1 0.5
v 0.2 1.1 0.1
v 0.2 1.1 -0.1
v 0.2 1.1 -0.5
v 0.3 0 0.5
v 0.3 0 0.1
v 0.3 0 -0.1
v 0.3 0 -0.5
v 0.3 0.2 0.5
v 0.3 0.2 0.1
v 0.3 0.2 -0.1
v 0.3 0.2 -0.5
v 0.3 0.3 0.2
v 0.3 0.3 0.1
v 0.3 0.5 0.5
v 0.3 0.5 0.2
v 0.3 0.5 0.1
v 0.3 0.5 -0.1
v 0.3 0.5 -0.5
v 0.3 1.1 0.5
v 0.3 1.1 0.1
v 0.3 1.1 -0.1
v 0.3 1.1 -0.5
v 0.3 1.3 0.3
v 0.3 1.3 0.1
v 0.3 1.3 -0.1
v 0.3 1.3 -0.3
v 0.3 1.4 0.3
v 0.3 1.4 0.1
v 0.3 1.4 -0.1
v 0.3 1.4 -0.3
v 0.3 1.6 0.5
v 0.3 1.6 0.1
v 0.3 1.6 -0.1
v 0.3 1.6 -0.5
v -0.3 0 0.5
v -0.3 0.1 0.5
v -0.2 0 0.5
v -0.2 0.1 0.5
v -0.2 0.2 0.5
v -0.2 0.6 0.5
v -0.2 0.8 0.5
v -0.2 0.9 0.5
v -0.2 1 0.5
v -0.1 0.2 0.5
v -0.1 0.6 0.5
v -0.1 0.8 0.5
v -0.1 0.9 0.5
v -0.1 1 0.5
v -0.1 1.1 0.5
v -0.1 1.2 0.5
v -0.1 1.6 0.5
v 0 0.4 0.5
v 0 0.5 0.5
v 0 0.9 0.5
v 0 1.1 0.5
v 0 1.2 0.5
v 0.1 0.3 0.5
v 0.1 0.4 0.5
v 0.1 0.5 0.5
v 0.1 0.7 0.5
v 0.1 0.8 0.5
v 0.2 0.3 0.5
v 0.2 0.4 0.5
v 0.2 0.5 0.5
v 0.2 0.7 0.5
v 0.2 0.8 0.5
v 0.2 1.1 0.5
v 0.3 0 0.5
v 0.3 0.2 0.5
v 0.3 0.5 0.5
v 0.3 1.1 0.5
v 0.3 1.6 0.5
v -0.3 0 0.2
v -0.3 0.1 0.2
v -0.2 0 0.2
v -0.2 0.1 0.2
v -0.2 0 -0.1
v -0.2 0.2 -0.1
v -0.2 0.6 -0.1
v -0.2 0.7 -0.1
v -0.2 0.8 -0.1
v -0.2 1 -0.1
v -0.1 0.2 -0.1
v -0.1 0.4 -0.1
v -0.1 0.5 -0.1
v -0.1 0.6 -0.1
v -0.1 0.7 -0.1
v -0.1 0.8 -0.1
v -0.1 1 -0.1
v -0.1 1.6 -0.1
v 0 0.4 -0.1
v 0 0.5 -0.1
v 0 0.6 -0.1
v 0 0.7 -0.1
v 0.1 0.9 -0.1
v 0.1 1 -0.1
v 0.2 0.5 -0.1
v 0.2 0.9 -0.1
v 0.2 1 -0.1
v 0.2 1.1 -0.1
v 0.2 1.3 -0.1
v 0.2 1.4 -0.1
v 0.3 0 -0.1
v 0.3 0.2 -0.1
v 0.3 0.5 -0.1
v 0.3 1.1 -0.1
v 0.3 1.3 -0.1
v 0.3 1.4 -0.1
v 0.3 1.6 -0.1
v -0.3 0 -0.2
v -0.3 0.1 -0.2
v -0.2 0 -0.2
v -0.2 0.1 -0.2
v -0.3 0 -0.4
v -0.3 0.1 -0.4
v -0.2 0 -0.4
v -0.2 0.1 -0.4
v -0.3 0 0.4
v -0.3 0.1 0.4
v -0.2 0 0.4
v -0.2 0.1 0.4
v -0.3 0 0.1
v -0.3 0.1 0.1
v -0.2 0 0.1
v -0.2 0.1 0.1
v -0.2 0.2 0.1
v -0.2 0.6 0.1
v -0.2 1 0.1
v -0.1 0.2 0.1
v -0.1 0.4 0.1
v -0.1 0.5 0.1
v -0.1 0.6 0.1
v -0.1 1 0.1
v -0.1 1.3 0.1
v -0.1 1.5 0.1
v -0.1 1.6 0.1
v 0 0.4 0.1
v 0 0.5 0.1
v 0 0.6 0.1
v 0 0.7 0.1
v 0 0.8 0.1
v 0 1.3 0.1
v 0 1.5 0.1
v 0.1 0.3 0.1
v 0.1 0.4 0.1
v 0.1 0.5 0.1
v 0.1 0.6 0.1
v 0.1 0.7 0.1
v 0.1 0.8 0.1
v 0.1 0.9 0.1
v 0.1 1 0.1
v 0.2 0.3 0.1
v 0.2 0.4 0.1
v 0.2 0.5 0.1
v 0.2 0.6 0.1
v 0.2 0.9 0.1
v 0.2 1 0.1
v 0.2 1.1 0.1
v 0.2 1.3 0.1
v 0.2 1.4 0.1
v 0.3 0 0.1
v 0.3 0.2 0.1
v 0.3 0.3 0.1
v 0.3 0.5 0.1
v 0.3 1.1 0.1
v 0.3 1.3 0.1
v 0.3 1.4 0.1
v 0.3 1.6 0.1
v -0.3 0 -0.3
v -0.3 0.1 -0.3
v -0.2 0 -0.3
v -0.2 0.1 -0.3
v -0.3 0 -0.5
v -0.3 0.1 -0.5
v -0.2 0 -0.5
v -0.2 0.1 -0.5
v -0.2 0.2 -0.5
v -0.2 0.6 -0.5
v -0.2 0.8 -0.5
v -0.2 0.9 -0.5
v -0.2 1 -0.5
v -0.1 0.2 -0.5
v -0.1 0.6 -0.5
v -0.1 0.7 -0.5
v -0.1 0.8 -0.5
v -0.1 0.9 -0.5
v -0.1 1 -0.5
v -0.1 1.6 -0.5
v 0 0.3 -0.5
v 0 0.4 -0.5
v 0 0.5 -0.5
v 0 0.6 -0.5
v 0 0.7 -0.5
v 0 1.3 -0.5
v 0 1.5 -0.5
v 0.1 0.4 -0.5
v 0.1 0.5 -0.5
v 0.1 0.6 -0.5
v 0.1 0.7 -0.5
v 0.1 0.8 -0.5
v 0.1 1.3 -0.5
v 0.1 1.4 -0.5
v 0.2 0.3 -0.5
v 0.2 0.4 -0.5
v 0.2 0.5 -0.5
v 0.2 0.7 -0.5
v 0.2 0.8 -0.5
v 0.2 1.1 -0.5
v 0.2 1.3 -0.5
v 0.2 1.4 -0.5
v 0.2 1.5 -0.5
v 0.3 0 -0.5
v 0.3 0.2 -0.5
v 0.3 0.5 -0.5
v 0.3 1.1 -0.5
v 0.3 1.6 -0.5
v -0.3 0 0.5
v -0.2 0 0.5
v 0.3 0 0.5
v -0.3 0 0.4
v -0.2 0 0.4
v -0.2 0 0.3
v -0.1 0 0.3
v -0.3 0 0.2
v -0.2 0 0.2
v -0.1 0 0.2
v -0.3 0 0.1
v -0.2 0 0.1
v 0.3 0 0.1
v -0.2 0 -0.1
v 0.3 0 -0.1
v -0.3 0 -0.2
v -0.2 0 -0.2
v -0.1 0 -0.2
v -0.3 0 -0.3
v -0.2 0 -0.3
v -0.1 0 -0.3
v -0.3 0 -0.4
v -0.2 0 -0.4
v -0.1 0 -0.4
v -0.3 0 -0.5
v -0.2 0 -0.5
v 0.3 0 -0.5
v -0.2 0.6 0.5
v -0.1 0.6 0.5
v -0.2 0.6 0.3
v -0.1 0.6 0.3
v -0.2 0.6 0.2
v -0.1 0.6 0.2
v -0.2 0.6 0.1
v -0.1 0.6 0.1
v -0.2 0.6 -0.1
v -0.1 0.6 -0.1
v -0.2 0.6 -0.2
v -0.1 0.6 -0.2
v -0.2 0.6 -0.3
v -0.1 0.6 -0.3
v -0.2 0.6 -0.5
v -0.1 0.6 -0.5
v 0.2 1.1 0.5
v 0.3 1.1 0.5
v 0.2 1.1 0.1
v 0.3 1.1 0.1
v 0.2 1.1 -0.1
v 0.3 1.1 -0.1
v 0.2 1.1 -0.5
v 0.3 1.1 -0.5
v -0.3 0.1 0.5
v -0.2 0.1 0.5
v -0.3 0.1 0.4
v -0.2 0.1 0.4
v -0.3 0.1 0.2
v -0.2 0.1 0.2
v -0.3 0.1 0.1
v -0.2 0.1 0.1
v -0.3 0.1 -0.2
v -0.2 0.1 -0.2
v -0.3 0.1 -0.3
v -0.2 0.1 -0.3
v -0.3 0.1 -0.4
v -0.2 0.1 -0.4
v -0.3 0.1 -0.5
v -0.2 0.1 -0.5
v -0.2 0.2 0.5
v -0.1 0.2 0.5
v -0.2 0.2 0.1
v -0.1 0.2 0.1
v -0.2 0.2 -0.1
v -0.1 0.2 -0.1
v -0.2 0.2 -0.5
v -0.1 0.2 -0.5
v 0.2 0.5 0.5
v 0.3 0.5 0.5
v 0.2 0.5 0.4
v 0.2 0.5 0.2
v 0.3 0.5 0.2
v 0.2 0.5 0.1
v 0.3 0.5 0.1
v 0.2 0.5 -0.1
v 0.3 0.5 -0.1
v 0.2 0.5 -0.2
v 0.2 0.5 -0.4
v 0.2 0.5 -0.5
v 0.3 0.5 -0.5
v -0.2 1 0.5
v -0.1 1 0.5
v -0.1 1 0.4
v -0.2 1 0.1
v -0.1 1 0.1
v -0.2 1 -0.1
v -0.1 1 -0.1
v -0.2 1 -0.5
v -0.1 1 -0.5
v -0.1 1.6 0.5
v 0.3 1.6 0.5
v 0 1.6 0.4
v 0.1 1.6 0.4
v 0.2 1.6 0.4
v 0 1.6 0.2
v 0.1 1.6 0.2
v 0.2 1.6 0.2
v -0.1 1.6 0.1
v 0.3 1.6 0.1
v -0.1 1.6 -0.1
v 0.3 1.6 -0.1
v 0 1.6 -0.2
v 0.1 1.6 -0.2
v 0.2 1.6 -0.2
v 0 1.6 -0.4
v 0.1 1.6 -0.4
v 0.2 1.6 -0.4
v -0.1 1.6 -0.5
v 0.3 1.6 -0.5

# faces
f 9/2/1 2/2/1 1/2/1
f 10/2/1 2/2/1 9/2/1
f 11/4/1 4/4/1 3/4/1
f 12/4/1 4/4/1 11/4/1
f 13/8/1 6/8/1 5/8/1
f 14/8/1 6/8/1 13/8/1
f 15/2/1 8/2/1 7/2/1
f 16/2/1 8/2/1 15/2/1
f 25/7/1 18/7/1 17/7/1
f 26/1/1 19/1/1 18/1/1
f 26/7/1 18/7/1 25/7/1
f 27/1/1 19/1/1 26/1/1
f 29/7/1 21/7/1 20/7/1
f 30/1/1 23/1/1 22/1/1
f 31/1/1 23/1/1 30/1/1
f 33/7/1 25/7/1 24/7/1
f 33/7/1 28/7/1 27/7/1
f 33/7/1 26/7/1 25/7/1
f 33/7/1 27/7/1 26/7/1
f 34/7/1 28/7/1 33/7/1
f 35/7/1 29/7/1 20/7/1
f 35/7/1 32/7/1 31/7/1
f 35/7/1 31/7/1 30/7/1
f 35/7/1 30/7/1 29/7/1
f 36/7/1 32/7/1 35/7/1
f 45/6/1 38/6/1 37/6/1
f 45/2/1 39/2/1 38/2/1
f 46/6/1 40/6/1 39/6/1
f 46/2/1 39/2/1 45/2/1
f 47/1/1 42/1/1 41/1/1
f 48/2/1 43/2/1 42/2/1
f 48/1/1 42/1/1 47/1/1
f 49/6/1 44/6/1 43/6/1
f 49/2/1 43/2/1 48/2/1
f 50/6/1 45/6/1 37/6/1
f 50/6/1 46/6/1 45/6/1
f 51/6/1 40/6/1 46/6/1
f 51/6/1 46/6/1 50/6/1
f 52/2/1 48/2/1 47/2/1
f 53/6/1 49/6/1 48/6/1
f 53/2/1 48/2/1 52/2/1
f 54/6/1 44/6/1 49/6/1
f 54/6/1 49/6/1 53/6/1
f 55/3/1 51/3/1 50/3/1
f 56/6/1 40/6/1 51/6/1
f 56/3/1 51/3/1 55/3/1
f 57/6/1 53/6/1 52/6/1
f 57/3/1 54/3/1 53/3/1
f 58/3/1 54/3/1 57/3/1
f 59/6/1 56/6/1 55/6/1
f 60/6/1 40/6/1 56/6/1
f 60/6/1 56/6/1 59/6/1
f 61/6/1 57/6/1 52/6/1
f 61/6/1 58/6/1 57/6/1
f 62/6/1 58/6/1 61/6/1
f 67/6/1 64/6/1 63/6/1
f 68/6/1 64/6/1 67/6/1
f 69/6/1 66/6/1 65/6/1
f 70/6/1 66/6/1 69/6/1
f 71/3/1 68/3/1 67/3/1
f 71/6/1 67/6/1 63/6/1
f 72/3/1 68/3/1 71/3/1
f 73/3/1 70/3/1 69/3/1
f 74/6/1 66/6/1 70/6/1
f 74/3/1 70/3/1 73/3/1
f 75/6/1 72/6/1 71/6/1
f 75/6/1 71/6/1 63/6/1
f 76/6/1 72/6/1 75/6/1
f 77/6/1 72/6/1 76/6/1
f 78/6/1 72/6/1 77/6/1
f 79/6/1 74/6/1 73/6/1
f 80/6/1 74/6/1 79/6/1
f 81/6/1 66/6/1 74/6/1
f 81/6/1 74/6/1 80/6/1
f 82/6/1 66/6/1 81/6/1
f 88/8/1 84/8/1 83/8/1
f 89/6/1 85/6/1 84/6/1
f 89/8/1 84/8/1 88/8/1
f 90/6/1 85/6/1 89/6/1
f 91/6/1 87/6/1 86/6/1
f 92/6/1 87/6/1 91/6/1
f 93/4/1 89/4/1 88/4/1
f 94/1/1 90/1/1 89/1/1
f 94/4/1 89/4/1 93/4/1
f 95/6/1 91/6/1 86/6/1
f 95/4/1 92/4/1 91/4/1
f 96/6/1 87/6/1 92/6/1
f 96/4/1 92/4/1 95/4/1
f 97/6/1 87/6/1 96/6/1
f 98/1/1 90/1/1 94/1/1
f 98/6/1 94/6/1 93/6/1
f 99/6/1 85/6/1 90/6/1
f 99/1/1 90/1/1 98/1/1
f 100/6/1 85/6/1 99/6/1
f 101/6/1 85/6/1 100/6/1
f 102/6/1 95/6/1 86/6/1
f 102/1/1 96/1/1 95/1/1
f 103/4/1 97/4/1 96/4/1
f 103/1/1 96/1/1 102/1/1
f 104/6/1 87/6/1 97/6/1
f 104/4/1 97/4/1 103/4/1
f 105/2/1 101/2/1 100/2/1
f 105/6/1 100/6/1 99/6/1
f 105/6/1 99/6/1 98/6/1
f 106/2/1 101/2/1 105/2/1
f 107/6/1 98/6/1 93/6/1
f 107/6/1 105/6/1 98/6/1
f 107/6/1 106/6/1 105/6/1
f 108/6/1 106/6/1 107/6/1
f 109/6/1 103/6/1 102/6/1
f 109/6/1 102/6/1 86/6/1
f 109/6/1 104/6/1 103/6/1
f 110/6/1 87/6/1 104/6/1
f 110/6/1 104/6/1 109/6/1
f 111/6/2 112/6/2 119/6/2
f 112/3/2 113/3/2 119/3/2
f 113/1/2 114/1/2 120/1/2
f 119/3/2 113/3/2 120/3/2
f 120/1/2 114/1/2 121/1/2
f 116/3/2 117/3/2 122/3/2
f 115/6/2 116/6/2 122/6/2
f 117/6/2 118/6/2 123/6/2
f 122/3/2 117/3/2 123/3/2
f 120/6/2 121/6/2 124/6/2
f 111/6/2 119/6/2 124/6/2
f 119/6/2 120/6/2 124/6/2
f 124/6/2 121/6/2 125/6/2
f 122/6/2 123/6/2 126/6/2
f 123/6/2 118/6/2 127/6/2
f 126/6/2 123/6/2 127/6/2
f 124/3/2 125/3/2 128/3/2
f 125/6/2 121/6/2 129/6/2
f 128/3/2 125/3/2 129/3/2
f 122/6/2 126/6/2 130/6/2
f 126/3/2 127/3/2 130/3/2
f 130/3/2 127/3/2 131/3/2
f 129/6/2 121/6/2 132/6/2
f 128/6/2 129/6/2 132/6/2
f 132/6/2 121/6/2 133/6/2
f 115/6/2 122/6/2 134/6/2
f 130/6/2 131/6/2 134/6/2
f 122/6/2 130/6/2 134/6/2
f 134/6/2 131/6/2 135/6/2
f 132/3/2 133/3/2 136/3/2
f 128/6/2 132/6/2 136/6/2
f 136/3/2 133/3/2 137/3/2
f 134/3/2 135/3/2 138/3/2
f 135/6/2 131/6/2 139/6/2
f 138/3/2 135/3/2 139/3/2
f 136/6/2 137/6/2 140/6/2
f 128/6/2 136/6/2 140/6/2
f 140/6/2 137/6/2 141/6/2
f 138/6/2 139/6/2 142/6/2
f 139/6/2 131/6/2 143/6/2
f 142/6/2 139/6/2 143/6/2
f 144/7/2 145/7/2 148/7/2
f 148/7/2 145/7/2 149/7/2
f 146/7/2 147/7/2 150/7/2
f 150/7/2 147/7/2 151/7/2
f 148/6/2 149/6/2 152/6/2
f 152/6/2 149/6/2 153/6/2
f 148/6/2 152/6/2 154/6/2
f 152/2/2 153/2/2 155/2/2
f 154/6/2 152/6/2 155/6/2
f 155/2/2 153/2/2 156/2/2
f 150/6/2 151/6/2 157/6/2
f 157/6/2 151/6/2 158/6/2
f 159/6/2 160/6/2 163/6/2
f 163/6/2 160/6/2 164/6/2
f 161/6/2 162/6/2 165/6/2
f 165/6/2 162/6/2 166/6/2
f 163/3/2 164/3/2 167/3/2
f 159/6/2 163/6/2 167/6/2
f 167/3/2 164/3/2 168/3/2
f 165/3/2 166/3/2 169/3/2
f 166/6/2 162/6/2 170/6/2
f 169/3/2 166/3/2 170/3/2
f 167/6/2 168/6/2 171/6/2
f 159/6/2 167/6/2 171/6/2
f 171/6/2 168/6/2 172/6/2
f 169/6/2 170/6/2 173/6/2
f 170/6/2 162/6/2 174/6/2
f 173/6/2 170/6/2 174/6/2
f 177/2/3 176/2/3 175/2/3
f 178/2/3 176/2/3 177/2/3
f 184/7/3 178/7/3 177/7/3
f 184/7/3 179/7/3 178/7/3
f 185/6/3 181/6/3 180/6/3
f 186/3/3 182/3/3 181/3/3
f 186/6/3 181/6/3 185/6/3
f 187/6/3 183/6/3 182/6/3
f 187/3/3 182/3/3 186/3/3
f 188/6/3 183/6/3 187/6/3
f 192/6/3 186/6/3 185/6/3
f 192/6/3 185/6/3 184/6/3
f 192/6/3 187/6/3 186/6/3
f 193/6/3 187/6/3 192/6/3
f 194/8/3 189/8/3 188/8/3
f 194/6/3 187/6/3 193/6/3
f 194/8/3 188/8/3 187/8/3
f 195/4/3 190/4/3 189/4/3
f 195/8/3 189/8/3 194/8/3
f 196/6/3 191/6/3 190/6/3
f 196/4/3 190/4/3 195/4/3
f 197/6/3 192/6/3 184/6/3
f 198/2/3 193/2/3 192/2/3
f 198/6/3 192/6/3 197/6/3
f 199/6/3 195/6/3 194/6/3
f 199/2/3 193/2/3 198/2/3
f 199/6/3 194/6/3 193/6/3
f 199/6/3 196/6/3 195/6/3
f 200/6/3 196/6/3 199/6/3
f 201/6/3 196/6/3 200/6/3
f 202/2/3 198/2/3 197/2/3
f 202/6/3 197/6/3 184/6/3
f 203/6/3 199/6/3 198/6/3
f 203/2/3 198/2/3 202/2/3
f 203/6/3 200/6/3 199/6/3
f 204/6/3 200/6/3 203/6/3
f 205/3/3 201/3/3 200/3/3
f 205/6/3 200/6/3 204/6/3
f 206/6/3 196/6/3 201/6/3
f 206/3/3 201/3/3 205/3/3
f 207/6/3 196/6/3 206/6/3
f 208/7/3 184/7/3 177/7/3
f 209/6/3 203/6/3 202/6/3
f 209/7/3 184/7/3 208/7/3
f 209/6/3 204/6/3 203/6/3
f 209/6/3 202/6/3 184/6/3
f 210/6/3 204/6/3 209/6/3
f 211/6/3 196/6/3 207/6/3
f 212/6/3 191/6/3 196/6/3
f 212/6/3 196/6/3 211/6/3
f 215/4/3 214/4/3 213/4/3
f 216/4/3 214/4/3 215/4/3
f 223/7/3 218/7/3 217/7/3
f 226/1/3 220/1/3 219/1/3
f 227/2/3 221/2/3 220/2/3
f 227/1/3 220/1/3 226/1/3
f 228/6/3 222/6/3 221/6/3
f 228/2/3 221/2/3 227/2/3
f 229/6/3 222/6/3 228/6/3
f 231/3/3 225/3/3 224/3/3
f 231/6/3 224/6/3 223/6/3
f 232/6/3 226/6/3 225/6/3
f 232/3/3 225/3/3 231/3/3
f 233/2/3 227/2/3 226/2/3
f 233/6/3 226/6/3 232/6/3
f 234/6/3 230/6/3 229/6/3
f 234/2/3 227/2/3 233/2/3
f 234/6/3 229/6/3 228/6/3
f 234/6/3 228/6/3 227/6/3
f 235/6/3 232/6/3 231/6/3
f 235/6/3 230/6/3 234/6/3
f 235/6/3 234/6/3 233/6/3
f 235/6/3 233/6/3 232/6/3
f 236/6/3 230/6/3 235/6/3
f 237/6/3 235/6/3 231/6/3
f 238/3/3 236/3/3 235/3/3
f 238/6/3 235/6/3 237/6/3
f 239/6/3 230/6/3 236/6/3
f 239/3/3 236/3/3 238/3/3
f 240/6/3 230/6/3 239/6/3
f 241/6/3 230/6/3 240/6/3
f 242/6/3 230/6/3 241/6/3
f 243/7/3 223/7/3 217/7/3
f 244/6/3 231/6/3 223/6/3
f 244/7/3 223/7/3 243/7/3
f 244/6/3 237/6/3 231/6/3
f 245/6/3 237/6/3 244/6/3
f 246/6/3 241/6/3 240/6/3
f 247/3/3 242/3/3 241/3/3
f 247/6/3 241/6/3 246/6/3
f 248/6/3 230/6/3 242/6/3
f 248/3/3 242/3/3 247/3/3
f 249/6/3 230/6/3 248/6/3
f 252/8/3 251/8/3 250/8/3
f 253/8/3 251/8/3 252/8/3
f 256/2/3 255/2/3 254/2/3
f 257/2/3 255/2/3 256/2/3
f 258/2/4 259/2/4 260/2/4
f 260/2/4 259/2/4 261/2/4
f 262/4/4 263/4/4 264/4/4
f 264/4/4 263/4/4 265/4/4
f 264/7/4 265/7/4 269/7/4
f 265/7/4 266/7/4 269/7/4
f 267/6/4 268/6/4 272/6/4
f 272/6/4 268/6/4 273/6/4
f 270/3/4 271/3/4 277/3/4
f 269/6/4 270/6/4 277/6/4
f 271/6/4 272/6/4 278/6/4
f 277/3/4 271/3/4 278/3/4
f 272/6/4 273/6/4 278/6/4
f 273/6/4 274/6/4 278/6/4
f 278/6/4 274/6/4 279/6/4
f 279/6/4 274/6/4 280/6/4
f 280/6/4 274/6/4 281/6/4
f 274/2/4 275/2/4 282/2/4
f 281/6/4 274/6/4 282/6/4
f 275/6/4 276/6/4 283/6/4
f 282/2/4 275/2/4 283/2/4
f 269/6/4 277/6/4 284/6/4
f 277/6/4 278/6/4 284/6/4
f 278/6/4 279/6/4 284/6/4
f 284/6/4 279/6/4 285/6/4
f 285/6/4 279/6/4 286/6/4
f 279/4/4 280/4/4 287/4/4
f 286/6/4 279/6/4 287/6/4
f 280/2/4 281/2/4 288/2/4
f 287/4/4 280/4/4 288/4/4
f 281/6/4 282/6/4 289/6/4
f 288/2/4 281/2/4 289/2/4
f 282/6/4 283/6/4 289/6/4
f 289/6/4 283/6/4 290/6/4
f 290/6/4 283/6/4 291/6/4
f 284/8/4 285/8/4 292/8/4
f 269/6/4 284/6/4 292/6/4
f 285/4/4 286/4/4 293/4/4
f 292/8/4 285/8/4 293/8/4
f 286/1/4 287/1/4 294/1/4
f 293/4/4 286/4/4 294/4/4
f 287/6/4 288/6/4 295/6/4
f 294/1/4 287/1/4 295/1/4
f 288/6/4 289/6/4 295/6/4
f 289/6/4 290/6/4 295/6/4
f 290/3/4 291/3/4 296/3/4
f 295/6/4 290/6/4 296/6/4
f 291/6/4 283/6/4 297/6/4
f 296/3/4 291/3/4 297/3/4
f 297/6/4 283/6/4 298/6/4
f 298/6/4 283/6/4 299/6/4
f 299/6/4 283/6/4 300/6/4
f 264/7/4 269/7/4 301/7/4
f 269/6/4 292/6/4 302/6/4
f 301/7/4 269/7/4 302/7/4
f 293/2/4 294/2/4 303/2/4
f 302/6/4 292/6/4 303/6/4
f 292/2/4 293/2/4 303/2/4
f 303/2/4 294/2/4 304/2/4
f 298/6/4 299/6/4 305/6/4
f 299/3/4 300/3/4 306/3/4
f 305/6/4 299/6/4 306/6/4
f 300/6/4 283/6/4 307/6/4
f 306/3/4 300/3/4 307/3/4
f 283/6/4 276/6/4 308/6/4
f 307/6/4 283/6/4 308/6/4
f 309/8/4 310/8/4 311/8/4
f 311/8/4 310/8/4 312/8/4
f 313/2/4 314/2/4 315/2/4
f 315/2/4 314/2/4 316/2/4
f 315/7/4 316/7/4 322/7/4
f 316/7/4 317/7/4 322/7/4
f 318/6/4 319/6/4 323/6/4
f 323/6/4 319/6/4 324/6/4
f 319/3/4 320/3/4 325/3/4
f 324/6/4 319/6/4 325/6/4
f 320/6/4 321/6/4 326/6/4
f 325/3/4 320/3/4 326/3/4
f 326/6/4 321/6/4 327/6/4
f 322/6/4 323/6/4 329/6/4
f 329/6/4 323/6/4 330/6/4
f 330/6/4 323/6/4 331/6/4
f 323/1/4 324/1/4 332/1/4
f 331/6/4 323/6/4 332/6/4
f 324/6/4 325/6/4 333/6/4
f 332/1/4 324/1/4 333/1/4
f 327/6/4 328/6/4 333/6/4
f 325/6/4 326/6/4 333/6/4
f 326/6/4 327/6/4 333/6/4
f 333/6/4 328/6/4 334/6/4
f 334/6/4 328/6/4 335/6/4
f 330/8/4 331/8/4 336/8/4
f 329/2/4 330/2/4 336/2/4
f 331/4/4 332/4/4 337/4/4
f 336/8/4 331/8/4 337/8/4
f 332/6/4 333/6/4 338/6/4
f 337/4/4 332/4/4 338/4/4
f 333/6/4 334/6/4 338/6/4
f 338/6/4 334/6/4 339/6/4
f 339/6/4 334/6/4 340/6/4
f 334/2/4 335/2/4 341/2/4
f 340/6/4 334/6/4 341/6/4
f 341/2/4 335/2/4 342/2/4
f 329/2/4 336/2/4 343/2/4
f 322/6/4 329/6/4 343/6/4
f 336/6/4 337/6/4 344/6/4
f 343/2/4 336/2/4 344/2/4
f 337/6/4 338/6/4 344/6/4
f 338/6/4 339/6/4 344/6/4
f 344/6/4 339/6/4 345/6/4
f 339/3/4 340/3/4 346/3/4
f 345/6/4 339/6/4 346/6/4
f 340/6/4 341/6/4 347/6/4
f 346/3/4 340/3/4 347/3/4
f 347/6/4 341/6/4 348/6/4
f 341/5/4 342/5/4 349/5/4
f 348/6/4 341/6/4 349/6/4
f 342/2/4 335/2/4 350/2/4
f 349/5/4 342/5/4 350/5/4
f 335/6/4 328/6/4 351/6/4
f 350/2/4 335/2/4 351/2/4
f 315/7/4 322/7/4 352/7/4
f 344/6/4 345/6/4 353/6/4
f 352/7/4 322/7/4 353/7/4
f 322/6/4 343/6/4 353/6/4
f 343/6/4 344/6/4 353/6/4
f 353/6/4 345/6/4 354/6/4
f 348/6/4 349/6/4 355/6/4
f 349/6/4 350/6/4 355/6/4
f 350/6/4 351/6/4 355/6/4
f 351/6/4 328/6/4 356/6/4
f 355/6/4 351/6/4 356/6/4
f 360/2/5 358/2/5 357/2/5
f 361/7/5 359/7/5 358/7/5
f 361/2/5 358/2/5 360/2/5
f 362/7/5 359/7/5 361/7/5
f 363/7/5 359/7/5 362/7/5
f 365/1/5 363/1/5 362/1/5
f 366/7/5 359/7/5 363/7/5
f 366/1/5 363/1/5 365/1/5
f 367/4/5 365/4/5 364/4/5
f 368/7/5 366/7/5 365/7/5
f 368/4/5 365/4/5 367/4/5
f 369/7/5 359/7/5 366/7/5
f 369/7/5 366/7/5 368/7/5
f 373/7/5 371/7/5 370/7/5
f 374/7/5 371/7/5 373/7/5
f 375/8/5 373/8/5 372/8/5
f 376/2/5 374/2/5 373/2/5
f 376/8/5 373/8/5 375/8/5
f 377/7/5 371/7/5 374/7/5
f 377/2/5 374/2/5 376/2/5
f 379/1/5 377/1/5 376/1/5
f 380/7/5 371/7/5 377/7/5
f 380/1/5 377/1/5 379/1/5
f 381/2/5 379/2/5 378/2/5
f 382/7/5 380/7/5 379/7/5
f 382/2/5 379/2/5 381/2/5
f 383/7/5 371/7/5 380/7/5
f 383/7/5 380/7/5 382/7/5
f 386/6/5 385/6/5 384/6/5
f 387/6/5 385/6/5 386/6/5
f 388/2/5 387/2/5 386/2/5
f 389/2/5 387/2/5 388/2/5
f 390/6/5 389/6/5 388/6/5
f 391/6/5 389/6/5 390/6/5
f 394/1/5 393/1/5 392/1/5
f 395/1/5 393/1/5 394/1/5
f 396/2/5 395/2/5 394/2/5
f 397/2/5 395/2/5 396/2/5
f 398/6/5 397/6/5 396/6/5
f 399/6/5 397/6/5 398/6/5
f 402/6/5 401/6/5 400/6/5
f 403/6/5 401/6/5 402/6/5
f 406/6/5 405/6/5 404/6/5
f 407/6/5 405/6/5 406/6/5
f 408/2/6 409/2/6 410/2/6
f 410/2/6 409/2/6 411/2/6
f 412/4/6 413/4/6 414/4/6
f 414/4/6 413/4/6 415/4/6
f 416/8/6 417/8/6 418/8/6
f 418/8/6 417/8/6 419/8/6
f 420/2/6 421/2/6 422/2/6
f 422/2/6 421/2/6 423/2/6
f 424/7/6 425/7/6 426/7/6
f 426/7/6 425/7/6 427/7/6
f 428/7/6 429/7/6 430/7/6
f 430/7/6 429/7/6 431/7/6
f 432/6/6 433/6/6 434/6/6
f 434/6/6 433/6/6 435/6/6
f 435/6/6 433/6/6 436/6/6
f 435/2/6 436/2/6 437/2/6
f 437/2/6 436/2/6 438/2/6
f 439/6/6 440/6/6 441/6/6
f 441/6/6 440/6/6 442/6/6
f 442/6/6 440/6/6 443/6/6
f 443/6/6 440/6/6 444/6/6
f 445/6/6 446/6/6 447/6/6
f 445/6/6 447/6/6 448/6/6
f 448/6/6 447/6/6 449/6/6
f 450/6/6 451/6/6 452/6/6
f 452/6/6 451/6/6 453/6/6
f 454/6/6 455/6/6 456/6/6
f 456/6/6 455/6/6 457/6/6
f 457/6/6 455/6/6 458/6/6
f 454/6/6 456/6/6 459/6/6
f 456/1/6 457/1/6 459/1/6
f 457/4/6 458/4/6 460/4/6
f 459/1/6 457/1/6 460/1/6
f 458/6/6 455/6/6 461/6/6
f 460/4/6 458/4/6 461/4/6
f 459/6/6 460/6/6 462/6/6
f 454/6/6 459/6/6 462/6/6
f 460/6/6 461/6/6 462/6/6
f 461/6/6 455/6/6 463/6/6
f 462/6/6 461/6/6 463/6/6
f 464/6/6 465/6/6 466/6/6
f 466/6/6 465/6/6 467/6/6
f 467/6/6 465/6/6 468/6/6
f 464/6/6 466/6/6 469/6/6
f 466/1/6 467/1/6 469/1/6
f 467/4/6 468/4/6 470/4/6
f 469/1/6 467/1/6 470/1/6
f 468/6/6 465/6/6 471/6/6
f 470/4/6 468/4/6 471/4/6
f 469/6/6 470/6/6 472/6/6
f 464/6/6 469/6/6 472/6/6
f 470/6/6 471/6/6 472/6/6
f 471/6/6 465/6/6 473/6/6
f 472/6/6 471/6/6 473/6/6
