# MagicaVoxel @ Ephtracy

# group
o 

# material
mtllib House_Module-13.mtl
usemtl palette

# normals
vn -1 0 0
vn 1 0 0
vn 0 0 1
vn 0 0 -1
vn 0 -1 0
vn 0 1 0

# texcoords
vt 0.607422 0.5
vt 0.759766 0.5
vt 0.763672 0.5

# verts
v -0.35 -0.35 0.15
v -0.35 -0.35 -0.15
v -0.35 -0.25 0.15
v -0.35 -0.25 -0.15
v -0.35 -0.05 0.15
v -0.35 -0.05 0.05
v -0.35 -0.05 -0.15
v -0.35 0.05 0.15
v -0.35 0.05 0.05
v -0.35 0.05 -0.15
v -0.35 0.15 0.05
v -0.35 0.15 -0.05
v -0.35 0.25 0.05
v -0.35 0.25 -0.05
v -0.25 0.05 0.05
v -0.25 0.05 -0.05
v -0.25 0.15 0.05
v -0.25 0.15 -0.05
v -0.25 0.25 0.05
v -0.25 0.25 -0.05
v -0.25 0.35 0.05
v -0.25 0.35 -0.05
v -0.15 -0.25 0.05
v -0.15 -0.25 -0.05
v -0.15 -0.05 0.05
v -0.15 -0.05 -0.05
v -0.15 0.05 0.05
v -0.15 0.05 -0.05
v -0.05 0.05 0.05
v -0.05 0.05 -0.05
v -0.05 0.15 0.05
v -0.05 0.15 -0.05
v 0.05 -0.05 0.05
v 0.05 -0.05 -0.05
v 0.05 0.05 0.05
v 0.05 0.05 -0.05
v 0.15 -0.15 0.05
v 0.15 -0.15 -0.05
v 0.15 -0.05 0.05
v 0.15 -0.05 -0.05
v 0.25 -0.35 0.05
v 0.25 -0.35 -0.05
v 0.25 -0.25 0.05
v 0.25 -0.25 -0.05
v 0.25 -0.15 0.05
v 0.25 -0.15 -0.05
v 0.25 -0.05 0.05
v 0.25 -0.05 -0.05
v 0.25 0.05 0.05
v 0.25 0.05 -0.05
v 0.25 0.15 0.05
v 0.25 0.15 -0.05
v 0.25 0.25 0.05
v 0.25 0.25 -0.05
v 0.25 0.35 0.05
v 0.25 0.35 -0.05
v -0.25 -0.25 0.05
v -0.25 -0.25 -0.05
v -0.25 -0.05 0.05
v -0.25 -0.05 -0.05
v -0.25 0.05 0.05
v -0.25 0.05 -0.05
v -0.15 0.05 0.05
v -0.15 0.05 -0.05
v -0.15 0.15 0.05
v -0.15 0.15 -0.05
v -0.15 0.25 0.05
v -0.15 0.25 -0.05
v -0.15 0.35 0.05
v -0.15 0.35 -0.05
v -0.05 -0.35 0.15
v -0.05 -0.35 0.05
v -0.05 -0.35 -0.15
v -0.05 -0.25 0.15
v -0.05 -0.25 0.05
v -0.05 -0.25 -0.15
v -0.05 -0.05 0.15
v -0.05 -0.05 -0.15
v -0.05 0.05 0.15
v -0.05 0.05 0.05
v -0.05 0.05 -0.05
v -0.05 0.05 -0.15
v 0.05 0.05 0.05
v 0.05 0.05 -0.05
v 0.05 0.15 0.05
v 0.05 0.15 -0.05
v 0.15 -0.05 0.05
v 0.15 -0.05 -0.05
v 0.15 0.05 0.05
v 0.15 0.05 -0.05
v 0.35 -0.35 0.05
v 0.35 -0.35 -0.05
v 0.35 -0.25 0.05
v 0.35 -0.25 -0.05
v 0.35 -0.05 0.05
v 0.35 -0.05 -0.05
v 0.35 0.05 0.05
v 0.35 0.05 -0.05
v 0.35 0.35 0.05
v 0.35 0.35 -0.05
v -0.35 -0.35 0.15
v -0.35 -0.25 0.15
v -0.35 -0.05 0.15
v -0.35 0.05 0.15
v -0.15 -0.35 0.15
v -0.15 -0.25 0.15
v -0.05 -0.35 0.15
v -0.05 -0.25 0.15
v -0.05 -0.05 0.15
v -0.05 0.05 0.15
v -0.35 0.15 0.05
v -0.35 0.25 0.05
v -0.25 0.05 0.05
v -0.25 0.15 0.05
v -0.25 0.25 0.05
v -0.25 0.35 0.05
v -0.15 0.05 0.05
v -0.15 0.15 0.05
v -0.15 0.25 0.05
v -0.15 0.35 0.05
v -0.05 0.05 0.05
v -0.05 0.15 0.05
v -0.05 0.25 0.05
v 0.05 -0.05 0.05
v 0.05 0.05 0.05
v 0.05 0.15 0.05
v 0.15 -0.15 0.05
v 0.15 -0.05 0.05
v 0.15 0.05 0.05
v 0.25 -0.35 0.05
v 0.25 -0.25 0.05
v 0.25 -0.15 0.05
v 0.25 -0.05 0.05
v 0.25 0.05 0.05
v 0.25 0.15 0.05
v 0.25 0.25 0.05
v 0.25 0.35 0.05
v 0.35 -0.35 0.05
v 0.35 -0.25 0.05
v 0.35 -0.05 0.05
v 0.35 0.05 0.05
v 0.35 0.35 0.05
v -0.25 -0.25 -0.05
v -0.25 -0.05 -0.05
v -0.25 0.05 -0.05
v -0.15 -0.25 -0.05
v -0.15 -0.05 -0.05
v -0.15 0.05 -0.05
v -0.25 -0.25 0.05
v -0.25 -0.05 0.05
v -0.25 0.05 0.05
v -0.15 -0.25 0.05
v -0.15 -0.05 0.05
v -0.15 0.05 0.05
v -0.35 0.15 -0.05
v -0.35 0.25 -0.05
v -0.25 0.05 -0.05
v -0.25 0.15 -0.05
v -0.25 0.25 -0.05
v -0.25 0.35 -0.05
v -0.15 0.05 -0.05
v -0.15 0.15 -0.05
v -0.15 0.25 -0.05
v -0.15 0.35 -0.05
v -0.05 0.05 -0.05
v -0.05 0.15 -0.05
v -0.05 0.25 -0.05
v 0.05 -0.05 -0.05
v 0.05 0.05 -0.05
v 0.05 0.15 -0.05
v 0.15 -0.15 -0.05
v 0.15 -0.05 -0.05
v 0.15 0.05 -0.05
v 0.25 -0.35 -0.05
v 0.25 -0.25 -0.05
v 0.25 -0.15 -0.05
v 0.25 -0.05 -0.05
v 0.25 0.05 -0.05
v 0.25 0.15 -0.05
v 0.25 0.25 -0.05
v 0.25 0.35 -0.05
v 0.35 -0.35 -0.05
v 0.35 -0.25 -0.05
v 0.35 -0.05 -0.05
v 0.35 0.05 -0.05
v 0.35 0.35 -0.05
v -0.35 -0.35 -0.15
v -0.35 -0.25 -0.15
v -0.35 -0.05 -0.15
v -0.35 0.05 -0.15
v -0.25 -0.35 -0.15
v -0.25 -0.25 -0.15
v -0.25 -0.05 -0.15
v -0.25 0.05 -0.15
v -0.15 -0.35 -0.15
v -0.15 -0.25 -0.15
v -0.05 -0.35 -0.15
v -0.05 -0.25 -0.15
v -0.05 -0.05 -0.15
v -0.05 0.05 -0.15
v -0.35 -0.35 0.15
v -0.15 -0.35 0.15
v -0.05 -0.35 0.15
v -0.25 -0.35 0.05
v -0.15 -0.35 0.05
v -0.05 -0.35 0.05
v 0.25 -0.35 0.05
v 0.35 -0.35 0.05
v 0.25 -0.35 -0.05
v 0.35 -0.35 -0.05
v -0.35 -0.35 -0.15
v -0.25 -0.35 -0.15
v -0.15 -0.35 -0.15
v -0.05 -0.35 -0.15
v 0.15 -0.15 0.05
v 0.25 -0.15 0.05
v 0.15 -0.15 -0.05
v 0.25 -0.15 -0.05
v 0.05 -0.05 0.05
v 0.15 -0.05 0.05
v 0.05 -0.05 -0.05
v 0.15 -0.05 -0.05
v -0.25 0.05 0.05
v -0.15 0.05 0.05
v -0.05 0.05 0.05
v 0.05 0.05 0.05
v -0.25 0.05 -0.05
v -0.15 0.05 -0.05
v -0.05 0.05 -0.05
v 0.05 0.05 -0.05
v -0.35 0.15 0.05
v -0.25 0.15 0.05
v -0.15 0.15 0.05
v -0.05 0.15 0.05
v 0.05 0.15 0.05
v 0.25 0.15 0.05
v -0.35 0.15 -0.05
v -0.25 0.15 -0.05
v -0.15 0.15 -0.05
v -0.05 0.15 -0.05
v 0.05 0.15 -0.05
v 0.25 0.15 -0.05
v -0.25 -0.25 0.05
v -0.15 -0.25 0.05
v -0.25 -0.25 -0.05
v -0.15 -0.25 -0.05
v 0.15 -0.05 0.05
v 0.25 -0.05 0.05
v 0.15 -0.05 -0.05
v 0.25 -0.05 -0.05
v -0.35 0.05 0.15
v -0.05 0.05 0.15
v -0.35 0.05 0.05
v -0.25 0.05 0.05
v -0.15 0.05 0.05
v -0.05 0.05 0.05
v 0.05 0.05 0.05
v 0.15 0.05 0.05
v -0.25 0.05 -0.05
v -0.15 0.05 -0.05
v -0.05 0.05 -0.05
v 0.05 0.05 -0.05
v 0.15 0.05 -0.05
v -0.35 0.05 -0.15
v -0.25 0.05 -0.15
v -0.05 0.05 -0.15
v -0.35 0.25 0.05
v -0.25 0.25 0.05
v -0.15 0.25 0.05
v -0.05 0.25 0.05
v 0.25 0.25 0.05
v -0.35 0.25 -0.05
v -0.25 0.25 -0.05
v -0.15 0.25 -0.05
v -0.05 0.25 -0.05
v 0.25 0.25 -0.05
v -0.25 0.35 0.05
v -0.15 0.35 0.05
v 0.25 0.35 0.05
v 0.35 0.35 0.05
v -0.25 0.35 -0.05
v -0.15 0.35 -0.05
v 0.25 0.35 -0.05
v 0.35 0.35 -0.05

# faces
f 3/3/1 2/3/1 1/3/1
f 4/3/1 2/3/1 3/3/1
f 5/1/1 4/1/1 3/1/1
f 6/1/1 4/1/1 5/1/1
f 7/1/1 4/1/1 6/1/1
f 8/3/1 6/3/1 5/3/1
f 9/2/1 7/2/1 6/2/1
f 9/3/1 6/3/1 8/3/1
f 10/2/1 7/2/1 9/2/1
f 13/2/1 12/2/1 11/2/1
f 14/2/1 12/2/1 13/2/1
f 17/2/1 16/2/1 15/2/1
f 18/2/1 16/2/1 17/2/1
f 21/3/1 20/3/1 19/3/1
f 22/3/1 20/3/1 21/3/1
f 25/1/1 24/1/1 23/1/1
f 26/1/1 24/1/1 25/1/1
f 27/3/1 26/3/1 25/3/1
f 28/3/1 26/3/1 27/3/1
f 31/3/1 30/3/1 29/3/1
f 32/3/1 30/3/1 31/3/1
f 35/3/1 34/3/1 33/3/1
f 36/3/1 34/3/1 35/3/1
f 39/2/1 38/2/1 37/2/1
f 40/2/1 38/2/1 39/2/1
f 43/3/1 42/3/1 41/3/1
f 44/3/1 42/3/1 43/3/1
f 45/2/1 44/2/1 43/2/1
f 46/2/1 44/2/1 45/2/1
f 49/3/1 48/3/1 47/3/1
f 50/3/1 48/3/1 49/3/1
f 51/2/1 50/2/1 49/2/1
f 52/2/1 50/2/1 51/2/1
f 55/2/1 54/2/1 53/2/1
f 56/2/1 54/2/1 55/2/1
f 57/1/2 58/1/2 59/1/2
f 59/1/2 58/1/2 60/1/2
f 59/2/2 60/2/2 61/2/2
f 61/2/2 60/2/2 62/2/2
f 63/2/2 64/2/2 65/2/2
f 65/2/2 64/2/2 66/2/2
f 67/3/2 68/3/2 69/3/2
f 69/3/2 68/3/2 70/3/2
f 71/2/2 72/2/2 74/2/2
f 72/3/2 73/3/2 75/3/2
f 74/2/2 72/2/2 75/2/2
f 75/3/2 73/3/2 76/3/2
f 74/1/2 75/1/2 77/1/2
f 75/1/2 76/1/2 77/1/2
f 77/1/2 76/1/2 78/1/2
f 77/3/2 78/3/2 79/3/2
f 79/3/2 78/3/2 80/3/2
f 80/3/2 78/3/2 81/3/2
f 81/3/2 78/3/2 82/3/2
f 83/3/2 84/3/2 85/3/2
f 85/3/2 84/3/2 86/3/2
f 87/3/2 88/3/2 89/3/2
f 89/3/2 88/3/2 90/3/2
f 91/3/2 92/3/2 93/3/2
f 93/3/2 92/3/2 94/3/2
f 93/2/2 94/2/2 95/2/2
f 95/2/2 94/2/2 96/2/2
f 95/3/2 96/3/2 97/3/2
f 97/3/2 96/3/2 98/3/2
f 97/2/2 98/2/2 99/2/2
f 99/2/2 98/2/2 100/2/2
f 105/3/3 102/3/3 101/3/3
f 106/1/3 103/1/3 102/1/3
f 106/3/3 102/3/3 105/3/3
f 107/2/3 106/2/3 105/2/3
f 108/1/3 103/1/3 106/1/3
f 108/2/3 106/2/3 107/2/3
f 109/3/3 104/3/3 103/3/3
f 109/1/3 103/1/3 108/1/3
f 110/3/3 104/3/3 109/3/3
f 114/2/3 112/2/3 111/2/3
f 115/2/3 112/2/3 114/2/3
f 117/2/3 114/2/3 113/2/3
f 118/3/3 116/3/3 115/3/3
f 118/2/3 114/2/3 117/2/3
f 118/3/3 115/3/3 114/3/3
f 119/3/3 116/3/3 118/3/3
f 120/3/3 116/3/3 119/3/3
f 122/3/3 119/3/3 118/3/3
f 123/3/3 119/3/3 122/3/3
f 125/3/3 122/3/3 121/3/3
f 126/2/3 123/2/3 122/2/3
f 126/3/3 122/3/3 125/3/3
f 128/3/3 125/3/3 124/3/3
f 129/3/3 125/3/3 128/3/3
f 132/2/3 128/2/3 127/2/3
f 133/2/3 128/2/3 132/2/3
f 135/2/3 123/2/3 126/2/3
f 136/2/3 123/2/3 135/2/3
f 138/3/3 131/3/3 130/3/3
f 139/2/3 133/2/3 132/2/3
f 139/3/3 131/3/3 138/3/3
f 139/2/3 132/2/3 131/2/3
f 140/3/3 134/3/3 133/3/3
f 140/2/3 133/2/3 139/2/3
f 141/2/3 136/2/3 135/2/3
f 141/3/3 134/3/3 140/3/3
f 141/2/3 137/2/3 136/2/3
f 141/2/3 135/2/3 134/2/3
f 142/2/3 137/2/3 141/2/3
f 146/1/3 144/1/3 143/1/3
f 147/3/3 145/3/3 144/3/3
f 147/1/3 144/1/3 146/1/3
f 148/3/3 145/3/3 147/3/3
f 149/1/4 150/1/4 152/1/4
f 150/3/4 151/3/4 153/3/4
f 152/1/4 150/1/4 153/1/4
f 153/3/4 151/3/4 154/3/4
f 155/2/4 156/2/4 158/2/4
f 158/2/4 156/2/4 159/2/4
f 157/2/4 158/2/4 161/2/4
f 159/3/4 160/3/4 162/3/4
f 161/2/4 158/2/4 162/2/4
f 158/3/4 159/3/4 162/3/4
f 162/3/4 160/3/4 163/3/4
f 163/3/4 160/3/4 164/3/4
f 162/3/4 163/3/4 166/3/4
f 166/3/4 163/3/4 167/3/4
f 165/3/4 166/3/4 169/3/4
f 166/2/4 167/2/4 170/2/4
f 169/3/4 166/3/4 170/3/4
f 168/3/4 169/3/4 172/3/4
f 172/3/4 169/3/4 173/3/4
f 171/2/4 172/2/4 176/2/4
f 176/2/4 172/2/4 177/2/4
f 170/2/4 167/2/4 179/2/4
f 179/2/4 167/2/4 180/2/4
f 174/3/4 175/3/4 182/3/4
f 176/2/4 177/2/4 183/2/4
f 182/3/4 175/3/4 183/3/4
f 175/2/4 176/2/4 183/2/4
f 177/3/4 178/3/4 184/3/4
f 183/2/4 177/2/4 184/2/4
f 179/2/4 180/2/4 185/2/4
f 184/3/4 178/3/4 185/3/4
f 180/2/4 181/2/4 185/2/4
f 178/2/4 179/2/4 185/2/4
f 185/2/4 181/2/4 186/2/4
f 187/3/4 188/3/4 191/3/4
f 188/1/4 189/1/4 192/1/4
f 191/3/4 188/3/4 192/3/4
f 189/2/4 190/2/4 193/2/4
f 192/1/4 189/1/4 193/1/4
f 193/2/4 190/2/4 194/2/4
f 191/2/4 192/2/4 195/2/4
f 192/1/4 193/1/4 196/1/4
f 195/2/4 192/2/4 196/2/4
f 195/3/4 196/3/4 197/3/4
f 196/1/4 193/1/4 198/1/4
f 197/3/4 196/3/4 198/3/4
f 193/3/4 194/3/4 199/3/4
f 198/1/4 193/1/4 199/1/4
f 199/3/4 194/3/4 200/3/4
f 204/3/5 202/3/5 201/3/5
f 205/2/5 203/2/5 202/2/5
f 205/3/5 202/3/5 204/3/5
f 206/2/5 203/2/5 205/2/5
f 209/3/5 208/3/5 207/3/5
f 210/3/5 208/3/5 209/3/5
f 211/3/5 204/3/5 201/3/5
f 212/2/5 205/2/5 204/2/5
f 212/3/5 204/3/5 211/3/5
f 213/3/5 206/3/5 205/3/5
f 213/2/5 205/2/5 212/2/5
f 214/3/5 206/3/5 213/3/5
f 217/2/5 216/2/5 215/2/5
f 218/2/5 216/2/5 217/2/5
f 221/3/5 220/3/5 219/3/5
f 222/3/5 220/3/5 221/3/5
f 227/2/5 224/2/5 223/2/5
f 228/2/5 224/2/5 227/2/5
f 229/3/5 226/3/5 225/3/5
f 230/3/5 226/3/5 229/3/5
f 237/2/5 232/2/5 231/2/5
f 238/2/5 232/2/5 237/2/5
f 239/3/5 234/3/5 233/3/5
f 240/3/5 234/3/5 239/3/5
f 241/2/5 236/2/5 235/2/5
f 242/2/5 236/2/5 241/2/5
f 243/2/6 244/2/6 245/2/6
f 245/2/6 244/2/6 246/2/6
f 247/2/6 248/2/6 249/2/6
f 249/2/6 248/2/6 250/2/6
f 251/3/6 252/3/6 253/3/6
f 253/3/6 252/3/6 254/3/6
f 254/3/6 252/3/6 255/3/6
f 255/3/6 252/3/6 256/3/6
f 253/2/6 254/2/6 259/2/6
f 255/3/6 256/3/6 260/3/6
f 260/3/6 256/3/6 261/3/6
f 257/3/6 258/3/6 262/3/6
f 262/3/6 258/3/6 263/3/6
f 253/2/6 259/2/6 264/2/6
f 260/3/6 261/3/6 265/3/6
f 264/2/6 259/2/6 265/2/6
f 259/3/6 260/3/6 265/3/6
f 265/3/6 261/3/6 266/3/6
f 267/2/6 268/2/6 272/2/6
f 272/2/6 268/2/6 273/2/6
f 269/3/6 270/3/6 274/3/6
f 270/2/6 271/2/6 275/2/6
f 274/3/6 270/3/6 275/3/6
f 275/2/6 271/2/6 276/2/6
f 277/3/6 278/3/6 281/3/6
f 281/3/6 278/3/6 282/3/6
f 279/2/6 280/2/6 283/2/6
f 283/2/6 280/2/6 284/2/6
