# MagicaVoxel @ Ephtracy

# group
o 

# material
mtllib House_Module-35.mtl
usemtl palette

# normals
vn -1 0 0
vn 1 0 0
vn 0 0 1
vn 0 0 -1
vn 0 -1 0
vn 0 1 0

# texcoords
vt 0.814453 0.5
vt 0.818359 0.5
vt 0.822266 0.5

# verts
v -0.35 -0.15 0.05
v -0.35 -0.15 -0.05
v -0.35 -0.05 0.05
v -0.35 -0.05 -0.05
v -0.25 -0.05 0.05
v -0.25 -0.05 -0.05
v -0.25 0.05 0.05
v -0.25 0.05 -0.05
v -0.05 -0.05 0.05
v -0.05 -0.05 -0.05
v -0.05 0.05 0.05
v -0.05 0.05 -0.05
v 0.05 -0.15 0.05
v 0.05 -0.15 -0.05
v 0.05 -0.05 0.05
v 0.05 -0.05 -0.05
v 0.05 0.05 0.05
v 0.05 0.05 -0.05
v 0.05 0.15 0.05
v 0.05 0.15 -0.05
v -0.15 -0.15 0.05
v -0.15 -0.15 -0.05
v -0.15 -0.05 0.05
v -0.15 -0.05 -0.05
v -0.15 0.05 0.05
v -0.15 0.05 -0.05
v 0.05 -0.05 0.05
v 0.05 -0.05 -0.05
v 0.05 0.05 0.05
v 0.05 0.05 -0.05
v 0.15 0.05 0.05
v 0.15 0.05 -0.05
v 0.15 0.15 0.05
v 0.15 0.15 -0.05
v 0.35 -0.15 0.05
v 0.35 -0.15 -0.05
v 0.35 -0.05 0.05
v 0.35 -0.05 -0.05
v -0.35 -0.15 0.05
v -0.35 -0.05 0.05
v -0.25 -0.05 0.05
v -0.25 0.05 0.05
v -0.15 -0.15 0.05
v -0.15 -0.05 0.05
v -0.15 0.05 0.05
v -0.05 -0.05 0.05
v -0.05 0.05 0.05
v 0.05 -0.15 0.05
v 0.05 -0.05 0.05
v 0.05 0.05 0.05
v 0.05 0.15 0.05
v 0.15 -0.15 0.05
v 0.15 -0.05 0.05
v 0.15 0.05 0.05
v 0.15 0.15 0.05
v 0.25 -0.15 0.05
v 0.25 -0.05 0.05
v 0.35 -0.15 0.05
v 0.35 -0.05 0.05
v -0.35 -0.15 -0.05
v -0.35 -0.05 -0.05
v -0.25 -0.05 -0.05
v -0.25 0.05 -0.05
v -0.15 -0.15 -0.05
v -0.15 -0.05 -0.05
v -0.15 0.05 -0.05
v -0.05 -0.05 -0.05
v -0.05 0.05 -0.05
v 0.05 -0.15 -0.05
v 0.05 -0.05 -0.05
v 0.05 0.05 -0.05
v 0.05 0.15 -0.05
v 0.15 -0.15 -0.05
v 0.15 -0.05 -0.05
v 0.15 0.05 -0.05
v 0.15 0.15 -0.05
v 0.25 -0.15 -0.05
v 0.25 -0.05 -0.05
v 0.35 -0.15 -0.05
v 0.35 -0.05 -0.05
v -0.35 -0.15 0.05
v -0.15 -0.15 0.05
v 0.05 -0.15 0.05
v 0.15 -0.15 0.05
v 0.25 -0.15 0.05
v 0.35 -0.15 0.05
v -0.35 -0.15 -0.05
v -0.15 -0.15 -0.05
v 0.05 -0.15 -0.05
v 0.15 -0.15 -0.05
v 0.25 -0.15 -0.05
v 0.35 -0.15 -0.05
v -0.05 -0.05 0.05
v 0.05 -0.05 0.05
v -0.05 -0.05 -0.05
v 0.05 -0.05 -0.05
v 0.05 0.05 0.05
v 0.15 0.05 0.05
v 0.05 0.05 -0.05
v 0.15 0.05 -0.05
v -0.35 -0.05 0.05
v -0.25 -0.05 0.05
v 0.05 -0.05 0.05
v 0.15 -0.05 0.05
v 0.25 -0.05 0.05
v 0.35 -0.05 0.05
v -0.35 -0.05 -0.05
v -0.25 -0.05 -0.05
v 0.05 -0.05 -0.05
v 0.15 -0.05 -0.05
v 0.25 -0.05 -0.05
v 0.35 -0.05 -0.05
v -0.25 0.05 0.05
v -0.15 0.05 0.05
v -0.05 0.05 0.05
v 0.05 0.05 0.05
v -0.25 0.05 -0.05
v -0.15 0.05 -0.05
v -0.05 0.05 -0.05
v 0.05 0.05 -0.05
v 0.05 0.15 0.05
v 0.15 0.15 0.05
v 0.05 0.15 -0.05
v 0.15 0.15 -0.05

# faces
f 3/3/1 2/3/1 1/3/1
f 4/3/1 2/3/1 3/3/1
f 7/1/1 6/1/1 5/1/1
f 8/1/1 6/1/1 7/1/1
f 11/3/1 10/3/1 9/3/1
f 12/3/1 10/3/1 11/3/1
f 15/2/1 14/2/1 13/2/1
f 16/2/1 14/2/1 15/2/1
f 19/1/1 18/1/1 17/1/1
f 20/1/1 18/1/1 19/1/1
f 21/3/2 22/3/2 23/3/2
f 23/3/2 22/3/2 24/3/2
f 23/1/2 24/1/2 25/1/2
f 25/1/2 24/1/2 26/1/2
f 27/3/2 28/3/2 29/3/2
f 29/3/2 28/3/2 30/3/2
f 31/1/2 32/1/2 33/1/2
f 33/1/2 32/1/2 34/1/2
f 35/3/2 36/3/2 37/3/2
f 37/3/2 36/3/2 38/3/2
f 41/3/3 40/3/3 39/3/3
f 43/3/3 41/3/3 39/3/3
f 44/1/3 42/1/3 41/1/3
f 44/3/3 41/3/3 43/3/3
f 45/1/3 42/1/3 44/1/3
f 49/3/3 47/3/3 46/3/3
f 50/3/3 47/3/3 49/3/3
f 52/2/3 49/2/3 48/2/3
f 53/2/3 49/2/3 52/2/3
f 54/1/3 51/1/3 50/1/3
f 55/1/3 51/1/3 54/1/3
f 56/1/3 53/1/3 52/1/3
f 57/1/3 53/1/3 56/1/3
f 58/3/3 57/3/3 56/3/3
f 59/3/3 57/3/3 58/3/3
f 60/3/4 61/3/4 62/3/4
f 60/3/4 62/3/4 64/3/4
f 62/1/4 63/1/4 65/1/4
f 64/3/4 62/3/4 65/3/4
f 65/1/4 63/1/4 66/1/4
f 67/3/4 68/3/4 70/3/4
f 70/3/4 68/3/4 71/3/4
f 69/2/4 70/2/4 73/2/4
f 73/2/4 70/2/4 74/2/4
f 71/1/4 72/1/4 75/1/4
f 75/1/4 72/1/4 76/1/4
f 73/1/4 74/1/4 77/1/4
f 77/1/4 74/1/4 78/1/4
f 77/3/4 78/3/4 79/3/4
f 79/3/4 78/3/4 80/3/4
f 87/3/5 82/3/5 81/3/5
f 88/3/5 82/3/5 87/3/5
f 89/2/5 84/2/5 83/2/5
f 90/1/5 85/1/5 84/1/5
f 90/2/5 84/2/5 89/2/5
f 91/3/5 86/3/5 85/3/5
f 91/1/5 85/1/5 90/1/5
f 92/3/5 86/3/5 91/3/5
f 95/3/5 94/3/5 93/3/5
f 96/3/5 94/3/5 95/3/5
f 99/1/5 98/1/5 97/1/5
f 100/1/5 98/1/5 99/1/5
f 101/3/6 102/3/6 107/3/6
f 107/3/6 102/3/6 108/3/6
f 103/2/6 104/2/6 109/2/6
f 104/1/6 105/1/6 110/1/6
f 109/2/6 104/2/6 110/2/6
f 105/3/6 106/3/6 111/3/6
f 110/1/6 105/1/6 111/1/6
f 111/3/6 106/3/6 112/3/6
f 113/1/6 114/1/6 117/1/6
f 117/1/6 114/1/6 118/1/6
f 115/3/6 116/3/6 119/3/6
f 119/3/6 116/3/6 120/3/6
f 121/1/6 122/1/6 123/1/6
f 123/1/6 122/1/6 124/1/6
