# MagicaVoxel @ Ephtracy

# group
o 

# material
mtllib House_Module-41.mtl
usemtl palette

# normals
vn -1 0 0
vn 1 0 0
vn 0 0 1
vn 0 0 -1
vn 0 -1 0
vn 0 1 0

# texcoords
vt 0.314453 0.5
vt 0.318359 0.5
vt 0.322266 0.5

# verts
v -1.2 -0.1 1.15
v -1.2 -0.1 1.05
v -1.2 -0.1 0.95
v -1.2 -0.1 -0.45
v -1.2 -0.1 -0.75
v -1.2 -0.1 -1.15
v -1.2 0.1 1.15
v -1.2 0.1 1.05
v -1.2 0.1 0.95
v -1.2 0.1 -0.45
v -1.2 0.1 -0.75
v -1.2 0.1 -1.15
v 1.2 -0.1 1.15
v 1.2 -0.1 0.95
v 1.2 -0.1 0.85
v 1.2 -0.1 0.45
v 1.2 -0.1 0.35
v 1.2 -0.1 -0.0500001
v 1.2 -0.1 -0.15
v 1.2 -0.1 -0.45
v 1.2 -0.1 -0.55
v 1.2 -0.1 -0.85
v 1.2 -0.1 -0.95
v 1.2 -0.1 -1.05
v 1.2 -0.1 -1.15
v 1.2 0.1 1.15
v 1.2 0.1 0.95
v 1.2 0.1 0.85
v 1.2 0.1 0.45
v 1.2 0.1 0.35
v 1.2 0.1 -0.0500001
v 1.2 0.1 -0.15
v 1.2 0.1 -0.45
v 1.2 0.1 -0.55
v 1.2 0.1 -0.85
v 1.2 0.1 -0.95
v 1.2 0.1 -1.05
v 1.2 0.1 -1.15
v -1.2 -0.1 1.15
v -1.2 0.1 1.15
v -0.7 -0.1 1.15
v -0.7 0.1 1.15
v 0.4 -0.1 1.15
v 0.4 0.1 1.15
v 0.9 -0.1 1.15
v 0.9 0.1 1.15
v 1 -0.1 1.15
v 1 0.1 1.15
v 1.2 -0.1 1.15
v 1.2 0.1 1.15
v -1.2 -0.1 -1.15
v -1.2 0.1 -1.15
v -0.8 -0.1 -1.15
v -0.8 0.1 -1.15
v -0.4 -0.1 -1.15
v -0.4 0.1 -1.15
v -0.3 -0.1 -1.15
v -0.3 0.1 -1.15
v 0.0999999 -0.1 -1.15
v 0.0999999 0.1 -1.15
v 1.1 -0.1 -1.15
v 1.1 0.1 -1.15
v 1.2 -0.1 -1.15
v 1.2 0.1 -1.15
v -1.2 -0.1 1.15
v -0.7 -0.1 1.15
v 0.4 -0.1 1.15
v 0.9 -0.1 1.15
v 1 -0.1 1.15
v 1.2 -0.1 1.15
v -1.2 -0.1 1.05
v -0.7 -0.1 1.05
v -0.6 -0.1 1.05
v 0.4 -0.1 1.05
v 0.5 -0.1 1.05
v 0.6 -0.1 1.05
v 0.7 -0.1 1.05
v 0.8 -0.1 1.05
v 0.9 -0.1 1.05
v 1 -0.1 1.05
v -1.2 -0.1 0.95
v -0.7 -0.1 0.95
v -0.6 -0.1 0.95
v 0.5 -0.1 0.95
v 0.6 -0.1 0.95
v 0.7 -0.1 0.95
v 0.8 -0.1 0.95
v 0.9 -0.1 0.95
v 1 -0.1 0.95
v 1.1 -0.1 0.95
v 1.2 -0.1 0.95
v -0.7 -0.1 0.85
v -0.6 -0.1 0.85
v 0.9 -0.1 0.85
v 1 -0.1 0.85
v 1.1 -0.1 0.85
v 1.2 -0.1 0.85
v -1 -0.1 0.75
v -0.7 -0.1 0.75
v -1 -0.1 0.65
v -0.7 -0.1 0.65
v -0.6 -0.1 0.65
v -0.4 -0.1 0.65
v -0.3 -0.1 0.65
v -0.2 -0.1 0.65
v -0.1 -0.1 0.65
v 0.2 -0.1 0.65
v 0.5 -0.1 0.65
v -1 -0.1 0.55
v -0.7 -0.1 0.55
v -0.4 -0.1 0.55
v -0.2 -0.1 0.55
v -0.1 -0.1 0.55
v 0.2 -0.1 0.55
v 0.5 -0.1 0.55
v 0.9 -0.1 0.55
v -0.7 -0.1 0.45
v -0.3 -0.1 0.45
v 0.5 -0.1 0.45
v 0.9 -0.1 0.45
v 1.2 -0.1 0.45
v 0.9 -0.1 0.35
v 1.2 -0.1 0.35
v 0 -0.1 0.15
v 0.0999999 -0.1 0.15
v 0.3 -0.1 0.15
v 0.4 -0.1 0.15
v -0.1 -0.1 0.05
v 0 -0.1 0.05
v 0.3 -0.1 0.05
v 0.4 -0.1 0.05
v 0.5 -0.1 0.05
v 0.3 -0.1 -0.0500001
v 0.5 -0.1 -0.0500001
v 1.1 -0.1 -0.0500001
v 1.2 -0.1 -0.0500001
v 0 -0.1 -0.15
v 0.0999999 -0.1 -0.15
v 0.2 -0.1 -0.15
v 0.3 -0.1 -0.15
v 0.4 -0.1 -0.15
v 0.9 -0.1 -0.15
v 1 -0.1 -0.15
v 1.1 -0.1 -0.15
v 1.2 -0.1 -0.15
v -0.7 -0.1 -0.25
v -0.5 -0.1 -0.25
v -0.2 -0.1 -0.25
v -0.1 -0.1 -0.25
v 0 -0.1 -0.25
v 0.0999999 -0.1 -0.25
v 0.2 -0.1 -0.25
v 0.3 -0.1 -0.25
v 0.4 -0.1 -0.25
v 0.5 -0.1 -0.25
v -1.1 -0.1 -0.35
v -0.9 -0.1 -0.35
v -0.7 -0.1 -0.35
v -0.5 -0.1 -0.35
v -0.4 -0.1 -0.35
v 0.9 -0.1 -0.35
v 1 -0.1 -0.35
v -1.2 -0.1 -0.45
v -1.1 -0.1 -0.45
v -0.5 -0.1 -0.45
v -0.4 -0.1 -0.45
v 0.9 -0.1 -0.45
v 1 -0.1 -0.45
v 1.1 -0.1 -0.45
v 1.2 -0.1 -0.45
v -1 -0.1 -0.55
v -0.9 -0.1 -0.55
v -0.4 -0.1 -0.55
v -0.2 -0.1 -0.55
v -0.1 -0.1 -0.55
v 0 -0.1 -0.55
v 0.2 -0.1 -0.55
v 0.3 -0.1 -0.55
v 0.4 -0.1 -0.55
v 0.5 -0.1 -0.55
v 0.7 -0.1 -0.55
v 1.1 -0.1 -0.55
v 1.2 -0.1 -0.55
v -1.1 -0.1 -0.65
v -1 -0.1 -0.65
v -0.9 -0.1 -0.65
v -0.7 -0.1 -0.65
v -0.4 -0.1 -0.65
v -0.2 -0.1 -0.65
v 0 -0.1 -0.65
v 0.0999999 -0.1 -0.65
v 0.2 -0.1 -0.65
v 0.3 -0.1 -0.65
v 0.6 -0.1 -0.65
v 0.7 -0.1 -0.65
v -1.2 -0.1 -0.75
v -1.1 -0.1 -0.75
v -1 -0.1 -0.75
v -0.9 -0.1 -0.75
v -0.7 -0.1 -0.75
v -0.4 -0.1 -0.75
v 0.0999999 -0.1 -0.75
v 0.3 -0.1 -0.75
v 0.5 -0.1 -0.75
v 0.6 -0.1 -0.75
v 1 -0.1 -0.85
v 1.2 -0.1 -0.85
v 1 -0.1 -0.95
v 1.2 -0.1 -0.95
v -0.8 -0.1 -1.05
v -0.4 -0.1 -1.05
v -0.3 -0.1 -1.05
v 0.0999999 -0.1 -1.05
v 1.1 -0.1 -1.05
v 1.2 -0.1 -1.05
v -1.2 -0.1 -1.15
v -0.8 -0.1 -1.15
v -0.4 -0.1 -1.15
v -0.3 -0.1 -1.15
v 0.0999999 -0.1 -1.15
v 1.1 -0.1 -1.15
v 1.2 -0.1 -1.15
v -1.2 0.1 1.15
v -0.7 0.1 1.15
v 0.4 0.1 1.15
v 0.9 0.1 1.15
v 1 0.1 1.15
v 1.2 0.1 1.15
v -1.2 0.1 1.05
v -0.7 0.1 1.05
v -0.6 0.1 1.05
v 0.4 0.1 1.05
v 0.5 0.1 1.05
v 0.6 0.1 1.05
v 0.7 0.1 1.05
v 0.8 0.1 1.05
v 0.9 0.1 1.05
v 1 0.1 1.05
v -1.2 0.1 0.95
v -0.7 0.1 0.95
v -0.6 0.1 0.95
v 0.5 0.1 0.95
v 0.6 0.1 0.95
v 0.7 0.1 0.95
v 0.8 0.1 0.95
v 0.9 0.1 0.95
v 1 0.1 0.95
v 1.1 0.1 0.95
v 1.2 0.1 0.95
v -0.7 0.1 0.85
v -0.6 0.1 0.85
v 0.9 0.1 0.85
v 1 0.1 0.85
v 1.1 0.1 0.85
v 1.2 0.1 0.85
v -1 0.1 0.75
v -0.7 0.1 0.75
v -1 0.1 0.65
v -0.7 0.1 0.65
v -0.6 0.1 0.65
v -0.4 0.1 0.65
v -0.3 0.1 0.65
v -0.2 0.1 0.65
v -0.1 0.1 0.65
v 0.2 0.1 0.65
v 0.5 0.1 0.65
v -1 0.1 0.55
v -0.7 0.1 0.55
v -0.4 0.1 0.55
v -0.2 0.1 0.55
v -0.1 0.1 0.55
v 0.2 0.1 0.55
v 0.5 0.1 0.55
v 0.9 0.1 0.55
v -0.7 0.1 0.45
v -0.3 0.1 0.45
v 0.5 0.1 0.45
v 0.9 0.1 0.45
v 1.2 0.1 0.45
v 0.9 0.1 0.35
v 1.2 0.1 0.35
v 0 0.1 0.15
v 0.0999999 0.1 0.15
v 0.3 0.1 0.15
v 0.4 0.1 0.15
v -0.1 0.1 0.05
v 0 0.1 0.05
v 0.3 0.1 0.05
v 0.4 0.1 0.05
v 0.5 0.1 0.05
v 0.3 0.1 -0.0500001
v 0.5 0.1 -0.0500001
v 1.1 0.1 -0.0500001
v 1.2 0.1 -0.0500001
v 0 0.1 -0.15
v 0.0999999 0.1 -0.15
v 0.2 0.1 -0.15
v 0.3 0.1 -0.15
v 0.4 0.1 -0.15
v 0.9 0.1 -0.15
v 1 0.1 -0.15
v 1.1 0.1 -0.15
v 1.2 0.1 -0.15
v -0.7 0.1 -0.25
v -0.5 0.1 -0.25
v -0.2 0.1 -0.25
v -0.1 0.1 -0.25
v 0 0.1 -0.25
v 0.0999999 0.1 -0.25
v 0.2 0.1 -0.25
v 0.3 0.1 -0.25
v 0.4 0.1 -0.25
v 0.5 0.1 -0.25
v -1.1 0.1 -0.35
v -0.9 0.1 -0.35
v -0.7 0.1 -0.35
v -0.5 0.1 -0.35
v -0.4 0.1 -0.35
v 0.9 0.1 -0.35
v 1 0.1 -0.35
v -1.2 0.1 -0.45
v -1.1 0.1 -0.45
v -0.5 0.1 -0.45
v -0.4 0.1 -0.45
v 0.9 0.1 -0.45
v 1 0.1 -0.45
v 1.1 0.1 -0.45
v 1.2 0.1 -0.45
v -1 0.1 -0.55
v -0.9 0.1 -0.55
v -0.4 0.1 -0.55
v -0.2 0.1 -0.55
v -0.1 0.1 -0.55
v 0 0.1 -0.55
v 0.2 0.1 -0.55
v 0.3 0.1 -0.55
v 0.4 0.1 -0.55
v 0.5 0.1 -0.55
v 0.7 0.1 -0.55
v 1.1 0.1 -0.55
v 1.2 0.1 -0.55
v -1.1 0.1 -0.65
v -1 0.1 -0.65
v -0.9 0.1 -0.65
v -0.7 0.1 -0.65
v -0.4 0.1 -0.65
v -0.2 0.1 -0.65
v 0 0.1 -0.65
v 0.0999999 0.1 -0.65
v 0.2 0.1 -0.65
v 0.3 0.1 -0.65
v 0.6 0.1 -0.65
v 0.7 0.1 -0.65
v -1.2 0.1 -0.75
v -1.1 0.1 -0.75
v -1 0.1 -0.75
v -0.9 0.1 -0.75
v -0.7 0.1 -0.75
v -0.4 0.1 -0.75
v 0.0999999 0.1 -0.75
v 0.3 0.1 -0.75
v 0.5 0.1 -0.75
v 0.6 0.1 -0.75
v 1 0.1 -0.85
v 1.2 0.1 -0.85
v 1 0.1 -0.95
v 1.2 0.1 -0.95
v -0.8 0.1 -1.05
v -0.4 0.1 -1.05
v -0.3 0.1 -1.05
v 0.0999999 0.1 -1.05
v 1.1 0.1 -1.05
v 1.2 0.1 -1.05
v -1.2 0.1 -1.15
v -0.8 0.1 -1.15
v -0.4 0.1 -1.15
v -0.3 0.1 -1.15
v 0.0999999 0.1 -1.15
v 1.1 0.1 -1.15
v 1.2 0.1 -1.15

# faces
f 7/3/1 2/3/1 1/3/1
f 8/2/1 3/2/1 2/2/1
f 8/3/1 2/3/1 7/3/1
f 9/3/1 4/3/1 3/3/1
f 9/2/1 3/2/1 8/2/1
f 10/2/1 5/2/1 4/2/1
f 10/3/1 4/3/1 9/3/1
f 11/3/1 6/3/1 5/3/1
f 11/2/1 5/2/1 10/2/1
f 12/3/1 6/3/1 11/3/1
f 13/3/2 14/3/2 26/3/2
f 14/2/2 15/2/2 27/2/2
f 26/3/2 14/3/2 27/3/2
f 15/3/2 16/3/2 28/3/2
f 27/2/2 15/2/2 28/2/2
f 16/2/2 17/2/2 29/2/2
f 28/3/2 16/3/2 29/3/2
f 17/3/2 18/3/2 30/3/2
f 29/2/2 17/2/2 30/2/2
f 18/2/2 19/2/2 31/2/2
f 30/3/2 18/3/2 31/3/2
f 19/3/2 20/3/2 32/3/2
f 31/2/2 19/2/2 32/2/2
f 20/2/2 21/2/2 33/2/2
f 32/3/2 20/3/2 33/3/2
f 21/3/2 22/3/2 34/3/2
f 33/2/2 21/2/2 34/2/2
f 22/2/2 23/2/2 35/2/2
f 34/3/2 22/3/2 35/3/2
f 23/3/2 24/3/2 36/3/2
f 35/2/2 23/2/2 36/2/2
f 24/2/2 25/2/2 37/2/2
f 36/3/2 24/3/2 37/3/2
f 37/2/2 25/2/2 38/2/2
f 41/3/3 40/3/3 39/3/3
f 42/3/3 40/3/3 41/3/3
f 43/2/3 42/2/3 41/2/3
f 44/2/3 42/2/3 43/2/3
f 45/3/3 44/3/3 43/3/3
f 46/3/3 44/3/3 45/3/3
f 47/2/3 46/2/3 45/2/3
f 48/2/3 46/2/3 47/2/3
f 49/3/3 48/3/3 47/3/3
f 50/3/3 48/3/3 49/3/3
f 51/3/4 52/3/4 53/3/4
f 53/3/4 52/3/4 54/3/4
f 53/1/4 54/1/4 55/1/4
f 55/1/4 54/1/4 56/1/4
f 55/3/4 56/3/4 57/3/4
f 57/3/4 56/3/4 58/3/4
f 57/1/4 58/1/4 59/1/4
f 59/1/4 58/1/4 60/1/4
f 59/3/4 60/3/4 61/3/4
f 61/3/4 60/3/4 62/3/4
f 61/2/4 62/2/4 63/2/4
f 63/2/4 62/2/4 64/2/4
f 71/3/5 66/3/5 65/3/5
f 72/2/5 67/2/5 66/2/5
f 72/3/5 66/3/5 71/3/5
f 73/2/5 67/2/5 72/2/5
f 74/3/5 68/3/5 67/3/5
f 74/2/5 67/2/5 73/2/5
f 75/3/5 68/3/5 74/3/5
f 76/3/5 68/3/5 75/3/5
f 77/3/5 68/3/5 76/3/5
f 78/3/5 68/3/5 77/3/5
f 79/2/5 69/2/5 68/2/5
f 79/3/5 68/3/5 78/3/5
f 80/3/5 70/3/5 69/3/5
f 80/2/5 69/2/5 79/2/5
f 81/2/5 72/2/5 71/2/5
f 82/1/5 73/1/5 72/1/5
f 82/2/5 72/2/5 81/2/5
f 83/3/5 74/3/5 73/3/5
f 83/1/5 73/1/5 82/1/5
f 83/3/5 75/3/5 74/3/5
f 84/2/5 76/2/5 75/2/5
f 84/3/5 75/3/5 83/3/5
f 85/3/5 77/3/5 76/3/5
f 85/2/5 76/2/5 84/2/5
f 86/2/5 78/2/5 77/2/5
f 86/3/5 77/3/5 85/3/5
f 87/1/5 79/1/5 78/1/5
f 87/2/5 78/2/5 86/2/5
f 87/1/5 80/1/5 79/1/5
f 88/1/5 80/1/5 87/1/5
f 89/3/5 70/3/5 80/3/5
f 89/1/5 80/1/5 88/1/5
f 90/3/5 70/3/5 89/3/5
f 91/3/5 70/3/5 90/3/5
f 92/3/5 82/3/5 81/3/5
f 92/2/5 83/2/5 82/2/5
f 93/3/5 86/3/5 85/3/5
f 93/2/5 83/2/5 92/2/5
f 93/3/5 85/3/5 84/3/5
f 93/3/5 88/3/5 87/3/5
f 93/3/5 84/3/5 83/3/5
f 93/3/5 87/3/5 86/3/5
f 94/2/5 89/2/5 88/2/5
f 94/3/5 88/3/5 93/3/5
f 95/3/5 90/3/5 89/3/5
f 95/2/5 89/2/5 94/2/5
f 96/2/5 91/2/5 90/2/5
f 96/3/5 90/3/5 95/3/5
f 97/2/5 91/2/5 96/2/5
f 98/3/5 92/3/5 81/3/5
f 99/1/5 93/1/5 92/1/5
f 99/3/5 92/3/5 98/3/5
f 100/3/5 98/3/5 81/3/5
f 100/2/5 99/2/5 98/2/5
f 101/1/5 93/1/5 99/1/5
f 101/2/5 99/2/5 100/2/5
f 102/3/5 94/3/5 93/3/5
f 102/1/5 93/1/5 101/1/5
f 102/3/5 95/3/5 94/3/5
f 102/3/5 97/3/5 96/3/5
f 102/3/5 96/3/5 95/3/5
f 103/3/5 97/3/5 102/3/5
f 104/3/5 97/3/5 103/3/5
f 105/3/5 97/3/5 104/3/5
f 106/3/5 97/3/5 105/3/5
f 107/3/5 97/3/5 106/3/5
f 108/3/5 97/3/5 107/3/5
f 109/1/5 101/1/5 100/1/5
f 109/3/5 100/3/5 81/3/5
f 109/1/5 102/1/5 101/1/5
f 109/1/5 103/1/5 102/1/5
f 110/1/5 103/1/5 109/1/5
f 111/2/5 104/2/5 103/2/5
f 111/1/5 103/1/5 110/1/5
f 112/2/5 106/2/5 105/2/5
f 112/3/5 105/3/5 104/3/5
f 113/3/5 107/3/5 106/3/5
f 113/2/5 106/2/5 112/2/5
f 114/2/5 108/2/5 107/2/5
f 114/3/5 107/3/5 113/3/5
f 115/3/5 97/3/5 108/3/5
f 115/2/5 108/2/5 114/2/5
f 116/3/5 97/3/5 115/3/5
f 117/3/5 110/3/5 109/3/5
f 117/2/5 111/2/5 110/2/5
f 118/3/5 114/3/5 113/3/5
f 118/2/5 111/2/5 117/2/5
f 118/3/5 113/3/5 112/3/5
f 118/3/5 115/3/5 114/3/5
f 118/3/5 112/3/5 104/3/5
f 118/2/5 104/2/5 111/2/5
f 119/2/5 116/2/5 115/2/5
f 119/3/5 115/3/5 118/3/5
f 120/3/5 97/3/5 116/3/5
f 120/2/5 116/2/5 119/2/5
f 121/3/5 97/3/5 120/3/5
f 122/3/5 118/3/5 117/3/5
f 122/3/5 119/3/5 118/3/5
f 122/2/5 121/2/5 120/2/5
f 122/3/5 120/3/5 119/3/5
f 123/2/5 121/2/5 122/2/5
f 124/3/5 122/3/5 117/3/5
f 124/3/5 123/3/5 122/3/5
f 125/3/5 123/3/5 124/3/5
f 126/3/5 123/3/5 125/3/5
f 127/3/5 123/3/5 126/3/5
f 128/3/5 124/3/5 117/3/5
f 129/2/5 125/2/5 124/2/5
f 129/3/5 124/3/5 128/3/5
f 130/3/5 126/3/5 125/3/5
f 130/2/5 127/2/5 126/2/5
f 131/3/5 123/3/5 127/3/5
f 131/2/5 127/2/5 130/2/5
f 132/3/5 123/3/5 131/3/5
f 133/3/5 130/3/5 125/3/5
f 133/1/5 131/1/5 130/1/5
f 133/1/5 132/1/5 131/1/5
f 134/3/5 123/3/5 132/3/5
f 134/1/5 132/1/5 133/1/5
f 135/3/5 123/3/5 134/3/5
f 136/3/5 123/3/5 135/3/5
f 137/2/5 125/2/5 129/2/5
f 137/2/5 129/2/5 128/2/5
f 138/3/5 133/3/5 125/3/5
f 138/2/5 125/2/5 137/2/5
f 138/3/5 134/3/5 133/3/5
f 138/3/5 135/3/5 134/3/5
f 139/3/5 135/3/5 138/3/5
f 140/3/5 135/3/5 139/3/5
f 141/3/5 135/3/5 140/3/5
f 142/3/5 135/3/5 141/3/5
f 143/3/5 135/3/5 142/3/5
f 144/2/5 136/2/5 135/2/5
f 144/3/5 135/3/5 143/3/5
f 145/2/5 136/2/5 144/2/5
f 146/3/5 117/3/5 109/3/5
f 146/3/5 128/3/5 117/3/5
f 147/3/5 128/3/5 146/3/5
f 148/3/5 128/3/5 147/3/5
f 149/2/5 137/2/5 128/2/5
f 149/3/5 128/3/5 148/3/5
f 150/1/5 138/1/5 137/1/5
f 150/2/5 137/2/5 149/2/5
f 151/2/5 139/2/5 138/2/5
f 151/1/5 138/1/5 150/1/5
f 152/3/5 140/3/5 139/3/5
f 152/2/5 139/2/5 151/2/5
f 153/2/5 141/2/5 140/2/5
f 153/3/5 140/3/5 152/3/5
f 154/3/5 142/3/5 141/3/5
f 154/2/5 141/2/5 153/2/5
f 155/3/5 142/3/5 154/3/5
f 156/3/5 109/3/5 81/3/5
f 156/3/5 146/3/5 109/3/5
f 157/3/5 146/3/5 156/3/5
f 158/2/5 147/2/5 146/2/5
f 158/3/5 146/3/5 157/3/5
f 159/3/5 148/3/5 147/3/5
f 159/2/5 147/2/5 158/2/5
f 160/3/5 148/3/5 159/3/5
f 161/3/5 142/3/5 155/3/5
f 161/2/5 143/2/5 142/2/5
f 162/3/5 145/3/5 144/3/5
f 162/2/5 143/2/5 161/2/5
f 162/3/5 144/3/5 143/3/5
f 163/3/5 156/3/5 81/3/5
f 164/2/5 157/2/5 156/2/5
f 164/3/5 156/3/5 163/3/5
f 165/3/5 158/3/5 157/3/5
f 165/2/5 160/2/5 159/2/5
f 165/3/5 159/3/5 158/3/5
f 166/3/5 148/3/5 160/3/5
f 166/2/5 160/2/5 165/2/5
f 167/3/5 161/3/5 155/3/5
f 167/1/5 162/1/5 161/1/5
f 168/3/5 145/3/5 162/3/5
f 168/1/5 162/1/5 167/1/5
f 169/3/5 145/3/5 168/3/5
f 170/3/5 145/3/5 169/3/5
f 171/2/5 157/2/5 164/2/5
f 171/2/5 164/2/5 163/2/5
f 172/3/5 165/3/5 157/3/5
f 172/2/5 157/2/5 171/2/5
f 172/3/5 166/3/5 165/3/5
f 173/3/5 148/3/5 166/3/5
f 173/3/5 166/3/5 172/3/5
f 174/2/5 149/2/5 148/2/5
f 174/3/5 148/3/5 173/3/5
f 175/1/5 150/1/5 149/1/5
f 175/2/5 149/2/5 174/2/5
f 175/1/5 151/1/5 150/1/5
f 175/1/5 152/1/5 151/1/5
f 176/1/5 152/1/5 175/1/5
f 177/3/5 153/3/5 152/3/5
f 177/1/5 152/1/5 176/1/5
f 178/1/5 154/1/5 153/1/5
f 178/3/5 153/3/5 177/3/5
f 179/2/5 155/2/5 154/2/5
f 179/1/5 154/1/5 178/1/5
f 180/3/5 168/3/5 167/3/5
f 180/2/5 155/2/5 179/2/5
f 180/3/5 167/3/5 155/3/5
f 180/3/5 169/3/5 168/3/5
f 181/3/5 169/3/5 180/3/5
f 182/2/5 170/2/5 169/2/5
f 182/3/5 169/3/5 181/3/5
f 183/2/5 170/2/5 182/2/5
f 184/2/5 171/2/5 163/2/5
f 185/3/5 172/3/5 171/3/5
f 185/2/5 171/2/5 184/2/5
f 185/3/5 173/3/5 172/3/5
f 186/3/5 173/3/5 185/3/5
f 187/3/5 173/3/5 186/3/5
f 188/2/5 174/2/5 173/2/5
f 188/3/5 173/3/5 187/3/5
f 189/1/5 175/1/5 174/1/5
f 189/2/5 174/2/5 188/2/5
f 189/1/5 176/1/5 175/1/5
f 190/2/5 177/2/5 176/2/5
f 190/1/5 176/1/5 189/1/5
f 191/2/5 177/2/5 190/2/5
f 192/1/5 179/1/5 178/1/5
f 192/2/5 177/2/5 191/2/5
f 192/1/5 178/1/5 177/1/5
f 192/1/5 180/1/5 179/1/5
f 193/1/5 180/1/5 192/1/5
f 194/2/5 181/2/5 180/2/5
f 195/3/5 183/3/5 182/3/5
f 195/2/5 181/2/5 194/2/5
f 195/3/5 182/3/5 181/3/5
f 196/2/5 184/2/5 163/2/5
f 197/3/5 185/3/5 184/3/5
f 197/2/5 184/2/5 196/2/5
f 198/2/5 186/2/5 185/2/5
f 198/3/5 185/3/5 197/3/5
f 199/1/5 187/1/5 186/1/5
f 199/2/5 186/2/5 198/2/5
f 200/2/5 188/2/5 187/2/5
f 200/1/5 187/1/5 199/1/5
f 201/3/5 191/3/5 190/3/5
f 201/2/5 188/2/5 200/2/5
f 201/3/5 189/3/5 188/3/5
f 201/3/5 190/3/5 189/3/5
f 202/2/5 192/2/5 191/2/5
f 202/3/5 191/3/5 201/3/5
f 202/2/5 193/2/5 192/2/5
f 203/1/5 180/1/5 193/1/5
f 203/2/5 193/2/5 202/2/5
f 204/2/5 194/2/5 180/2/5
f 204/1/5 180/1/5 203/1/5
f 205/3/5 195/3/5 194/3/5
f 205/2/5 194/2/5 204/2/5
f 206/3/5 183/3/5 195/3/5
f 206/3/5 195/3/5 205/3/5
f 206/3/5 205/3/5 204/3/5
f 206/3/5 202/3/5 201/3/5
f 206/3/5 203/3/5 202/3/5
f 206/3/5 201/3/5 200/3/5
f 206/3/5 204/3/5 203/3/5
f 206/3/5 197/3/5 196/3/5
f 206/3/5 199/3/5 198/3/5
f 206/3/5 200/3/5 199/3/5
f 206/3/5 198/3/5 197/3/5
f 207/3/5 183/3/5 206/3/5
f 208/3/5 206/3/5 196/3/5
f 208/2/5 207/2/5 206/2/5
f 209/2/5 207/2/5 208/2/5
f 210/3/5 208/3/5 196/3/5
f 210/3/5 209/3/5 208/3/5
f 211/3/5 209/3/5 210/3/5
f 212/3/5 209/3/5 211/3/5
f 213/3/5 209/3/5 212/3/5
f 214/3/5 209/3/5 213/3/5
f 215/3/5 209/3/5 214/3/5
f 216/3/5 210/3/5 196/3/5
f 217/1/5 211/1/5 210/1/5
f 217/3/5 210/3/5 216/3/5
f 218/3/5 212/3/5 211/3/5
f 218/1/5 211/1/5 217/1/5
f 219/1/5 213/1/5 212/1/5
f 219/3/5 212/3/5 218/3/5
f 220/3/5 214/3/5 213/3/5
f 220/1/5 213/1/5 219/1/5
f 221/2/5 215/2/5 214/2/5
f 221/3/5 214/3/5 220/3/5
f 222/2/5 215/2/5 221/2/5
f 223/3/6 224/3/6 229/3/6
f 224/2/6 225/2/6 230/2/6
f 229/3/6 224/3/6 230/3/6
f 230/2/6 225/2/6 231/2/6
f 225/3/6 226/3/6 232/3/6
f 231/2/6 225/2/6 232/2/6
f 232/3/6 226/3/6 233/3/6
f 233/3/6 226/3/6 234/3/6
f 234/3/6 226/3/6 235/3/6
f 235/3/6 226/3/6 236/3/6
f 226/2/6 227/2/6 237/2/6
f 236/3/6 226/3/6 237/3/6
f 227/3/6 228/3/6 238/3/6
f 237/2/6 227/2/6 238/2/6
f 229/2/6 230/2/6 239/2/6
f 230/1/6 231/1/6 240/1/6
f 239/2/6 230/2/6 240/2/6
f 231/3/6 232/3/6 241/3/6
f 240/1/6 231/1/6 241/1/6
f 232/3/6 233/3/6 241/3/6
f 233/2/6 234/2/6 242/2/6
f 241/3/6 233/3/6 242/3/6
f 234/3/6 235/3/6 243/3/6
f 242/2/6 234/2/6 243/2/6
f 235/2/6 236/2/6 244/2/6
f 243/3/6 235/3/6 244/3/6
f 236/1/6 237/1/6 245/1/6
f 244/2/6 236/2/6 245/2/6
f 237/1/6 238/1/6 245/1/6
f 245/1/6 238/1/6 246/1/6
f 238/3/6 228/3/6 247/3/6
f 246/1/6 238/1/6 247/1/6
f 247/3/6 228/3/6 248/3/6
f 248/3/6 228/3/6 249/3/6
f 239/3/6 240/3/6 250/3/6
f 240/2/6 241/2/6 250/2/6
f 243/3/6 244/3/6 251/3/6
f 250/2/6 241/2/6 251/2/6
f 242/3/6 243/3/6 251/3/6
f 245/3/6 246/3/6 251/3/6
f 241/3/6 242/3/6 251/3/6
f 244/3/6 245/3/6 251/3/6
f 246/2/6 247/2/6 252/2/6
f 251/3/6 246/3/6 252/3/6
f 247/3/6 248/3/6 253/3/6
f 252/2/6 247/2/6 253/2/6
f 248/2/6 249/2/6 254/2/6
f 253/3/6 248/3/6 254/3/6
f 254/2/6 249/2/6 255/2/6
f 239/3/6 250/3/6 256/3/6
f 250/1/6 251/1/6 257/1/6
f 256/3/6 250/3/6 257/3/6
f 239/3/6 256/3/6 258/3/6
f 256/2/6 257/2/6 258/2/6
f 257/1/6 251/1/6 259/1/6
f 258/2/6 257/2/6 259/2/6
f 251/3/6 252/3/6 260/3/6
f 259/1/6 251/1/6 260/1/6
f 252/3/6 253/3/6 260/3/6
f 254/3/6 255/3/6 260/3/6
f 253/3/6 254/3/6 260/3/6
f 260/3/6 255/3/6 261/3/6
f 261/3/6 255/3/6 262/3/6
f 262/3/6 255/3/6 263/3/6
f 263/3/6 255/3/6 264/3/6
f 264/3/6 255/3/6 265/3/6
f 265/3/6 255/3/6 266/3/6
f 258/1/6 259/1/6 267/1/6
f 239/3/6 258/3/6 267/3/6
f 259/1/6 260/1/6 267/1/6
f 260/1/6 261/1/6 267/1/6
f 267/1/6 261/1/6 268/1/6
f 261/2/6 262/2/6 269/2/6
f 268/1/6 261/1/6 269/1/6
f 263/2/6 264/2/6 270/2/6
f 262/3/6 263/3/6 270/3/6
f 264/3/6 265/3/6 271/3/6
f 270/2/6 264/2/6 271/2/6
f 265/2/6 266/2/6 272/2/6
f 271/3/6 265/3/6 272/3/6
f 266/3/6 255/3/6 273/3/6
f 272/2/6 266/2/6 273/2/6
f 273/3/6 255/3/6 274/3/6
f 267/3/6 268/3/6 275/3/6
f 268/2/6 269/2/6 275/2/6
f 271/3/6 272/3/6 276/3/6
f 275/2/6 269/2/6 276/2/6
f 270/3/6 271/3/6 276/3/6
f 272/3/6 273/3/6 276/3/6
f 262/3/6 270/3/6 276/3/6
f 269/2/6 262/2/6 276/2/6
f 273/2/6 274/2/6 277/2/6
f 276/3/6 273/3/6 277/3/6
f 274/3/6 255/3/6 278/3/6
f 277/2/6 274/2/6 278/2/6
f 278/3/6 255/3/6 279/3/6
f 275/3/6 276/3/6 280/3/6
f 276/3/6 277/3/6 280/3/6
f 278/2/6 279/2/6 280/2/6
f 277/3/6 278/3/6 280/3/6
f 280/2/6 279/2/6 281/2/6
f 275/3/6 280/3/6 282/3/6
f 280/3/6 281/3/6 282/3/6
f 282/3/6 281/3/6 283/3/6
f 283/3/6 281/3/6 284/3/6
f 284/3/6 281/3/6 285/3/6
f 275/3/6 282/3/6 286/3/6
f 282/2/6 283/2/6 287/2/6
f 286/3/6 282/3/6 287/3/6
f 283/3/6 284/3/6 288/3/6
f 284/2/6 285/2/6 288/2/6
f 285/3/6 281/3/6 289/3/6
f 288/2/6 285/2/6 289/2/6
f 289/3/6 281/3/6 290/3/6
f 283/3/6 288/3/6 291/3/6
f 288/1/6 289/1/6 291/1/6
f 289/1/6 290/1/6 291/1/6
f 290/3/6 281/3/6 292/3/6
f 291/1/6 290/1/6 292/1/6
f 292/3/6 281/3/6 293/3/6
f 293/3/6 281/3/6 294/3/6
f 287/2/6 283/2/6 295/2/6
f 286/2/6 287/2/6 295/2/6
f 283/3/6 291/3/6 296/3/6
f 295/2/6 283/2/6 296/2/6
f 291/3/6 292/3/6 296/3/6
f 292/3/6 293/3/6 296/3/6
f 296/3/6 293/3/6 297/3/6
f 297/3/6 293/3/6 298/3/6
f 298/3/6 293/3/6 299/3/6
f 299/3/6 293/3/6 300/3/6
f 300/3/6 293/3/6 301/3/6
f 293/2/6 294/2/6 302/2/6
f 301/3/6 293/3/6 302/3/6
f 302/2/6 294/2/6 303/2/6
f 267/3/6 275/3/6 304/3/6
f 275/3/6 286/3/6 304/3/6
f 304/3/6 286/3/6 305/3/6
f 305/3/6 286/3/6 306/3/6
f 286/2/6 295/2/6 307/2/6
f 306/3/6 286/3/6 307/3/6
f 295/1/6 296/1/6 308/1/6
f 307/2/6 295/2/6 308/2/6
f 296/2/6 297/2/6 309/2/6
f 308/1/6 296/1/6 309/1/6
f 297/3/6 298/3/6 310/3/6
f 309/2/6 297/2/6 310/2/6
f 298/2/6 299/2/6 311/2/6
f 310/3/6 298/3/6 311/3/6
f 299/3/6 300/3/6 312/3/6
f 311/2/6 299/2/6 312/2/6
f 312/3/6 300/3/6 313/3/6
f 239/3/6 267/3/6 314/3/6
f 267/3/6 304/3/6 314/3/6
f 314/3/6 304/3/6 315/3/6
f 304/2/6 305/2/6 316/2/6
f 315/3/6 304/3/6 316/3/6
f 305/3/6 306/3/6 317/3/6
f 316/2/6 305/2/6 317/2/6
f 317/3/6 306/3/6 318/3/6
f 313/3/6 300/3/6 319/3/6
f 300/2/6 301/2/6 319/2/6
f 302/3/6 303/3/6 320/3/6
f 319/2/6 301/2/6 320/2/6
f 301/3/6 302/3/6 320/3/6
f 239/3/6 314/3/6 321/3/6
f 314/2/6 315/2/6 322/2/6
f 321/3/6 314/3/6 322/3/6
f 315/3/6 316/3/6 323/3/6
f 317/2/6 318/2/6 323/2/6
f 316/3/6 317/3/6 323/3/6
f 318/3/6 306/3/6 324/3/6
f 323/2/6 318/2/6 324/2/6
f 313/3/6 319/3/6 325/3/6
f 319/1/6 320/1/6 325/1/6
f 320/3/6 303/3/6 326/3/6
f 325/1/6 320/1/6 326/1/6
f 326/3/6 303/3/6 327/3/6
f 327/3/6 303/3/6 328/3/6
f 322/2/6 315/2/6 329/2/6
f 321/2/6 322/2/6 329/2/6
f 315/3/6 323/3/6 330/3/6
f 329/2/6 315/2/6 330/2/6
f 323/3/6 324/3/6 330/3/6
f 324/3/6 306/3/6 331/3/6
f 330/3/6 324/3/6 331/3/6
f 306/2/6 307/2/6 332/2/6
f 331/3/6 306/3/6 332/3/6
f 307/1/6 308/1/6 333/1/6
f 332/2/6 307/2/6 333/2/6
f 308/1/6 309/1/6 333/1/6
f 309/1/6 310/1/6 333/1/6
f 333/1/6 310/1/6 334/1/6
f 310/3/6 311/3/6 335/3/6
f 334/1/6 310/1/6 335/1/6
f 311/1/6 312/1/6 336/1/6
f 335/3/6 311/3/6 336/3/6
f 312/2/6 313/2/6 337/2/6
f 336/1/6 312/1/6 337/1/6
f 325/3/6 326/3/6 338/3/6
f 337/2/6 313/2/6 338/2/6
f 313/3/6 325/3/6 338/3/6
f 326/3/6 327/3/6 338/3/6
f 338/3/6 327/3/6 339/3/6
f 327/2/6 328/2/6 340/2/6
f 339/3/6 327/3/6 340/3/6
f 340/2/6 328/2/6 341/2/6
f 321/2/6 329/2/6 342/2/6
f 329/3/6 330/3/6 343/3/6
f 342/2/6 329/2/6 343/2/6
f 330/3/6 331/3/6 343/3/6
f 343/3/6 331/3/6 344/3/6
f 344/3/6 331/3/6 345/3/6
f 331/2/6 332/2/6 346/2/6
f 345/3/6 331/3/6 346/3/6
f 332/1/6 333/1/6 347/1/6
f 346/2/6 332/2/6 347/2/6
f 333/1/6 334/1/6 347/1/6
f 334/2/6 335/2/6 348/2/6
f 347/1/6 334/1/6 348/1/6
f 348/2/6 335/2/6 349/2/6
f 336/1/6 337/1/6 350/1/6
f 349/2/6 335/2/6 350/2/6
f 335/1/6 336/1/6 350/1/6
f 337/1/6 338/1/6 350/1/6
f 350/1/6 338/1/6 351/1/6
f 338/2/6 339/2/6 352/2/6
f 340/3/6 341/3/6 353/3/6
f 352/2/6 339/2/6 353/2/6
f 339/3/6 340/3/6 353/3/6
f 321/2/6 342/2/6 354/2/6
f 342/3/6 343/3/6 355/3/6
f 354/2/6 342/2/6 355/2/6
f 343/2/6 344/2/6 356/2/6
f 355/3/6 343/3/6 356/3/6
f 344/1/6 345/1/6 357/1/6
f 356/2/6 344/2/6 357/2/6
f 345/2/6 346/2/6 358/2/6
f 357/1/6 345/1/6 358/1/6
f 348/3/6 349/3/6 359/3/6
f 358/2/6 346/2/6 359/2/6
f 346/3/6 347/3/6 359/3/6
f 347/3/6 348/3/6 359/3/6
f 349/2/6 350/2/6 360/2/6
f 359/3/6 349/3/6 360/3/6
f 350/2/6 351/2/6 360/2/6
f 351/1/6 338/1/6 361/1/6
f 360/2/6 351/2/6 361/2/6
f 338/2/6 352/2/6 362/2/6
f 361/1/6 338/1/6 362/1/6
f 352/3/6 353/3/6 363/3/6
f 362/2/6 352/2/6 363/2/6
f 353/3/6 341/3/6 364/3/6
f 363/3/6 353/3/6 364/3/6
f 362/3/6 363/3/6 364/3/6
f 359/3/6 360/3/6 364/3/6
f 360/3/6 361/3/6 364/3/6
f 358/3/6 359/3/6 364/3/6
f 361/3/6 362/3/6 364/3/6
f 354/3/6 355/3/6 364/3/6
f 356/3/6 357/3/6 364/3/6
f 357/3/6 358/3/6 364/3/6
f 355/3/6 356/3/6 364/3/6
f 364/3/6 341/3/6 365/3/6
f 354/3/6 364/3/6 366/3/6
f 364/2/6 365/2/6 366/2/6
f 366/2/6 365/2/6 367/2/6
f 354/3/6 366/3/6 368/3/6
f 366/3/6 367/3/6 368/3/6
f 368/3/6 367/3/6 369/3/6
f 369/3/6 367/3/6 370/3/6
f 370/3/6 367/3/6 371/3/6
f 371/3/6 367/3/6 372/3/6
f 372/3/6 367/3/6 373/3/6
f 354/3/6 368/3/6 374/3/6
f 368/1/6 369/1/6 375/1/6
f 374/3/6 368/3/6 375/3/6
f 369/3/6 370/3/6 376/3/6
f 375/1/6 369/1/6 376/1/6
f 370/1/6 371/1/6 377/1/6
f 376/3/6 370/3/6 377/3/6
f 371/3/6 372/3/6 378/3/6
f 377/1/6 371/1/6 378/1/6
f 372/2/6 373/2/6 379/2/6
f 378/3/6 372/3/6 379/3/6
f 379/2/6 373/2/6 380/2/6
