# MagicaVoxel @ Ephtracy

# group
o 

# material
mtllib House_Module-52.mtl
usemtl palette

# normals
vn -1 0 0
vn 1 0 0
vn 0 0 1
vn 0 0 -1
vn 0 -1 0
vn 0 1 0

# texcoords
vt 0.314453 0.5
vt 0.318359 0.5
vt 0.322266 0.5

# verts
v -2.1 -0.05 0.05
v -2.1 -0.05 -0.15
v -2.1 0.05 0.05
v -2.1 0.05 -0.15
v -2 -0.05 0.15
v -2 -0.05 0.05
v -2 0.05 0.15
v -2 0.05 0.05
v -1 -0.05 0.05
v -1 -0.05 -0.05
v -1 0.05 0.05
v -1 0.05 -0.05
v -0.9 -0.05 0.15
v -0.9 -0.05 0.05
v -0.9 0.05 0.15
v -0.9 0.05 0.05
v -1.2 -0.05 0.15
v -1.2 -0.05 0.05
v -1.2 0.05 0.15
v -1.2 0.05 0.05
v -1.1 -0.05 0.05
v -1.1 -0.05 -0.05
v -1.1 0.05 0.05
v -1.1 0.05 -0.05
v 2.1 -0.05 0.15
v 2.1 -0.05 -0.15
v 2.1 0.05 0.15
v 2.1 0.05 -0.15
v -2 -0.05 0.15
v -2 0.05 0.15
v -1.9 -0.05 0.15
v -1.9 0.05 0.15
v -1.8 -0.05 0.15
v -1.8 0.05 0.15
v -1.2 -0.05 0.15
v -1.2 0.05 0.15
v -0.9 -0.05 0.15
v -0.9 0.05 0.15
v -0.7 -0.05 0.15
v -0.7 0.05 0.15
v 0.3 -0.05 0.15
v 0.3 0.05 0.15
v 0.4 -0.05 0.15
v 0.4 0.05 0.15
v 0.9 -0.05 0.15
v 0.9 0.05 0.15
v 1.1 -0.05 0.15
v 1.1 0.05 0.15
v 1.4 -0.05 0.15
v 1.4 0.05 0.15
v 1.6 -0.05 0.15
v 1.6 0.05 0.15
v 2.1 -0.05 0.15
v 2.1 0.05 0.15
v -2.1 -0.05 0.05
v -2.1 0.05 0.05
v -2 -0.05 0.05
v -2 0.05 0.05
v -1.2 -0.05 0.05
v -1.2 0.05 0.05
v -1.1 -0.05 0.05
v -1.1 0.05 0.05
v -1 -0.05 0.05
v -1 0.05 0.05
v -0.9 -0.05 0.05
v -0.9 0.05 0.05
v -1.1 -0.05 -0.05
v -1.1 0.05 -0.05
v -1 -0.05 -0.05
v -1 0.05 -0.05
v -2.1 -0.05 -0.15
v -2.1 0.05 -0.15
v 0.3 -0.05 -0.15
v 0.3 0.05 -0.15
v 0.4 -0.05 -0.15
v 0.4 0.05 -0.15
v 2.1 -0.05 -0.15
v 2.1 0.05 -0.15
v -2 -0.05 0.15
v -1.9 -0.05 0.15
v -1.8 -0.05 0.15
v -1.2 -0.05 0.15
v -0.9 -0.05 0.15
v -0.7 -0.05 0.15
v 0.3 -0.05 0.15
v 0.4 -0.05 0.15
v 0.9 -0.05 0.15
v 1.1 -0.05 0.15
v 1.4 -0.05 0.15
v 1.6 -0.05 0.15
v 2.1 -0.05 0.15
v -2.1 -0.05 0.05
v -2 -0.05 0.05
v -1.9 -0.05 0.05
v -1.8 -0.05 0.05
v -1.2 -0.05 0.05
v -1.1 -0.05 0.05
v -1 -0.05 0.05
v -0.9 -0.05 0.05
v -0.7 -0.05 0.05
v 0.9 -0.05 0.05
v 1.1 -0.05 0.05
v 1.4 -0.05 0.05
v 1.6 -0.05 0.05
v -1.1 -0.05 -0.05
v -1 -0.05 -0.05
v 0.3 -0.05 -0.05
v 0.4 -0.05 -0.05
v -2.1 -0.05 -0.15
v 0.3 -0.05 -0.15
v 0.4 -0.05 -0.15
v 2.1 -0.05 -0.15
v -2 0.05 0.15
v -1.9 0.05 0.15
v -1.8 0.05 0.15
v -1.2 0.05 0.15
v -0.9 0.05 0.15
v -0.7 0.05 0.15
v 0.3 0.05 0.15
v 0.4 0.05 0.15
v 0.9 0.05 0.15
v 1.1 0.05 0.15
v 1.4 0.05 0.15
v 1.6 0.05 0.15
v 2.1 0.05 0.15
v -2.1 0.05 0.05
v -2 0.05 0.05
v -1.9 0.05 0.05
v -1.8 0.05 0.05
v -1.2 0.05 0.05
v -1.1 0.05 0.05
v -1 0.05 0.05
v -0.9 0.05 0.05
v -0.7 0.05 0.05
v 0.9 0.05 0.05
v 1.1 0.05 0.05
v 1.4 0.05 0.05
v 1.6 0.05 0.05
v -1.1 0.05 -0.05
v -1 0.05 -0.05
v 0.3 0.05 -0.05
v 0.4 0.05 -0.05
v -2.1 0.05 -0.15
v 0.3 0.05 -0.15
v 0.4 0.05 -0.15
v 2.1 0.05 -0.15

# faces
f 3/3/1 2/3/1 1/3/1
f 4/3/1 2/3/1 3/3/1
f 7/1/1 6/1/1 5/1/1
f 8/1/1 6/1/1 7/1/1
f 11/3/1 10/3/1 9/3/1
f 12/3/1 10/3/1 11/3/1
f 15/2/1 14/2/1 13/2/1
f 16/2/1 14/2/1 15/2/1
f 17/3/2 18/3/2 19/3/2
f 19/3/2 18/3/2 20/3/2
f 21/3/2 22/3/2 23/3/2
f 23/3/2 22/3/2 24/3/2
f 25/3/2 26/3/2 27/3/2
f 27/3/2 26/3/2 28/3/2
f 31/1/3 30/1/3 29/1/3
f 32/1/3 30/1/3 31/1/3
f 33/2/3 32/2/3 31/2/3
f 34/2/3 32/2/3 33/2/3
f 35/3/3 34/3/3 33/3/3
f 36/3/3 34/3/3 35/3/3
f 39/2/3 38/2/3 37/2/3
f 40/2/3 38/2/3 39/2/3
f 41/3/3 40/3/3 39/3/3
f 42/3/3 40/3/3 41/3/3
f 43/2/3 42/2/3 41/2/3
f 44/2/3 42/2/3 43/2/3
f 45/3/3 44/3/3 43/3/3
f 46/3/3 44/3/3 45/3/3
f 47/2/3 46/2/3 45/2/3
f 48/2/3 46/2/3 47/2/3
f 49/1/3 48/1/3 47/1/3
f 50/1/3 48/1/3 49/1/3
f 51/2/3 50/2/3 49/2/3
f 52/2/3 50/2/3 51/2/3
f 53/3/3 52/3/3 51/3/3
f 54/3/3 52/3/3 53/3/3
f 57/3/3 56/3/3 55/3/3
f 58/3/3 56/3/3 57/3/3
f 61/3/3 60/3/3 59/3/3
f 62/3/3 60/3/3 61/3/3
f 65/3/3 64/3/3 63/3/3
f 66/3/3 64/3/3 65/3/3
f 69/3/3 68/3/3 67/3/3
f 70/3/3 68/3/3 69/3/3
f 71/3/4 72/3/4 73/3/4
f 73/3/4 72/3/4 74/3/4
f 73/1/4 74/1/4 75/1/4
f 75/1/4 74/1/4 76/1/4
f 75/3/4 76/3/4 77/3/4
f 77/3/4 76/3/4 78/3/4
f 93/1/5 80/1/5 79/1/5
f 94/2/5 81/2/5 80/2/5
f 94/1/5 80/1/5 93/1/5
f 95/3/5 82/3/5 81/3/5
f 95/2/5 81/2/5 94/2/5
f 96/3/5 82/3/5 95/3/5
f 99/2/5 84/2/5 83/2/5
f 100/3/5 85/3/5 84/3/5
f 100/2/5 84/2/5 99/2/5
f 101/3/5 87/3/5 86/3/5
f 101/2/5 88/2/5 87/2/5
f 102/1/5 89/1/5 88/1/5
f 102/2/5 88/2/5 101/2/5
f 103/2/5 90/2/5 89/2/5
f 103/1/5 89/1/5 102/1/5
f 104/3/5 91/3/5 90/3/5
f 104/2/5 90/2/5 103/2/5
f 105/3/5 93/3/5 92/3/5
f 105/3/5 94/3/5 93/3/5
f 105/3/5 97/3/5 96/3/5
f 105/3/5 95/3/5 94/3/5
f 105/3/5 96/3/5 95/3/5
f 106/3/5 99/3/5 98/3/5
f 106/3/5 100/3/5 99/3/5
f 107/2/5 86/2/5 85/2/5
f 107/3/5 85/3/5 100/3/5
f 107/3/5 100/3/5 106/3/5
f 108/3/5 103/3/5 102/3/5
f 108/2/5 86/2/5 107/2/5
f 108/3/5 104/3/5 103/3/5
f 108/3/5 102/3/5 101/3/5
f 108/3/5 101/3/5 86/3/5
f 109/3/5 107/3/5 106/3/5
f 109/3/5 105/3/5 92/3/5
f 109/3/5 106/3/5 105/3/5
f 110/1/5 108/1/5 107/1/5
f 110/3/5 107/3/5 109/3/5
f 111/3/5 104/3/5 108/3/5
f 111/1/5 108/1/5 110/1/5
f 112/3/5 91/3/5 104/3/5
f 112/3/5 104/3/5 111/3/5
f 113/1/6 114/1/6 127/1/6
f 114/2/6 115/2/6 128/2/6
f 127/1/6 114/1/6 128/1/6
f 115/3/6 116/3/6 129/3/6
f 128/2/6 115/2/6 129/2/6
f 129/3/6 116/3/6 130/3/6
f 117/2/6 118/2/6 133/2/6
f 118/3/6 119/3/6 134/3/6
f 133/2/6 118/2/6 134/2/6
f 120/3/6 121/3/6 135/3/6
f 121/2/6 122/2/6 135/2/6
f 122/1/6 123/1/6 136/1/6
f 135/2/6 122/2/6 136/2/6
f 123/2/6 124/2/6 137/2/6
f 136/1/6 123/1/6 137/1/6
f 124/3/6 125/3/6 138/3/6
f 137/2/6 124/2/6 138/2/6
f 126/3/6 127/3/6 139/3/6
f 127/3/6 128/3/6 139/3/6
f 130/3/6 131/3/6 139/3/6
f 128/3/6 129/3/6 139/3/6
f 129/3/6 130/3/6 139/3/6
f 132/3/6 133/3/6 140/3/6
f 133/3/6 134/3/6 140/3/6
f 119/2/6 120/2/6 141/2/6
f 134/3/6 119/3/6 141/3/6
f 140/3/6 134/3/6 141/3/6
f 136/3/6 137/3/6 142/3/6
f 141/2/6 120/2/6 142/2/6
f 137/3/6 138/3/6 142/3/6
f 135/3/6 136/3/6 142/3/6
f 120/3/6 135/3/6 142/3/6
f 140/3/6 141/3/6 143/3/6
f 126/3/6 139/3/6 143/3/6
f 139/3/6 140/3/6 143/3/6
f 141/1/6 142/1/6 144/1/6
f 143/3/6 141/3/6 144/3/6
f 142/3/6 138/3/6 145/3/6
f 144/1/6 142/1/6 145/1/6
f 138/3/6 125/3/6 146/3/6
f 145/3/6 138/3/6 146/3/6
