# MagicaVoxel @ Ephtracy

# group
o 

# material
mtllib House_Module-34.mtl
usemtl palette

# normals
vn -1 0 0
vn 1 0 0
vn 0 0 1
vn 0 0 -1
vn 0 -1 0
vn 0 1 0

# texcoords
vt 0.814453 0.5
vt 0.818359 0.5
vt 0.822266 0.5

# verts
v -0.2 -0.25 0.1
v -0.2 -0.25 0
v -0.2 -0.15 0.1
v -0.2 -0.15 0
v -0.1 -0.25 0
v -0.1 -0.25 -0.1
v -0.1 -0.15 0
v -0.1 -0.15 -0.1
v 0 -0.15 0
v 0 -0.15 -0.1
v 0 -0.05 0
v 0 -0.05 -0.1
v 0 0.15 0
v 0 0.15 -0.1
v 0 0.25 0
v 0 0.25 -0.1
v 0.1 -0.05 0
v 0.1 -0.05 -0.1
v 0.1 0.05 0
v 0.1 0.05 -0.1
v 0 -0.25 0.1
v 0 -0.25 0
v 0 -0.15 0.1
v 0 -0.15 0
v 0.1 -0.15 0
v 0.1 -0.15 -0.1
v 0.1 -0.05 0
v 0.1 -0.05 -0.1
v 0.1 0.15 0
v 0.1 0.15 -0.1
v 0.1 0.25 0
v 0.1 0.25 -0.1
v 0.2 -0.25 0
v 0.2 -0.25 -0.1
v 0.2 -0.15 0
v 0.2 -0.15 -0.1
v 0.2 -0.05 0
v 0.2 -0.05 -0.1
v 0.2 0.05 0
v 0.2 0.05 -0.1
v -0.2 -0.25 0.1
v -0.2 -0.15 0.1
v -0.1 -0.25 0.1
v -0.1 -0.15 0.1
v 0 -0.25 0.1
v 0 -0.15 0.1
v 0 -0.25 0
v 0 -0.15 0
v 0 -0.05 0
v 0 0.15 0
v 0 0.25 0
v 0.1 -0.25 0
v 0.1 -0.15 0
v 0.1 -0.05 0
v 0.1 0.05 0
v 0.1 0.15 0
v 0.1 0.25 0
v 0.2 -0.25 0
v 0.2 -0.15 0
v 0.2 -0.05 0
v 0.2 0.05 0
v -0.2 -0.25 0
v -0.2 -0.15 0
v -0.1 -0.25 0
v -0.1 -0.15 0
v -0.1 -0.25 -0.1
v -0.1 -0.15 -0.1
v 0 -0.25 -0.1
v 0 -0.15 -0.1
v 0 -0.05 -0.1
v 0 0.15 -0.1
v 0 0.25 -0.1
v 0.1 -0.25 -0.1
v 0.1 -0.15 -0.1
v 0.1 -0.05 -0.1
v 0.1 0.05 -0.1
v 0.1 0.15 -0.1
v 0.1 0.25 -0.1
v 0.2 -0.25 -0.1
v 0.2 -0.15 -0.1
v 0.2 -0.05 -0.1
v 0.2 0.05 -0.1
v -0.2 -0.25 0.1
v -0.1 -0.25 0.1
v 0 -0.25 0.1
v -0.2 -0.25 0
v -0.1 -0.25 0
v 0 -0.25 0
v 0.1 -0.25 0
v 0.2 -0.25 0
v -0.1 -0.25 -0.1
v 0 -0.25 -0.1
v 0.1 -0.25 -0.1
v 0.2 -0.25 -0.1
v 0.1 -0.05 0
v 0.2 -0.05 0
v 0.1 -0.05 -0.1
v 0.2 -0.05 -0.1
v 0 0.15 0
v 0.1 0.15 0
v 0 0.15 -0.1
v 0.1 0.15 -0.1
v -0.2 -0.15 0.1
v -0.1 -0.15 0.1
v 0 -0.15 0.1
v -0.2 -0.15 0
v -0.1 -0.15 0
v 0 -0.15 0
v 0.1 -0.15 0
v 0.2 -0.15 0
v -0.1 -0.15 -0.1
v 0 -0.15 -0.1
v 0.1 -0.15 -0.1
v 0.2 -0.15 -0.1
v 0 -0.05 0
v 0.1 -0.05 0
v 0 -0.05 -0.1
v 0.1 -0.05 -0.1
v 0.1 0.05 0
v 0.2 0.05 0
v 0.1 0.05 -0.1
v 0.2 0.05 -0.1
v 0 0.25 0
v 0.1 0.25 0
v 0 0.25 -0.1
v 0.1 0.25 -0.1

# faces
f 3/2/1 2/2/1 1/2/1
f 4/2/1 2/2/1 3/2/1
f 7/2/1 6/2/1 5/2/1
f 8/2/1 6/2/1 7/2/1
f 11/1/1 10/1/1 9/1/1
f 12/1/1 10/1/1 11/1/1
f 15/1/1 14/1/1 13/1/1
f 16/1/1 14/1/1 15/1/1
f 19/2/1 18/2/1 17/2/1
f 20/2/1 18/2/1 19/2/1
f 21/1/2 22/1/2 23/1/2
f 23/1/2 22/1/2 24/1/2
f 25/1/2 26/1/2 27/1/2
f 27/1/2 26/1/2 28/1/2
f 29/1/2 30/1/2 31/1/2
f 31/1/2 30/1/2 32/1/2
f 33/2/2 34/2/2 35/2/2
f 35/2/2 34/2/2 36/2/2
f 37/2/2 38/2/2 39/2/2
f 39/2/2 38/2/2 40/2/2
f 43/2/3 42/2/3 41/2/3
f 44/2/3 42/2/3 43/2/3
f 45/1/3 44/1/3 43/1/3
f 46/1/3 44/1/3 45/1/3
f 52/3/3 48/3/3 47/3/3
f 53/1/3 49/1/3 48/1/3
f 53/3/3 48/3/3 52/3/3
f 54/1/3 49/1/3 53/1/3
f 56/1/3 51/1/3 50/1/3
f 57/1/3 51/1/3 56/1/3
f 58/2/3 53/2/3 52/2/3
f 59/2/3 53/2/3 58/2/3
f 60/2/3 55/2/3 54/2/3
f 61/2/3 55/2/3 60/2/3
f 62/2/4 63/2/4 64/2/4
f 64/2/4 63/2/4 65/2/4
f 66/2/4 67/2/4 68/2/4
f 68/2/4 67/2/4 69/2/4
f 68/3/4 69/3/4 73/3/4
f 69/1/4 70/1/4 74/1/4
f 73/3/4 69/3/4 74/3/4
f 74/1/4 70/1/4 75/1/4
f 71/1/4 72/1/4 77/1/4
f 77/1/4 72/1/4 78/1/4
f 73/2/4 74/2/4 79/2/4
f 79/2/4 74/2/4 80/2/4
f 75/2/4 76/2/4 81/2/4
f 81/2/4 76/2/4 82/2/4
f 86/2/5 84/2/5 83/2/5
f 87/1/5 85/1/5 84/1/5
f 87/2/5 84/2/5 86/2/5
f 88/1/5 85/1/5 87/1/5
f 91/2/5 88/2/5 87/2/5
f 92/3/5 89/3/5 88/3/5
f 92/2/5 88/2/5 91/2/5
f 93/2/5 90/2/5 89/2/5
f 93/3/5 89/3/5 92/3/5
f 94/2/5 90/2/5 93/2/5
f 97/2/5 96/2/5 95/2/5
f 98/2/5 96/2/5 97/2/5
f 101/1/5 100/1/5 99/1/5
f 102/1/5 100/1/5 101/1/5
f 103/2/6 104/2/6 106/2/6
f 104/1/6 105/1/6 107/1/6
f 106/2/6 104/2/6 107/2/6
f 107/1/6 105/1/6 108/1/6
f 107/2/6 108/2/6 111/2/6
f 111/2/6 108/2/6 112/2/6
f 109/2/6 110/2/6 113/2/6
f 113/2/6 110/2/6 114/2/6
f 115/1/6 116/1/6 117/1/6
f 117/1/6 116/1/6 118/1/6
f 119/2/6 120/2/6 121/2/6
f 121/2/6 120/2/6 122/2/6
f 123/1/6 124/1/6 125/1/6
f 125/1/6 124/1/6 126/1/6
