# MagicaVoxel @ Ephtracy

# group
o 

# material
mtllib House_Module-5.mtl
usemtl palette

# normals
vn -1 0 0
vn 1 0 0
vn 0 0 1
vn 0 0 -1
vn 0 -1 0
vn 0 1 0

# texcoords
vt 0.521484 0.5
vt 0.525391 0.5
vt 0.529297 0.5
vt 0.533203 0.5

# verts
v -0.8 -0.2 2.2
v -0.8 -0.2 -2.2
v -0.8 0 2.2
v -0.8 0 2.1
v -0.8 0 2
v -0.8 0 1.8
v -0.8 0 1.3
v -0.8 0 1.1
v -0.8 0 0.9
v -0.8 0 0.8
v -0.8 0 0.7
v -0.8 0 0.5
v -0.8 0 0.4
v -0.8 0 0
v -0.8 0 -0.1
v -0.8 0 -0.2
v -0.8 0 -0.3
v -0.8 0 -0.5
v -0.8 0 -0.9
v -0.8 0 -1.1
v -0.8 0 -1.4
v -0.8 0 -1.5
v -0.8 0 -1.7
v -0.8 0 -2
v -0.8 0 -2.1
v -0.8 0 -2.2
v -0.8 0.1 2
v -0.8 0.1 1.9
v -0.8 0.1 1.8
v -0.8 0.1 1.6
v -0.8 0.1 1.5
v -0.8 0.1 1.3
v -0.8 0.1 1.1
v -0.8 0.1 0.9
v -0.8 0.1 0.8
v -0.8 0.1 0.7
v -0.8 0.1 0.5
v -0.8 0.1 0.4
v -0.8 0.1 0
v -0.8 0.1 -0.1
v -0.8 0.1 -0.2
v -0.8 0.1 -0.3
v -0.8 0.1 -0.5
v -0.8 0.1 -0.9
v -0.8 0.1 -1
v -0.8 0.1 -1.1
v -0.8 0.1 -1.4
v -0.8 0.1 -1.5
v -0.8 0.1 -1.7
v -0.8 0.1 -1.8
v -0.8 0.1 -2
v -0.8 0.2 2.2
v -0.8 0.2 2.1
v -0.8 0.2 2
v -0.8 0.2 1.9
v -0.8 0.2 1.6
v -0.8 0.2 1.5
v -0.8 0.2 -0.1
v -0.8 0.2 -0.2
v -0.8 0.2 -0.9
v -0.8 0.2 -1
v -0.8 0.2 -1.8
v -0.8 0.2 -2.1
v -0.8 0.2 -2.2
v 0.8 -0.2 2.2
v 0.8 -0.2 -2.2
v 0.8 0 2.2
v 0.8 0 2.1
v 0.8 0 -2.1
v 0.8 0 -2.2
v 0.8 0.2 2.2
v 0.8 0.2 2.1
v 0.8 0.2 -2.1
v 0.8 0.2 -2.2
v -0.8 -0.2 2.2
v -0.8 0 2.2
v -0.8 0.2 2.2
v 0.8 -0.2 2.2
v 0.8 0 2.2
v 0.8 0.2 2.2
v -0.8 -0.2 -2.2
v -0.8 0 -2.2
v -0.8 0.2 -2.2
v 0.8 -0.2 -2.2
v 0.8 0 -2.2
v 0.8 0.2 -2.2
v -0.8 -0.2 2.2
v 0.8 -0.2 2.2
v -0.8 -0.2 -2.2
v 0.8 -0.2 -2.2
v -0.8 0.2 2.2
v 0.8 0.2 2.2
v -0.8 0.2 2.1
v -0.7 0.2 2.1
v 0.8 0.2 2.1
v -0.8 0.2 2
v -0.7 0.2 2
v -0.8 0.2 1.9
v -0.7 0.2 1.9
v -0.8 0.2 1.6
v -0.7 0.2 1.6
v -0.8 0.2 1.5
v -0.7 0.2 1.5
v -0.8 0.2 -0.1
v -0.7 0.2 -0.1
v -0.8 0.2 -0.2
v -0.7 0.2 -0.2
v -0.8 0.2 -0.9
v -0.7 0.2 -0.9
v -0.8 0.2 -1
v -0.7 0.2 -1
v -0.8 0.2 -1.8
v -0.7 0.2 -1.8
v -0.8 0.2 -2.1
v -0.7 0.2 -2.1
v 0.8 0.2 -2.1
v -0.8 0.2 -2.2
v 0.8 0.2 -2.2

# faces
f 3/4/1 2/4/1 1/4/1
f 4/4/1 2/4/1 3/4/1
f 5/4/1 2/4/1 4/4/1
f 6/4/1 2/4/1 5/4/1
f 7/4/1 2/4/1 6/4/1
f 8/4/1 2/4/1 7/4/1
f 9/4/1 2/4/1 8/4/1
f 10/4/1 2/4/1 9/4/1
f 11/4/1 2/4/1 10/4/1
f 12/4/1 2/4/1 11/4/1
f 13/4/1 2/4/1 12/4/1
f 14/4/1 2/4/1 13/4/1
f 15/4/1 2/4/1 14/4/1
f 16/4/1 2/4/1 15/4/1
f 17/4/1 2/4/1 16/4/1
f 18/4/1 2/4/1 17/4/1
f 19/4/1 2/4/1 18/4/1
f 20/4/1 2/4/1 19/4/1
f 21/4/1 2/4/1 20/4/1
f 22/4/1 2/4/1 21/4/1
f 23/4/1 2/4/1 22/4/1
f 24/4/1 2/4/1 23/4/1
f 25/4/1 2/4/1 24/4/1
f 26/4/1 2/4/1 25/4/1
f 27/1/1 5/1/1 4/1/1
f 27/3/1 6/3/1 5/3/1
f 28/3/1 6/3/1 27/3/1
f 29/4/1 7/4/1 6/4/1
f 29/3/1 6/3/1 28/3/1
f 30/4/1 7/4/1 29/4/1
f 31/4/1 7/4/1 30/4/1
f 32/3/1 8/3/1 7/3/1
f 32/4/1 7/4/1 31/4/1
f 33/4/1 9/4/1 8/4/1
f 33/3/1 8/3/1 32/3/1
f 34/2/1 10/2/1 9/2/1
f 34/4/1 9/4/1 33/4/1
f 35/3/1 11/3/1 10/3/1
f 35/2/1 10/2/1 34/2/1
f 36/4/1 12/4/1 11/4/1
f 36/3/1 11/3/1 35/3/1
f 37/3/1 13/3/1 12/3/1
f 37/4/1 12/4/1 36/4/1
f 38/4/1 14/4/1 13/4/1
f 38/3/1 13/3/1 37/3/1
f 39/2/1 15/2/1 14/2/1
f 39/4/1 14/4/1 38/4/1
f 40/1/1 16/1/1 15/1/1
f 40/2/1 15/2/1 39/2/1
f 41/2/1 17/2/1 16/2/1
f 41/1/1 16/1/1 40/1/1
f 42/1/1 18/1/1 17/1/1
f 42/2/1 17/2/1 41/2/1
f 43/2/1 19/2/1 18/2/1
f 43/1/1 18/1/1 42/1/1
f 44/3/1 20/3/1 19/3/1
f 44/2/1 19/2/1 43/2/1
f 45/3/1 20/3/1 44/3/1
f 46/4/1 21/4/1 20/4/1
f 46/3/1 20/3/1 45/3/1
f 47/3/1 22/3/1 21/3/1
f 47/4/1 21/4/1 46/4/1
f 48/4/1 23/4/1 22/4/1
f 48/3/1 22/3/1 47/3/1
f 49/3/1 24/3/1 23/3/1
f 49/4/1 23/4/1 48/4/1
f 50/3/1 24/3/1 49/3/1
f 51/2/1 25/2/1 24/2/1
f 51/3/1 24/3/1 50/3/1
f 52/3/1 4/3/1 3/3/1
f 53/1/1 27/1/1 4/1/1
f 53/3/1 4/3/1 52/3/1
f 54/2/1 28/2/1 27/2/1
f 54/1/1 27/1/1 53/1/1
f 55/4/1 29/4/1 28/4/1
f 55/2/1 28/2/1 54/2/1
f 55/4/1 30/4/1 29/4/1
f 56/3/1 31/3/1 30/3/1
f 56/4/1 30/4/1 55/4/1
f 57/4/1 32/4/1 31/4/1
f 57/3/1 31/3/1 56/3/1
f 57/4/1 33/4/1 32/4/1
f 57/4/1 34/4/1 33/4/1
f 57/4/1 35/4/1 34/4/1
f 57/4/1 36/4/1 35/4/1
f 57/4/1 37/4/1 36/4/1
f 57/4/1 38/4/1 37/4/1
f 57/4/1 39/4/1 38/4/1
f 57/4/1 40/4/1 39/4/1
f 58/2/1 41/2/1 40/2/1
f 58/4/1 40/4/1 57/4/1
f 59/4/1 44/4/1 43/4/1
f 59/2/1 41/2/1 58/2/1
f 59/4/1 42/4/1 41/4/1
f 59/4/1 43/4/1 42/4/1
f 60/3/1 45/3/1 44/3/1
f 60/4/1 44/4/1 59/4/1
f 61/4/1 49/4/1 48/4/1
f 61/3/1 45/3/1 60/3/1
f 61/4/1 50/4/1 49/4/1
f 61/4/1 48/4/1 47/4/1
f 61/4/1 46/4/1 45/4/1
f 61/4/1 47/4/1 46/4/1
f 62/2/1 51/2/1 50/2/1
f 62/4/1 50/4/1 61/4/1
f 63/2/1 25/2/1 51/2/1
f 63/2/1 51/2/1 62/2/1
f 63/3/1 26/3/1 25/3/1
f 64/3/1 26/3/1 63/3/1
f 65/4/2 66/4/2 67/4/2
f 67/4/2 66/4/2 68/4/2
f 68/4/2 66/4/2 69/4/2
f 69/4/2 66/4/2 70/4/2
f 67/3/2 68/3/2 71/3/2
f 68/4/2 69/4/2 72/4/2
f 71/3/2 68/3/2 72/3/2
f 69/3/2 70/3/2 73/3/2
f 72/4/2 69/4/2 73/4/2
f 73/3/2 70/3/2 74/3/2
f 78/4/3 76/4/3 75/4/3
f 79/3/3 77/3/3 76/3/3
f 79/4/3 76/4/3 78/4/3
f 80/3/3 77/3/3 79/3/3
f 81/4/4 82/4/4 84/4/4
f 82/3/4 83/3/4 85/3/4
f 84/4/4 82/4/4 85/4/4
f 85/3/4 83/3/4 86/3/4
f 89/4/5 88/4/5 87/4/5
f 90/4/5 88/4/5 89/4/5
f 91/3/6 92/3/6 93/3/6
f 93/3/6 92/3/6 94/3/6
f 94/3/6 92/3/6 95/3/6
f 93/1/6 94/1/6 96/1/6
f 94/4/6 95/4/6 97/4/6
f 96/1/6 94/1/6 97/1/6
f 96/2/6 97/2/6 98/2/6
f 97/4/6 95/4/6 99/4/6
f 98/2/6 97/2/6 99/2/6
f 98/4/6 99/4/6 100/4/6
f 99/4/6 95/4/6 101/4/6
f 100/4/6 99/4/6 101/4/6
f 100/3/6 101/3/6 102/3/6
f 101/4/6 95/4/6 103/4/6
f 102/3/6 101/3/6 103/3/6
f 102/4/6 103/4/6 104/4/6
f 103/4/6 95/4/6 105/4/6
f 104/4/6 103/4/6 105/4/6
f 104/2/6 105/2/6 106/2/6
f 105/4/6 95/4/6 107/4/6
f 106/2/6 105/2/6 107/2/6
f 106/4/6 107/4/6 108/4/6
f 107/4/6 95/4/6 109/4/6
f 108/4/6 107/4/6 109/4/6
f 108/3/6 109/3/6 110/3/6
f 109/4/6 95/4/6 111/4/6
f 110/3/6 109/3/6 111/3/6
f 110/4/6 111/4/6 112/4/6
f 111/4/6 95/4/6 113/4/6
f 112/4/6 111/4/6 113/4/6
f 112/2/6 113/2/6 114/2/6
f 113/4/6 95/4/6 115/4/6
f 114/2/6 113/2/6 115/2/6
f 115/4/6 95/4/6 116/4/6
f 114/3/6 115/3/6 117/3/6
f 115/3/6 116/3/6 117/3/6
f 117/3/6 116/3/6 118/3/6
