# MagicaVoxel @ Ephtracy

# group
o 

# material
mtllib House_Module-0.mtl
usemtl palette

# normals
vn -1 0 0
vn 1 0 0
vn 0 0 1
vn 0 0 -1
vn 0 -1 0
vn 0 1 0

# texcoords
vt 0.759766 0.5
vt 0.763672 0.5

# verts
v -0.9 -0.1 2.3
v -0.9 -0.1 2.2
v -0.9 -0.1 2.1
v -0.9 -0.1 1.9
v -0.9 -0.1 1.8
v -0.9 -0.1 0.5
v -0.9 -0.1 0
v -0.9 -0.1 -0.8
v -0.9 -0.1 -0.9
v -0.9 -0.1 -2.1
v -0.9 -0.1 -2.2
v -0.9 -0.1 -2.3
v -0.9 0 2.3
v -0.9 0 2.2
v -0.9 0 2.1
v -0.9 0 2
v -0.9 0 1.9
v -0.9 0 1.8
v -0.9 0 1.7
v -0.9 0 0.7
v -0.9 0 0.5
v -0.9 0 0
v -0.9 0 -0.8
v -0.9 0 -0.9
v -0.9 0 -1.4
v -0.9 0 -2.1
v -0.9 0 -2.2
v -0.9 0 -2.3
v -0.9 0.1 2.3
v -0.9 0.1 2
v -0.9 0.1 1.7
v -0.9 0.1 0.7
v -0.9 0.1 -1.4
v -0.9 0.1 -2.3
v -0.7 -0.1 2.1
v -0.7 -0.1 -2.1
v -0.7 0.1 2.1
v -0.7 0.1 -2.1
v 0.9 -0.1 2.3
v 0.9 -0.1 2.1
v 0.9 -0.1 -2.1
v 0.9 -0.1 -2.3
v 0.9 0 2.3
v 0.9 0 2.2
v 0.9 0 -2.2
v 0.9 0 -2.3
v 0.9 0.1 2.3
v 0.9 0.1 2.2
v 0.9 0.1 2.1
v 0.9 0.1 -2.1
v 0.9 0.1 -2.2
v 0.9 0.1 -2.3
v -0.9 -0.1 2.3
v -0.9 0 2.3
v -0.9 0.1 2.3
v -0.7 -0.1 2.3
v -0.7 0 2.3
v -0.6 -0.1 2.3
v -0.6 0.1 2.3
v 0 -0.1 2.3
v 0 0 2.3
v 0.2 -0.1 2.3
v 0.2 0 2.3
v 0.2 0.1 2.3
v 0.5 0 2.3
v 0.5 0.1 2.3
v 0.7 -0.1 2.3
v 0.7 0 2.3
v 0.8 -0.1 2.3
v 0.8 0 2.3
v 0.8 0.1 2.3
v 0.9 -0.1 2.3
v 0.9 0 2.3
v 0.9 0.1 2.3
v -0.7 -0.1 -2.1
v -0.7 0.1 -2.1
v 0 -0.1 -2.1
v 0 0 -2.1
v 0.1 -0.1 -2.1
v 0.1 0 -2.1
v 0.9 -0.1 -2.1
v 0.9 0.1 -2.1
v -0.7 -0.1 2.1
v -0.7 0.1 2.1
v 0.9 -0.1 2.1
v 0.9 0.1 2.1
v -0.9 -0.1 -2.3
v -0.9 0 -2.3
v -0.9 0.1 -2.3
v -0.8 0 -2.3
v -0.8 0.1 -2.3
v -0.5 -0.1 -2.3
v -0.5 0 -2.3
v -0.4 -0.1 -2.3
v -0.4 0 -2.3
v -0.2 -0.1 -2.3
v -0.2 0 -2.3
v 0 -0.1 -2.3
v 0 0 -2.3
v 0.2 -0.1 -2.3
v 0.2 0 -2.3
v 0.7 -0.1 -2.3
v 0.7 0 -2.3
v 0.8 0 -2.3
v 0.8 0.1 -2.3
v 0.9 -0.1 -2.3
v 0.9 0 -2.3
v 0.9 0.1 -2.3
v -0.9 -0.1 2.3
v -0.7 -0.1 2.3
v -0.6 -0.1 2.3
v 0 -0.1 2.3
v 0.2 -0.1 2.3
v 0.7 -0.1 2.3
v 0.8 -0.1 2.3
v 0.9 -0.1 2.3
v -0.9 -0.1 2.2
v -0.8 -0.1 2.2
v -0.7 -0.1 2.2
v -0.6 -0.1 2.2
v 0 -0.1 2.2
v 0.2 -0.1 2.2
v 0.7 -0.1 2.2
v 0.8 -0.1 2.2
v -0.9 -0.1 2.1
v -0.8 -0.1 2.1
v -0.7 -0.1 2.1
v 0.9 -0.1 2.1
v -0.9 -0.1 1.9
v -0.8 -0.1 1.9
v -0.9 -0.1 1.8
v -0.8 -0.1 1.8
v -0.9 -0.1 0.5
v -0.8 -0.1 0.5
v -0.9 -0.1 0
v -0.8 -0.1 0
v -0.9 -0.1 -0.8
v -0.8 -0.1 -0.8
v -0.9 -0.1 -0.9
v -0.8 -0.1 -0.9
v -0.9 -0.1 -2.1
v -0.8 -0.1 -2.1
v -0.7 -0.1 -2.1
v 0 -0.1 -2.1
v 0.1 -0.1 -2.1
v 0.9 -0.1 -2.1
v -0.9 -0.1 -2.2
v -0.8 -0.1 -2.2
v -0.5 -0.1 -2.2
v -0.4 -0.1 -2.2
v -0.2 -0.1 -2.2
v 0 -0.1 -2.2
v 0.1 -0.1 -2.2
v 0.2 -0.1 -2.2
v 0.7 -0.1 -2.2
v -0.9 -0.1 -2.3
v -0.5 -0.1 -2.3
v -0.4 -0.1 -2.3
v -0.2 -0.1 -2.3
v 0 -0.1 -2.3
v 0.2 -0.1 -2.3
v 0.7 -0.1 -2.3
v 0.9 -0.1 -2.3
v -0.9 0.1 2.3
v -0.6 0.1 2.3
v 0.2 0.1 2.3
v 0.5 0.1 2.3
v 0.8 0.1 2.3
v 0.9 0.1 2.3
v -0.8 0.1 2.2
v -0.6 0.1 2.2
v 0.2 0.1 2.2
v 0.5 0.1 2.2
v 0.8 0.1 2.2
v 0.9 0.1 2.2
v -0.7 0.1 2.1
v 0.9 0.1 2.1
v -0.9 0.1 2
v -0.8 0.1 2
v -0.9 0.1 1.7
v -0.8 0.1 1.7
v -0.9 0.1 0.7
v -0.8 0.1 0.7
v -0.9 0.1 -1.4
v -0.8 0.1 -1.4
v -0.7 0.1 -2.1
v 0.9 0.1 -2.1
v 0.8 0.1 -2.2
v 0.9 0.1 -2.2
v -0.9 0.1 -2.3
v -0.8 0.1 -2.3
v 0.8 0.1 -2.3
v 0.9 0.1 -2.3

# faces
f 13/2/1 2/2/1 1/2/1
f 14/1/1 3/1/1 2/1/1
f 14/2/1 2/2/1 13/2/1
f 15/2/1 4/2/1 3/2/1
f 15/1/1 3/1/1 14/1/1
f 16/2/1 4/2/1 15/2/1
f 17/1/1 5/1/1 4/1/1
f 17/2/1 4/2/1 16/2/1
f 18/2/1 6/2/1 5/2/1
f 18/1/1 5/1/1 17/1/1
f 19/2/1 6/2/1 18/2/1
f 20/2/1 6/2/1 19/2/1
f 21/1/1 7/1/1 6/1/1
f 21/2/1 6/2/1 20/2/1
f 22/2/1 8/2/1 7/2/1
f 22/1/1 7/1/1 21/1/1
f 23/1/1 9/1/1 8/1/1
f 23/2/1 8/2/1 22/2/1
f 24/2/1 10/2/1 9/2/1
f 24/1/1 9/1/1 23/1/1
f 25/2/1 10/2/1 24/2/1
f 26/1/1 11/1/1 10/1/1
f 26/2/1 10/2/1 25/2/1
f 27/2/1 12/2/1 11/2/1
f 27/1/1 11/1/1 26/1/1
f 28/2/1 12/2/1 27/2/1
f 29/1/1 14/1/1 13/1/1
f 29/1/1 16/1/1 15/1/1
f 29/1/1 15/1/1 14/1/1
f 30/2/1 17/2/1 16/2/1
f 30/1/1 16/1/1 29/1/1
f 30/2/1 18/2/1 17/2/1
f 30/2/1 19/2/1 18/2/1
f 31/1/1 20/1/1 19/1/1
f 31/2/1 19/2/1 30/2/1
f 32/2/1 21/2/1 20/2/1
f 32/1/1 20/1/1 31/1/1
f 32/2/1 22/2/1 21/2/1
f 32/2/1 24/2/1 23/2/1
f 32/2/1 23/2/1 22/2/1
f 32/2/1 25/2/1 24/2/1
f 33/1/1 26/1/1 25/1/1
f 33/2/1 25/2/1 32/2/1
f 33/1/1 28/1/1 27/1/1
f 33/1/1 27/1/1 26/1/1
f 34/1/1 28/1/1 33/1/1
f 35/2/2 36/2/2 37/2/2
f 37/2/2 36/2/2 38/2/2
f 39/2/2 40/2/2 43/2/2
f 43/2/2 40/2/2 44/2/2
f 41/2/2 42/2/2 45/2/2
f 45/2/2 42/2/2 46/2/2
f 43/1/2 44/1/2 47/1/2
f 44/2/2 40/2/2 48/2/2
f 47/1/2 44/1/2 48/1/2
f 48/2/2 40/2/2 49/2/2
f 41/2/2 45/2/2 50/2/2
f 45/1/2 46/1/2 51/1/2
f 50/2/2 45/2/2 51/2/2
f 51/1/2 46/1/2 52/1/2
f 56/2/3 54/2/3 53/2/3
f 57/1/3 55/1/3 54/1/3
f 57/2/3 54/2/3 56/2/3
f 58/1/3 57/1/3 56/1/3
f 59/1/3 55/1/3 57/1/3
f 59/1/3 57/1/3 58/1/3
f 60/2/3 59/2/3 58/2/3
f 61/2/3 59/2/3 60/2/3
f 62/1/3 61/1/3 60/1/3
f 63/2/3 59/2/3 61/2/3
f 63/1/3 61/1/3 62/1/3
f 64/2/3 59/2/3 63/2/3
f 65/2/3 63/2/3 62/2/3
f 65/1/3 64/1/3 63/1/3
f 66/1/3 64/1/3 65/1/3
f 67/2/3 65/2/3 62/2/3
f 67/2/3 66/2/3 65/2/3
f 68/2/3 66/2/3 67/2/3
f 69/1/3 68/1/3 67/1/3
f 70/2/3 66/2/3 68/2/3
f 70/1/3 68/1/3 69/1/3
f 71/2/3 66/2/3 70/2/3
f 72/2/3 70/2/3 69/2/3
f 73/1/3 71/1/3 70/1/3
f 73/2/3 70/2/3 72/2/3
f 74/1/3 71/1/3 73/1/3
f 77/2/3 76/2/3 75/2/3
f 78/2/3 76/2/3 77/2/3
f 79/1/3 78/1/3 77/1/3
f 80/2/3 76/2/3 78/2/3
f 80/1/3 78/1/3 79/1/3
f 81/2/3 80/2/3 79/2/3
f 82/2/3 76/2/3 80/2/3
f 82/2/3 80/2/3 81/2/3
f 83/2/4 84/2/4 85/2/4
f 85/2/4 84/2/4 86/2/4
f 87/2/4 88/2/4 90/2/4
f 88/1/4 89/1/4 90/1/4
f 90/1/4 89/1/4 91/1/4
f 87/2/4 90/2/4 92/2/4
f 90/2/4 91/2/4 92/2/4
f 92/2/4 91/2/4 93/2/4
f 92/1/4 93/1/4 94/1/4
f 93/2/4 91/2/4 95/2/4
f 94/1/4 93/1/4 95/1/4
f 94/2/4 95/2/4 96/2/4
f 95/2/4 91/2/4 97/2/4
f 96/2/4 95/2/4 97/2/4
f 96/1/4 97/1/4 98/1/4
f 97/2/4 91/2/4 99/2/4
f 98/1/4 97/1/4 99/1/4
f 98/2/4 99/2/4 100/2/4
f 99/2/4 91/2/4 101/2/4
f 100/2/4 99/2/4 101/2/4
f 100/1/4 101/1/4 102/1/4
f 101/2/4 91/2/4 103/2/4
f 102/1/4 101/1/4 103/1/4
f 102/2/4 103/2/4 104/2/4
f 103/2/4 91/2/4 104/2/4
f 104/2/4 91/2/4 105/2/4
f 102/2/4 104/2/4 106/2/4
f 104/1/4 105/1/4 107/1/4
f 106/2/4 104/2/4 107/2/4
f 107/1/4 105/1/4 108/1/4
f 117/2/5 110/2/5 109/2/5
f 118/2/5 110/2/5 117/2/5
f 119/1/5 111/1/5 110/1/5
f 119/2/5 110/2/5 118/2/5
f 120/2/5 112/2/5 111/2/5
f 120/1/5 111/1/5 119/1/5
f 121/1/5 113/1/5 112/1/5
f 121/2/5 112/2/5 120/2/5
f 122/2/5 114/2/5 113/2/5
f 122/1/5 113/1/5 121/1/5
f 123/1/5 115/1/5 114/1/5
f 123/2/5 114/2/5 122/2/5
f 124/2/5 116/2/5 115/2/5
f 124/1/5 115/1/5 123/1/5
f 125/1/5 118/1/5 117/1/5
f 126/2/5 123/2/5 122/2/5
f 126/1/5 118/1/5 125/1/5
f 126/2/5 119/2/5 118/2/5
f 126/2/5 124/2/5 123/2/5
f 126/2/5 120/2/5 119/2/5
f 126/2/5 122/2/5 121/2/5
f 126/2/5 121/2/5 120/2/5
f 127/2/5 124/2/5 126/2/5
f 128/2/5 116/2/5 124/2/5
f 128/2/5 124/2/5 127/2/5
f 129/2/5 127/2/5 126/2/5
f 129/2/5 126/2/5 125/2/5
f 130/2/5 127/2/5 129/2/5
f 131/1/5 130/1/5 129/1/5
f 132/2/5 127/2/5 130/2/5
f 132/1/5 130/1/5 131/1/5
f 133/2/5 132/2/5 131/2/5
f 134/2/5 127/2/5 132/2/5
f 134/2/5 132/2/5 133/2/5
f 135/1/5 134/1/5 133/1/5
f 136/2/5 127/2/5 134/2/5
f 136/1/5 134/1/5 135/1/5
f 137/2/5 136/2/5 135/2/5
f 138/2/5 127/2/5 136/2/5
f 138/2/5 136/2/5 137/2/5
f 139/1/5 138/1/5 137/1/5
f 140/2/5 127/2/5 138/2/5
f 140/1/5 138/1/5 139/1/5
f 141/2/5 140/2/5 139/2/5
f 142/2/5 127/2/5 140/2/5
f 142/2/5 140/2/5 141/2/5
f 143/2/5 127/2/5 142/2/5
f 147/1/5 142/1/5 141/1/5
f 148/2/5 143/2/5 142/2/5
f 148/1/5 142/1/5 147/1/5
f 148/2/5 144/2/5 143/2/5
f 149/2/5 144/2/5 148/2/5
f 150/2/5 144/2/5 149/2/5
f 151/2/5 144/2/5 150/2/5
f 152/1/5 145/1/5 144/1/5
f 152/2/5 144/2/5 151/2/5
f 153/2/5 146/2/5 145/2/5
f 153/1/5 145/1/5 152/1/5
f 154/2/5 146/2/5 153/2/5
f 155/2/5 146/2/5 154/2/5
f 156/2/5 148/2/5 147/2/5
f 156/2/5 149/2/5 148/2/5
f 157/1/5 150/1/5 149/1/5
f 157/2/5 149/2/5 156/2/5
f 158/2/5 151/2/5 150/2/5
f 158/1/5 150/1/5 157/1/5
f 159/1/5 152/1/5 151/1/5
f 159/2/5 151/2/5 158/2/5
f 160/2/5 153/2/5 152/2/5
f 160/1/5 152/1/5 159/1/5
f 160/2/5 154/2/5 153/2/5
f 161/1/5 155/1/5 154/1/5
f 161/2/5 154/2/5 160/2/5
f 162/2/5 146/2/5 155/2/5
f 162/1/5 155/1/5 161/1/5
f 163/2/5 146/2/5 162/2/5
f 164/1/6 165/1/6 170/1/6
f 165/2/6 166/2/6 171/2/6
f 170/1/6 165/1/6 171/1/6
f 166/1/6 167/1/6 172/1/6
f 171/2/6 166/2/6 172/2/6
f 167/2/6 168/2/6 173/2/6
f 172/1/6 167/1/6 173/1/6
f 168/1/6 169/1/6 174/1/6
f 173/2/6 168/2/6 174/2/6
f 174/1/6 169/1/6 175/1/6
f 172/2/6 173/2/6 176/2/6
f 170/2/6 171/2/6 176/2/6
f 174/2/6 175/2/6 176/2/6
f 173/2/6 174/2/6 176/2/6
f 171/2/6 172/2/6 176/2/6
f 176/2/6 175/2/6 177/2/6
f 164/1/6 170/1/6 178/1/6
f 170/2/6 176/2/6 179/2/6
f 178/1/6 170/1/6 179/1/6
f 178/2/6 179/2/6 180/2/6
f 179/2/6 176/2/6 181/2/6
f 180/2/6 179/2/6 181/2/6
f 180/1/6 181/1/6 182/1/6
f 181/2/6 176/2/6 183/2/6
f 182/1/6 181/1/6 183/1/6
f 182/2/6 183/2/6 184/2/6
f 183/2/6 176/2/6 185/2/6
f 184/2/6 183/2/6 185/2/6
f 185/2/6 176/2/6 186/2/6
f 186/2/6 187/2/6 188/2/6
f 188/2/6 187/2/6 189/2/6
f 184/1/6 185/1/6 190/1/6
f 185/2/6 186/2/6 191/2/6
f 190/1/6 185/1/6 191/1/6
f 186/2/6 188/2/6 191/2/6
f 188/1/6 189/1/6 192/1/6
f 191/2/6 188/2/6 192/2/6
f 192/1/6 189/1/6 193/1/6
