# MagicaVoxel @ Ephtracy

# group
o 

# material
mtllib House_Module-40.mtl
usemtl palette

# normals
vn -1 0 0
vn 1 0 0
vn 0 0 1
vn 0 0 -1
vn 0 -1 0
vn 0 1 0

# texcoords
vt 0.314453 0.5
vt 0.318359 0.5
vt 0.322266 0.5

# verts
v -1.2 -0.1 0.3
v -1.2 -0.1 -0.1
v -1.2 -0.1 -0.2
v -1.2 -0.1 -0.3
v -1.2 0.1 0.3
v -1.2 0.1 -0.1
v -1.2 0.1 -0.2
v -1.2 0.1 -0.3
v 1.2 -0.1 0.3
v 1.2 -0.1 0.1
v 1.2 -0.1 0
v 1.2 -0.1 -0.1
v 1.2 -0.1 -0.2
v 1.2 -0.1 -0.3
v 1.2 0.1 0.3
v 1.2 0.1 0.1
v 1.2 0.1 0
v 1.2 0.1 -0.1
v 1.2 0.1 -0.2
v 1.2 0.1 -0.3
v -1.2 -0.1 0.3
v -1.2 0.1 0.3
v -1 -0.1 0.3
v -1 0.1 0.3
v -0.9 -0.1 0.3
v -0.9 0.1 0.3
v 1.2 -0.1 0.3
v 1.2 0.1 0.3
v -1.2 -0.1 -0.3
v -1.2 0.1 -0.3
v -1.1 -0.1 -0.3
v -1.1 0.1 -0.3
v -0.8 -0.1 -0.3
v -0.8 0.1 -0.3
v -0.4 -0.1 -0.3
v -0.4 0.1 -0.3
v -0.2 -0.1 -0.3
v -0.2 0.1 -0.3
v 0.0999999 -0.1 -0.3
v 0.0999999 0.1 -0.3
v 0.3 -0.1 -0.3
v 0.3 0.1 -0.3
v 0.4 -0.1 -0.3
v 0.4 0.1 -0.3
v 0.5 -0.1 -0.3
v 0.5 0.1 -0.3
v 0.8 -0.1 -0.3
v 0.8 0.1 -0.3
v 1 -0.1 -0.3
v 1 0.1 -0.3
v 1.2 -0.1 -0.3
v 1.2 0.1 -0.3
v -1.2 -0.1 0.3
v -1 -0.1 0.3
v -0.9 -0.1 0.3
v 1.2 -0.1 0.3
v -1 -0.1 0.2
v -0.9 -0.1 0.2
v -0.3 -0.1 0.2
v -0.2 -0.1 0.2
v -0.5 -0.1 0.1
v -0.3 -0.1 0.1
v -0.2 -0.1 0.1
v 0.0999999 -0.1 0.1
v 0.4 -0.1 0.1
v 0.6 -0.1 0.1
v 0.7 -0.1 0.1
v 0.8 -0.1 0.1
v 1.2 -0.1 0.1
v -0.5 -0.1 0
v -0.3 -0.1 0
v 0.0999999 -0.1 0
v 0.2 -0.1 0
v 0.4 -0.1 0
v 0.6 -0.1 0
v 0.7 -0.1 0
v 0.8 -0.1 0
v 1.2 -0.1 0
v -1.2 -0.1 -0.1
v -1 -0.1 -0.1
v 0.2 -0.1 -0.1
v 0.4 -0.1 -0.1
v 0.7 -0.1 -0.1
v 0.8 -0.1 -0.1
v 1 -0.1 -0.1
v 1.2 -0.1 -0.1
v -1.2 -0.1 -0.2
v -1.1 -0.1 -0.2
v -1 -0.1 -0.2
v -0.8 -0.1 -0.2
v -0.4 -0.1 -0.2
v -0.2 -0.1 -0.2
v 0.0999999 -0.1 -0.2
v 0.3 -0.1 -0.2
v 0.4 -0.1 -0.2
v 0.5 -0.1 -0.2
v 0.8 -0.1 -0.2
v 1 -0.1 -0.2
v 1.2 -0.1 -0.2
v -1.2 -0.1 -0.3
v -1.1 -0.1 -0.3
v -0.8 -0.1 -0.3
v -0.4 -0.1 -0.3
v -0.2 -0.1 -0.3
v 0.0999999 -0.1 -0.3
v 0.3 -0.1 -0.3
v 0.4 -0.1 -0.3
v 0.5 -0.1 -0.3
v 0.8 -0.1 -0.3
v 1 -0.1 -0.3
v 1.2 -0.1 -0.3
v -1.2 0.1 0.3
v -1 0.1 0.3
v -0.9 0.1 0.3
v 1.2 0.1 0.3
v -1 0.1 0.2
v -0.9 0.1 0.2
v -0.3 0.1 0.2
v -0.2 0.1 0.2
v -0.5 0.1 0.1
v -0.3 0.1 0.1
v -0.2 0.1 0.1
v 0.0999999 0.1 0.1
v 0.4 0.1 0.1
v 0.6 0.1 0.1
v 0.7 0.1 0.1
v 0.8 0.1 0.1
v 1.2 0.1 0.1
v -0.5 0.1 0
v -0.3 0.1 0
v 0.0999999 0.1 0
v 0.2 0.1 0
v 0.4 0.1 0
v 0.6 0.1 0
v 0.7 0.1 0
v 0.8 0.1 0
v 1.2 0.1 0
v -1.2 0.1 -0.1
v -1 0.1 -0.1
v 0.2 0.1 -0.1
v 0.4 0.1 -0.1
v 0.7 0.1 -0.1
v 0.8 0.1 -0.1
v 1 0.1 -0.1
v 1.2 0.1 -0.1
v -1.2 0.1 -0.2
v -1.1 0.1 -0.2
v -1 0.1 -0.2
v -0.8 0.1 -0.2
v -0.4 0.1 -0.2
v -0.2 0.1 -0.2
v 0.0999999 0.1 -0.2
v 0.3 0.1 -0.2
v 0.4 0.1 -0.2
v 0.5 0.1 -0.2
v 0.8 0.1 -0.2
v 1 0.1 -0.2
v 1.2 0.1 -0.2
v -1.2 0.1 -0.3
v -1.1 0.1 -0.3
v -0.8 0.1 -0.3
v -0.4 0.1 -0.3
v -0.2 0.1 -0.3
v 0.0999999 0.1 -0.3
v 0.3 0.1 -0.3
v 0.4 0.1 -0.3
v 0.5 0.1 -0.3
v 0.8 0.1 -0.3
v 1 0.1 -0.3
v 1.2 0.1 -0.3

# faces
f 5/3/1 2/3/1 1/3/1
f 6/1/1 3/1/1 2/1/1
f 6/3/1 2/3/1 5/3/1
f 7/3/1 4/3/1 3/3/1
f 7/1/1 3/1/1 6/1/1
f 8/3/1 4/3/1 7/3/1
f 9/3/2 10/3/2 15/3/2
f 10/2/2 11/2/2 16/2/2
f 15/3/2 10/3/2 16/3/2
f 11/3/2 12/3/2 17/3/2
f 16/2/2 11/2/2 17/2/2
f 12/1/2 13/1/2 18/1/2
f 17/3/2 12/3/2 18/3/2
f 13/3/2 14/3/2 19/3/2
f 18/1/2 13/1/2 19/1/2
f 19/3/2 14/3/2 20/3/2
f 23/3/3 22/3/3 21/3/3
f 24/3/3 22/3/3 23/3/3
f 25/2/3 24/2/3 23/2/3
f 26/2/3 24/2/3 25/2/3
f 27/3/3 26/3/3 25/3/3
f 28/3/3 26/3/3 27/3/3
f 29/3/4 30/3/4 31/3/4
f 31/3/4 30/3/4 32/3/4
f 31/2/4 32/2/4 33/2/4
f 33/2/4 32/2/4 34/2/4
f 33/1/4 34/1/4 35/1/4
f 35/1/4 34/1/4 36/1/4
f 35/2/4 36/2/4 37/2/4
f 37/2/4 36/2/4 38/2/4
f 37/3/4 38/3/4 39/3/4
f 39/3/4 38/3/4 40/3/4
f 39/2/4 40/2/4 41/2/4
f 41/2/4 40/2/4 42/2/4
f 41/3/4 42/3/4 43/3/4
f 43/3/4 42/3/4 44/3/4
f 43/2/4 44/2/4 45/2/4
f 45/2/4 44/2/4 46/2/4
f 45/1/4 46/1/4 47/1/4
f 47/1/4 46/1/4 48/1/4
f 47/2/4 48/2/4 49/2/4
f 49/2/4 48/2/4 50/2/4
f 49/3/4 50/3/4 51/3/4
f 51/3/4 50/3/4 52/3/4
f 57/3/5 54/3/5 53/3/5
f 57/2/5 55/2/5 54/2/5
f 58/3/5 56/3/5 55/3/5
f 58/2/5 55/2/5 57/2/5
f 59/3/5 56/3/5 58/3/5
f 60/3/5 56/3/5 59/3/5
f 61/3/5 58/3/5 57/3/5
f 61/3/5 59/3/5 58/3/5
f 62/2/5 60/2/5 59/2/5
f 62/3/5 59/3/5 61/3/5
f 63/3/5 56/3/5 60/3/5
f 63/2/5 60/2/5 62/2/5
f 64/3/5 56/3/5 63/3/5
f 65/3/5 56/3/5 64/3/5
f 66/3/5 56/3/5 65/3/5
f 67/3/5 56/3/5 66/3/5
f 68/3/5 56/3/5 67/3/5
f 69/3/5 56/3/5 68/3/5
f 70/2/5 62/2/5 61/2/5
f 70/3/5 61/3/5 57/3/5
f 71/3/5 63/3/5 62/3/5
f 71/2/5 62/2/5 70/2/5
f 71/3/5 64/3/5 63/3/5
f 72/2/5 65/2/5 64/2/5
f 72/3/5 64/3/5 71/3/5
f 73/2/5 65/2/5 72/2/5
f 74/3/5 66/3/5 65/3/5
f 74/2/5 65/2/5 73/2/5
f 75/2/5 67/2/5 66/2/5
f 75/3/5 66/3/5 74/3/5
f 76/1/5 68/1/5 67/1/5
f 76/2/5 67/2/5 75/2/5
f 77/2/5 69/2/5 68/2/5
f 77/1/5 68/1/5 76/1/5
f 78/2/5 69/2/5 77/2/5
f 79/3/5 57/3/5 53/3/5
f 79/3/5 70/3/5 57/3/5
f 79/3/5 71/3/5 70/3/5
f 79/3/5 73/3/5 72/3/5
f 79/3/5 72/3/5 71/3/5
f 80/3/5 73/3/5 79/3/5
f 81/2/5 74/2/5 73/2/5
f 81/3/5 73/3/5 80/3/5
f 82/1/5 76/1/5 75/1/5
f 82/2/5 74/2/5 81/2/5
f 82/1/5 75/1/5 74/1/5
f 83/2/5 77/2/5 76/2/5
f 83/1/5 76/1/5 82/1/5
f 84/3/5 78/3/5 77/3/5
f 84/2/5 77/2/5 83/2/5
f 85/3/5 78/3/5 84/3/5
f 86/3/5 78/3/5 85/3/5
f 87/1/5 80/1/5 79/1/5
f 88/1/5 80/1/5 87/1/5
f 89/3/5 81/3/5 80/3/5
f 89/1/5 80/1/5 88/1/5
f 89/3/5 83/3/5 82/3/5
f 89/3/5 82/3/5 81/3/5
f 89/3/5 84/3/5 83/3/5
f 90/3/5 84/3/5 89/3/5
f 91/3/5 84/3/5 90/3/5
f 92/3/5 84/3/5 91/3/5
f 93/3/5 84/3/5 92/3/5
f 94/3/5 84/3/5 93/3/5
f 95/3/5 84/3/5 94/3/5
f 96/3/5 84/3/5 95/3/5
f 97/2/5 85/2/5 84/2/5
f 97/3/5 84/3/5 96/3/5
f 98/1/5 86/1/5 85/1/5
f 98/2/5 85/2/5 97/2/5
f 99/1/5 86/1/5 98/1/5
f 100/3/5 88/3/5 87/3/5
f 101/2/5 89/2/5 88/2/5
f 101/3/5 88/3/5 100/3/5
f 101/2/5 90/2/5 89/2/5
f 102/1/5 91/1/5 90/1/5
f 102/2/5 90/2/5 101/2/5
f 103/2/5 92/2/5 91/2/5
f 103/1/5 91/1/5 102/1/5
f 104/3/5 93/3/5 92/3/5
f 104/2/5 92/2/5 103/2/5
f 105/2/5 94/2/5 93/2/5
f 105/3/5 93/3/5 104/3/5
f 106/3/5 95/3/5 94/3/5
f 106/2/5 94/2/5 105/2/5
f 107/2/5 96/2/5 95/2/5
f 107/3/5 95/3/5 106/3/5
f 108/1/5 97/1/5 96/1/5
f 108/2/5 96/2/5 107/2/5
f 109/2/5 98/2/5 97/2/5
f 109/1/5 97/1/5 108/1/5
f 110/3/5 99/3/5 98/3/5
f 110/2/5 98/2/5 109/2/5
f 111/3/5 99/3/5 110/3/5
f 112/3/6 113/3/6 116/3/6
f 113/2/6 114/2/6 116/2/6
f 114/3/6 115/3/6 117/3/6
f 116/2/6 114/2/6 117/2/6
f 117/3/6 115/3/6 118/3/6
f 118/3/6 115/3/6 119/3/6
f 116/3/6 117/3/6 120/3/6
f 117/3/6 118/3/6 120/3/6
f 118/2/6 119/2/6 121/2/6
f 120/3/6 118/3/6 121/3/6
f 119/3/6 115/3/6 122/3/6
f 121/2/6 119/2/6 122/2/6
f 122/3/6 115/3/6 123/3/6
f 123/3/6 115/3/6 124/3/6
f 124/3/6 115/3/6 125/3/6
f 125/3/6 115/3/6 126/3/6
f 126/3/6 115/3/6 127/3/6
f 127/3/6 115/3/6 128/3/6
f 120/2/6 121/2/6 129/2/6
f 116/3/6 120/3/6 129/3/6
f 121/3/6 122/3/6 130/3/6
f 129/2/6 121/2/6 130/2/6
f 122/3/6 123/3/6 130/3/6
f 123/2/6 124/2/6 131/2/6
f 130/3/6 123/3/6 131/3/6
f 131/2/6 124/2/6 132/2/6
f 124/3/6 125/3/6 133/3/6
f 132/2/6 124/2/6 133/2/6
f 125/2/6 126/2/6 134/2/6
f 133/3/6 125/3/6 134/3/6
f 126/1/6 127/1/6 135/1/6
f 134/2/6 126/2/6 135/2/6
f 127/2/6 128/2/6 136/2/6
f 135/1/6 127/1/6 136/1/6
f 136/2/6 128/2/6 137/2/6
f 112/3/6 116/3/6 138/3/6
f 116/3/6 129/3/6 138/3/6
f 129/3/6 130/3/6 138/3/6
f 131/3/6 132/3/6 138/3/6
f 130/3/6 131/3/6 138/3/6
f 138/3/6 132/3/6 139/3/6
f 132/2/6 133/2/6 140/2/6
f 139/3/6 132/3/6 140/3/6
f 134/1/6 135/1/6 141/1/6
f 140/2/6 133/2/6 141/2/6
f 133/1/6 134/1/6 141/1/6
f 135/2/6 136/2/6 142/2/6
f 141/1/6 135/1/6 142/1/6
f 136/3/6 137/3/6 143/3/6
f 142/2/6 136/2/6 143/2/6
f 143/3/6 137/3/6 144/3/6
f 144/3/6 137/3/6 145/3/6
f 138/1/6 139/1/6 146/1/6
f 146/1/6 139/1/6 147/1/6
f 139/3/6 140/3/6 148/3/6
f 147/1/6 139/1/6 148/1/6
f 141/3/6 142/3/6 148/3/6
f 140/3/6 141/3/6 148/3/6
f 142/3/6 143/3/6 148/3/6
f 148/3/6 143/3/6 149/3/6
f 149/3/6 143/3/6 150/3/6
f 150/3/6 143/3/6 151/3/6
f 151/3/6 143/3/6 152/3/6
f 152/3/6 143/3/6 153/3/6
f 153/3/6 143/3/6 154/3/6
f 154/3/6 143/3/6 155/3/6
f 143/2/6 144/2/6 156/2/6
f 155/3/6 143/3/6 156/3/6
f 144/1/6 145/1/6 157/1/6
f 156/2/6 144/2/6 157/2/6
f 157/1/6 145/1/6 158/1/6
f 146/3/6 147/3/6 159/3/6
f 147/2/6 148/2/6 160/2/6
f 159/3/6 147/3/6 160/3/6
f 148/2/6 149/2/6 160/2/6
f 149/1/6 150/1/6 161/1/6
f 160/2/6 149/2/6 161/2/6
f 150/2/6 151/2/6 162/2/6
f 161/1/6 150/1/6 162/1/6
f 151/3/6 152/3/6 163/3/6
f 162/2/6 151/2/6 163/2/6
f 152/2/6 153/2/6 164/2/6
f 163/3/6 152/3/6 164/3/6
f 153/3/6 154/3/6 165/3/6
f 164/2/6 153/2/6 165/2/6
f 154/2/6 155/2/6 166/2/6
f 165/3/6 154/3/6 166/3/6
f 155/1/6 156/1/6 167/1/6
f 166/2/6 155/2/6 167/2/6
f 156/2/6 157/2/6 168/2/6
f 167/1/6 156/1/6 168/1/6
f 157/3/6 158/3/6 169/3/6
f 168/2/6 157/2/6 169/2/6
f 169/3/6 158/3/6 170/3/6
