# MagicaVoxel @ Ephtracy

# group
o 

# material
mtllib House_Module-50.mtl
usemtl palette

# normals
vn -1 0 0
vn 1 0 0
vn 0 0 1
vn 0 0 -1
vn 0 -1 0
vn 0 1 0

# texcoords
vt 0.314453 0.5
vt 0.318359 0.5
vt 0.322266 0.5

# verts
v -2.1 -0.1 0.3
v -2.1 -0.1 0.1
v -2.1 -0.1 -0.1
v -2.1 -0.1 -0.2
v -2.1 -0.1 -0.3
v -2.1 0.1 0.3
v -2.1 0.1 0.1
v -2.1 0.1 -0.1
v -2.1 0.1 -0.2
v -2.1 0.1 -0.3
v 2.1 -0.1 0.3
v 2.1 -0.1 -0.3
v 2.1 0.1 0.3
v 2.1 0.1 -0.3
v -2.1 -0.1 0.3
v -2.1 0.1 0.3
v -2 -0.1 0.3
v -2 0.1 0.3
v -1.9 -0.1 0.3
v -1.9 0.1 0.3
v -1.7 -0.1 0.3
v -1.7 0.1 0.3
v 1.4 -0.1 0.3
v 1.4 0.1 0.3
v 1.6 -0.1 0.3
v 1.6 0.1 0.3
v 2.1 -0.1 0.3
v 2.1 0.1 0.3
v -2.1 -0.1 -0.3
v -2.1 0.1 -0.3
v -1.8 -0.1 -0.3
v -1.8 0.1 -0.3
v -1.6 -0.1 -0.3
v -1.6 0.1 -0.3
v -1.2 -0.1 -0.3
v -1.2 0.1 -0.3
v -0.4 -0.1 -0.3
v -0.4 0.1 -0.3
v -0.2 -0.1 -0.3
v -0.2 0.1 -0.3
v 0 -0.1 -0.3
v 0 0.1 -0.3
v 0.2 -0.1 -0.3
v 0.2 0.1 -0.3
v 0.9 -0.1 -0.3
v 0.9 0.1 -0.3
v 1 -0.1 -0.3
v 1 0.1 -0.3
v 1.2 -0.1 -0.3
v 1.2 0.1 -0.3
v 1.3 -0.1 -0.3
v 1.3 0.1 -0.3
v 1.5 -0.1 -0.3
v 1.5 0.1 -0.3
v 2 -0.1 -0.3
v 2 0.1 -0.3
v 2.1 -0.1 -0.3
v 2.1 0.1 -0.3
v -2.1 -0.1 0.3
v -2 -0.1 0.3
v -1.9 -0.1 0.3
v -1.7 -0.1 0.3
v 1.4 -0.1 0.3
v 1.6 -0.1 0.3
v 2.1 -0.1 0.3
v -2 -0.1 0.2
v -1.9 -0.1 0.2
v -1.8 -0.1 0.2
v -1.5 -0.1 0.2
v -1.4 -0.1 0.2
v -1.1 -0.1 0.2
v -0.5 -0.1 0.2
v -0.4 -0.1 0.2
v -0.2 -0.1 0.2
v 1.1 -0.1 0.2
v 1.2 -0.1 0.2
v 1.4 -0.1 0.2
v 1.6 -0.1 0.2
v -2.1 -0.1 0.1
v -1.9 -0.1 0.1
v -1.8 -0.1 0.1
v -1.7 -0.1 0.1
v -1.5 -0.1 0.1
v -1.4 -0.1 0.1
v -1.1 -0.1 0.1
v -0.6 -0.1 0.1
v -0.5 -0.1 0.1
v -0.4 -0.1 0.1
v -0.2 -0.1 0.1
v 0.4 -0.1 0.1
v 0.8 -0.1 0.1
v 1.1 -0.1 0.1
v 1.2 -0.1 0.1
v 1.6 -0.1 0.1
v 1.7 -0.1 0.1
v -1.8 -0.1 0
v -1.7 -0.1 0
v -1.1 -0.1 0
v -0.9 -0.1 0
v -0.6 -0.1 0
v -0.5 -0.1 0
v -0.4 -0.1 0
v -0.3 -0.1 0
v -0.2 -0.1 0
v 0.4 -0.1 0
v 0.8 -0.1 0
v 1.6 -0.1 0
v 1.7 -0.1 0
v -2.1 -0.1 -0.1
v -2 -0.1 -0.1
v -1.8 -0.1 -0.1
v -1.1 -0.1 -0.1
v -0.9 -0.1 -0.1
v -0.5 -0.1 -0.1
v -0.4 -0.1 -0.1
v -0.3 -0.1 -0.1
v 0.6 -0.1 -0.1
v -2.1 -0.1 -0.2
v -2 -0.1 -0.2
v -1.6 -0.1 -0.2
v -1.2 -0.1 -0.2
v -0.4 -0.1 -0.2
v -0.3 -0.1 -0.2
v -0.2 -0.1 -0.2
v 0 -0.1 -0.2
v 0.2 -0.1 -0.2
v 0.6 -0.1 -0.2
v 0.9 -0.1 -0.2
v 1 -0.1 -0.2
v 1.2 -0.1 -0.2
v 1.3 -0.1 -0.2
v 1.5 -0.1 -0.2
v 2 -0.1 -0.2
v -2.1 -0.1 -0.3
v -1.8 -0.1 -0.3
v -1.6 -0.1 -0.3
v -1.2 -0.1 -0.3
v -0.4 -0.1 -0.3
v -0.2 -0.1 -0.3
v 0 -0.1 -0.3
v 0.2 -0.1 -0.3
v 0.9 -0.1 -0.3
v 1 -0.1 -0.3
v 1.2 -0.1 -0.3
v 1.3 -0.1 -0.3
v 1.5 -0.1 -0.3
v 2 -0.1 -0.3
v 2.1 -0.1 -0.3
v -2.1 0.1 0.3
v -2 0.1 0.3
v -1.9 0.1 0.3
v -1.7 0.1 0.3
v 1.4 0.1 0.3
v 1.6 0.1 0.3
v 2.1 0.1 0.3
v -2 0.1 0.2
v -1.9 0.1 0.2
v -1.8 0.1 0.2
v -1.5 0.1 0.2
v -1.4 0.1 0.2
v -1.1 0.1 0.2
v -0.5 0.1 0.2
v -0.4 0.1 0.2
v -0.2 0.1 0.2
v 1.1 0.1 0.2
v 1.2 0.1 0.2
v 1.4 0.1 0.2
v 1.6 0.1 0.2
v -2.1 0.1 0.1
v -1.9 0.1 0.1
v -1.8 0.1 0.1
v -1.7 0.1 0.1
v -1.5 0.1 0.1
v -1.4 0.1 0.1
v -1.1 0.1 0.1
v -0.6 0.1 0.1
v -0.5 0.1 0.1
v -0.4 0.1 0.1
v -0.2 0.1 0.1
v 0.4 0.1 0.1
v 0.8 0.1 0.1
v 1.1 0.1 0.1
v 1.2 0.1 0.1
v 1.6 0.1 0.1
v 1.7 0.1 0.1
v -1.8 0.1 0
v -1.7 0.1 0
v -1.1 0.1 0
v -0.9 0.1 0
v -0.6 0.1 0
v -0.5 0.1 0
v -0.4 0.1 0
v -0.3 0.1 0
v -0.2 0.1 0
v 0.4 0.1 0
v 0.8 0.1 0
v 1.6 0.1 0
v 1.7 0.1 0
v -2.1 0.1 -0.1
v -2 0.1 -0.1
v -1.8 0.1 -0.1
v -1.1 0.1 -0.1
v -0.9 0.1 -0.1
v -0.5 0.1 -0.1
v -0.4 0.1 -0.1
v -0.3 0.1 -0.1
v 0.6 0.1 -0.1
v -2.1 0.1 -0.2
v -2 0.1 -0.2
v -1.6 0.1 -0.2
v -1.2 0.1 -0.2
v -0.4 0.1 -0.2
v -0.3 0.1 -0.2
v -0.2 0.1 -0.2
v 0 0.1 -0.2
v 0.2 0.1 -0.2
v 0.6 0.1 -0.2
v 0.9 0.1 -0.2
v 1 0.1 -0.2
v 1.2 0.1 -0.2
v 1.3 0.1 -0.2
v 1.5 0.1 -0.2
v 2 0.1 -0.2
v -2.1 0.1 -0.3
v -1.8 0.1 -0.3
v -1.6 0.1 -0.3
v -1.2 0.1 -0.3
v -0.4 0.1 -0.3
v -0.2 0.1 -0.3
v 0 0.1 -0.3
v 0.2 0.1 -0.3
v 0.9 0.1 -0.3
v 1 0.1 -0.3
v 1.2 0.1 -0.3
v 1.3 0.1 -0.3
v 1.5 0.1 -0.3
v 2 0.1 -0.3
v 2.1 0.1 -0.3

# faces
f 6/2/1 2/2/1 1/2/1
f 7/3/1 3/3/1 2/3/1
f 7/2/1 2/2/1 6/2/1
f 8/1/1 4/1/1 3/1/1
f 8/3/1 3/3/1 7/3/1
f 9/2/1 5/2/1 4/2/1
f 9/1/1 4/1/1 8/1/1
f 10/2/1 5/2/1 9/2/1
f 11/3/2 12/3/2 13/3/2
f 13/3/2 12/3/2 14/3/2
f 17/2/3 16/2/3 15/2/3
f 18/2/3 16/2/3 17/2/3
f 19/1/3 18/1/3 17/1/3
f 20/1/3 18/1/3 19/1/3
f 21/2/3 20/2/3 19/2/3
f 22/2/3 20/2/3 21/2/3
f 23/3/3 22/3/3 21/3/3
f 24/3/3 22/3/3 23/3/3
f 25/2/3 24/2/3 23/2/3
f 26/2/3 24/2/3 25/2/3
f 27/3/3 26/3/3 25/3/3
f 28/3/3 26/3/3 27/3/3
f 29/2/4 30/2/4 31/2/4
f 31/2/4 30/2/4 32/2/4
f 31/3/4 32/3/4 33/3/4
f 33/3/4 32/3/4 34/3/4
f 33/2/4 34/2/4 35/2/4
f 35/2/4 34/2/4 36/2/4
f 35/3/4 36/3/4 37/3/4
f 37/3/4 36/3/4 38/3/4
f 37/1/4 38/1/4 39/1/4
f 39/1/4 38/1/4 40/1/4
f 39/3/4 40/3/4 41/3/4
f 41/3/4 40/3/4 42/3/4
f 41/1/4 42/1/4 43/1/4
f 43/1/4 42/1/4 44/1/4
f 43/3/4 44/3/4 45/3/4
f 45/3/4 44/3/4 46/3/4
f 45/2/4 46/2/4 47/2/4
f 47/2/4 46/2/4 48/2/4
f 47/1/4 48/1/4 49/1/4
f 49/1/4 48/1/4 50/1/4
f 49/2/4 50/2/4 51/2/4
f 51/2/4 50/2/4 52/2/4
f 51/1/4 52/1/4 53/1/4
f 53/1/4 52/1/4 54/1/4
f 53/2/4 54/2/4 55/2/4
f 55/2/4 54/2/4 56/2/4
f 55/3/4 56/3/4 57/3/4
f 57/3/4 56/3/4 58/3/4
f 66/2/5 60/2/5 59/2/5
f 66/1/5 61/1/5 60/1/5
f 67/2/5 62/2/5 61/2/5
f 67/1/5 61/1/5 66/1/5
f 68/2/5 62/2/5 67/2/5
f 69/3/5 63/3/5 62/3/5
f 70/3/5 63/3/5 69/3/5
f 71/3/5 63/3/5 70/3/5
f 72/3/5 63/3/5 71/3/5
f 73/3/5 63/3/5 72/3/5
f 74/3/5 63/3/5 73/3/5
f 75/3/5 63/3/5 74/3/5
f 76/3/5 63/3/5 75/3/5
f 77/2/5 64/2/5 63/2/5
f 77/3/5 63/3/5 76/3/5
f 78/3/5 65/3/5 64/3/5
f 78/2/5 64/2/5 77/2/5
f 79/2/5 66/2/5 59/2/5
f 79/2/5 67/2/5 66/2/5
f 80/1/5 68/1/5 67/1/5
f 80/2/5 67/2/5 79/2/5
f 81/2/5 62/2/5 68/2/5
f 81/1/5 68/1/5 80/1/5
f 82/3/5 69/3/5 62/3/5
f 82/2/5 62/2/5 81/2/5
f 83/2/5 70/2/5 69/2/5
f 83/3/5 69/3/5 82/3/5
f 84/3/5 71/3/5 70/3/5
f 84/2/5 70/2/5 83/2/5
f 85/2/5 72/2/5 71/2/5
f 85/3/5 71/3/5 84/3/5
f 86/2/5 72/2/5 85/2/5
f 87/1/5 73/1/5 72/1/5
f 87/2/5 72/2/5 86/2/5
f 88/2/5 74/2/5 73/2/5
f 88/1/5 73/1/5 87/1/5
f 89/3/5 75/3/5 74/3/5
f 89/2/5 74/2/5 88/2/5
f 90/3/5 75/3/5 89/3/5
f 91/3/5 75/3/5 90/3/5
f 92/2/5 76/2/5 75/2/5
f 92/3/5 75/3/5 91/3/5
f 93/3/5 77/3/5 76/3/5
f 93/2/5 76/2/5 92/2/5
f 93/3/5 78/3/5 77/3/5
f 94/3/5 65/3/5 78/3/5
f 94/3/5 78/3/5 93/3/5
f 95/3/5 65/3/5 94/3/5
f 96/3/5 80/3/5 79/3/5
f 96/3/5 81/3/5 80/3/5
f 96/1/5 82/1/5 81/1/5
f 97/3/5 83/3/5 82/3/5
f 97/1/5 82/1/5 96/1/5
f 97/3/5 84/3/5 83/3/5
f 97/3/5 86/3/5 85/3/5
f 97/3/5 85/3/5 84/3/5
f 98/3/5 86/3/5 97/3/5
f 99/3/5 86/3/5 98/3/5
f 100/1/5 87/1/5 86/1/5
f 100/3/5 86/3/5 99/3/5
f 101/3/5 89/3/5 88/3/5
f 101/1/5 87/1/5 100/1/5
f 101/3/5 88/3/5 87/3/5
f 102/3/5 89/3/5 101/3/5
f 103/3/5 89/3/5 102/3/5
f 104/1/5 90/1/5 89/1/5
f 104/3/5 89/3/5 103/3/5
f 105/2/5 91/2/5 90/2/5
f 105/1/5 90/1/5 104/1/5
f 106/3/5 92/3/5 91/3/5
f 106/2/5 91/2/5 105/2/5
f 106/3/5 93/3/5 92/3/5
f 106/3/5 94/3/5 93/3/5
f 107/2/5 95/2/5 94/2/5
f 107/3/5 94/3/5 106/3/5
f 108/3/5 65/3/5 95/3/5
f 108/2/5 95/2/5 107/2/5
f 109/3/5 96/3/5 79/3/5
f 109/3/5 98/3/5 97/3/5
f 109/3/5 97/3/5 96/3/5
f 110/3/5 98/3/5 109/3/5
f 111/3/5 98/3/5 110/3/5
f 112/2/5 99/2/5 98/2/5
f 112/3/5 98/3/5 111/3/5
f 113/1/5 101/1/5 100/1/5
f 113/2/5 99/2/5 112/2/5
f 113/1/5 100/1/5 99/1/5
f 114/2/5 102/2/5 101/2/5
f 114/1/5 101/1/5 113/1/5
f 115/1/5 103/1/5 102/1/5
f 115/2/5 102/2/5 114/2/5
f 116/3/5 105/3/5 104/3/5
f 116/1/5 103/1/5 115/1/5
f 116/3/5 104/3/5 103/3/5
f 116/3/5 107/3/5 106/3/5
f 116/3/5 106/3/5 105/3/5
f 116/3/5 108/3/5 107/3/5
f 117/3/5 108/3/5 116/3/5
f 118/1/5 110/1/5 109/1/5
f 119/2/5 111/2/5 110/2/5
f 119/1/5 110/1/5 118/1/5
f 120/3/5 115/3/5 114/3/5
f 120/3/5 113/3/5 112/3/5
f 120/3/5 114/3/5 113/3/5
f 120/3/5 112/3/5 111/3/5
f 120/3/5 116/3/5 115/3/5
f 121/3/5 116/3/5 120/3/5
f 122/3/5 116/3/5 121/3/5
f 123/2/5 117/2/5 116/2/5
f 123/3/5 116/3/5 122/3/5
f 124/2/5 117/2/5 123/2/5
f 125/2/5 117/2/5 124/2/5
f 126/2/5 117/2/5 125/2/5
f 127/3/5 108/3/5 117/3/5
f 127/2/5 117/2/5 126/2/5
f 128/3/5 108/3/5 127/3/5
f 129/3/5 108/3/5 128/3/5
f 130/3/5 108/3/5 129/3/5
f 131/3/5 108/3/5 130/3/5
f 132/3/5 108/3/5 131/3/5
f 133/3/5 65/3/5 108/3/5
f 133/3/5 108/3/5 132/3/5
f 134/2/5 119/2/5 118/2/5
f 135/2/5 111/2/5 119/2/5
f 135/2/5 119/2/5 134/2/5
f 135/3/5 120/3/5 111/3/5
f 136/2/5 121/2/5 120/2/5
f 136/3/5 120/3/5 135/3/5
f 137/3/5 122/3/5 121/3/5
f 137/2/5 121/2/5 136/2/5
f 138/1/5 123/1/5 122/1/5
f 138/3/5 122/3/5 137/3/5
f 138/1/5 124/1/5 123/1/5
f 139/3/5 125/3/5 124/3/5
f 139/1/5 124/1/5 138/1/5
f 140/1/5 126/1/5 125/1/5
f 140/3/5 125/3/5 139/3/5
f 141/3/5 127/3/5 126/3/5
f 141/1/5 126/1/5 140/1/5
f 141/3/5 128/3/5 127/3/5
f 142/2/5 129/2/5 128/2/5
f 142/3/5 128/3/5 141/3/5
f 143/1/5 130/1/5 129/1/5
f 143/2/5 129/2/5 142/2/5
f 144/2/5 131/2/5 130/2/5
f 144/1/5 130/1/5 143/1/5
f 145/1/5 132/1/5 131/1/5
f 145/2/5 131/2/5 144/2/5
f 146/2/5 133/2/5 132/2/5
f 146/1/5 132/1/5 145/1/5
f 147/3/5 65/3/5 133/3/5
f 147/2/5 133/2/5 146/2/5
f 148/3/5 65/3/5 147/3/5
f 149/2/6 150/2/6 156/2/6
f 150/1/6 151/1/6 156/1/6
f 151/2/6 152/2/6 157/2/6
f 156/1/6 151/1/6 157/1/6
f 157/2/6 152/2/6 158/2/6
f 152/3/6 153/3/6 159/3/6
f 159/3/6 153/3/6 160/3/6
f 160/3/6 153/3/6 161/3/6
f 161/3/6 153/3/6 162/3/6
f 162/3/6 153/3/6 163/3/6
f 163/3/6 153/3/6 164/3/6
f 164/3/6 153/3/6 165/3/6
f 165/3/6 153/3/6 166/3/6
f 153/2/6 154/2/6 167/2/6
f 166/3/6 153/3/6 167/3/6
f 154/3/6 155/3/6 168/3/6
f 167/2/6 154/2/6 168/2/6
f 149/2/6 156/2/6 169/2/6
f 156/2/6 157/2/6 169/2/6
f 157/1/6 158/1/6 170/1/6
f 169/2/6 157/2/6 170/2/6
f 158/2/6 152/2/6 171/2/6
f 170/1/6 158/1/6 171/1/6
f 152/3/6 159/3/6 172/3/6
f 171/2/6 152/2/6 172/2/6
f 159/2/6 160/2/6 173/2/6
f 172/3/6 159/3/6 173/3/6
f 160/3/6 161/3/6 174/3/6
f 173/2/6 160/2/6 174/2/6
f 161/2/6 162/2/6 175/2/6
f 174/3/6 161/3/6 175/3/6
f 175/2/6 162/2/6 176/2/6
f 162/1/6 163/1/6 177/1/6
f 176/2/6 162/2/6 177/2/6
f 163/2/6 164/2/6 178/2/6
f 177/1/6 163/1/6 178/1/6
f 164/3/6 165/3/6 179/3/6
f 178/2/6 164/2/6 179/2/6
f 179/3/6 165/3/6 180/3/6
f 180/3/6 165/3/6 181/3/6
f 165/2/6 166/2/6 182/2/6
f 181/3/6 165/3/6 182/3/6
f 166/3/6 167/3/6 183/3/6
f 182/2/6 166/2/6 183/2/6
f 167/3/6 168/3/6 183/3/6
f 168/3/6 155/3/6 184/3/6
f 183/3/6 168/3/6 184/3/6
f 184/3/6 155/3/6 185/3/6
f 169/3/6 170/3/6 186/3/6
f 170/3/6 171/3/6 186/3/6
f 171/1/6 172/1/6 186/1/6
f 172/3/6 173/3/6 187/3/6
f 186/1/6 172/1/6 187/1/6
f 173/3/6 174/3/6 187/3/6
f 175/3/6 176/3/6 187/3/6
f 174/3/6 175/3/6 187/3/6
f 187/3/6 176/3/6 188/3/6
f 188/3/6 176/3/6 189/3/6
f 176/1/6 177/1/6 190/1/6
f 189/3/6 176/3/6 190/3/6
f 178/3/6 179/3/6 191/3/6
f 190/1/6 177/1/6 191/1/6
f 177/3/6 178/3/6 191/3/6
f 191/3/6 179/3/6 192/3/6
f 192/3/6 179/3/6 193/3/6
f 179/1/6 180/1/6 194/1/6
f 193/3/6 179/3/6 194/3/6
f 180/2/6 181/2/6 195/2/6
f 194/1/6 180/1/6 195/1/6
f 181/3/6 182/3/6 196/3/6
f 195/2/6 181/2/6 196/2/6
f 182/3/6 183/3/6 196/3/6
f 183/3/6 184/3/6 196/3/6
f 184/2/6 185/2/6 197/2/6
f 196/3/6 184/3/6 197/3/6
f 185/3/6 155/3/6 198/3/6
f 197/2/6 185/2/6 198/2/6
f 169/3/6 186/3/6 199/3/6
f 187/3/6 188/3/6 199/3/6
f 186/3/6 187/3/6 199/3/6
f 199/3/6 188/3/6 200/3/6
f 200/3/6 188/3/6 201/3/6
f 188/2/6 189/2/6 202/2/6
f 201/3/6 188/3/6 202/3/6
f 190/1/6 191/1/6 203/1/6
f 202/2/6 189/2/6 203/2/6
f 189/1/6 190/1/6 203/1/6
f 191/2/6 192/2/6 204/2/6
f 203/1/6 191/1/6 204/1/6
f 192/1/6 193/1/6 205/1/6
f 204/2/6 192/2/6 205/2/6
f 194/3/6 195/3/6 206/3/6
f 205/1/6 193/1/6 206/1/6
f 193/3/6 194/3/6 206/3/6
f 196/3/6 197/3/6 206/3/6
f 195/3/6 196/3/6 206/3/6
f 197/3/6 198/3/6 206/3/6
f 206/3/6 198/3/6 207/3/6
f 199/1/6 200/1/6 208/1/6
f 200/2/6 201/2/6 209/2/6
f 208/1/6 200/1/6 209/1/6
f 204/3/6 205/3/6 210/3/6
f 202/3/6 203/3/6 210/3/6
f 203/3/6 204/3/6 210/3/6
f 201/3/6 202/3/6 210/3/6
f 205/3/6 206/3/6 210/3/6
f 210/3/6 206/3/6 211/3/6
f 211/3/6 206/3/6 212/3/6
f 206/2/6 207/2/6 213/2/6
f 212/3/6 206/3/6 213/3/6
f 213/2/6 207/2/6 214/2/6
f 214/2/6 207/2/6 215/2/6
f 215/2/6 207/2/6 216/2/6
f 207/3/6 198/3/6 217/3/6
f 216/2/6 207/2/6 217/2/6
f 217/3/6 198/3/6 218/3/6
f 218/3/6 198/3/6 219/3/6
f 219/3/6 198/3/6 220/3/6
f 220/3/6 198/3/6 221/3/6
f 221/3/6 198/3/6 222/3/6
f 198/3/6 155/3/6 223/3/6
f 222/3/6 198/3/6 223/3/6
f 208/2/6 209/2/6 224/2/6
f 209/2/6 201/2/6 225/2/6
f 224/2/6 209/2/6 225/2/6
f 201/3/6 210/3/6 225/3/6
f 210/2/6 211/2/6 226/2/6
f 225/3/6 210/3/6 226/3/6
f 211/3/6 212/3/6 227/3/6
f 226/2/6 211/2/6 227/2/6
f 212/1/6 213/1/6 228/1/6
f 227/3/6 212/3/6 228/3/6
f 213/1/6 214/1/6 228/1/6
f 214/3/6 215/3/6 229/3/6
f 228/1/6 214/1/6 229/1/6
f 215/1/6 216/1/6 230/1/6
f 229/3/6 215/3/6 230/3/6
f 216/3/6 217/3/6 231/3/6
f 230/1/6 216/1/6 231/1/6
f 217/3/6 218/3/6 231/3/6
f 218/2/6 219/2/6 232/2/6
f 231/3/6 218/3/6 232/3/6
f 219/1/6 220/1/6 233/1/6
f 232/2/6 219/2/6 233/2/6
f 220/2/6 221/2/6 234/2/6
f 233/1/6 220/1/6 234/1/6
f 221/1/6 222/1/6 235/1/6
f 234/2/6 221/2/6 235/2/6
f 222/2/6 223/2/6 236/2/6
f 235/1/6 222/1/6 236/1/6
f 223/3/6 155/3/6 237/3/6
f 236/2/6 223/2/6 237/2/6
f 237/3/6 155/3/6 238/3/6
