# MagicaVoxel @ Ephtracy

# group
o 

# material
mtllib House_Module-44.mtl
usemtl palette

# normals
vn -1 0 0
vn 1 0 0
vn 0 0 1
vn 0 0 -1
vn 0 -1 0
vn 0 1 0

# texcoords
vt 0.314453 0.5
vt 0.318359 0.5
vt 0.322266 0.5

# verts
v -1.1 -0.05 0.15
v -1.1 -0.05 0.05
v -1.1 0.05 0.15
v -1.1 0.05 0.05
v -0.8 -0.05 0.15
v -0.8 -0.05 -0.05
v -0.8 0.05 0.15
v -0.8 0.05 -0.05
v -0.7 -0.05 -0.05
v -0.7 -0.05 -0.15
v -0.7 0.05 -0.05
v -0.7 0.05 -0.15
v -0.9 -0.05 0.15
v -0.9 -0.05 0.05
v -0.9 0.05 0.15
v -0.9 0.05 0.05
v 1.1 -0.05 0.15
v 1.1 -0.05 -0.15
v 1.1 0.05 0.15
v 1.1 0.05 -0.15
v -1.1 -0.05 0.15
v -1.1 0.05 0.15
v -0.9 -0.05 0.15
v -0.9 0.05 0.15
v -0.8 -0.05 0.15
v -0.8 0.05 0.15
v -0.7 -0.05 0.15
v -0.7 0.05 0.15
v -0.1 -0.05 0.15
v -0.1 0.05 0.15
v 0 -0.05 0.15
v 0 0.05 0.15
v 1.1 -0.05 0.15
v 1.1 0.05 0.15
v -1.1 -0.05 0.05
v -1.1 0.05 0.05
v -0.9 -0.05 0.05
v -0.9 0.05 0.05
v -0.8 -0.05 -0.05
v -0.8 0.05 -0.05
v -0.7 -0.05 -0.05
v -0.7 0.05 -0.05
v -0.7 -0.05 -0.15
v -0.7 0.05 -0.15
v -0.5 -0.05 -0.15
v -0.5 0.05 -0.15
v -0.4 -0.05 -0.15
v -0.4 0.05 -0.15
v -0.3 -0.05 -0.15
v -0.3 0.05 -0.15
v -0.1 -0.05 -0.15
v -0.1 0.05 -0.15
v 0 -0.05 -0.15
v 0 0.05 -0.15
v 0.1 -0.05 -0.15
v 0.1 0.05 -0.15
v 1.1 -0.05 -0.15
v 1.1 0.05 -0.15
v -1.1 -0.05 0.15
v -0.9 -0.05 0.15
v -0.8 -0.05 0.15
v -0.7 -0.05 0.15
v -0.1 -0.05 0.15
v 0 -0.05 0.15
v 1.1 -0.05 0.15
v -1.1 -0.05 0.05
v -0.9 -0.05 0.05
v -0.1 -0.05 0.05
v 0 -0.05 0.05
v -0.8 -0.05 -0.05
v -0.7 -0.05 -0.05
v -0.5 -0.05 -0.05
v -0.4 -0.05 -0.05
v -0.3 -0.05 -0.05
v 0 -0.05 -0.05
v 0.1 -0.05 -0.05
v -0.7 -0.05 -0.15
v -0.5 -0.05 -0.15
v -0.4 -0.05 -0.15
v -0.3 -0.05 -0.15
v -0.1 -0.05 -0.15
v 0 -0.05 -0.15
v 0.1 -0.05 -0.15
v 1.1 -0.05 -0.15
v -1.1 0.05 0.15
v -0.9 0.05 0.15
v -0.8 0.05 0.15
v -0.7 0.05 0.15
v -0.1 0.05 0.15
v 0 0.05 0.15
v 1.1 0.05 0.15
v -1.1 0.05 0.05
v -0.9 0.05 0.05
v -0.1 0.05 0.05
v 0 0.05 0.05
v -0.8 0.05 -0.05
v -0.7 0.05 -0.05
v -0.5 0.05 -0.05
v -0.4 0.05 -0.05
v -0.3 0.05 -0.05
v 0 0.05 -0.05
v 0.1 0.05 -0.05
v -0.7 0.05 -0.15
v -0.5 0.05 -0.15
v -0.4 0.05 -0.15
v -0.3 0.05 -0.15
v -0.1 0.05 -0.15
v 0 0.05 -0.15
v 0.1 0.05 -0.15
v 1.1 0.05 -0.15

# faces
f 3/2/1 2/2/1 1/2/1
f 4/2/1 2/2/1 3/2/1
f 7/2/1 6/2/1 5/2/1
f 8/2/1 6/2/1 7/2/1
f 11/2/1 10/2/1 9/2/1
f 12/2/1 10/2/1 11/2/1
f 13/2/2 14/2/2 15/2/2
f 15/2/2 14/2/2 16/2/2
f 17/3/2 18/3/2 19/3/2
f 19/3/2 18/3/2 20/3/2
f 23/2/3 22/2/3 21/2/3
f 24/2/3 22/2/3 23/2/3
f 27/2/3 26/2/3 25/2/3
f 28/2/3 26/2/3 27/2/3
f 29/3/3 28/3/3 27/3/3
f 30/3/3 28/3/3 29/3/3
f 31/2/3 30/2/3 29/2/3
f 32/2/3 30/2/3 31/2/3
f 33/3/3 32/3/3 31/3/3
f 34/3/3 32/3/3 33/3/3
f 35/2/4 36/2/4 37/2/4
f 37/2/4 36/2/4 38/2/4
f 39/2/4 40/2/4 41/2/4
f 41/2/4 40/2/4 42/2/4
f 43/2/4 44/2/4 45/2/4
f 45/2/4 44/2/4 46/2/4
f 45/3/4 46/3/4 47/3/4
f 47/3/4 46/3/4 48/3/4
f 47/2/4 48/2/4 49/2/4
f 49/2/4 48/2/4 50/2/4
f 49/3/4 50/3/4 51/3/4
f 51/3/4 50/3/4 52/3/4
f 51/1/4 52/1/4 53/1/4
f 53/1/4 52/1/4 54/1/4
f 53/2/4 54/2/4 55/2/4
f 55/2/4 54/2/4 56/2/4
f 55/3/4 56/3/4 57/3/4
f 57/3/4 56/3/4 58/3/4
f 66/2/5 60/2/5 59/2/5
f 67/2/5 60/2/5 66/2/5
f 68/3/5 63/3/5 62/3/5
f 68/2/5 64/2/5 63/2/5
f 69/3/5 65/3/5 64/3/5
f 69/2/5 64/2/5 68/2/5
f 70/2/5 62/2/5 61/2/5
f 71/3/5 68/3/5 62/3/5
f 71/2/5 62/2/5 70/2/5
f 72/3/5 68/3/5 71/3/5
f 73/3/5 68/3/5 72/3/5
f 74/3/5 68/3/5 73/3/5
f 75/3/5 65/3/5 69/3/5
f 75/1/5 69/1/5 68/1/5
f 76/3/5 65/3/5 75/3/5
f 77/2/5 72/2/5 71/2/5
f 78/3/5 73/3/5 72/3/5
f 78/2/5 72/2/5 77/2/5
f 79/2/5 74/2/5 73/2/5
f 79/3/5 73/3/5 78/3/5
f 80/3/5 68/3/5 74/3/5
f 80/2/5 74/2/5 79/2/5
f 81/1/5 75/1/5 68/1/5
f 81/3/5 68/3/5 80/3/5
f 82/2/5 76/2/5 75/2/5
f 82/1/5 75/1/5 81/1/5
f 83/3/5 65/3/5 76/3/5
f 83/2/5 76/2/5 82/2/5
f 84/3/5 65/3/5 83/3/5
f 85/2/6 86/2/6 92/2/6
f 92/2/6 86/2/6 93/2/6
f 88/3/6 89/3/6 94/3/6
f 89/2/6 90/2/6 94/2/6
f 90/3/6 91/3/6 95/3/6
f 94/2/6 90/2/6 95/2/6
f 87/2/6 88/2/6 96/2/6
f 88/3/6 94/3/6 97/3/6
f 96/2/6 88/2/6 97/2/6
f 97/3/6 94/3/6 98/3/6
f 98/3/6 94/3/6 99/3/6
f 99/3/6 94/3/6 100/3/6
f 95/3/6 91/3/6 101/3/6
f 94/1/6 95/1/6 101/1/6
f 101/3/6 91/3/6 102/3/6
f 97/2/6 98/2/6 103/2/6
f 98/3/6 99/3/6 104/3/6
f 103/2/6 98/2/6 104/2/6
f 99/2/6 100/2/6 105/2/6
f 104/3/6 99/3/6 105/3/6
f 100/3/6 94/3/6 106/3/6
f 105/2/6 100/2/6 106/2/6
f 94/1/6 101/1/6 107/1/6
f 106/3/6 94/3/6 107/3/6
f 101/2/6 102/2/6 108/2/6
f 107/1/6 101/1/6 108/1/6
f 102/3/6 91/3/6 109/3/6
f 108/2/6 102/2/6 109/2/6
f 109/3/6 91/3/6 110/3/6
