# MagicaVoxel @ Ephtracy

# group
o 

# material
mtllib House_Module-12.mtl
usemtl palette

# normals
vn -1 0 0
vn 1 0 0
vn 0 0 1
vn 0 0 -1
vn 0 -1 0
vn 0 1 0

# texcoords
vt 0.705078 0.5
vt 0.712891 0.5
vt 0.716797 0.5
vt 0.759766 0.5
vt 0.763672 0.5
vt 0.943359 0.5

# verts
v -0.5 -0.9 0.2
v -0.5 -0.9 0
v -0.5 -0.9 -0.1
v -0.5 -0.9 -0.2
v -0.5 -0.7 -0.1
v -0.5 -0.7 -0.2
v -0.5 -0.5 -0.1
v -0.5 -0.5 -0.2
v -0.5 -0.4 -0.1
v -0.5 -0.4 -0.2
v -0.5 0 -0.1
v -0.5 0 -0.2
v -0.5 0.4 -0.1
v -0.5 0.4 -0.2
v -0.5 0.5 -0.1
v -0.5 0.5 -0.2
v -0.5 0.6 -0.1
v -0.5 0.6 -0.2
v -0.5 0.8 -0.1
v -0.5 0.8 -0.2
v -0.5 0.9 0.2
v -0.5 0.9 0
v -0.5 0.9 -0.1
v -0.5 0.9 -0.2
v -0.3 -0.4 -0.1
v -0.3 -0.4 -0.2
v -0.3 -0.3 -0.1
v -0.3 -0.3 -0.2
v -0.3 0.2 -0.1
v -0.3 0.2 -0.2
v -0.3 0.3 -0.1
v -0.3 0.3 -0.2
v -0.2 -0.8 -0.1
v -0.2 -0.8 -0.2
v -0.2 -0.6 -0.1
v -0.2 -0.6 -0.2
v -0.2 -0.5 -0.1
v -0.2 -0.5 -0.2
v -0.2 -0.4 -0.1
v -0.2 -0.4 -0.2
v -0.2 -0.3 -0.1
v -0.2 -0.3 -0.2
v -0.2 -0.2 -0.1
v -0.2 -0.2 -0.2
v -0.2 0 -0.1
v -0.2 0 -0.2
v -0.2 0.1 -0.1
v -0.2 0.1 -0.2
v -0.2 0.2 -0.1
v -0.2 0.2 -0.2
v -0.2 0.3 -0.1
v -0.2 0.3 -0.2
v -0.2 0.6 -0.1
v -0.2 0.6 -0.2
v -0.2 0.8 -0.1
v -0.2 0.8 -0.2
v -0.1 -0.4 -0.1
v -0.1 -0.4 -0.2
v -0.1 -0.3 -0.1
v -0.1 -0.3 -0.2
v -0.1 0.2 -0.1
v -0.1 0.2 -0.2
v -0.1 0.3 -0.1
v -0.1 0.3 -0.2
v 0.1 -0.8 -0.1
v 0.1 -0.8 -0.2
v 0.1 -0.4 -0.1
v 0.1 -0.4 -0.2
v 0.1 -0.3 -0.1
v 0.1 -0.3 -0.2
v 0.1 0 -0.1
v 0.1 0 -0.2
v 0.1 0.1 -0.1
v 0.1 0.1 -0.2
v 0.1 0.2 -0.1
v 0.1 0.2 -0.2
v 0.1 0.3 -0.1
v 0.1 0.3 -0.2
v 0.1 0.4 -0.1
v 0.1 0.4 -0.2
v 0.1 0.8 -0.1
v 0.1 0.8 -0.2
v 0.2 -0.4 -0.1
v 0.2 -0.4 -0.2
v 0.2 -0.3 -0.1
v 0.2 -0.3 -0.2
v 0.2 0.2 -0.1
v 0.2 0.2 -0.2
v 0.2 0.3 -0.1
v 0.2 0.3 -0.2
v 0.4 -0.8 0.1
v 0.4 -0.8 0
v 0.4 -0.8 -0.1
v 0.4 -0.8 -0.2
v 0.4 -0.6 0.1
v 0.4 -0.6 0
v 0.4 -0.4 0.1
v 0.4 -0.4 0
v 0.4 -0.4 -0.1
v 0.4 -0.4 -0.2
v 0.4 -0.1 0.1
v 0.4 -0.1 0
v 0.4 -0.1 -0.1
v 0.4 -0.1 -0.2
v 0.4 0 -0.1
v 0.4 0 -0.2
v 0.4 0.1 0.1
v 0.4 0.1 0
v 0.4 0.1 -0.1
v 0.4 0.1 -0.2
v 0.4 0.4 -0.1
v 0.4 0.4 -0.2
v 0.4 0.5 0.1
v 0.4 0.5 0
v 0.4 0.6 -0.1
v 0.4 0.6 -0.2
v 0.4 0.8 0.1
v 0.4 0.8 0
v 0.4 0.8 -0.1
v 0.4 0.8 -0.2
v -0.4 -0.8 0.1
v -0.4 -0.8 0
v -0.4 -0.8 -0.1
v -0.4 -0.8 -0.2
v -0.4 -0.7 -0.1
v -0.4 -0.7 -0.2
v -0.4 -0.5 -0.1
v -0.4 -0.5 -0.2
v -0.4 -0.4 -0.1
v -0.4 -0.4 -0.2
v -0.4 0 -0.1
v -0.4 0 -0.2
v -0.4 0.1 -0.1
v -0.4 0.1 -0.2
v -0.4 0.4 -0.1
v -0.4 0.4 -0.2
v -0.4 0.5 -0.1
v -0.4 0.5 -0.2
v -0.4 0.6 -0.1
v -0.4 0.6 -0.2
v -0.4 0.8 0.1
v -0.4 0.8 0
v -0.4 0.8 -0.1
v -0.4 0.8 -0.2
v -0.2 -0.4 -0.1
v -0.2 -0.4 -0.2
v -0.2 -0.3 -0.1
v -0.2 -0.3 -0.2
v -0.2 0.2 -0.1
v -0.2 0.2 -0.2
v -0.2 0.3 -0.1
v -0.2 0.3 -0.2
v -0.1 -0.8 -0.1
v -0.1 -0.8 -0.2
v -0.1 -0.6 -0.1
v -0.1 -0.6 -0.2
v -0.1 -0.5 -0.1
v -0.1 -0.5 -0.2
v -0.1 -0.4 -0.1
v -0.1 -0.4 -0.2
v -0.1 -0.3 -0.1
v -0.1 -0.3 -0.2
v -0.1 -0.2 -0.1
v -0.1 -0.2 -0.2
v -0.1 0 -0.1
v -0.1 0 -0.2
v -0.1 0.1 -0.1
v -0.1 0.1 -0.2
v -0.1 0.2 -0.1
v -0.1 0.2 -0.2
v -0.1 0.3 -0.1
v -0.1 0.3 -0.2
v -0.1 0.6 -0.1
v -0.1 0.6 -0.2
v -0.1 0.8 -0.1
v -0.1 0.8 -0.2
v 0.1 -0.4 -0.1
v 0.1 -0.4 -0.2
v 0.1 -0.3 -0.1
v 0.1 -0.3 -0.2
v 0.1 0.2 -0.1
v 0.1 0.2 -0.2
v 0.1 0.3 -0.1
v 0.1 0.3 -0.2
v 0.2 -0.8 -0.1
v 0.2 -0.8 -0.2
v 0.2 -0.4 -0.1
v 0.2 -0.4 -0.2
v 0.2 -0.3 -0.1
v 0.2 -0.3 -0.2
v 0.2 0 -0.1
v 0.2 0 -0.2
v 0.2 0.1 -0.1
v 0.2 0.1 -0.2
v 0.2 0.2 -0.1
v 0.2 0.2 -0.2
v 0.2 0.3 -0.1
v 0.2 0.3 -0.2
v 0.2 0.4 -0.1
v 0.2 0.4 -0.2
v 0.2 0.8 -0.1
v 0.2 0.8 -0.2
v 0.3 -0.4 -0.1
v 0.3 -0.4 -0.2
v 0.3 -0.3 -0.1
v 0.3 -0.3 -0.2
v 0.3 0.2 -0.1
v 0.3 0.2 -0.2
v 0.3 0.3 -0.1
v 0.3 0.3 -0.2
v 0.5 -0.9 0.2
v 0.5 -0.9 0
v 0.5 -0.9 -0.1
v 0.5 -0.9 -0.2
v 0.5 -0.6 0.2
v 0.5 -0.6 0
v 0.5 -0.4 0.2
v 0.5 -0.4 0
v 0.5 -0.4 -0.1
v 0.5 -0.4 -0.2
v 0.5 -0.1 0.2
v 0.5 -0.1 0
v 0.5 -0.1 -0.1
v 0.5 -0.1 -0.2
v 0.5 0.1 0.2
v 0.5 0.1 0
v 0.5 0.4 -0.1
v 0.5 0.4 -0.2
v 0.5 0.5 0.2
v 0.5 0.5 0
v 0.5 0.6 -0.1
v 0.5 0.6 -0.2
v 0.5 0.9 0.2
v 0.5 0.9 0
v 0.5 0.9 -0.1
v 0.5 0.9 -0.2
v -0.5 -0.9 0.2
v -0.5 0.9 0.2
v -0.4 -0.8 0.2
v -0.4 0.8 0.2
v 0.4 -0.8 0.2
v 0.4 -0.6 0.2
v 0.4 -0.4 0.2
v 0.4 -0.1 0.2
v 0.4 0.1 0.2
v 0.4 0.5 0.2
v 0.4 0.8 0.2
v 0.4 0.9 0.2
v 0.5 -0.9 0.2
v 0.5 -0.6 0.2
v 0.5 -0.4 0.2
v 0.5 -0.1 0.2
v 0.5 0.1 0.2
v 0.5 0.5 0.2
v 0.5 0.9 0.2
v -0.5 -0.9 -0.1
v -0.5 -0.7 -0.1
v -0.5 -0.5 -0.1
v -0.5 -0.4 -0.1
v -0.5 0 -0.1
v -0.5 0.4 -0.1
v -0.5 0.5 -0.1
v -0.5 0.6 -0.1
v -0.5 0.8 -0.1
v -0.5 0.9 -0.1
v -0.4 -0.8 -0.1
v -0.4 -0.7 -0.1
v -0.4 -0.5 -0.1
v -0.4 -0.4 -0.1
v -0.4 0 -0.1
v -0.4 0.1 -0.1
v -0.4 0.4 -0.1
v -0.4 0.5 -0.1
v -0.4 0.6 -0.1
v -0.4 0.8 -0.1
v -0.4 0.9 -0.1
v -0.3 -0.4 -0.1
v -0.3 -0.3 -0.1
v -0.3 0 -0.1
v -0.3 0.1 -0.1
v -0.3 0.2 -0.1
v -0.3 0.3 -0.1
v -0.2 -0.9 -0.1
v -0.2 -0.8 -0.1
v -0.2 -0.6 -0.1
v -0.2 -0.5 -0.1
v -0.2 -0.4 -0.1
v -0.2 -0.3 -0.1
v -0.2 -0.2 -0.1
v -0.2 0 -0.1
v -0.2 0.1 -0.1
v -0.2 0.2 -0.1
v -0.2 0.3 -0.1
v -0.2 0.6 -0.1
v -0.2 0.8 -0.1
v -0.1 -0.8 -0.1
v -0.1 -0.6 -0.1
v -0.1 -0.5 -0.1
v -0.1 -0.4 -0.1
v -0.1 -0.3 -0.1
v -0.1 -0.2 -0.1
v -0.1 0 -0.1
v -0.1 0.1 -0.1
v -0.1 0.2 -0.1
v -0.1 0.3 -0.1
v -0.1 0.6 -0.1
v -0.1 0.8 -0.1
v -0.1 0.9 -0.1
v 0 -0.4 -0.1
v 0 -0.3 -0.1
v 0.1 -0.9 -0.1
v 0.1 -0.8 -0.1
v 0.1 -0.4 -0.1
v 0.1 -0.3 -0.1
v 0.1 0 -0.1
v 0.1 0.1 -0.1
v 0.1 0.2 -0.1
v 0.1 0.3 -0.1
v 0.1 0.4 -0.1
v 0.1 0.8 -0.1
v 0.1 0.9 -0.1
v 0.2 -0.8 -0.1
v 0.2 -0.4 -0.1
v 0.2 -0.3 -0.1
v 0.2 0 -0.1
v 0.2 0.1 -0.1
v 0.2 0.2 -0.1
v 0.2 0.3 -0.1
v 0.2 0.4 -0.1
v 0.2 0.8 -0.1
v 0.3 -0.4 -0.1
v 0.3 -0.3 -0.1
v 0.3 0.2 -0.1
v 0.3 0.3 -0.1
v 0.3 0.8 -0.1
v 0.3 0.9 -0.1
v 0.4 -0.9 -0.1
v 0.4 -0.8 -0.1
v 0.4 -0.4 -0.1
v 0.4 -0.1 -0.1
v 0.4 0 -0.1
v 0.4 0.1 -0.1
v 0.4 0.4 -0.1
v 0.4 0.6 -0.1
v 0.4 0.8 -0.1
v 0.4 0.9 -0.1
v 0.5 -0.9 -0.1
v 0.5 -0.4 -0.1
v 0.5 -0.1 -0.1
v 0.5 0.4 -0.1
v 0.5 0.6 -0.1
v 0.5 0.9 -0.1
v -0.4 -0.8 0.1
v -0.4 0.8 0.1
v 0.4 -0.8 0.1
v 0.4 -0.6 0.1
v 0.4 -0.4 0.1
v 0.4 -0.1 0.1
v 0.4 0.1 0.1
v 0.4 0.5 0.1
v 0.4 0.8 0.1
v -0.5 -0.9 0
v -0.5 0.9 0
v -0.4 -0.8 0
v -0.4 0.8 0
v 0.4 -0.8 0
v 0.4 -0.6 0
v 0.4 -0.4 0
v 0.4 -0.1 0
v 0.4 0.1 0
v 0.4 0.5 0
v 0.4 0.8 0
v 0.4 0.9 0
v 0.5 -0.9 0
v 0.5 -0.6 0
v 0.5 -0.4 0
v 0.5 -0.1 0
v 0.5 0.1 0
v 0.5 0.5 0
v 0.5 0.9 0
v -0.5 -0.9 -0.2
v -0.5 -0.7 -0.2
v -0.5 -0.5 -0.2
v -0.5 -0.4 -0.2
v -0.5 0 -0.2
v -0.5 0.4 -0.2
v -0.5 0.5 -0.2
v -0.5 0.6 -0.2
v -0.5 0.8 -0.2
v -0.5 0.9 -0.2
v -0.4 -0.8 -0.2
v -0.4 -0.7 -0.2
v -0.4 -0.5 -0.2
v -0.4 -0.4 -0.2
v -0.4 0 -0.2
v -0.4 0.1 -0.2
v -0.4 0.4 -0.2
v -0.4 0.5 -0.2
v -0.4 0.6 -0.2
v -0.4 0.8 -0.2
v -0.4 0.9 -0.2
v -0.3 -0.4 -0.2
v -0.3 -0.3 -0.2
v -0.3 0 -0.2
v -0.3 0.1 -0.2
v -0.3 0.2 -0.2
v -0.3 0.3 -0.2
v -0.2 -0.9 -0.2
v -0.2 -0.8 -0.2
v -0.2 -0.6 -0.2
v -0.2 -0.5 -0.2
v -0.2 -0.4 -0.2
v -0.2 -0.3 -0.2
v -0.2 -0.2 -0.2
v -0.2 0 -0.2
v -0.2 0.1 -0.2
v -0.2 0.2 -0.2
v -0.2 0.3 -0.2
v -0.2 0.6 -0.2
v -0.2 0.8 -0.2
v -0.1 -0.8 -0.2
v -0.1 -0.6 -0.2
v -0.1 -0.5 -0.2
v -0.1 -0.4 -0.2
v -0.1 -0.3 -0.2
v -0.1 -0.2 -0.2
v -0.1 0 -0.2
v -0.1 0.1 -0.2
v -0.1 0.2 -0.2
v -0.1 0.3 -0.2
v -0.1 0.6 -0.2
v -0.1 0.8 -0.2
v -0.1 0.9 -0.2
v 0 -0.4 -0.2
v 0 -0.3 -0.2
v 0.1 -0.9 -0.2
v 0.1 -0.8 -0.2
v 0.1 -0.4 -0.2
v 0.1 -0.3 -0.2
v 0.1 0 -0.2
v 0.1 0.1 -0.2
v 0.1 0.2 -0.2
v 0.1 0.3 -0.2
v 0.1 0.4 -0.2
v 0.1 0.8 -0.2
v 0.1 0.9 -0.2
v 0.2 -0.8 -0.2
v 0.2 -0.4 -0.2
v 0.2 -0.3 -0.2
v 0.2 0 -0.2
v 0.2 0.1 -0.2
v 0.2 0.2 -0.2
v 0.2 0.3 -0.2
v 0.2 0.4 -0.2
v 0.2 0.8 -0.2
v 0.3 -0.4 -0.2
v 0.3 -0.3 -0.2
v 0.3 0.2 -0.2
v 0.3 0.3 -0.2
v 0.3 0.8 -0.2
v 0.3 0.9 -0.2
v 0.4 -0.9 -0.2
v 0.4 -0.8 -0.2
v 0.4 -0.4 -0.2
v 0.4 -0.1 -0.2
v 0.4 0 -0.2
v 0.4 0.1 -0.2
v 0.4 0.4 -0.2
v 0.4 0.6 -0.2
v 0.4 0.8 -0.2
v 0.4 0.9 -0.2
v 0.5 -0.9 -0.2
v 0.5 -0.4 -0.2
v 0.5 -0.1 -0.2
v 0.5 0.4 -0.2
v 0.5 0.6 -0.2
v 0.5 0.9 -0.2
v -0.5 -0.9 0.2
v 0.5 -0.9 0.2
v -0.5 -0.9 0
v 0.5 -0.9 0
v -0.5 -0.9 -0.1
v -0.2 -0.9 -0.1
v 0.1 -0.9 -0.1
v 0.4 -0.9 -0.1
v 0.5 -0.9 -0.1
v -0.5 -0.9 -0.2
v -0.2 -0.9 -0.2
v 0.1 -0.9 -0.2
v 0.4 -0.9 -0.2
v 0.5 -0.9 -0.2
v -0.3 -0.4 -0.1
v -0.2 -0.4 -0.1
v -0.1 -0.4 -0.1
v 0 -0.4 -0.1
v 0.1 -0.4 -0.1
v 0.2 -0.4 -0.1
v 0.3 -0.4 -0.1
v -0.3 -0.4 -0.2
v -0.2 -0.4 -0.2
v -0.1 -0.4 -0.2
v 0 -0.4 -0.2
v 0.1 -0.4 -0.2
v 0.2 -0.4 -0.2
v 0.3 -0.4 -0.2
v -0.2 -0.3 -0.1
v -0.1 -0.3 -0.1
v 0.1 -0.3 -0.1
v 0.2 -0.3 -0.1
v -0.2 -0.3 -0.2
v -0.1 -0.3 -0.2
v 0.1 -0.3 -0.2
v 0.2 -0.3 -0.2
v -0.4 0 -0.1
v -0.3 0 -0.1
v -0.2 0 -0.1
v -0.1 0 -0.1
v 0.1 0 -0.1
v 0.2 0 -0.1
v 0.4 0 -0.1
v -0.4 0 -0.2
v -0.3 0 -0.2
v -0.2 0 -0.2
v -0.1 0 -0.2
v 0.1 0 -0.2
v 0.2 0 -0.2
v 0.4 0 -0.2
v -0.3 0.2 -0.1
v -0.2 0.2 -0.1
v -0.1 0.2 -0.1
v 0.1 0.2 -0.1
v 0.2 0.2 -0.1
v 0.3 0.2 -0.1
v -0.3 0.2 -0.2
v -0.2 0.2 -0.2
v -0.1 0.2 -0.2
v 0.1 0.2 -0.2
v 0.2 0.2 -0.2
v 0.3 0.2 -0.2
v -0.2 0.3 -0.1
v -0.1 0.3 -0.1
v 0.1 0.3 -0.1
v 0.2 0.3 -0.1
v -0.2 0.3 -0.2
v -0.1 0.3 -0.2
v 0.1 0.3 -0.2
v 0.2 0.3 -0.2
v -0.4 0.8 0.1
v 0.4 0.8 0.1
v -0.4 0.8 0
v 0.4 0.8 0
v -0.4 0.8 -0.1
v -0.2 0.8 -0.1
v -0.1 0.8 -0.1
v 0.1 0.8 -0.1
v 0.2 0.8 -0.1
v 0.3 0.8 -0.1
v 0.4 0.8 -0.1
v -0.4 0.8 -0.2
v -0.2 0.8 -0.2
v -0.1 0.8 -0.2
v 0.1 0.8 -0.2
v 0.2 0.8 -0.2
v 0.3 0.8 -0.2
v 0.4 0.8 -0.2
v -0.4 -0.8 0.1
v 0.4 -0.8 0.1
v -0.4 -0.8 0
v 0.4 -0.8 0
v -0.4 -0.8 -0.1
v -0.2 -0.8 -0.1
v -0.1 -0.8 -0.1
v 0.1 -0.8 -0.1
v 0.2 -0.8 -0.1
v 0.4 -0.8 -0.1
v -0.4 -0.8 -0.2
v -0.2 -0.8 -0.2
v -0.1 -0.8 -0.2
v 0.1 -0.8 -0.2
v 0.2 -0.8 -0.2
v 0.4 -0.8 -0.2
v -0.2 -0.4 -0.1
v -0.1 -0.4 -0.1
v 0.1 -0.4 -0.1
v 0.2 -0.4 -0.1
v -0.2 -0.4 -0.2
v -0.1 -0.4 -0.2
v 0.1 -0.4 -0.2
v 0.2 -0.4 -0.2
v -0.3 -0.3 -0.1
v -0.2 -0.3 -0.1
v -0.1 -0.3 -0.1
v 0 -0.3 -0.1
v 0.1 -0.3 -0.1
v 0.2 -0.3 -0.1
v 0.3 -0.3 -0.1
v -0.3 -0.3 -0.2
v -0.2 -0.3 -0.2
v -0.1 -0.3 -0.2
v 0 -0.3 -0.2
v 0.1 -0.3 -0.2
v 0.2 -0.3 -0.2
v 0.3 -0.3 -0.2
v -0.4 0.1 -0.1
v -0.3 0.1 -0.1
v -0.2 0.1 -0.1
v -0.1 0.1 -0.1
v 0.1 0.1 -0.1
v 0.2 0.1 -0.1
v 0.4 0.1 -0.1
v -0.4 0.1 -0.2
v -0.3 0.1 -0.2
v -0.2 0.1 -0.2
v -0.1 0.1 -0.2
v 0.1 0.1 -0.2
v 0.2 0.1 -0.2
v 0.4 0.1 -0.2
v -0.2 0.2 -0.1
v -0.1 0.2 -0.1
v 0.1 0.2 -0.1
v 0.2 0.2 -0.1
v -0.2 0.2 -0.2
v -0.1 0.2 -0.2
v 0.1 0.2 -0.2
v 0.2 0.2 -0.2
v -0.3 0.3 -0.1
v -0.2 0.3 -0.1
v -0.1 0.3 -0.1
v 0.1 0.3 -0.1
v 0.2 0.3 -0.1
v 0.3 0.3 -0.1
v -0.3 0.3 -0.2
v -0.2 0.3 -0.2
v -0.1 0.3 -0.2
v 0.1 0.3 -0.2
v 0.2 0.3 -0.2
v 0.3 0.3 -0.2
v -0.5 0.9 0.2
v 0.4 0.9 0.2
v 0.5 0.9 0.2
v -0.5 0.9 0
v 0.4 0.9 0
v 0.5 0.9 0
v -0.5 0.9 -0.1
v -0.4 0.9 -0.1
v -0.1 0.9 -0.1
v 0.1 0.9 -0.1
v 0.3 0.9 -0.1
v 0.4 0.9 -0.1
v 0.5 0.9 -0.1
v -0.5 0.9 -0.2
v -0.4 0.9 -0.2
v -0.1 0.9 -0.2
v 0.1 0.9 -0.2
v 0.3 0.9 -0.2
v 0.4 0.9 -0.2
v 0.5 0.9 -0.2

# faces
f 5/1/1 4/1/1 3/1/1
f 6/1/1 4/1/1 5/1/1
f 7/2/1 6/2/1 5/2/1
f 8/2/1 6/2/1 7/2/1
f 9/3/1 8/3/1 7/3/1
f 10/3/1 8/3/1 9/3/1
f 11/2/1 10/2/1 9/2/1
f 12/2/1 10/2/1 11/2/1
f 13/3/1 12/3/1 11/3/1
f 14/3/1 12/3/1 13/3/1
f 15/1/1 14/1/1 13/1/1
f 16/1/1 14/1/1 15/1/1
f 17/3/1 16/3/1 15/3/1
f 18/3/1 16/3/1 17/3/1
f 19/2/1 18/2/1 17/2/1
f 20/2/1 18/2/1 19/2/1
f 21/5/1 2/5/1 1/5/1
f 22/5/1 2/5/1 21/5/1
f 23/1/1 20/1/1 19/1/1
f 24/1/1 20/1/1 23/1/1
f 27/2/1 26/2/1 25/2/1
f 28/2/1 26/2/1 27/2/1
f 31/2/1 30/2/1 29/2/1
f 32/2/1 30/2/1 31/2/1
f 35/2/1 34/2/1 33/2/1
f 36/2/1 34/2/1 35/2/1
f 37/3/1 36/3/1 35/3/1
f 38/3/1 36/3/1 37/3/1
f 39/2/1 38/2/1 37/2/1
f 40/2/1 38/2/1 39/2/1
f 43/3/1 42/3/1 41/3/1
f 44/3/1 42/3/1 43/3/1
f 45/2/1 44/2/1 43/2/1
f 46/2/1 44/2/1 45/2/1
f 49/2/1 48/2/1 47/2/1
f 50/2/1 48/2/1 49/2/1
f 53/2/1 52/2/1 51/2/1
f 54/2/1 52/2/1 53/2/1
f 55/1/1 54/1/1 53/1/1
f 56/1/1 54/1/1 55/1/1
f 59/1/1 58/1/1 57/1/1
f 60/1/1 58/1/1 59/1/1
f 63/2/1 62/2/1 61/2/1
f 64/2/1 62/2/1 63/2/1
f 67/2/1 66/2/1 65/2/1
f 68/2/1 66/2/1 67/2/1
f 71/2/1 70/2/1 69/2/1
f 72/2/1 70/2/1 71/2/1
f 75/2/1 74/2/1 73/2/1
f 76/2/1 74/2/1 75/2/1
f 79/1/1 78/1/1 77/1/1
f 80/1/1 78/1/1 79/1/1
f 81/3/1 80/3/1 79/3/1
f 82/3/1 80/3/1 81/3/1
f 85/2/1 84/2/1 83/2/1
f 86/2/1 84/2/1 85/2/1
f 89/2/1 88/2/1 87/2/1
f 90/2/1 88/2/1 89/2/1
f 95/5/1 92/5/1 91/5/1
f 96/5/1 92/5/1 95/5/1
f 97/4/1 96/4/1 95/4/1
f 98/4/1 96/4/1 97/4/1
f 99/2/1 94/2/1 93/2/1
f 100/2/1 94/2/1 99/2/1
f 101/5/1 98/5/1 97/5/1
f 102/5/1 98/5/1 101/5/1
f 103/3/1 100/3/1 99/3/1
f 104/3/1 100/3/1 103/3/1
f 105/2/1 104/2/1 103/2/1
f 106/2/1 104/2/1 105/2/1
f 107/4/1 102/4/1 101/4/1
f 108/4/1 102/4/1 107/4/1
f 111/2/1 110/2/1 109/2/1
f 112/2/1 110/2/1 111/2/1
f 113/5/1 108/5/1 107/5/1
f 114/5/1 108/5/1 113/5/1
f 115/1/1 112/1/1 111/1/1
f 116/1/1 112/1/1 115/1/1
f 117/4/1 114/4/1 113/4/1
f 118/4/1 114/4/1 117/4/1
f 119/3/1 116/3/1 115/3/1
f 120/3/1 116/3/1 119/3/1
f 123/1/2 124/1/2 125/1/2
f 125/1/2 124/1/2 126/1/2
f 125/2/2 126/2/2 127/2/2
f 127/2/2 126/2/2 128/2/2
f 127/3/2 128/3/2 129/3/2
f 129/3/2 128/3/2 130/3/2
f 129/2/2 130/2/2 131/2/2
f 131/2/2 130/2/2 132/2/2
f 133/3/2 134/3/2 135/3/2
f 135/3/2 134/3/2 136/3/2
f 135/1/2 136/1/2 137/1/2
f 137/1/2 136/1/2 138/1/2
f 137/3/2 138/3/2 139/3/2
f 139/3/2 138/3/2 140/3/2
f 121/5/2 122/5/2 141/5/2
f 141/5/2 122/5/2 142/5/2
f 139/2/2 140/2/2 143/2/2
f 143/2/2 140/2/2 144/2/2
f 145/2/2 146/2/2 147/2/2
f 147/2/2 146/2/2 148/2/2
f 149/2/2 150/2/2 151/2/2
f 151/2/2 150/2/2 152/2/2
f 153/2/2 154/2/2 155/2/2
f 155/2/2 154/2/2 156/2/2
f 155/3/2 156/3/2 157/3/2
f 157/3/2 156/3/2 158/3/2
f 157/2/2 158/2/2 159/2/2
f 159/2/2 158/2/2 160/2/2
f 161/3/2 162/3/2 163/3/2
f 163/3/2 162/3/2 164/3/2
f 163/2/2 164/2/2 165/2/2
f 165/2/2 164/2/2 166/2/2
f 167/2/2 168/2/2 169/2/2
f 169/2/2 168/2/2 170/2/2
f 171/2/2 172/2/2 173/2/2
f 173/2/2 172/2/2 174/2/2
f 173/1/2 174/1/2 175/1/2
f 175/1/2 174/1/2 176/1/2
f 177/2/2 178/2/2 179/2/2
f 179/2/2 178/2/2 180/2/2
f 181/2/2 182/2/2 183/2/2
f 183/2/2 182/2/2 184/2/2
f 185/2/2 186/2/2 187/2/2
f 187/2/2 186/2/2 188/2/2
f 189/2/2 190/2/2 191/2/2
f 191/2/2 190/2/2 192/2/2
f 193/2/2 194/2/2 195/2/2
f 195/2/2 194/2/2 196/2/2
f 197/1/2 198/1/2 199/1/2
f 199/1/2 198/1/2 200/1/2
f 199/3/2 200/3/2 201/3/2
f 201/3/2 200/3/2 202/3/2
f 203/2/2 204/2/2 205/2/2
f 205/2/2 204/2/2 206/2/2
f 207/2/2 208/2/2 209/2/2
f 209/2/2 208/2/2 210/2/2
f 211/5/2 212/5/2 215/5/2
f 215/5/2 212/5/2 216/5/2
f 215/4/2 216/4/2 217/4/2
f 217/4/2 216/4/2 218/4/2
f 213/2/2 214/2/2 219/2/2
f 219/2/2 214/2/2 220/2/2
f 217/5/2 218/5/2 221/5/2
f 221/5/2 218/5/2 222/5/2
f 219/3/2 220/3/2 223/3/2
f 223/3/2 220/3/2 224/3/2
f 221/4/2 222/4/2 225/4/2
f 225/4/2 222/4/2 226/4/2
f 223/2/2 224/2/2 227/2/2
f 227/2/2 224/2/2 228/2/2
f 225/5/2 226/5/2 229/5/2
f 229/5/2 226/5/2 230/5/2
f 227/1/2 228/1/2 231/1/2
f 231/1/2 228/1/2 232/1/2
f 229/4/2 230/4/2 233/4/2
f 233/4/2 230/4/2 234/4/2
f 231/3/2 232/3/2 235/3/2
f 235/3/2 232/3/2 236/3/2
f 239/5/3 238/5/3 237/5/3
f 240/5/3 238/5/3 239/5/3
f 241/5/3 239/5/3 237/5/3
f 241/6/3 240/6/3 239/6/3
f 242/6/3 240/6/3 241/6/3
f 243/6/3 240/6/3 242/6/3
f 244/6/3 240/6/3 243/6/3
f 245/6/3 240/6/3 244/6/3
f 246/6/3 240/6/3 245/6/3
f 247/5/3 238/5/3 240/5/3
f 247/6/3 240/6/3 246/6/3
f 248/5/3 238/5/3 247/5/3
f 249/5/3 241/5/3 237/5/3
f 249/5/3 242/5/3 241/5/3
f 250/4/3 243/4/3 242/4/3
f 250/5/3 242/5/3 249/5/3
f 251/5/3 244/5/3 243/5/3
f 251/4/3 243/4/3 250/4/3
f 252/4/3 245/4/3 244/4/3
f 252/5/3 244/5/3 251/5/3
f 253/5/3 246/5/3 245/5/3
f 253/4/3 245/4/3 252/4/3
f 254/4/3 248/4/3 247/4/3
f 254/5/3 246/5/3 253/5/3
f 254/4/3 247/4/3 246/4/3
f 255/4/3 248/4/3 254/4/3
f 266/1/3 257/1/3 256/1/3
f 267/2/3 258/2/3 257/2/3
f 267/1/3 257/1/3 266/1/3
f 268/3/3 259/3/3 258/3/3
f 268/2/3 258/2/3 267/2/3
f 269/2/3 260/2/3 259/2/3
f 269/3/3 259/3/3 268/3/3
f 270/3/3 261/3/3 260/3/3
f 270/2/3 260/2/3 269/2/3
f 271/3/3 261/3/3 270/3/3
f 272/1/3 262/1/3 261/1/3
f 272/3/3 261/3/3 271/3/3
f 273/3/3 263/3/3 262/3/3
f 273/1/3 262/1/3 272/1/3
f 274/2/3 264/2/3 263/2/3
f 274/3/3 263/3/3 273/3/3
f 275/1/3 265/1/3 264/1/3
f 275/2/3 264/2/3 274/2/3
f 276/1/3 265/1/3 275/1/3
f 279/2/3 271/2/3 270/2/3
f 280/2/3 271/2/3 279/2/3
f 283/1/3 266/1/3 256/1/3
f 284/1/3 266/1/3 283/1/3
f 287/2/3 278/2/3 277/2/3
f 288/2/3 278/2/3 287/2/3
f 290/3/3 280/3/3 279/3/3
f 291/3/3 280/3/3 290/3/3
f 292/2/3 282/2/3 281/2/3
f 293/2/3 282/2/3 292/2/3
f 295/3/3 276/3/3 275/3/3
f 296/2/3 284/2/3 283/2/3
f 296/2/3 285/2/3 284/2/3
f 297/3/3 286/3/3 285/3/3
f 297/2/3 285/2/3 296/2/3
f 298/2/3 287/2/3 286/2/3
f 298/3/3 286/3/3 297/3/3
f 299/2/3 287/2/3 298/2/3
f 300/3/3 289/3/3 288/3/3
f 301/2/3 290/2/3 289/2/3
f 301/3/3 289/3/3 300/3/3
f 302/3/3 291/3/3 290/3/3
f 302/2/3 290/2/3 301/2/3
f 303/2/3 292/2/3 291/2/3
f 303/3/3 291/3/3 302/3/3
f 304/2/3 292/2/3 303/2/3
f 305/2/3 294/2/3 293/2/3
f 306/1/3 295/1/3 294/1/3
f 306/2/3 294/2/3 305/2/3
f 307/3/3 276/3/3 295/3/3
f 307/1/3 295/1/3 306/1/3
f 308/3/3 276/3/3 307/3/3
f 309/1/3 300/1/3 299/1/3
f 310/1/3 300/1/3 309/1/3
f 311/2/3 296/2/3 283/2/3
f 312/2/3 296/2/3 311/2/3
f 313/2/3 310/2/3 309/2/3
f 314/2/3 310/2/3 313/2/3
f 315/3/3 303/3/3 302/3/3
f 316/3/3 303/3/3 315/3/3
f 317/2/3 305/2/3 304/2/3
f 318/2/3 305/2/3 317/2/3
f 320/2/3 308/2/3 307/2/3
f 321/2/3 308/2/3 320/2/3
f 322/2/3 313/2/3 312/2/3
f 322/3/3 312/3/3 311/3/3
f 323/2/3 313/2/3 322/2/3
f 324/2/3 315/2/3 314/2/3
f 325/1/3 316/1/3 315/1/3
f 325/2/3 315/2/3 324/2/3
f 326/2/3 317/2/3 316/2/3
f 326/1/3 316/1/3 325/1/3
f 327/2/3 317/2/3 326/2/3
f 328/1/3 319/1/3 318/1/3
f 329/3/3 321/3/3 320/3/3
f 329/3/3 320/3/3 319/3/3
f 329/1/3 319/1/3 328/1/3
f 330/3/3 321/3/3 329/3/3
f 331/2/3 324/2/3 323/2/3
f 332/2/3 324/2/3 331/2/3
f 333/2/3 328/2/3 327/2/3
f 334/2/3 328/2/3 333/2/3
f 335/3/3 321/3/3 330/3/3
f 336/3/3 321/3/3 335/3/3
f 337/3/3 322/3/3 311/3/3
f 338/3/3 322/3/3 337/3/3
f 341/2/3 326/2/3 325/2/3
f 342/2/3 326/2/3 341/2/3
f 345/2/3 336/2/3 335/2/3
f 346/2/3 336/2/3 345/2/3
f 347/2/3 338/2/3 337/2/3
f 347/2/3 339/2/3 338/2/3
f 348/3/3 340/3/3 339/3/3
f 348/2/3 339/2/3 347/2/3
f 349/2/3 341/2/3 340/2/3
f 349/3/3 340/3/3 348/3/3
f 349/2/3 342/2/3 341/2/3
f 349/2/3 343/2/3 342/2/3
f 350/1/3 344/1/3 343/1/3
f 350/2/3 343/2/3 349/2/3
f 351/3/3 346/3/3 345/3/3
f 351/1/3 344/1/3 350/1/3
f 351/3/3 345/3/3 344/3/3
f 352/3/3 346/3/3 351/3/3
f 353/6/4 354/6/4 355/6/4
f 355/6/4 354/6/4 356/6/4
f 356/6/4 354/6/4 357/6/4
f 357/6/4 354/6/4 358/6/4
f 358/6/4 354/6/4 359/6/4
f 359/6/4 354/6/4 360/6/4
f 360/6/4 354/6/4 361/6/4
f 362/5/4 363/5/4 364/5/4
f 364/5/4 363/5/4 365/5/4
f 362/5/4 364/5/4 366/5/4
f 365/5/4 363/5/4 372/5/4
f 372/5/4 363/5/4 373/5/4
f 362/5/4 366/5/4 374/5/4
f 366/5/4 367/5/4 374/5/4
f 367/4/4 368/4/4 375/4/4
f 374/5/4 367/5/4 375/5/4
f 368/5/4 369/5/4 376/5/4
f 375/4/4 368/4/4 376/4/4
f 369/4/4 370/4/4 377/4/4
f 376/5/4 369/5/4 377/5/4
f 370/5/4 371/5/4 378/5/4
f 377/4/4 370/4/4 378/4/4
f 372/4/4 373/4/4 379/4/4
f 378/5/4 371/5/4 379/5/4
f 371/4/4 372/4/4 379/4/4
f 379/4/4 373/4/4 380/4/4
f 381/1/4 382/1/4 391/1/4
f 382/2/4 383/2/4 392/2/4
f 391/1/4 382/1/4 392/1/4
f 383/3/4 384/3/4 393/3/4
f 392/2/4 383/2/4 393/2/4
f 384/2/4 385/2/4 394/2/4
f 393/3/4 384/3/4 394/3/4
f 385/3/4 386/3/4 395/3/4
f 394/2/4 385/2/4 395/2/4
f 395/3/4 386/3/4 396/3/4
f 386/1/4 387/1/4 397/1/4
f 396/3/4 386/3/4 397/3/4
f 387/3/4 388/3/4 398/3/4
f 397/1/4 387/1/4 398/1/4
f 388/2/4 389/2/4 399/2/4
f 398/3/4 388/3/4 399/3/4
f 389/1/4 390/1/4 400/1/4
f 399/2/4 389/2/4 400/2/4
f 400/1/4 390/1/4 401/1/4
f 395/2/4 396/2/4 404/2/4
f 404/2/4 396/2/4 405/2/4
f 381/1/4 391/1/4 408/1/4
f 408/1/4 391/1/4 409/1/4
f 402/2/4 403/2/4 412/2/4
f 412/2/4 403/2/4 413/2/4
f 404/3/4 405/3/4 415/3/4
f 415/3/4 405/3/4 416/3/4
f 406/2/4 407/2/4 417/2/4
f 417/2/4 407/2/4 418/2/4
f 400/3/4 401/3/4 420/3/4
f 408/2/4 409/2/4 421/2/4
f 409/2/4 410/2/4 421/2/4
f 410/3/4 411/3/4 422/3/4
f 421/2/4 410/2/4 422/2/4
f 411/2/4 412/2/4 423/2/4
f 422/3/4 411/3/4 423/3/4
f 423/2/4 412/2/4 424/2/4
f 413/3/4 414/3/4 425/3/4
f 414/2/4 415/2/4 426/2/4
f 425/3/4 414/3/4 426/3/4
f 415/3/4 416/3/4 427/3/4
f 426/2/4 415/2/4 427/2/4
f 416/2/4 417/2/4 428/2/4
f 427/3/4 416/3/4 428/3/4
f 428/2/4 417/2/4 429/2/4
f 418/2/4 419/2/4 430/2/4
f 419/1/4 420/1/4 431/1/4
f 430/2/4 419/2/4 431/2/4
f 420/3/4 401/3/4 432/3/4
f 431/1/4 420/1/4 432/1/4
f 432/3/4 401/3/4 433/3/4
f 424/1/4 425/1/4 434/1/4
f 434/1/4 425/1/4 435/1/4
f 408/2/4 421/2/4 436/2/4
f 436/2/4 421/2/4 437/2/4
f 434/2/4 435/2/4 438/2/4
f 438/2/4 435/2/4 439/2/4
f 427/3/4 428/3/4 440/3/4
f 440/3/4 428/3/4 441/3/4
f 429/2/4 430/2/4 442/2/4
f 442/2/4 430/2/4 443/2/4
f 432/2/4 433/2/4 445/2/4
f 445/2/4 433/2/4 446/2/4
f 437/2/4 438/2/4 447/2/4
f 436/3/4 437/3/4 447/3/4
f 447/2/4 438/2/4 448/2/4
f 439/2/4 440/2/4 449/2/4
f 440/1/4 441/1/4 450/1/4
f 449/2/4 440/2/4 450/2/4
f 441/2/4 442/2/4 451/2/4
f 450/1/4 441/1/4 451/1/4
f 451/2/4 442/2/4 452/2/4
f 443/1/4 444/1/4 453/1/4
f 445/3/4 446/3/4 454/3/4
f 444/3/4 445/3/4 454/3/4
f 453/1/4 444/1/4 454/1/4
f 454/3/4 446/3/4 455/3/4
f 448/2/4 449/2/4 456/2/4
f 456/2/4 449/2/4 457/2/4
f 452/2/4 453/2/4 458/2/4
f 458/2/4 453/2/4 459/2/4
f 455/3/4 446/3/4 460/3/4
f 460/3/4 446/3/4 461/3/4
f 436/3/4 447/3/4 462/3/4
f 462/3/4 447/3/4 463/3/4
f 450/2/4 451/2/4 466/2/4
f 466/2/4 451/2/4 467/2/4
f 460/2/4 461/2/4 470/2/4
f 470/2/4 461/2/4 471/2/4
f 462/2/4 463/2/4 472/2/4
f 463/2/4 464/2/4 472/2/4
f 464/3/4 465/3/4 473/3/4
f 472/2/4 464/2/4 473/2/4
f 465/2/4 466/2/4 474/2/4
f 473/3/4 465/3/4 474/3/4
f 466/2/4 467/2/4 474/2/4
f 467/2/4 468/2/4 474/2/4
f 468/1/4 469/1/4 475/1/4
f 474/2/4 468/2/4 475/2/4
f 470/3/4 471/3/4 476/3/4
f 475/1/4 469/1/4 476/1/4
f 469/3/4 470/3/4 476/3/4
f 476/3/4 471/3/4 477/3/4
f 480/5/5 479/5/5 478/5/5
f 481/5/5 479/5/5 480/5/5
f 487/1/5 483/1/5 482/1/5
f 488/2/5 484/2/5 483/2/5
f 488/1/5 483/1/5 487/1/5
f 489/3/5 485/3/5 484/3/5
f 489/2/5 484/2/5 488/2/5
f 490/2/5 486/2/5 485/2/5
f 490/3/5 485/3/5 489/3/5
f 491/2/5 486/2/5 490/2/5
f 499/2/5 493/2/5 492/2/5
f 500/2/5 493/2/5 499/2/5
f 501/1/5 495/1/5 494/1/5
f 502/2/5 496/2/5 495/2/5
f 502/1/5 495/1/5 501/1/5
f 503/2/5 496/2/5 502/2/5
f 504/2/5 498/2/5 497/2/5
f 505/2/5 498/2/5 504/2/5
f 510/3/5 507/3/5 506/3/5
f 511/3/5 507/3/5 510/3/5
f 512/2/5 509/2/5 508/2/5
f 513/2/5 509/2/5 512/2/5
f 521/2/5 515/2/5 514/2/5
f 522/3/5 516/3/5 515/3/5
f 522/2/5 515/2/5 521/2/5
f 523/3/5 516/3/5 522/3/5
f 524/3/5 518/3/5 517/3/5
f 525/3/5 518/3/5 524/3/5
f 526/2/5 520/2/5 519/2/5
f 527/2/5 520/2/5 526/2/5
f 534/2/5 529/2/5 528/2/5
f 535/2/5 529/2/5 534/2/5
f 536/2/5 531/2/5 530/2/5
f 537/2/5 531/2/5 536/2/5
f 538/2/5 533/2/5 532/2/5
f 539/2/5 533/2/5 538/2/5
f 544/2/5 541/2/5 540/2/5
f 545/2/5 541/2/5 544/2/5
f 546/1/5 543/1/5 542/1/5
f 547/1/5 543/1/5 546/1/5
f 550/5/5 549/5/5 548/5/5
f 551/5/5 549/5/5 550/5/5
f 559/3/5 553/3/5 552/3/5
f 560/3/5 553/3/5 559/3/5
f 561/2/5 555/2/5 554/2/5
f 562/2/5 555/2/5 561/2/5
f 563/3/5 557/3/5 556/3/5
f 564/2/5 558/2/5 557/2/5
f 564/3/5 557/3/5 563/3/5
f 565/2/5 558/2/5 564/2/5
f 566/5/6 567/5/6 568/5/6
f 568/5/6 567/5/6 569/5/6
f 570/1/6 571/1/6 576/1/6
f 576/1/6 571/1/6 577/1/6
f 572/2/6 573/2/6 578/2/6
f 578/2/6 573/2/6 579/2/6
f 574/3/6 575/3/6 580/3/6
f 580/3/6 575/3/6 581/3/6
f 582/2/6 583/2/6 586/2/6
f 586/2/6 583/2/6 587/2/6
f 584/2/6 585/2/6 588/2/6
f 588/2/6 585/2/6 589/2/6
f 590/2/6 591/2/6 597/2/6
f 597/2/6 591/2/6 598/2/6
f 592/1/6 593/1/6 599/1/6
f 593/2/6 594/2/6 600/2/6
f 599/1/6 593/1/6 600/1/6
f 600/2/6 594/2/6 601/2/6
f 595/2/6 596/2/6 602/2/6
f 602/2/6 596/2/6 603/2/6
f 604/2/6 605/2/6 611/2/6
f 605/3/6 606/3/6 612/3/6
f 611/2/6 605/2/6 612/2/6
f 612/3/6 606/3/6 613/3/6
f 607/3/6 608/3/6 614/3/6
f 614/3/6 608/3/6 615/3/6
f 609/2/6 610/2/6 616/2/6
f 616/2/6 610/2/6 617/2/6
f 618/2/6 619/2/6 622/2/6
f 622/2/6 619/2/6 623/2/6
f 620/2/6 621/2/6 624/2/6
f 624/2/6 621/2/6 625/2/6
f 626/2/6 627/2/6 632/2/6
f 632/2/6 627/2/6 633/2/6
f 628/2/6 629/2/6 634/2/6
f 634/2/6 629/2/6 635/2/6
f 630/2/6 631/2/6 636/2/6
f 636/2/6 631/2/6 637/2/6
f 638/5/6 639/5/6 641/5/6
f 639/4/6 640/4/6 642/4/6
f 641/5/6 639/5/6 642/5/6
f 642/4/6 640/4/6 643/4/6
f 644/1/6 645/1/6 651/1/6
f 645/3/6 646/3/6 652/3/6
f 651/1/6 645/1/6 652/1/6
f 646/2/6 647/2/6 653/2/6
f 652/3/6 646/3/6 653/3/6
f 647/3/6 648/3/6 654/3/6
f 653/2/6 647/2/6 654/2/6
f 648/2/6 649/2/6 655/2/6
f 654/3/6 648/3/6 655/3/6
f 649/3/6 650/3/6 656/3/6
f 655/2/6 649/2/6 656/2/6
f 656/3/6 650/3/6 657/3/6
