# MagicaVoxel @ Ephtracy

# group
o 

# material
mtllib House_Module-42.mtl
usemtl palette

# normals
vn -1 0 0
vn 1 0 0
vn 0 0 1
vn 0 0 -1
vn 0 -1 0
vn 0 1 0

# texcoords
vt 0.314453 0.5
vt 0.318359 0.5
vt 0.322266 0.5

# verts
v -1.2 -0.05 0.15
v -1.2 -0.05 0.05
v -1.2 -0.05 -0.05
v -1.2 -0.05 -0.15
v -1.2 0.05 0.15
v -1.2 0.05 0.05
v -1.2 0.05 -0.05
v -1.2 0.05 -0.15
v 0.7 -0.05 0.15
v 0.7 -0.05 0.05
v 0.7 0.05 0.15
v 0.7 0.05 0.05
v 0.3 -0.05 0.15
v 0.3 -0.05 0.05
v 0.3 0.05 0.15
v 0.3 0.05 0.05
v 1.1 -0.05 0.15
v 1.1 -0.05 0.05
v 1.1 0.05 0.15
v 1.1 0.05 0.05
v 1.2 -0.05 0.05
v 1.2 -0.05 -0.15
v 1.2 0.05 0.05
v 1.2 0.05 -0.15
v -1.2 -0.05 0.15
v -1.2 0.05 0.15
v -1.1 -0.05 0.15
v -1.1 0.05 0.15
v -0.9 -0.05 0.15
v -0.9 0.05 0.15
v -0.7 -0.05 0.15
v -0.7 0.05 0.15
v -0.5 -0.05 0.15
v -0.5 0.05 0.15
v 0.2 -0.05 0.15
v 0.2 0.05 0.15
v 0.3 -0.05 0.15
v 0.3 0.05 0.15
v 0.7 -0.05 0.15
v 0.7 0.05 0.15
v 0.8 -0.05 0.15
v 0.8 0.05 0.15
v 0.9 -0.05 0.15
v 0.9 0.05 0.15
v 1 -0.05 0.15
v 1 0.05 0.15
v 1.1 -0.05 0.15
v 1.1 0.05 0.15
v 0.3 -0.05 0.05
v 0.3 0.05 0.05
v 0.5 -0.05 0.05
v 0.5 0.05 0.05
v 0.7 -0.05 0.05
v 0.7 0.05 0.05
v 1.1 -0.05 0.05
v 1.1 0.05 0.05
v 1.2 -0.05 0.05
v 1.2 0.05 0.05
v -1.2 -0.05 -0.15
v -1.2 0.05 -0.15
v 0 -0.05 -0.15
v 0 0.05 -0.15
v 0.0999999 -0.05 -0.15
v 0.0999999 0.05 -0.15
v 0.7 -0.05 -0.15
v 0.7 0.05 -0.15
v 0.8 -0.05 -0.15
v 0.8 0.05 -0.15
v 0.9 -0.05 -0.15
v 0.9 0.05 -0.15
v 1 -0.05 -0.15
v 1 0.05 -0.15
v 1.2 -0.05 -0.15
v 1.2 0.05 -0.15
v -1.2 -0.05 0.15
v -1.1 -0.05 0.15
v -0.9 -0.05 0.15
v -0.7 -0.05 0.15
v -0.5 -0.05 0.15
v 0.2 -0.05 0.15
v 0.3 -0.05 0.15
v 0.7 -0.05 0.15
v 0.8 -0.05 0.15
v 0.9 -0.05 0.15
v 1 -0.05 0.15
v 1.1 -0.05 0.15
v -1.2 -0.05 0.05
v -1.1 -0.05 0.05
v -1 -0.05 0.05
v -0.9 -0.05 0.05
v -0.1 -0.05 0.05
v 0.2 -0.05 0.05
v 0.3 -0.05 0.05
v 0.5 -0.05 0.05
v 0.7 -0.05 0.05
v 0.8 -0.05 0.05
v 0.9 -0.05 0.05
v 1 -0.05 0.05
v 1.1 -0.05 0.05
v 1.2 -0.05 0.05
v -1.2 -0.05 -0.05
v -1 -0.05 -0.05
v -0.7 -0.05 -0.05
v -0.5 -0.05 -0.05
v -0.1 -0.05 -0.05
v 0 -0.05 -0.05
v 0.0999999 -0.05 -0.05
v 0.2 -0.05 -0.05
v 0.3 -0.05 -0.05
v 0.5 -0.05 -0.05
v 0.7 -0.05 -0.05
v 0.8 -0.05 -0.05
v 0.9 -0.05 -0.05
v 1 -0.05 -0.05
v -1.2 -0.05 -0.15
v 0 -0.05 -0.15
v 0.0999999 -0.05 -0.15
v 0.7 -0.05 -0.15
v 0.8 -0.05 -0.15
v 0.9 -0.05 -0.15
v 1 -0.05 -0.15
v 1.2 -0.05 -0.15
v -1.2 0.05 0.15
v -1.1 0.05 0.15
v -0.9 0.05 0.15
v -0.7 0.05 0.15
v -0.5 0.05 0.15
v 0.2 0.05 0.15
v 0.3 0.05 0.15
v 0.7 0.05 0.15
v 0.8 0.05 0.15
v 0.9 0.05 0.15
v 1 0.05 0.15
v 1.1 0.05 0.15
v -1.2 0.05 0.05
v -1.1 0.05 0.05
v -1 0.05 0.05
v -0.9 0.05 0.05
v -0.1 0.05 0.05
v 0.2 0.05 0.05
v 0.3 0.05 0.05
v 0.5 0.05 0.05
v 0.7 0.05 0.05
v 0.8 0.05 0.05
v 0.9 0.05 0.05
v 1 0.05 0.05
v 1.1 0.05 0.05
v 1.2 0.05 0.05
v -1.2 0.05 -0.05
v -1 0.05 -0.05
v -0.7 0.05 -0.05
v -0.5 0.05 -0.05
v -0.1 0.05 -0.05
v 0 0.05 -0.05
v 0.0999999 0.05 -0.05
v 0.2 0.05 -0.05
v 0.3 0.05 -0.05
v 0.5 0.05 -0.05
v 0.7 0.05 -0.05
v 0.8 0.05 -0.05
v 0.9 0.05 -0.05
v 1 0.05 -0.05
v -1.2 0.05 -0.15
v 0 0.05 -0.15
v 0.0999999 0.05 -0.15
v 0.7 0.05 -0.15
v 0.8 0.05 -0.15
v 0.9 0.05 -0.15
v 1 0.05 -0.15
v 1.2 0.05 -0.15

# faces
f 5/1/1 2/1/1 1/1/1
f 6/2/1 3/2/1 2/2/1
f 6/1/1 2/1/1 5/1/1
f 7/3/1 4/3/1 3/3/1
f 7/2/1 3/2/1 6/2/1
f 8/3/1 4/3/1 7/3/1
f 11/2/1 10/2/1 9/2/1
f 12/2/1 10/2/1 11/2/1
f 13/2/2 14/2/2 15/2/2
f 15/2/2 14/2/2 16/2/2
f 17/1/2 18/1/2 19/1/2
f 19/1/2 18/1/2 20/1/2
f 21/3/2 22/3/2 23/3/2
f 23/3/2 22/3/2 24/3/2
f 27/1/3 26/1/3 25/1/3
f 28/1/3 26/1/3 27/1/3
f 29/2/3 28/2/3 27/2/3
f 30/2/3 28/2/3 29/2/3
f 31/3/3 30/3/3 29/3/3
f 32/3/3 30/3/3 31/3/3
f 33/2/3 32/2/3 31/2/3
f 34/2/3 32/2/3 33/2/3
f 35/3/3 34/3/3 33/3/3
f 36/3/3 34/3/3 35/3/3
f 37/2/3 36/2/3 35/2/3
f 38/2/3 36/2/3 37/2/3
f 41/2/3 40/2/3 39/2/3
f 42/2/3 40/2/3 41/2/3
f 43/1/3 42/1/3 41/1/3
f 44/1/3 42/1/3 43/1/3
f 45/3/3 44/3/3 43/3/3
f 46/3/3 44/3/3 45/3/3
f 47/1/3 46/1/3 45/1/3
f 48/1/3 46/1/3 47/1/3
f 51/1/3 50/1/3 49/1/3
f 52/1/3 50/1/3 51/1/3
f 53/2/3 52/2/3 51/2/3
f 54/2/3 52/2/3 53/2/3
f 57/3/3 56/3/3 55/3/3
f 58/3/3 56/3/3 57/3/3
f 59/3/4 60/3/4 61/3/4
f 61/3/4 60/3/4 62/3/4
f 61/2/4 62/2/4 63/2/4
f 63/2/4 62/2/4 64/2/4
f 63/3/4 64/3/4 65/3/4
f 65/3/4 64/3/4 66/3/4
f 65/2/4 66/2/4 67/2/4
f 67/2/4 66/2/4 68/2/4
f 67/3/4 68/3/4 69/3/4
f 69/3/4 68/3/4 70/3/4
f 69/2/4 70/2/4 71/2/4
f 71/2/4 70/2/4 72/2/4
f 71/3/4 72/3/4 73/3/4
f 73/3/4 72/3/4 74/3/4
f 87/1/5 76/1/5 75/1/5
f 88/2/5 77/2/5 76/2/5
f 88/1/5 76/1/5 87/1/5
f 89/2/5 77/2/5 88/2/5
f 90/3/5 78/3/5 77/3/5
f 90/2/5 77/2/5 89/2/5
f 91/3/5 80/3/5 79/3/5
f 92/2/5 81/2/5 80/2/5
f 92/3/5 80/3/5 91/3/5
f 93/2/5 81/2/5 92/2/5
f 95/2/5 83/2/5 82/2/5
f 96/1/5 84/1/5 83/1/5
f 96/2/5 83/2/5 95/2/5
f 97/3/5 85/3/5 84/3/5
f 97/1/5 84/1/5 96/1/5
f 98/1/5 86/1/5 85/1/5
f 98/3/5 85/3/5 97/3/5
f 99/1/5 86/1/5 98/1/5
f 101/2/5 89/2/5 88/2/5
f 101/2/5 88/2/5 87/2/5
f 102/3/5 90/3/5 89/3/5
f 102/2/5 89/2/5 101/2/5
f 103/2/5 79/2/5 78/2/5
f 103/3/5 90/3/5 102/3/5
f 103/3/5 78/3/5 90/3/5
f 104/3/5 91/3/5 79/3/5
f 104/2/5 79/2/5 103/2/5
f 105/2/5 92/2/5 91/2/5
f 105/3/5 91/3/5 104/3/5
f 106/2/5 92/2/5 105/2/5
f 107/2/5 92/2/5 106/2/5
f 108/3/5 93/3/5 92/3/5
f 108/2/5 92/2/5 107/2/5
f 109/1/5 94/1/5 93/1/5
f 109/3/5 93/3/5 108/3/5
f 110/2/5 97/2/5 96/2/5
f 110/1/5 94/1/5 109/1/5
f 110/2/5 95/2/5 94/2/5
f 110/2/5 96/2/5 95/2/5
f 111/2/5 97/2/5 110/2/5
f 112/2/5 97/2/5 111/2/5
f 113/3/5 100/3/5 99/3/5
f 113/2/5 97/2/5 112/2/5
f 113/3/5 98/3/5 97/3/5
f 113/3/5 99/3/5 98/3/5
f 114/3/5 100/3/5 113/3/5
f 115/3/5 102/3/5 101/3/5
f 115/3/5 103/3/5 102/3/5
f 115/3/5 106/3/5 105/3/5
f 115/3/5 105/3/5 104/3/5
f 115/3/5 104/3/5 103/3/5
f 116/2/5 107/2/5 106/2/5
f 116/3/5 106/3/5 115/3/5
f 117/3/5 109/3/5 108/3/5
f 117/2/5 107/2/5 116/2/5
f 117/3/5 111/3/5 110/3/5
f 117/3/5 108/3/5 107/3/5
f 117/3/5 110/3/5 109/3/5
f 118/2/5 112/2/5 111/2/5
f 118/3/5 111/3/5 117/3/5
f 119/3/5 113/3/5 112/3/5
f 119/2/5 112/2/5 118/2/5
f 120/2/5 114/2/5 113/2/5
f 120/3/5 113/3/5 119/3/5
f 121/3/5 100/3/5 114/3/5
f 121/2/5 114/2/5 120/2/5
f 122/3/5 100/3/5 121/3/5
f 123/1/6 124/1/6 135/1/6
f 124/2/6 125/2/6 136/2/6
f 135/1/6 124/1/6 136/1/6
f 136/2/6 125/2/6 137/2/6
f 125/3/6 126/3/6 138/3/6
f 137/2/6 125/2/6 138/2/6
f 127/3/6 128/3/6 139/3/6
f 128/2/6 129/2/6 140/2/6
f 139/3/6 128/3/6 140/3/6
f 140/2/6 129/2/6 141/2/6
f 130/2/6 131/2/6 143/2/6
f 131/1/6 132/1/6 144/1/6
f 143/2/6 131/2/6 144/2/6
f 132/3/6 133/3/6 145/3/6
f 144/1/6 132/1/6 145/1/6
f 133/1/6 134/1/6 146/1/6
f 145/3/6 133/3/6 146/3/6
f 146/1/6 134/1/6 147/1/6
f 136/2/6 137/2/6 149/2/6
f 135/2/6 136/2/6 149/2/6
f 137/3/6 138/3/6 150/3/6
f 149/2/6 137/2/6 150/2/6
f 126/2/6 127/2/6 151/2/6
f 150/3/6 138/3/6 151/3/6
f 138/3/6 126/3/6 151/3/6
f 127/3/6 139/3/6 152/3/6
f 151/2/6 127/2/6 152/2/6
f 139/2/6 140/2/6 153/2/6
f 152/3/6 139/3/6 153/3/6
f 153/2/6 140/2/6 154/2/6
f 154/2/6 140/2/6 155/2/6
f 140/3/6 141/3/6 156/3/6
f 155/2/6 140/2/6 156/2/6
f 141/1/6 142/1/6 157/1/6
f 156/3/6 141/3/6 157/3/6
f 144/2/6 145/2/6 158/2/6
f 157/1/6 142/1/6 158/1/6
f 142/2/6 143/2/6 158/2/6
f 143/2/6 144/2/6 158/2/6
f 158/2/6 145/2/6 159/2/6
f 159/2/6 145/2/6 160/2/6
f 147/3/6 148/3/6 161/3/6
f 160/2/6 145/2/6 161/2/6
f 145/3/6 146/3/6 161/3/6
f 146/3/6 147/3/6 161/3/6
f 161/3/6 148/3/6 162/3/6
f 149/3/6 150/3/6 163/3/6
f 150/3/6 151/3/6 163/3/6
f 153/3/6 154/3/6 163/3/6
f 152/3/6 153/3/6 163/3/6
f 151/3/6 152/3/6 163/3/6
f 154/2/6 155/2/6 164/2/6
f 163/3/6 154/3/6 164/3/6
f 156/3/6 157/3/6 165/3/6
f 164/2/6 155/2/6 165/2/6
f 158/3/6 159/3/6 165/3/6
f 155/3/6 156/3/6 165/3/6
f 157/3/6 158/3/6 165/3/6
f 159/2/6 160/2/6 166/2/6
f 165/3/6 159/3/6 166/3/6
f 160/3/6 161/3/6 167/3/6
f 166/2/6 160/2/6 167/2/6
f 161/2/6 162/2/6 168/2/6
f 167/3/6 161/3/6 168/3/6
f 162/3/6 148/3/6 169/3/6
f 168/2/6 162/2/6 169/2/6
f 169/3/6 148/3/6 170/3/6
