# MagicaVoxel @ Ephtracy

# group
o 

# material
mtllib House_Module-9.mtl
usemtl palette

# normals
vn -1 0 0
vn 1 0 0
vn 0 0 1
vn 0 0 -1
vn 0 -1 0
vn 0 1 0

# texcoords
vt 0.759766 0.5
vt 0.763672 0.5
vt 0.943359 0.5

# verts
v -0.3 -0.3 0.1
v -0.3 -0.3 -0.1
v -0.3 -0.1 0.1
v -0.3 -0.1 -0.1
v -0.3 0.1 0.1
v -0.3 0.1 -0.1
v -0.3 0.3 0.1
v -0.3 0.3 -0.1
v 0.2 -0.2 0
v 0.2 -0.2 -0.1
v 0.2 0.2 0
v 0.2 0.2 -0.1
v -0.2 -0.2 0
v -0.2 -0.2 -0.1
v -0.2 -0.1 0
v -0.2 -0.1 -0.1
v -0.2 0.1 0
v -0.2 0.1 -0.1
v -0.2 0.2 0
v -0.2 0.2 -0.1
v 0.3 -0.3 0.1
v 0.3 -0.3 -0.1
v 0.3 0.2 0.1
v 0.3 0.2 -0.1
v 0.3 0.3 0.1
v 0.3 0.3 -0.1
v -0.3 -0.3 0.1
v -0.3 -0.1 0.1
v -0.3 0.1 0.1
v -0.3 0.3 0.1
v -0.2 -0.3 0.1
v -0.2 -0.2 0.1
v -0.2 -0.1 0.1
v -0.2 0.1 0.1
v -0.2 0.2 0.1
v 0 -0.3 0.1
v 0 -0.2 0.1
v 0.2 -0.2 0.1
v 0.2 0.2 0.1
v 0.2 0.3 0.1
v 0.3 -0.3 0.1
v 0.3 0.2 0.1
v 0.3 0.3 0.1
v -0.2 -0.2 0
v -0.2 -0.1 0
v -0.2 0.1 0
v -0.2 0.2 0
v 0 -0.2 0
v 0.2 -0.2 0
v 0.2 0.2 0
v -0.3 -0.3 -0.1
v -0.3 -0.1 -0.1
v -0.3 0.1 -0.1
v -0.3 0.3 -0.1
v -0.2 -0.3 -0.1
v -0.2 -0.2 -0.1
v -0.2 -0.1 -0.1
v -0.2 0.1 -0.1
v -0.2 0.2 -0.1
v 0 -0.3 -0.1
v 0 -0.2 -0.1
v 0.2 -0.2 -0.1
v 0.2 0.2 -0.1
v 0.2 0.3 -0.1
v 0.3 -0.3 -0.1
v 0.3 0.2 -0.1
v 0.3 0.3 -0.1
v -0.3 -0.3 0.1
v -0.2 -0.3 0.1
v 0 -0.3 0.1
v 0.3 -0.3 0.1
v -0.3 -0.3 -0.1
v -0.2 -0.3 -0.1
v 0 -0.3 -0.1
v 0.3 -0.3 -0.1
v -0.2 0.2 0
v 0.2 0.2 0
v -0.2 0.2 -0.1
v 0.2 0.2 -0.1
v -0.2 -0.2 0
v 0 -0.2 0
v 0.2 -0.2 0
v -0.2 -0.2 -0.1
v 0 -0.2 -0.1
v 0.2 -0.2 -0.1
v -0.3 0.3 0.1
v 0.2 0.3 0.1
v 0.3 0.3 0.1
v -0.3 0.3 -0.1
v 0.2 0.3 -0.1
v 0.3 0.3 -0.1

# faces
f 3/2/1 2/2/1 1/2/1
f 4/2/1 2/2/1 3/2/1
f 5/1/1 4/1/1 3/1/1
f 6/1/1 4/1/1 5/1/1
f 7/2/1 6/2/1 5/2/1
f 8/2/1 6/2/1 7/2/1
f 11/2/1 10/2/1 9/2/1
f 12/2/1 10/2/1 11/2/1
f 13/2/2 14/2/2 15/2/2
f 15/2/2 14/2/2 16/2/2
f 15/1/2 16/1/2 17/1/2
f 17/1/2 16/1/2 18/1/2
f 17/2/2 18/2/2 19/2/2
f 19/2/2 18/2/2 20/2/2
f 21/2/2 22/2/2 23/2/2
f 23/2/2 22/2/2 24/2/2
f 23/1/2 24/1/2 25/1/2
f 25/1/2 24/1/2 26/1/2
f 31/2/3 28/2/3 27/2/3
f 32/2/3 28/2/3 31/2/3
f 33/1/3 29/1/3 28/1/3
f 33/2/3 28/2/3 32/2/3
f 34/2/3 30/2/3 29/2/3
f 34/1/3 29/1/3 33/1/3
f 35/2/3 30/2/3 34/2/3
f 36/1/3 32/1/3 31/1/3
f 37/3/3 33/3/3 32/3/3
f 37/1/3 32/1/3 36/1/3
f 37/3/3 34/3/3 33/3/3
f 37/3/3 35/3/3 34/3/3
f 38/2/3 37/2/3 36/2/3
f 38/3/3 35/3/3 37/3/3
f 39/2/3 30/2/3 35/2/3
f 39/3/3 35/3/3 38/3/3
f 40/2/3 30/2/3 39/2/3
f 41/2/3 38/2/3 36/2/3
f 41/2/3 39/2/3 38/2/3
f 42/1/3 40/1/3 39/1/3
f 42/2/3 39/2/3 41/2/3
f 43/1/3 40/1/3 42/1/3
f 44/3/4 45/3/4 48/3/4
f 46/3/4 47/3/4 48/3/4
f 45/3/4 46/3/4 48/3/4
f 48/3/4 47/3/4 49/3/4
f 49/3/4 47/3/4 50/3/4
f 51/2/4 52/2/4 55/2/4
f 55/2/4 52/2/4 56/2/4
f 52/1/4 53/1/4 57/1/4
f 56/2/4 52/2/4 57/2/4
f 53/2/4 54/2/4 58/2/4
f 57/1/4 53/1/4 58/1/4
f 58/2/4 54/2/4 59/2/4
f 55/1/4 56/1/4 60/1/4
f 60/1/4 56/1/4 61/1/4
f 60/2/4 61/2/4 62/2/4
f 59/2/4 54/2/4 63/2/4
f 63/2/4 54/2/4 64/2/4
f 60/2/4 62/2/4 65/2/4
f 62/2/4 63/2/4 65/2/4
f 63/1/4 64/1/4 66/1/4
f 65/2/4 63/2/4 66/2/4
f 66/1/4 64/1/4 67/1/4
f 72/2/5 69/2/5 68/2/5
f 73/1/5 70/1/5 69/1/5
f 73/2/5 69/2/5 72/2/5
f 74/2/5 71/2/5 70/2/5
f 74/1/5 70/1/5 73/1/5
f 75/2/5 71/2/5 74/2/5
f 78/2/5 77/2/5 76/2/5
f 79/2/5 77/2/5 78/2/5
f 80/1/6 81/1/6 83/1/6
f 81/2/6 82/2/6 84/2/6
f 83/1/6 81/1/6 84/1/6
f 84/2/6 82/2/6 85/2/6
f 86/2/6 87/2/6 89/2/6
f 87/1/6 88/1/6 90/1/6
f 89/2/6 87/2/6 90/2/6
f 90/1/6 88/1/6 91/1/6
