# MagicaVoxel @ Ephtracy

# group
o 

# material
mtllib House_Module-24.mtl
usemtl palette

# normals
vn -1 0 0
vn 1 0 0
vn 0 0 1
vn 0 0 -1
vn 0 -1 0
vn 0 1 0

# texcoords
vt 0.759766 0.5
vt 0.763672 0.5

# verts
v -0.1 -1.2 0.1
v -0.1 -1.2 0
v -0.1 -1.2 -0.1
v -0.1 -1.1 0.1
v -0.1 -1.1 0
v -0.1 -1.1 -0.1
v -0.1 -1 0
v -0.1 -1 -0.1
v -0.1 -0.9 0
v -0.1 -0.9 -0.1
v -0.1 -0.8 0
v -0.1 -0.8 -0.1
v -0.1 -0.2 0
v -0.1 -0.2 -0.1
v -0.1 0.3 0
v -0.1 0.3 -0.1
v -0.1 0.7 0.1
v -0.1 0.7 0
v -0.1 1.1 0.1
v -0.1 1.1 0
v -0.1 1.2 0.1
v -0.1 1.2 -0.1
v 0.1 -1.2 0.1
v 0.1 -1.2 -0.1
v 0.1 -1.1 0.1
v 0.1 -1.1 -0.1
v 0.1 -0.8 0
v 0.1 -0.8 -0.1
v 0.1 -0.6 0
v 0.1 -0.6 -0.1
v 0.1 0.4 0
v 0.1 0.4 -0.1
v 0.1 1.1 0
v 0.1 1.1 -0.1
v 0.1 1.2 0.1
v 0.1 1.2 -0.1
v -0.1 -1.2 0.1
v -0.1 -1.1 0.1
v -0.1 0.7 0.1
v -0.1 1.1 0.1
v -0.1 1.2 0.1
v 0 0.7 0.1
v 0 1.1 0.1
v 0.1 -1.2 0.1
v 0.1 -1.1 0.1
v 0.1 1.2 0.1
v -0.1 -1.2 -0.1
v -0.1 -1.1 -0.1
v -0.1 -1 -0.1
v -0.1 -0.9 -0.1
v -0.1 -0.8 -0.1
v -0.1 -0.2 -0.1
v -0.1 0.3 -0.1
v -0.1 1.2 -0.1
v 0 -1.2 -0.1
v 0 -1.1 -0.1
v 0 -1 -0.1
v 0 -0.9 -0.1
v 0 -0.8 -0.1
v 0 -0.6 -0.1
v 0 -0.2 -0.1
v 0 0.3 -0.1
v 0 0.4 -0.1
v 0 1.1 -0.1
v 0.1 -1.2 -0.1
v 0.1 -1.1 -0.1
v 0.1 -0.8 -0.1
v 0.1 -0.6 -0.1
v 0.1 0.4 -0.1
v 0.1 1.1 -0.1
v 0.1 1.2 -0.1
v -0.1 -1.2 0.1
v 0.1 -1.2 0.1
v -0.1 -1.2 0
v 0 -1.2 0
v -0.1 -1.2 -0.1
v 0 -1.2 -0.1
v 0.1 -1.2 -0.1
v -0.1 1.2 0.1
v 0.1 1.2 0.1
v -0.1 1.2 -0.1
v 0.1 1.2 -0.1

# faces
f 4/1/1 2/1/1 1/1/1
f 5/2/1 3/2/1 2/2/1
f 5/1/1 2/1/1 4/1/1
f 6/2/1 3/2/1 5/2/1
f 7/2/1 5/2/1 4/2/1
f 7/1/1 6/1/1 5/1/1
f 8/1/1 6/1/1 7/1/1
f 9/2/1 7/2/1 4/2/1
f 9/2/1 8/2/1 7/2/1
f 10/2/1 8/2/1 9/2/1
f 11/2/1 9/2/1 4/2/1
f 11/1/1 10/1/1 9/1/1
f 12/1/1 10/1/1 11/1/1
f 13/2/1 11/2/1 4/2/1
f 13/2/1 12/2/1 11/2/1
f 14/2/1 12/2/1 13/2/1
f 15/2/1 13/2/1 4/2/1
f 15/1/1 14/1/1 13/1/1
f 16/1/1 14/1/1 15/1/1
f 17/2/1 15/2/1 4/2/1
f 17/2/1 16/2/1 15/2/1
f 18/2/1 16/2/1 17/2/1
f 19/1/1 18/1/1 17/1/1
f 20/2/1 16/2/1 18/2/1
f 20/1/1 18/1/1 19/1/1
f 21/2/1 20/2/1 19/2/1
f 22/2/1 16/2/1 20/2/1
f 22/2/1 20/2/1 21/2/1
f 23/1/2 24/1/2 25/1/2
f 25/1/2 24/1/2 26/1/2
f 25/2/2 26/2/2 27/2/2
f 27/2/2 26/2/2 28/2/2
f 25/2/2 27/2/2 29/2/2
f 27/1/2 28/1/2 29/1/2
f 29/1/2 28/1/2 30/1/2
f 25/2/2 29/2/2 31/2/2
f 29/2/2 30/2/2 31/2/2
f 31/2/2 30/2/2 32/2/2
f 25/2/2 31/2/2 33/2/2
f 31/1/2 32/1/2 33/1/2
f 33/1/2 32/1/2 34/1/2
f 25/2/2 33/2/2 35/2/2
f 33/2/2 34/2/2 35/2/2
f 35/2/2 34/2/2 36/2/2
f 42/2/3 39/2/3 38/2/3
f 42/1/3 40/1/3 39/1/3
f 43/2/3 41/2/3 40/2/3
f 43/1/3 40/1/3 42/1/3
f 44/1/3 38/1/3 37/1/3
f 45/2/3 42/2/3 38/2/3
f 45/1/3 38/1/3 44/1/3
f 45/2/3 43/2/3 42/2/3
f 46/2/3 41/2/3 43/2/3
f 46/2/3 43/2/3 45/2/3
f 47/2/4 48/2/4 55/2/4
f 48/1/4 49/1/4 56/1/4
f 55/2/4 48/2/4 56/2/4
f 49/2/4 50/2/4 57/2/4
f 56/1/4 49/1/4 57/1/4
f 50/1/4 51/1/4 58/1/4
f 57/2/4 50/2/4 58/2/4
f 51/2/4 52/2/4 59/2/4
f 58/1/4 51/1/4 59/1/4
f 59/2/4 52/2/4 60/2/4
f 52/1/4 53/1/4 61/1/4
f 60/2/4 52/2/4 61/2/4
f 53/2/4 54/2/4 62/2/4
f 61/1/4 53/1/4 62/1/4
f 62/2/4 54/2/4 63/2/4
f 63/2/4 54/2/4 64/2/4
f 55/1/4 56/1/4 65/1/4
f 56/2/4 57/2/4 66/2/4
f 65/1/4 56/1/4 66/1/4
f 57/2/4 58/2/4 66/2/4
f 58/2/4 59/2/4 66/2/4
f 59/1/4 60/1/4 67/1/4
f 66/2/4 59/2/4 67/2/4
f 60/2/4 61/2/4 68/2/4
f 67/1/4 60/1/4 68/1/4
f 62/2/4 63/2/4 68/2/4
f 61/2/4 62/2/4 68/2/4
f 63/1/4 64/1/4 69/1/4
f 68/2/4 63/2/4 69/2/4
f 64/2/4 54/2/4 70/2/4
f 69/1/4 64/1/4 70/1/4
f 70/2/4 54/2/4 71/2/4
f 74/1/5 73/1/5 72/1/5
f 75/1/5 73/1/5 74/1/5
f 76/2/5 75/2/5 74/2/5
f 77/1/5 73/1/5 75/1/5
f 77/2/5 75/2/5 76/2/5
f 78/1/5 73/1/5 77/1/5
f 79/2/6 80/2/6 81/2/6
f 81/2/6 80/2/6 82/2/6
