# MagicaVoxel @ Ephtracy

# group
o 

# material
mtllib House_Module-7.mtl
usemtl palette

# normals
vn -1 0 0
vn 1 0 0
vn 0 0 1
vn 0 0 -1
vn 0 -1 0
vn 0 1 0

# texcoords
vt 0.759766 0.5
vt 0.763672 0.5

# verts
v -0.2 -1.4 0
v -0.2 -1.4 -0.1
v -0.2 -1.4 -0.2
v -0.2 -1.3 0
v -0.2 -1.3 -0.1
v -0.2 1.2 0.2
v -0.2 1.2 0
v -0.2 1.4 0.2
v -0.2 1.4 -0.2
v 0 -1.4 0
v 0 -1.4 -0.2
v 0 -1.2 0
v 0 -1.2 -0.1
v 0 -1 0
v 0 -1 -0.1
v 0 -1 -0.2
v 0 -0.8 0
v 0 -0.8 -0.1
v 0 -0.1 0
v 0 -0.1 -0.1
v 0 0.1 0
v 0 0.1 -0.1
v 0 0.4 -0.1
v 0 0.4 -0.2
v 0 0.6 -0.1
v 0 0.6 -0.2
v 0 0.7 0
v 0 0.7 -0.1
v 0 1.2 0.2
v 0 1.2 0
v 0 1.2 -0.1
v 0 1.2 -0.2
v 0 1.3 0.1
v 0 1.3 0
v 0 1.4 0.2
v 0 1.4 0.1
v 0 1.4 0
v 0.2 1.2 0
v 0.2 1.2 -0.1
v 0.2 1.2 -0.2
v 0.2 1.4 0
v 0.2 1.4 -0.1
v 0.2 1.4 -0.2
v -0.2 1.2 0.2
v -0.2 1.4 0.2
v 0 1.2 0.2
v 0 1.4 0.2
v -0.2 -1.4 0
v -0.2 -1.3 0
v -0.2 1.2 0
v -0.1 -1.3 0
v -0.1 -1.2 0
v -0.1 -1 0
v -0.1 -0.8 0
v -0.1 -0.1 0
v -0.1 0.1 0
v -0.1 0.7 0
v -0.1 1.2 0
v 0 -1.4 0
v 0 -1.2 0
v 0 -1 0
v 0 -0.8 0
v 0 -0.1 0
v 0 0.1 0
v 0 0.7 0
v 0 1.2 0
v 0 1.3 0
v 0 1.4 0
v 0.1 1.2 0
v 0.1 1.4 0
v 0.2 1.2 0
v 0.2 1.4 0
v -0.2 -1.4 -0.2
v -0.2 1.4 -0.2
v -0.1 -1.4 -0.2
v -0.1 -1 -0.2
v -0.1 0.4 -0.2
v -0.1 0.6 -0.2
v 0 -1.4 -0.2
v 0 -1 -0.2
v 0 0.4 -0.2
v 0 0.6 -0.2
v 0 1.2 -0.2
v 0.2 1.2 -0.2
v 0.2 1.4 -0.2
v -0.2 -1.4 0
v 0 -1.4 0
v -0.2 -1.4 -0.1
v -0.1 -1.4 -0.1
v -0.2 -1.4 -0.2
v -0.1 -1.4 -0.2
v 0 -1.4 -0.2
v -0.2 1.2 0.2
v 0 1.2 0.2
v -0.2 1.2 0
v -0.1 1.2 0
v 0 1.2 0
v 0.1 1.2 0
v 0.2 1.2 0
v 0 1.2 -0.1
v 0.1 1.2 -0.1
v 0.2 1.2 -0.1
v 0 1.2 -0.2
v 0.2 1.2 -0.2
v -0.2 1.4 0.2
v 0 1.4 0.2
v -0.1 1.4 0.1
v 0 1.4 0.1
v -0.1 1.4 0
v 0 1.4 0
v 0.1 1.4 0
v 0.2 1.4 0
v 0.1 1.4 -0.1
v 0.2 1.4 -0.1
v -0.2 1.4 -0.2
v 0.2 1.4 -0.2

# faces
f 4/1/1 2/1/1 1/1/1
f 5/2/1 3/2/1 2/2/1
f 5/1/1 2/1/1 4/1/1
f 7/2/1 5/2/1 4/2/1
f 8/2/1 7/2/1 6/2/1
f 9/2/1 3/2/1 5/2/1
f 9/2/1 7/2/1 8/2/1
f 9/2/1 5/2/1 7/2/1
f 10/1/2 11/1/2 12/1/2
f 12/1/2 11/1/2 13/1/2
f 12/2/2 13/2/2 14/2/2
f 13/1/2 11/1/2 15/1/2
f 14/2/2 13/2/2 15/2/2
f 15/1/2 11/1/2 16/1/2
f 14/1/2 15/1/2 17/1/2
f 15/2/2 16/2/2 18/2/2
f 17/1/2 15/1/2 18/1/2
f 17/2/2 18/2/2 19/2/2
f 18/2/2 16/2/2 20/2/2
f 19/2/2 18/2/2 20/2/2
f 19/1/2 20/1/2 21/1/2
f 20/2/2 16/2/2 22/2/2
f 21/1/2 20/1/2 22/1/2
f 21/2/2 22/2/2 23/2/2
f 22/2/2 16/2/2 23/2/2
f 23/2/2 16/2/2 24/2/2
f 21/2/2 23/2/2 25/2/2
f 23/1/2 24/1/2 25/1/2
f 25/1/2 24/1/2 26/1/2
f 21/2/2 25/2/2 27/2/2
f 25/2/2 26/2/2 27/2/2
f 27/2/2 26/2/2 28/2/2
f 27/1/2 28/1/2 30/1/2
f 28/2/2 26/2/2 31/2/2
f 30/1/2 28/1/2 31/1/2
f 31/2/2 26/2/2 32/2/2
f 29/2/2 30/2/2 33/2/2
f 33/2/2 30/2/2 34/2/2
f 29/2/2 33/2/2 35/2/2
f 33/1/2 34/1/2 36/1/2
f 35/2/2 33/2/2 36/2/2
f 36/1/2 34/1/2 37/1/2
f 38/1/2 39/1/2 41/1/2
f 39/2/2 40/2/2 42/2/2
f 41/1/2 39/1/2 42/1/2
f 42/2/2 40/2/2 43/2/2
f 46/2/3 45/2/3 44/2/3
f 47/2/3 45/2/3 46/2/3
f 51/1/3 49/1/3 48/1/3
f 51/2/3 50/2/3 49/2/3
f 52/2/3 50/2/3 51/2/3
f 53/2/3 50/2/3 52/2/3
f 54/2/3 50/2/3 53/2/3
f 55/2/3 50/2/3 54/2/3
f 56/2/3 50/2/3 55/2/3
f 57/2/3 50/2/3 56/2/3
f 58/2/3 50/2/3 57/2/3
f 59/1/3 51/1/3 48/1/3
f 59/1/3 52/1/3 51/1/3
f 60/2/3 53/2/3 52/2/3
f 60/1/3 52/1/3 59/1/3
f 61/1/3 54/1/3 53/1/3
f 61/2/3 53/2/3 60/2/3
f 62/2/3 55/2/3 54/2/3
f 62/1/3 54/1/3 61/1/3
f 63/1/3 56/1/3 55/1/3
f 63/2/3 55/2/3 62/2/3
f 64/2/3 57/2/3 56/2/3
f 64/1/3 56/1/3 63/1/3
f 65/1/3 58/1/3 57/1/3
f 65/2/3 57/2/3 64/2/3
f 66/1/3 58/1/3 65/1/3
f 69/2/3 68/2/3 67/2/3
f 69/2/3 67/2/3 66/2/3
f 70/2/3 68/2/3 69/2/3
f 71/1/3 70/1/3 69/1/3
f 72/1/3 70/1/3 71/1/3
f 73/2/4 74/2/4 75/2/4
f 75/2/4 74/2/4 76/2/4
f 76/2/4 74/2/4 77/2/4
f 77/2/4 74/2/4 78/2/4
f 75/1/4 76/1/4 79/1/4
f 76/2/4 77/2/4 80/2/4
f 79/1/4 76/1/4 80/1/4
f 77/1/4 78/1/4 81/1/4
f 80/2/4 77/2/4 81/2/4
f 78/2/4 74/2/4 82/2/4
f 81/1/4 78/1/4 82/1/4
f 82/2/4 74/2/4 83/2/4
f 83/2/4 74/2/4 84/2/4
f 84/2/4 74/2/4 85/2/4
f 88/1/5 87/1/5 86/1/5
f 89/1/5 87/1/5 88/1/5
f 90/2/5 89/2/5 88/2/5
f 91/1/5 87/1/5 89/1/5
f 91/2/5 89/2/5 90/2/5
f 92/1/5 87/1/5 91/1/5
f 95/2/5 94/2/5 93/2/5
f 96/2/5 94/2/5 95/2/5
f 97/2/5 94/2/5 96/2/5
f 100/2/5 98/2/5 97/2/5
f 101/1/5 99/1/5 98/1/5
f 101/2/5 98/2/5 100/2/5
f 102/1/5 99/1/5 101/1/5
f 103/2/5 101/2/5 100/2/5
f 103/2/5 102/2/5 101/2/5
f 104/2/5 102/2/5 103/2/5
f 105/2/6 106/2/6 107/2/6
f 107/2/6 106/2/6 108/2/6
f 105/2/6 107/2/6 109/2/6
f 107/1/6 108/1/6 109/1/6
f 109/1/6 108/1/6 110/1/6
f 109/2/6 110/2/6 113/2/6
f 111/1/6 112/1/6 113/1/6
f 110/2/6 111/2/6 113/2/6
f 113/1/6 112/1/6 114/1/6
f 105/2/6 109/2/6 115/2/6
f 109/2/6 113/2/6 115/2/6
f 113/2/6 114/2/6 115/2/6
f 115/2/6 114/2/6 116/2/6
