# MagicaVoxel @ Ephtracy

# group
o 

# material
mtllib House_Module-6.mtl
usemtl palette

# normals
vn -1 0 0
vn 1 0 0
vn 0 0 1
vn 0 0 -1
vn 0 -1 0
vn 0 1 0

# texcoords
vt 0.759766 0.5
vt 0.763672 0.5

# verts
v -0.2 -1.4 0.2
v -0.2 -1.4 0
v -0.2 -0.2 0.1
v -0.2 -0.2 0
v -0.2 -0.1 0.1
v -0.2 -0.1 0
v -0.2 0.3 0.1
v -0.2 0.3 0
v -0.2 0.4 0.1
v -0.2 0.4 0
v -0.2 1 0.1
v -0.2 1 0
v -0.2 1.2 0.1
v -0.2 1.2 0
v -0.2 1.2 -0.2
v -0.2 1.4 0.2
v -0.2 1.4 -0.2
v 0 -1.4 0.2
v 0 -1.4 0
v 0 -1.3 0.2
v 0 -1.3 0.1
v 0 -1.2 0.1
v 0 -1.2 0
v 0 -0.9 0.1
v 0 -0.9 0
v 0 -0.4 0.1
v 0 -0.4 0
v 0 0.7 0.1
v 0 0.7 0
v 0 1 0.1
v 0 1 0
v 0 1.2 0.2
v 0 1.2 0
v 0 1.2 -0.1
v 0 1.2 -0.2
v 0 1.3 -0.1
v 0 1.3 -0.2
v 0 1.4 0
v 0 1.4 -0.2
v 0.2 1.2 0.2
v 0.2 1.2 0.1
v 0.2 1.2 0
v 0.2 1.3 0.2
v 0.2 1.3 0.1
v 0.2 1.3 0
v 0.2 1.4 0.2
v 0.2 1.4 0.1
v 0.2 1.4 0
v -0.2 -1.4 0.2
v -0.2 1.4 0.2
v -0.1 -1.4 0.2
v -0.1 -1.3 0.2
v 0 -1.4 0.2
v 0 -1.3 0.2
v 0 1.2 0.2
v 0.1 1.3 0.2
v 0.1 1.4 0.2
v 0.2 1.2 0.2
v 0.2 1.3 0.2
v 0.2 1.4 0.2
v -0.2 -1.4 0
v -0.2 -0.2 0
v -0.2 -0.1 0
v -0.2 0.3 0
v -0.2 0.4 0
v -0.2 1 0
v -0.2 1.2 0
v -0.1 -1.4 0
v -0.1 -1.2 0
v -0.1 -0.9 0
v -0.1 -0.4 0
v -0.1 -0.2 0
v -0.1 -0.1 0
v -0.1 0.3 0
v -0.1 0.4 0
v -0.1 0.7 0
v -0.1 1 0
v -0.1 1.2 0
v 0 -1.4 0
v 0 -1.2 0
v 0 -0.9 0
v 0 -0.4 0
v 0 0.7 0
v 0 1 0
v 0 1.2 0
v 0 1.4 0
v 0.1 1.2 0
v 0.1 1.3 0
v 0.2 1.2 0
v 0.2 1.3 0
v 0.2 1.4 0
v -0.2 1.2 -0.2
v -0.2 1.4 -0.2
v -0.1 1.2 -0.2
v -0.1 1.3 -0.2
v 0 1.2 -0.2
v 0 1.3 -0.2
v 0 1.4 -0.2
v -0.2 -1.4 0.2
v -0.1 -1.4 0.2
v 0 -1.4 0.2
v -0.2 -1.4 0
v -0.1 -1.4 0
v 0 -1.4 0
v 0 1.2 0.2
v 0.2 1.2 0.2
v 0.1 1.2 0.1
v 0.2 1.2 0.1
v -0.2 1.2 0
v -0.1 1.2 0
v 0 1.2 0
v 0.1 1.2 0
v 0.2 1.2 0
v -0.1 1.2 -0.1
v 0 1.2 -0.1
v -0.2 1.2 -0.2
v -0.1 1.2 -0.2
v 0 1.2 -0.2
v -0.2 1.4 0.2
v 0.1 1.4 0.2
v 0.2 1.4 0.2
v 0.1 1.4 0.1
v 0.2 1.4 0.1
v 0 1.4 0
v 0.2 1.4 0
v -0.2 1.4 -0.2
v 0 1.4 -0.2

# faces
f 3/2/1 2/2/1 1/2/1
f 4/2/1 2/2/1 3/2/1
f 5/2/1 3/2/1 1/2/1
f 5/1/1 4/1/1 3/1/1
f 6/1/1 4/1/1 5/1/1
f 7/2/1 5/2/1 1/2/1
f 7/2/1 6/2/1 5/2/1
f 8/2/1 6/2/1 7/2/1
f 9/2/1 7/2/1 1/2/1
f 9/1/1 8/1/1 7/1/1
f 10/1/1 8/1/1 9/1/1
f 11/2/1 9/2/1 1/2/1
f 11/2/1 10/2/1 9/2/1
f 12/2/1 10/2/1 11/2/1
f 13/2/1 11/2/1 1/2/1
f 13/1/1 12/1/1 11/1/1
f 14/1/1 12/1/1 13/1/1
f 16/2/1 14/2/1 13/2/1
f 16/2/1 15/2/1 14/2/1
f 16/2/1 13/2/1 1/2/1
f 17/2/1 15/2/1 16/2/1
f 18/1/2 19/1/2 20/1/2
f 20/1/2 19/1/2 21/1/2
f 20/2/2 21/2/2 22/2/2
f 21/1/2 19/1/2 22/1/2
f 22/1/2 19/1/2 23/1/2
f 20/2/2 22/2/2 24/2/2
f 22/2/2 23/2/2 24/2/2
f 24/2/2 23/2/2 25/2/2
f 20/2/2 24/2/2 26/2/2
f 24/1/2 25/1/2 26/1/2
f 26/1/2 25/1/2 27/1/2
f 20/2/2 26/2/2 28/2/2
f 26/2/2 27/2/2 28/2/2
f 28/2/2 27/2/2 29/2/2
f 20/2/2 28/2/2 30/2/2
f 28/1/2 29/1/2 30/1/2
f 30/1/2 29/1/2 31/1/2
f 20/2/2 30/2/2 32/2/2
f 30/2/2 31/2/2 32/2/2
f 32/2/2 31/2/2 33/2/2
f 34/1/2 35/1/2 36/1/2
f 33/2/2 34/2/2 36/2/2
f 36/1/2 35/1/2 37/1/2
f 33/2/2 36/2/2 38/2/2
f 36/2/2 37/2/2 38/2/2
f 38/2/2 37/2/2 39/2/2
f 40/2/2 41/2/2 43/2/2
f 41/1/2 42/1/2 44/1/2
f 43/2/2 41/2/2 44/2/2
f 44/1/2 42/1/2 45/1/2
f 43/1/2 44/1/2 46/1/2
f 44/2/2 45/2/2 47/2/2
f 46/1/2 44/1/2 47/1/2
f 47/2/2 45/2/2 48/2/2
f 51/2/3 50/2/3 49/2/3
f 52/2/3 50/2/3 51/2/3
f 53/1/3 52/1/3 51/1/3
f 54/2/3 50/2/3 52/2/3
f 54/1/3 52/1/3 53/1/3
f 55/2/3 50/2/3 54/2/3
f 56/2/3 50/2/3 55/2/3
f 57/2/3 50/2/3 56/2/3
f 58/2/3 56/2/3 55/2/3
f 59/1/3 57/1/3 56/1/3
f 59/2/3 56/2/3 58/2/3
f 60/1/3 57/1/3 59/1/3
f 61/2/4 62/2/4 68/2/4
f 68/2/4 62/2/4 69/2/4
f 69/2/4 62/2/4 70/2/4
f 70/2/4 62/2/4 71/2/4
f 62/1/4 63/1/4 72/1/4
f 71/2/4 62/2/4 72/2/4
f 63/2/4 64/2/4 73/2/4
f 72/1/4 63/1/4 73/1/4
f 64/1/4 65/1/4 74/1/4
f 73/2/4 64/2/4 74/2/4
f 65/2/4 66/2/4 75/2/4
f 74/1/4 65/1/4 75/1/4
f 75/2/4 66/2/4 76/2/4
f 66/1/4 67/1/4 77/1/4
f 76/2/4 66/2/4 77/2/4
f 77/1/4 67/1/4 78/1/4
f 68/1/4 69/1/4 79/1/4
f 69/2/4 70/2/4 80/2/4
f 79/1/4 69/1/4 80/1/4
f 70/1/4 71/1/4 81/1/4
f 80/2/4 70/2/4 81/2/4
f 75/2/4 76/2/4 82/2/4
f 81/1/4 71/1/4 82/1/4
f 71/2/4 72/2/4 82/2/4
f 72/2/4 73/2/4 82/2/4
f 73/2/4 74/2/4 82/2/4
f 74/2/4 75/2/4 82/2/4
f 76/1/4 77/1/4 83/1/4
f 82/2/4 76/2/4 83/2/4
f 77/2/4 78/2/4 84/2/4
f 83/1/4 77/1/4 84/1/4
f 84/2/4 78/2/4 85/2/4
f 85/2/4 86/2/4 87/2/4
f 87/2/4 86/2/4 88/2/4
f 87/1/4 88/1/4 89/1/4
f 88/2/4 86/2/4 90/2/4
f 89/1/4 88/1/4 90/1/4
f 90/2/4 86/2/4 91/2/4
f 92/2/4 93/2/4 94/2/4
f 94/2/4 93/2/4 95/2/4
f 94/1/4 95/1/4 96/1/4
f 95/2/4 93/2/4 97/2/4
f 96/1/4 95/1/4 97/1/4
f 97/2/4 93/2/4 98/2/4
f 102/2/5 100/2/5 99/2/5
f 103/1/5 101/1/5 100/1/5
f 103/2/5 100/2/5 102/2/5
f 104/1/5 101/1/5 103/1/5
f 107/2/5 106/2/5 105/2/5
f 108/2/5 106/2/5 107/2/5
f 111/2/5 107/2/5 105/2/5
f 112/1/5 108/1/5 107/1/5
f 112/2/5 107/2/5 111/2/5
f 113/1/5 108/1/5 112/1/5
f 114/2/5 110/2/5 109/2/5
f 114/2/5 111/2/5 110/2/5
f 115/2/5 111/2/5 114/2/5
f 116/2/5 114/2/5 109/2/5
f 117/1/5 115/1/5 114/1/5
f 117/2/5 114/2/5 116/2/5
f 118/1/5 115/1/5 117/1/5
f 119/2/6 120/2/6 122/2/6
f 120/1/6 121/1/6 122/1/6
f 122/1/6 121/1/6 123/1/6
f 119/2/6 122/2/6 124/2/6
f 122/2/6 123/2/6 124/2/6
f 124/2/6 123/2/6 125/2/6
f 119/2/6 124/2/6 126/2/6
f 126/2/6 124/2/6 127/2/6
