# MagicaVoxel @ Ephtracy

# group
o 

# material
mtllib House_Module-37.mtl
usemtl palette

# normals
vn -1 0 0
vn 1 0 0
vn 0 0 1
vn 0 0 -1
vn 0 -1 0
vn 0 1 0

# texcoords
vt 0.814453 0.5
vt 0.818359 0.5
vt 0.822266 0.5

# verts
v -0.05 -0.1 0.25
v -0.05 -0.1 0.15
v -0.05 -0.1 -0.05
v -0.05 -0.1 -0.15
v -0.05 -0.1 -0.25
v -0.05 0 0.25
v -0.05 0 0.15
v -0.05 0 0.05
v -0.05 0 -0.05
v -0.05 0 -0.15
v -0.05 0 -0.25
v -0.05 0.1 0.05
v -0.05 0.1 -0.05
v 0.05 -0.1 0.25
v 0.05 -0.1 0.15
v 0.05 -0.1 -0.05
v 0.05 -0.1 -0.15
v 0.05 -0.1 -0.25
v 0.05 0 0.25
v 0.05 0 0.15
v 0.05 0 0.05
v 0.05 0 -0.05
v 0.05 0 -0.15
v 0.05 0 -0.25
v 0.05 0.1 0.05
v 0.05 0.1 -0.05
v -0.05 -0.1 0.25
v -0.05 0 0.25
v 0.05 -0.1 0.25
v 0.05 0 0.25
v -0.05 0 0.05
v -0.05 0.1 0.05
v 0.05 0 0.05
v 0.05 0.1 0.05
v -0.05 -0.1 -0.05
v -0.05 0 -0.05
v 0.05 -0.1 -0.05
v 0.05 0 -0.05
v -0.05 -0.1 0.15
v -0.05 0 0.15
v 0.05 -0.1 0.15
v 0.05 0 0.15
v -0.05 0 -0.05
v -0.05 0.1 -0.05
v 0.05 0 -0.05
v 0.05 0.1 -0.05
v -0.05 -0.1 -0.25
v -0.05 0 -0.25
v 0.05 -0.1 -0.25
v 0.05 0 -0.25
v -0.05 -0.1 0.25
v 0.05 -0.1 0.25
v -0.05 -0.1 0.15
v 0.05 -0.1 0.15
v -0.05 -0.1 -0.05
v 0.05 -0.1 -0.05
v -0.05 -0.1 -0.15
v 0.05 -0.1 -0.15
v -0.05 -0.1 -0.25
v 0.05 -0.1 -0.25
v -0.05 0 0.05
v 0.05 0 0.05
v -0.05 0 -0.05
v 0.05 0 -0.05
v -0.05 0 0.25
v 0.05 0 0.25
v -0.05 0 0.15
v 0.05 0 0.15
v -0.05 0 -0.05
v 0.05 0 -0.05
v -0.05 0 -0.15
v 0.05 0 -0.15
v -0.05 0 -0.25
v 0.05 0 -0.25
v -0.05 0.1 0.05
v 0.05 0.1 0.05
v -0.05 0.1 -0.05
v 0.05 0.1 -0.05

# faces
f 6/1/1 2/1/1 1/1/1
f 7/1/1 2/1/1 6/1/1
f 9/3/1 4/3/1 3/3/1
f 10/1/1 5/1/1 4/1/1
f 10/3/1 4/3/1 9/3/1
f 11/1/1 5/1/1 10/1/1
f 12/2/1 9/2/1 8/2/1
f 13/2/1 9/2/1 12/2/1
f 14/1/2 15/1/2 19/1/2
f 19/1/2 15/1/2 20/1/2
f 16/3/2 17/3/2 22/3/2
f 17/1/2 18/1/2 23/1/2
f 22/3/2 17/3/2 23/3/2
f 23/1/2 18/1/2 24/1/2
f 21/2/2 22/2/2 25/2/2
f 25/2/2 22/2/2 26/2/2
f 29/1/3 28/1/3 27/1/3
f 30/1/3 28/1/3 29/1/3
f 33/2/3 32/2/3 31/2/3
f 34/2/3 32/2/3 33/2/3
f 37/3/3 36/3/3 35/3/3
f 38/3/3 36/3/3 37/3/3
f 39/1/4 40/1/4 41/1/4
f 41/1/4 40/1/4 42/1/4
f 43/2/4 44/2/4 45/2/4
f 45/2/4 44/2/4 46/2/4
f 47/1/4 48/1/4 49/1/4
f 49/1/4 48/1/4 50/1/4
f 53/1/5 52/1/5 51/1/5
f 54/1/5 52/1/5 53/1/5
f 57/3/5 56/3/5 55/3/5
f 58/3/5 56/3/5 57/3/5
f 59/1/5 58/1/5 57/1/5
f 60/1/5 58/1/5 59/1/5
f 63/2/5 62/2/5 61/2/5
f 64/2/5 62/2/5 63/2/5
f 65/1/6 66/1/6 67/1/6
f 67/1/6 66/1/6 68/1/6
f 69/3/6 70/3/6 71/3/6
f 71/3/6 70/3/6 72/3/6
f 71/1/6 72/1/6 73/1/6
f 73/1/6 72/1/6 74/1/6
f 75/2/6 76/2/6 77/2/6
f 77/2/6 76/2/6 78/2/6
