# MagicaVoxel @ Ephtracy

# group
o 

# material
mtllib House_Module-43.mtl
usemtl palette

# normals
vn -1 0 0
vn 1 0 0
vn 0 0 1
vn 0 0 -1
vn 0 -1 0
vn 0 1 0

# texcoords
vt 0.318359 0.5
vt 0.322266 0.5

# verts
v -1.9 -0.05 0.15
v -1.9 -0.05 0.05
v -1.9 0.05 0.15
v -1.9 0.05 0.05
v -1.8 -0.05 0.05
v -1.8 -0.05 -0.05
v -1.8 0.05 0.05
v -1.8 0.05 -0.05
v -1.7 -0.05 -0.05
v -1.7 -0.05 -0.15
v -1.7 0.05 -0.05
v -1.7 0.05 -0.15
v -0.5 -0.05 -0.05
v -0.5 -0.05 -0.15
v -0.5 0.05 -0.05
v -0.5 0.05 -0.15
v -0.6 -0.05 -0.05
v -0.6 -0.05 -0.15
v -0.6 0.05 -0.05
v -0.6 0.05 -0.15
v 1.8 -0.05 -0.05
v 1.8 -0.05 -0.15
v 1.8 0.05 -0.05
v 1.8 0.05 -0.15
v 1.9 -0.05 0.15
v 1.9 -0.05 0.05
v 1.9 -0.05 -0.05
v 1.9 0.05 0.15
v 1.9 0.05 0.05
v 1.9 0.05 -0.05
v -1.9 -0.05 0.15
v -1.9 0.05 0.15
v -1.8 -0.05 0.15
v -1.8 0.05 0.15
v 0.3 -0.05 0.15
v 0.3 0.05 0.15
v 0.4 -0.05 0.15
v 0.4 0.05 0.15
v 1.9 -0.05 0.15
v 1.9 0.05 0.15
v -1.9 -0.05 0.05
v -1.9 0.05 0.05
v -1.8 -0.05 0.05
v -1.8 0.05 0.05
v -1.8 -0.05 -0.05
v -1.8 0.05 -0.05
v -1.7 -0.05 -0.05
v -1.7 0.05 -0.05
v -0.6 -0.05 -0.05
v -0.6 0.05 -0.05
v -0.5 -0.05 -0.05
v -0.5 0.05 -0.05
v 1.8 -0.05 -0.05
v 1.8 0.05 -0.05
v 1.9 -0.05 -0.05
v 1.9 0.05 -0.05
v -1.7 -0.05 -0.15
v -1.7 0.05 -0.15
v -1.4 -0.05 -0.15
v -1.4 0.05 -0.15
v -1.3 -0.05 -0.15
v -1.3 0.05 -0.15
v -1.2 -0.05 -0.15
v -1.2 0.05 -0.15
v -0.8 -0.05 -0.15
v -0.8 0.05 -0.15
v -0.6 -0.05 -0.15
v -0.6 0.05 -0.15
v -0.5 -0.05 -0.15
v -0.5 0.05 -0.15
v -0.4 -0.05 -0.15
v -0.4 0.05 -0.15
v -0.2 -0.05 -0.15
v -0.2 0.05 -0.15
v -0.1 -0.05 -0.15
v -0.1 0.05 -0.15
v 1.7 -0.05 -0.15
v 1.7 0.05 -0.15
v 1.8 -0.05 -0.15
v 1.8 0.05 -0.15
v -1.9 -0.05 0.15
v -1.8 -0.05 0.15
v 0.3 -0.05 0.15
v 0.4 -0.05 0.15
v 1.9 -0.05 0.15
v -1.9 -0.05 0.05
v -1.8 -0.05 0.05
v -1.7 -0.05 0.05
v -0.6 -0.05 0.05
v -0.5 -0.05 0.05
v 0.3 -0.05 0.05
v 0.4 -0.05 0.05
v 0.8 -0.05 0.05
v 0.9 -0.05 0.05
v 1.8 -0.05 0.05
v 1.9 -0.05 0.05
v -1.8 -0.05 -0.05
v -1.7 -0.05 -0.05
v -1.4 -0.05 -0.05
v -1.3 -0.05 -0.05
v -1.2 -0.05 -0.05
v -0.8 -0.05 -0.05
v -0.6 -0.05 -0.05
v -0.5 -0.05 -0.05
v -0.4 -0.05 -0.05
v -0.2 -0.05 -0.05
v -0.1 -0.05 -0.05
v 0.8 -0.05 -0.05
v 0.9 -0.05 -0.05
v 1.7 -0.05 -0.05
v 1.8 -0.05 -0.05
v 1.9 -0.05 -0.05
v -1.7 -0.05 -0.15
v -1.4 -0.05 -0.15
v -1.3 -0.05 -0.15
v -1.2 -0.05 -0.15
v -0.8 -0.05 -0.15
v -0.6 -0.05 -0.15
v -0.5 -0.05 -0.15
v -0.4 -0.05 -0.15
v -0.2 -0.05 -0.15
v -0.1 -0.05 -0.15
v 1.7 -0.05 -0.15
v 1.8 -0.05 -0.15
v -1.9 0.05 0.15
v -1.8 0.05 0.15
v 0.3 0.05 0.15
v 0.4 0.05 0.15
v 1.9 0.05 0.15
v -1.9 0.05 0.05
v -1.8 0.05 0.05
v -1.7 0.05 0.05
v -0.6 0.05 0.05
v -0.5 0.05 0.05
v 0.3 0.05 0.05
v 0.4 0.05 0.05
v 0.8 0.05 0.05
v 0.9 0.05 0.05
v 1.8 0.05 0.05
v 1.9 0.05 0.05
v -1.8 0.05 -0.05
v -1.7 0.05 -0.05
v -1.4 0.05 -0.05
v -1.3 0.05 -0.05
v -1.2 0.05 -0.05
v -0.8 0.05 -0.05
v -0.6 0.05 -0.05
v -0.5 0.05 -0.05
v -0.4 0.05 -0.05
v -0.2 0.05 -0.05
v -0.1 0.05 -0.05
v 0.8 0.05 -0.05
v 0.9 0.05 -0.05
v 1.7 0.05 -0.05
v 1.8 0.05 -0.05
v 1.9 0.05 -0.05
v -1.7 0.05 -0.15
v -1.4 0.05 -0.15
v -1.3 0.05 -0.15
v -1.2 0.05 -0.15
v -0.8 0.05 -0.15
v -0.6 0.05 -0.15
v -0.5 0.05 -0.15
v -0.4 0.05 -0.15
v -0.2 0.05 -0.15
v -0.1 0.05 -0.15
v 1.7 0.05 -0.15
v 1.8 0.05 -0.15

# faces
f 3/1/1 2/1/1 1/1/1
f 4/1/1 2/1/1 3/1/1
f 7/1/1 6/1/1 5/1/1
f 8/1/1 6/1/1 7/1/1
f 11/1/1 10/1/1 9/1/1
f 12/1/1 10/1/1 11/1/1
f 15/1/1 14/1/1 13/1/1
f 16/1/1 14/1/1 15/1/1
f 17/1/2 18/1/2 19/1/2
f 19/1/2 18/1/2 20/1/2
f 21/1/2 22/1/2 23/1/2
f 23/1/2 22/1/2 24/1/2
f 25/2/2 26/2/2 28/2/2
f 26/1/2 27/1/2 29/1/2
f 28/2/2 26/2/2 29/2/2
f 29/1/2 27/1/2 30/1/2
f 33/1/3 32/1/3 31/1/3
f 34/1/3 32/1/3 33/1/3
f 35/2/3 34/2/3 33/2/3
f 36/2/3 34/2/3 35/2/3
f 37/1/3 36/1/3 35/1/3
f 38/1/3 36/1/3 37/1/3
f 39/2/3 38/2/3 37/2/3
f 40/2/3 38/2/3 39/2/3
f 41/1/4 42/1/4 43/1/4
f 43/1/4 42/1/4 44/1/4
f 45/1/4 46/1/4 47/1/4
f 47/1/4 46/1/4 48/1/4
f 49/1/4 50/1/4 51/1/4
f 51/1/4 50/1/4 52/1/4
f 53/1/4 54/1/4 55/1/4
f 55/1/4 54/1/4 56/1/4
f 57/1/4 58/1/4 59/1/4
f 59/1/4 58/1/4 60/1/4
f 59/2/4 60/2/4 61/2/4
f 61/2/4 60/2/4 62/2/4
f 61/1/4 62/1/4 63/1/4
f 63/1/4 62/1/4 64/1/4
f 63/2/4 64/2/4 65/2/4
f 65/2/4 64/2/4 66/2/4
f 65/1/4 66/1/4 67/1/4
f 67/1/4 66/1/4 68/1/4
f 69/1/4 70/1/4 71/1/4
f 71/1/4 70/1/4 72/1/4
f 71/2/4 72/2/4 73/2/4
f 73/2/4 72/2/4 74/2/4
f 73/1/4 74/1/4 75/1/4
f 75/1/4 74/1/4 76/1/4
f 75/2/4 76/2/4 77/2/4
f 77/2/4 76/2/4 78/2/4
f 77/1/4 78/1/4 79/1/4
f 79/1/4 78/1/4 80/1/4
f 86/1/5 82/1/5 81/1/5
f 87/2/5 83/2/5 82/2/5
f 87/1/5 82/1/5 86/1/5
f 88/2/5 83/2/5 87/2/5
f 89/2/5 83/2/5 88/2/5
f 90/2/5 83/2/5 89/2/5
f 91/1/5 84/1/5 83/1/5
f 91/2/5 83/2/5 90/2/5
f 92/2/5 85/2/5 84/2/5
f 92/1/5 84/1/5 91/1/5
f 93/2/5 85/2/5 92/2/5
f 94/2/5 85/2/5 93/2/5
f 95/2/5 85/2/5 94/2/5
f 96/2/5 85/2/5 95/2/5
f 97/1/5 88/1/5 87/1/5
f 98/2/5 89/2/5 88/2/5
f 98/1/5 88/1/5 97/1/5
f 99/2/5 89/2/5 98/2/5
f 100/2/5 89/2/5 99/2/5
f 101/2/5 89/2/5 100/2/5
f 102/2/5 89/2/5 101/2/5
f 103/1/5 90/1/5 89/1/5
f 103/2/5 89/2/5 102/2/5
f 104/2/5 91/2/5 90/2/5
f 104/1/5 90/1/5 103/1/5
f 104/2/5 92/2/5 91/2/5
f 104/2/5 93/2/5 92/2/5
f 105/2/5 93/2/5 104/2/5
f 106/2/5 93/2/5 105/2/5
f 107/2/5 93/2/5 106/2/5
f 108/1/5 94/1/5 93/1/5
f 108/2/5 93/2/5 107/2/5
f 109/2/5 95/2/5 94/2/5
f 109/1/5 94/1/5 108/1/5
f 110/2/5 95/2/5 109/2/5
f 111/1/5 96/1/5 95/1/5
f 111/2/5 95/2/5 110/2/5
f 112/1/5 96/1/5 111/1/5
f 113/1/5 99/1/5 98/1/5
f 114/2/5 100/2/5 99/2/5
f 114/1/5 99/1/5 113/1/5
f 115/1/5 101/1/5 100/1/5
f 115/2/5 100/2/5 114/2/5
f 116/2/5 102/2/5 101/2/5
f 116/1/5 101/1/5 115/1/5
f 117/1/5 103/1/5 102/1/5
f 117/2/5 102/2/5 116/2/5
f 118/1/5 103/1/5 117/1/5
f 119/1/5 105/1/5 104/1/5
f 120/2/5 106/2/5 105/2/5
f 120/1/5 105/1/5 119/1/5
f 121/1/5 107/1/5 106/1/5
f 121/2/5 106/2/5 120/2/5
f 122/2/5 110/2/5 109/2/5
f 122/1/5 107/1/5 121/1/5
f 122/2/5 108/2/5 107/2/5
f 122/2/5 109/2/5 108/2/5
f 123/1/5 111/1/5 110/1/5
f 123/2/5 110/2/5 122/2/5
f 124/1/5 111/1/5 123/1/5
f 125/1/6 126/1/6 130/1/6
f 126/2/6 127/2/6 131/2/6
f 130/1/6 126/1/6 131/1/6
f 131/2/6 127/2/6 132/2/6
f 132/2/6 127/2/6 133/2/6
f 133/2/6 127/2/6 134/2/6
f 127/1/6 128/1/6 135/1/6
f 134/2/6 127/2/6 135/2/6
f 128/2/6 129/2/6 136/2/6
f 135/1/6 128/1/6 136/1/6
f 136/2/6 129/2/6 137/2/6
f 137/2/6 129/2/6 138/2/6
f 138/2/6 129/2/6 139/2/6
f 139/2/6 129/2/6 140/2/6
f 131/1/6 132/1/6 141/1/6
f 132/2/6 133/2/6 142/2/6
f 141/1/6 132/1/6 142/1/6
f 142/2/6 133/2/6 143/2/6
f 143/2/6 133/2/6 144/2/6
f 144/2/6 133/2/6 145/2/6
f 145/2/6 133/2/6 146/2/6
f 133/1/6 134/1/6 147/1/6
f 146/2/6 133/2/6 147/2/6
f 134/2/6 135/2/6 148/2/6
f 147/1/6 134/1/6 148/1/6
f 135/2/6 136/2/6 148/2/6
f 136/2/6 137/2/6 148/2/6
f 148/2/6 137/2/6 149/2/6
f 149/2/6 137/2/6 150/2/6
f 150/2/6 137/2/6 151/2/6
f 137/1/6 138/1/6 152/1/6
f 151/2/6 137/2/6 152/2/6
f 138/2/6 139/2/6 153/2/6
f 152/1/6 138/1/6 153/1/6
f 153/2/6 139/2/6 154/2/6
f 139/1/6 140/1/6 155/1/6
f 154/2/6 139/2/6 155/2/6
f 155/1/6 140/1/6 156/1/6
f 142/1/6 143/1/6 157/1/6
f 143/2/6 144/2/6 158/2/6
f 157/1/6 143/1/6 158/1/6
f 144/1/6 145/1/6 159/1/6
f 158/2/6 144/2/6 159/2/6
f 145/2/6 146/2/6 160/2/6
f 159/1/6 145/1/6 160/1/6
f 146/1/6 147/1/6 161/1/6
f 160/2/6 146/2/6 161/2/6
f 161/1/6 147/1/6 162/1/6
f 148/1/6 149/1/6 163/1/6
f 149/2/6 150/2/6 164/2/6
f 163/1/6 149/1/6 164/1/6
f 150/1/6 151/1/6 165/1/6
f 164/2/6 150/2/6 165/2/6
f 153/2/6 154/2/6 166/2/6
f 165/1/6 151/1/6 166/1/6
f 151/2/6 152/2/6 166/2/6
f 152/2/6 153/2/6 166/2/6
f 154/1/6 155/1/6 167/1/6
f 166/2/6 154/2/6 167/2/6
f 167/1/6 155/1/6 168/1/6
