# MagicaVoxel @ Ephtracy

# group
o 

# material
mtllib House_Module-32.mtl
usemtl palette

# normals
vn -1 0 0
vn 1 0 0
vn 0 0 1
vn 0 0 -1
vn 0 -1 0
vn 0 1 0

# texcoords
vt 0.814453 0.5
vt 0.818359 0.5
vt 0.822266 0.5

# verts
v -0.15 -0.1 0
v -0.15 -0.1 -0.1
v -0.15 0 0
v -0.15 0 -0.1
v 0.05 -0.1 0.1
v 0.05 -0.1 0
v 0.05 0 0.1
v 0.05 0 0
v 0.05 0 -0.1
v 0.05 0.1 0
v 0.05 0.1 -0.1
v 0.15 -0.1 0.1
v 0.15 -0.1 -0.1
v 0.15 0 0.1
v 0.15 0 0
v 0.15 0 -0.1
v 0.15 0.1 0
v 0.15 0.1 -0.1
v 0.05 -0.1 0.1
v 0.05 0 0.1
v 0.15 -0.1 0.1
v 0.15 0 0.1
v -0.15 -0.1 0
v -0.15 0 0
v -0.05 -0.1 0
v -0.05 0 0
v 0.05 -0.1 0
v 0.05 0 0
v 0.05 0.1 0
v 0.15 0 0
v 0.15 0.1 0
v -0.15 -0.1 -0.1
v -0.15 0 -0.1
v -0.05 -0.1 -0.1
v -0.05 0 -0.1
v 0.05 -0.1 -0.1
v 0.05 0 -0.1
v 0.05 0.1 -0.1
v 0.15 -0.1 -0.1
v 0.15 0 -0.1
v 0.15 0.1 -0.1
v 0.05 -0.1 0.1
v 0.15 -0.1 0.1
v -0.15 -0.1 0
v -0.05 -0.1 0
v 0.05 -0.1 0
v -0.15 -0.1 -0.1
v -0.05 -0.1 -0.1
v 0.05 -0.1 -0.1
v 0.15 -0.1 -0.1
v 0.05 0 0.1
v 0.15 0 0.1
v -0.15 0 0
v -0.05 0 0
v 0.05 0 0
v 0.15 0 0
v -0.15 0 -0.1
v -0.05 0 -0.1
v 0.05 0 -0.1
v 0.05 0.1 0
v 0.15 0.1 0
v 0.05 0.1 -0.1
v 0.15 0.1 -0.1

# faces
f 3/2/1 2/2/1 1/2/1
f 4/2/1 2/2/1 3/2/1
f 7/3/1 6/3/1 5/3/1
f 8/3/1 6/3/1 7/3/1
f 10/2/1 9/2/1 8/2/1
f 11/2/1 9/2/1 10/2/1
f 12/3/2 13/3/2 14/3/2
f 14/3/2 13/3/2 15/3/2
f 15/3/2 13/3/2 16/3/2
f 15/2/2 16/2/2 17/2/2
f 17/2/2 16/2/2 18/2/2
f 21/3/3 20/3/3 19/3/3
f 22/3/3 20/3/3 21/3/3
f 25/2/3 24/2/3 23/2/3
f 26/2/3 24/2/3 25/2/3
f 27/1/3 26/1/3 25/1/3
f 28/1/3 26/1/3 27/1/3
f 30/2/3 29/2/3 28/2/3
f 31/2/3 29/2/3 30/2/3
f 32/2/4 33/2/4 34/2/4
f 34/2/4 33/2/4 35/2/4
f 34/1/4 35/1/4 36/1/4
f 36/1/4 35/1/4 37/1/4
f 36/3/4 37/3/4 39/3/4
f 37/2/4 38/2/4 40/2/4
f 39/3/4 37/3/4 40/3/4
f 40/2/4 38/2/4 41/2/4
f 46/3/5 43/3/5 42/3/5
f 47/2/5 45/2/5 44/2/5
f 48/1/5 46/1/5 45/1/5
f 48/2/5 45/2/5 47/2/5
f 49/3/5 43/3/5 46/3/5
f 49/1/5 46/1/5 48/1/5
f 50/3/5 43/3/5 49/3/5
f 51/3/6 52/3/6 55/3/6
f 55/3/6 52/3/6 56/3/6
f 53/2/6 54/2/6 57/2/6
f 54/1/6 55/1/6 58/1/6
f 57/2/6 54/2/6 58/2/6
f 58/1/6 55/1/6 59/1/6
f 60/2/6 61/2/6 62/2/6
f 62/2/6 61/2/6 63/2/6
