# MagicaVoxel @ Ephtracy

# group
o 

# material
mtllib House_Module-36.mtl
usemtl palette

# normals
vn -1 0 0
vn 1 0 0
vn 0 0 1
vn 0 0 -1
vn 0 -1 0
vn 0 1 0

# texcoords
vt 0.814453 0.5
vt 0.818359 0.5
vt 0.822266 0.5

# verts
v -1.05 -0.2 0.05
v -1.05 -0.2 -0.05
v -1.05 -0.1 0.05
v -1.05 -0.1 -0.05
v -0.95 -0.2 0.15
v -0.95 -0.2 0.05
v -0.95 -0.1 0.15
v -0.95 -0.1 0.05
v -0.85 -0.2 0.05
v -0.85 -0.2 -0.05
v -0.85 -0.2 -0.15
v -0.85 -0.1 0.15
v -0.85 -0.1 0.05
v -0.85 -0.1 -0.05
v -0.85 -0.1 -0.15
v -0.85 0 0.15
v -0.85 0 0.05
v -0.75 -0.2 -0.15
v -0.75 -0.2 -0.25
v -0.75 -0.1 0.05
v -0.75 -0.1 -0.05
v -0.75 -0.1 -0.15
v -0.75 -0.1 -0.25
v -0.75 0 0.05
v -0.75 0 -0.05
v -0.75 0 -0.15
v -0.75 0.1 0.05
v -0.75 0.1 -0.05
v -0.75 0.1 -0.15
v -0.75 0.2 0.05
v -0.75 0.2 -0.05
v -0.15 -0.2 0.25
v -0.15 -0.2 0.15
v -0.15 -0.1 0.25
v -0.15 -0.1 0.15
v -0.05 -0.1 0.25
v -0.05 -0.1 0.15
v -0.05 0 0.25
v -0.05 0 0.15
v 0.65 -0.2 0.25
v 0.65 -0.2 0.15
v 0.65 -0.1 0.25
v 0.65 -0.1 0.15
v 0.85 0 0.25
v 0.85 0 0.15
v 0.85 0.1 0.25
v 0.85 0.1 0.15
v 0.95 -0.1 0.25
v 0.95 -0.1 0.15
v 0.95 0 0.25
v 0.95 0 0.15
v -0.95 -0.2 0.05
v -0.95 -0.2 -0.05
v -0.95 -0.1 0.05
v -0.95 -0.1 -0.05
v -0.75 -0.2 0.15
v -0.75 -0.2 0.05
v -0.75 -0.1 0.05
v -0.75 0 0.15
v -0.75 0 0.05
v -0.65 -0.2 0.05
v -0.65 -0.2 -0.05
v -0.65 -0.2 -0.15
v -0.65 -0.2 -0.25
v -0.65 -0.1 0.05
v -0.65 -0.1 -0.05
v -0.65 -0.1 -0.15
v -0.65 -0.1 -0.25
v -0.65 0 0.05
v -0.65 0 -0.05
v -0.65 0 -0.15
v -0.65 0.1 0.05
v -0.65 0.1 -0.05
v -0.65 0.1 -0.15
v -0.65 0.2 0.05
v -0.65 0.2 -0.05
v 0.0500001 -0.2 0.25
v 0.0500001 -0.2 0.15
v 0.0500001 -0.1 0.25
v 0.0500001 -0.1 0.15
v 0.0500001 0 0.25
v 0.0500001 0 0.15
v 0.95 -0.2 0.25
v 0.95 -0.2 0.15
v 0.95 -0.1 0.25
v 0.95 -0.1 0.15
v 0.95 0 0.25
v 0.95 0 0.15
v 0.95 0.1 0.25
v 0.95 0.1 0.15
v 1.05 -0.1 0.25
v 1.05 -0.1 0.15
v 1.05 0 0.25
v 1.05 0 0.15
v -0.15 -0.2 0.25
v -0.15 -0.1 0.25
v -0.05 -0.1 0.25
v -0.05 0 0.25
v 0.0500001 -0.2 0.25
v 0.0500001 -0.1 0.25
v 0.0500001 0 0.25
v 0.65 -0.2 0.25
v 0.65 -0.1 0.25
v 0.75 -0.2 0.25
v 0.75 -0.1 0.25
v 0.85 -0.2 0.25
v 0.85 -0.1 0.25
v 0.85 0 0.25
v 0.85 0.1 0.25
v 0.95 -0.2 0.25
v 0.95 -0.1 0.25
v 0.95 0 0.25
v 0.95 0.1 0.25
v 1.05 -0.1 0.25
v 1.05 0 0.25
v -0.95 -0.2 0.15
v -0.95 -0.1 0.15
v -0.85 -0.1 0.15
v -0.85 0 0.15
v -0.75 -0.2 0.15
v -0.75 0 0.15
v -1.05 -0.2 0.05
v -1.05 -0.1 0.05
v -0.95 -0.2 0.05
v -0.95 -0.1 0.05
v -0.75 -0.2 0.05
v -0.75 -0.1 0.05
v -0.75 0 0.05
v -0.75 0.1 0.05
v -0.75 0.2 0.05
v -0.65 -0.2 0.05
v -0.65 -0.1 0.05
v -0.65 0 0.05
v -0.65 0.1 0.05
v -0.65 0.2 0.05
v -0.75 0 -0.05
v -0.75 0.1 -0.05
v -0.65 0 -0.05
v -0.65 0.1 -0.05
v -0.15 -0.2 0.15
v -0.15 -0.1 0.15
v -0.05 -0.1 0.15
v -0.05 0 0.15
v 0.0500001 -0.2 0.15
v 0.0500001 -0.1 0.15
v 0.0500001 0 0.15
v 0.65 -0.2 0.15
v 0.65 -0.1 0.15
v 0.75 -0.2 0.15
v 0.75 -0.1 0.15
v 0.85 -0.2 0.15
v 0.85 -0.1 0.15
v 0.85 0 0.15
v 0.85 0.1 0.15
v 0.95 -0.2 0.15
v 0.95 -0.1 0.15
v 0.95 0 0.15
v 0.95 0.1 0.15
v 1.05 -0.1 0.15
v 1.05 0 0.15
v -0.95 -0.2 0.05
v -0.95 -0.1 0.05
v -0.85 -0.2 0.05
v -0.85 -0.1 0.05
v -0.85 0 0.05
v -0.75 -0.1 0.05
v -0.75 0 0.05
v -1.05 -0.2 -0.05
v -1.05 -0.1 -0.05
v -0.95 -0.2 -0.05
v -0.95 -0.1 -0.05
v -0.75 -0.1 -0.05
v -0.75 0 -0.05
v -0.75 0.1 -0.05
v -0.75 0.2 -0.05
v -0.65 -0.1 -0.05
v -0.65 0 -0.05
v -0.65 0.1 -0.05
v -0.65 0.2 -0.05
v -0.85 -0.2 -0.15
v -0.85 -0.1 -0.15
v -0.75 -0.2 -0.15
v -0.75 -0.1 -0.15
v -0.75 0 -0.15
v -0.75 0.1 -0.15
v -0.65 0 -0.15
v -0.65 0.1 -0.15
v -0.75 -0.2 -0.25
v -0.75 -0.1 -0.25
v -0.65 -0.2 -0.25
v -0.65 -0.1 -0.25
v -0.15 -0.2 0.25
v 0.0500001 -0.2 0.25
v 0.65 -0.2 0.25
v 0.75 -0.2 0.25
v 0.85 -0.2 0.25
v 0.95 -0.2 0.25
v -0.95 -0.2 0.15
v -0.75 -0.2 0.15
v -0.15 -0.2 0.15
v 0.0500001 -0.2 0.15
v 0.65 -0.2 0.15
v 0.75 -0.2 0.15
v 0.85 -0.2 0.15
v 0.95 -0.2 0.15
v -1.05 -0.2 0.05
v -0.95 -0.2 0.05
v -0.85 -0.2 0.05
v -0.75 -0.2 0.05
v -0.65 -0.2 0.05
v -1.05 -0.2 -0.05
v -0.95 -0.2 -0.05
v -0.85 -0.2 -0.05
v -0.75 -0.2 -0.05
v -0.65 -0.2 -0.05
v -0.85 -0.2 -0.15
v -0.75 -0.2 -0.15
v -0.65 -0.2 -0.15
v -0.75 -0.2 -0.25
v -0.65 -0.2 -0.25
v 0.95 -0.1 0.25
v 1.05 -0.1 0.25
v 0.95 -0.1 0.15
v 1.05 -0.1 0.15
v 0.85 0 0.25
v 0.95 0 0.25
v 0.85 0 0.15
v 0.95 0 0.15
v -0.75 0 -0.05
v -0.65 0 -0.05
v -0.75 0 -0.15
v -0.65 0 -0.15
v -0.75 0.1 0.05
v -0.65 0.1 0.05
v -0.75 0.1 -0.05
v -0.65 0.1 -0.05
v -0.15 -0.1 0.25
v -0.05 -0.1 0.25
v 0.65 -0.1 0.25
v 0.75 -0.1 0.25
v 0.85 -0.1 0.25
v 0.95 -0.1 0.25
v -0.95 -0.1 0.15
v -0.85 -0.1 0.15
v -0.15 -0.1 0.15
v -0.05 -0.1 0.15
v 0.65 -0.1 0.15
v 0.75 -0.1 0.15
v 0.85 -0.1 0.15
v 0.95 -0.1 0.15
v -1.05 -0.1 0.05
v -0.95 -0.1 0.05
v -0.85 -0.1 0.05
v -0.75 -0.1 0.05
v -1.05 -0.1 -0.05
v -0.95 -0.1 -0.05
v -0.85 -0.1 -0.05
v -0.75 -0.1 -0.05
v -0.65 -0.1 -0.05
v -0.85 -0.1 -0.15
v -0.75 -0.1 -0.15
v -0.65 -0.1 -0.15
v -0.75 -0.1 -0.25
v -0.65 -0.1 -0.25
v -0.05 0 0.25
v 0.0500001 0 0.25
v 0.95 0 0.25
v 1.05 0 0.25
v -0.85 0 0.15
v -0.75 0 0.15
v -0.05 0 0.15
v 0.0500001 0 0.15
v 0.95 0 0.15
v 1.05 0 0.15
v -0.85 0 0.05
v -0.75 0 0.05
v -0.65 0 0.05
v -0.75 0 -0.05
v -0.65 0 -0.05
v 0.85 0.1 0.25
v 0.95 0.1 0.25
v 0.85 0.1 0.15
v 0.95 0.1 0.15
v -0.75 0.1 -0.05
v -0.65 0.1 -0.05
v -0.75 0.1 -0.15
v -0.65 0.1 -0.15
v -0.75 0.2 0.05
v -0.65 0.2 0.05
v -0.75 0.2 -0.05
v -0.65 0.2 -0.05

# faces
f 3/3/1 2/3/1 1/3/1
f 4/3/1 2/3/1 3/3/1
f 7/1/1 6/1/1 5/1/1
f 8/1/1 6/1/1 7/1/1
f 13/3/1 10/3/1 9/3/1
f 14/1/1 11/1/1 10/1/1
f 14/3/1 10/3/1 13/3/1
f 15/1/1 11/1/1 14/1/1
f 16/1/1 13/1/1 12/1/1
f 17/1/1 13/1/1 16/1/1
f 22/3/1 19/3/1 18/3/1
f 23/3/1 19/3/1 22/3/1
f 24/2/1 21/2/1 20/2/1
f 25/2/1 21/2/1 24/2/1
f 28/1/1 26/1/1 25/1/1
f 29/1/1 26/1/1 28/1/1
f 30/2/1 28/2/1 27/2/1
f 31/2/1 28/2/1 30/2/1
f 34/3/1 33/3/1 32/3/1
f 35/3/1 33/3/1 34/3/1
f 38/1/1 37/1/1 36/1/1
f 39/1/1 37/1/1 38/1/1
f 42/3/1 41/3/1 40/3/1
f 43/3/1 41/3/1 42/3/1
f 46/1/1 45/1/1 44/1/1
f 47/1/1 45/1/1 46/1/1
f 50/3/1 49/3/1 48/3/1
f 51/3/1 49/3/1 50/3/1
f 52/3/2 53/3/2 54/3/2
f 54/3/2 53/3/2 55/3/2
f 56/1/2 57/1/2 58/1/2
f 56/1/2 58/1/2 59/1/2
f 59/1/2 58/1/2 60/1/2
f 61/1/2 62/1/2 65/1/2
f 62/2/2 63/2/2 66/2/2
f 65/1/2 62/1/2 66/1/2
f 63/3/2 64/3/2 67/3/2
f 66/2/2 63/2/2 67/2/2
f 67/3/2 64/3/2 68/3/2
f 65/2/2 66/2/2 69/2/2
f 69/2/2 66/2/2 70/2/2
f 70/1/2 71/1/2 73/1/2
f 73/1/2 71/1/2 74/1/2
f 72/2/2 73/2/2 75/2/2
f 75/2/2 73/2/2 76/2/2
f 77/3/2 78/3/2 79/3/2
f 79/3/2 78/3/2 80/3/2
f 79/1/2 80/1/2 81/1/2
f 81/1/2 80/1/2 82/1/2
f 83/2/2 84/2/2 85/2/2
f 85/2/2 84/2/2 86/2/2
f 87/1/2 88/1/2 89/1/2
f 89/1/2 88/1/2 90/1/2
f 91/3/2 92/3/2 93/3/2
f 93/3/2 92/3/2 94/3/2
f 97/3/3 96/3/3 95/3/3
f 99/3/3 97/3/3 95/3/3
f 100/1/3 98/1/3 97/1/3
f 100/3/3 97/3/3 99/3/3
f 101/1/3 98/1/3 100/1/3
f 104/3/3 103/3/3 102/3/3
f 105/3/3 103/3/3 104/3/3
f 106/1/3 105/1/3 104/1/3
f 107/1/3 105/1/3 106/1/3
f 110/2/3 107/2/3 106/2/3
f 111/2/3 107/2/3 110/2/3
f 112/1/3 109/1/3 108/1/3
f 113/1/3 109/1/3 112/1/3
f 114/3/3 112/3/3 111/3/3
f 115/3/3 112/3/3 114/3/3
f 118/1/3 117/1/3 116/1/3
f 120/1/3 118/1/3 116/1/3
f 120/1/3 119/1/3 118/1/3
f 121/1/3 119/1/3 120/1/3
f 124/3/3 123/3/3 122/3/3
f 125/3/3 123/3/3 124/3/3
f 131/1/3 127/1/3 126/1/3
f 132/2/3 128/2/3 127/2/3
f 132/1/3 127/1/3 131/1/3
f 133/2/3 128/2/3 132/2/3
f 134/2/3 130/2/3 129/2/3
f 135/2/3 130/2/3 134/2/3
f 138/1/3 137/1/3 136/1/3
f 139/1/3 137/1/3 138/1/3
f 140/3/4 141/3/4 142/3/4
f 140/3/4 142/3/4 144/3/4
f 142/1/4 143/1/4 145/1/4
f 144/3/4 142/3/4 145/3/4
f 145/1/4 143/1/4 146/1/4
f 147/3/4 148/3/4 149/3/4
f 149/3/4 148/3/4 150/3/4
f 149/1/4 150/1/4 151/1/4
f 151/1/4 150/1/4 152/1/4
f 151/2/4 152/2/4 155/2/4
f 155/2/4 152/2/4 156/2/4
f 153/1/4 154/1/4 157/1/4
f 157/1/4 154/1/4 158/1/4
f 156/3/4 157/3/4 159/3/4
f 159/3/4 157/3/4 160/3/4
f 161/1/4 162/1/4 163/1/4
f 163/1/4 162/1/4 164/1/4
f 164/1/4 165/1/4 166/1/4
f 166/1/4 165/1/4 167/1/4
f 168/3/4 169/3/4 170/3/4
f 170/3/4 169/3/4 171/3/4
f 172/2/4 173/2/4 176/2/4
f 176/2/4 173/2/4 177/2/4
f 174/2/4 175/2/4 178/2/4
f 178/2/4 175/2/4 179/2/4
f 180/1/4 181/1/4 182/1/4
f 182/1/4 181/1/4 183/1/4
f 184/1/4 185/1/4 186/1/4
f 186/1/4 185/1/4 187/1/4
f 188/3/4 189/3/4 190/3/4
f 190/3/4 189/3/4 191/3/4
f 200/3/5 193/3/5 192/3/5
f 201/3/5 193/3/5 200/3/5
f 202/3/5 195/3/5 194/3/5
f 203/1/5 196/1/5 195/1/5
f 203/3/5 195/3/5 202/3/5
f 204/2/5 197/2/5 196/2/5
f 204/1/5 196/1/5 203/1/5
f 205/2/5 197/2/5 204/2/5
f 207/1/5 199/1/5 198/1/5
f 208/1/5 199/1/5 207/1/5
f 209/1/5 199/1/5 208/1/5
f 211/3/5 207/3/5 206/3/5
f 212/3/5 207/3/5 211/3/5
f 213/3/5 209/3/5 208/3/5
f 214/1/5 210/1/5 209/1/5
f 214/3/5 209/3/5 213/3/5
f 215/1/5 210/1/5 214/1/5
f 216/1/5 214/1/5 213/1/5
f 217/2/5 215/2/5 214/2/5
f 217/1/5 214/1/5 216/1/5
f 218/2/5 215/2/5 217/2/5
f 219/3/5 218/3/5 217/3/5
f 220/3/5 218/3/5 219/3/5
f 223/3/5 222/3/5 221/3/5
f 224/3/5 222/3/5 223/3/5
f 227/1/5 226/1/5 225/1/5
f 228/1/5 226/1/5 227/1/5
f 231/1/5 230/1/5 229/1/5
f 232/1/5 230/1/5 231/1/5
f 235/2/5 234/2/5 233/2/5
f 236/2/5 234/2/5 235/2/5
f 237/3/6 238/3/6 245/3/6
f 245/3/6 238/3/6 246/3/6
f 239/3/6 240/3/6 247/3/6
f 240/1/6 241/1/6 248/1/6
f 247/3/6 240/3/6 248/3/6
f 241/2/6 242/2/6 249/2/6
f 248/1/6 241/1/6 249/1/6
f 249/2/6 242/2/6 250/2/6
f 243/1/6 244/1/6 252/1/6
f 252/1/6 244/1/6 253/1/6
f 251/3/6 252/3/6 255/3/6
f 255/3/6 252/3/6 256/3/6
f 253/3/6 254/3/6 257/3/6
f 257/3/6 254/3/6 258/3/6
f 257/1/6 258/1/6 260/1/6
f 258/2/6 259/2/6 261/2/6
f 260/1/6 258/1/6 261/1/6
f 261/2/6 259/2/6 262/2/6
f 261/3/6 262/3/6 263/3/6
f 263/3/6 262/3/6 264/3/6
f 265/1/6 266/1/6 271/1/6
f 271/1/6 266/1/6 272/1/6
f 267/3/6 268/3/6 273/3/6
f 273/3/6 268/3/6 274/3/6
f 269/1/6 270/1/6 275/1/6
f 275/1/6 270/1/6 276/1/6
f 276/2/6 277/2/6 278/2/6
f 278/2/6 277/2/6 279/2/6
f 280/1/6 281/1/6 282/1/6
f 282/1/6 281/1/6 283/1/6
f 284/1/6 285/1/6 286/1/6
f 286/1/6 285/1/6 287/1/6
f 288/2/6 289/2/6 290/2/6
f 290/2/6 289/2/6 291/2/6
