# MagicaVoxel @ Ephtracy

# group
o 

# material
mtllib House_Module-15.mtl
usemtl palette

# normals
vn -1 0 0
vn 1 0 0
vn 0 0 1
vn 0 0 -1
vn 0 -1 0
vn 0 1 0

# texcoords
vt 0.759766 0.5
vt 0.763672 0.5

# verts
v -0.55 0.1 1.35
v -0.55 0.1 1.15
v -0.55 0.1 -1.15
v -0.55 0.1 -1.25
v -0.55 0.1 -1.35
v -0.55 0.2 1.35
v -0.55 0.2 1.15
v -0.55 0.2 -1.15
v -0.55 0.2 -1.25
v -0.55 0.2 -1.35
v -0.45 -0.8 1.25
v -0.45 -0.8 1.15
v -0.45 -0.8 -1.15
v -0.45 -0.8 -1.25
v -0.45 -0.7 1.25
v -0.45 -0.7 1.15
v -0.45 -0.6 -1.15
v -0.45 -0.6 -1.25
v -0.45 -0.4 1.25
v -0.45 -0.4 1.15
v -0.45 -0.3 1.25
v -0.45 -0.3 1.15
v -0.45 -0.3 -1.15
v -0.45 -0.3 -1.25
v -0.45 -0.2 1.25
v -0.45 -0.2 1.15
v -0.45 0.1 1.25
v -0.45 0.1 1.15
v -0.45 0.1 -1.15
v -0.45 0.1 -1.25
v -0.35 0.2 1.35
v -0.35 0.2 1.25
v -0.35 0.2 1.15
v -0.35 0.2 -1.15
v -0.35 0.2 -1.25
v -0.35 0.2 -1.35
v -0.35 0.3 1.35
v -0.35 0.3 1.25
v -0.35 0.3 1.15
v -0.35 0.3 -1.15
v -0.35 0.3 -1.35
v -0.15 -0.6 1.25
v -0.15 -0.6 1.15
v -0.15 -0.6 -1.15
v -0.15 -0.6 -1.25
v -0.15 -0.5 1.25
v -0.15 -0.5 1.15
v -0.15 -0.5 -1.15
v -0.15 -0.5 -1.25
v -0.15 -0.2 1.25
v -0.15 -0.2 1.15
v -0.15 0.2 1.25
v -0.15 0.2 1.15
v -0.15 0.2 -1.15
v -0.15 0.2 -1.25
v -0.15 0.3 1.35
v -0.15 0.3 1.15
v -0.15 0.3 -1.15
v -0.15 0.3 -1.25
v -0.15 0.3 -1.35
v -0.15 0.4 1.35
v -0.15 0.4 1.15
v -0.15 0.4 -1.15
v -0.15 0.4 -1.25
v -0.15 0.4 -1.35
v -0.05 0.4 1.35
v -0.05 0.4 1.15
v -0.05 0.4 -1.15
v -0.05 0.4 -1.25
v -0.05 0.4 -1.35
v -0.05 0.5 1.35
v -0.05 0.5 1.15
v -0.05 0.5 -1.15
v -0.05 0.5 -1.35
v 0.15 0.5 1.35
v 0.15 0.5 1.25
v 0.15 0.5 1.15
v 0.15 0.5 -1.15
v 0.15 0.5 -1.35
v 0.15 0.6 1.35
v 0.15 0.6 1.15
v 0.15 0.6 -1.15
v 0.15 0.6 -1.35
v 0.25 -0.4 1.25
v 0.25 -0.4 1.15
v 0.25 -0.4 -1.15
v 0.25 -0.4 -1.25
v 0.25 -0.3 1.25
v 0.25 -0.3 1.15
v 0.25 -0.3 -1.15
v 0.25 -0.3 -1.25
v 0.25 0.2 1.25
v 0.25 0.2 1.15
v 0.25 0.2 -1.15
v 0.25 0.2 -1.25
v 0.25 0.3 1.25
v 0.25 0.3 1.15
v 0.25 0.4 1.25
v 0.25 0.4 1.15
v 0.25 0.5 1.25
v 0.25 0.5 1.15
v 0.25 0.5 -1.15
v 0.25 0.5 -1.25
v 0.25 0.6 1.35
v 0.25 0.6 1.25
v 0.25 0.6 1.15
v 0.25 0.6 -1.15
v 0.25 0.6 -1.25
v 0.25 0.6 -1.35
v 0.25 0.7 1.35
v 0.25 0.7 1.25
v 0.25 0.7 1.15
v 0.25 0.7 -1.15
v 0.25 0.7 -1.25
v 0.25 0.7 -1.35
v 0.45 0.7 1.35
v 0.45 0.7 1.25
v 0.45 0.7 1.15
v 0.45 0.7 -1.15
v 0.45 0.7 -1.25
v 0.45 0.7 -1.35
v 0.45 0.8 1.35
v 0.45 0.8 1.25
v 0.45 0.8 1.15
v 0.45 0.8 -1.15
v 0.45 0.8 -1.25
v 0.45 0.8 -1.35
v -0.35 -0.8 1.25
v -0.35 -0.8 1.15
v -0.35 -0.8 -1.15
v -0.35 -0.8 -1.25
v -0.35 -0.7 1.25
v -0.35 -0.7 1.15
v -0.35 -0.6 -1.15
v -0.35 -0.6 -1.25
v -0.35 -0.4 1.25
v -0.35 -0.4 1.15
v -0.35 -0.3 1.25
v -0.35 -0.3 1.15
v -0.35 -0.3 -1.15
v -0.35 -0.3 -1.25
v -0.35 -0.2 1.25
v -0.35 -0.2 1.15
v -0.35 0.1 1.35
v -0.35 0.1 1.25
v -0.35 0.1 1.15
v -0.35 0.1 -1.25
v -0.35 0.1 -1.35
v -0.35 0.2 1.35
v -0.35 0.2 1.25
v -0.35 0.2 1.15
v -0.35 0.2 -1.15
v -0.35 0.2 -1.25
v -0.35 0.2 -1.35
v -0.15 0.2 1.35
v -0.15 0.2 1.25
v -0.15 0.2 -1.25
v -0.15 0.2 -1.35
v -0.15 0.3 1.35
v -0.15 0.3 1.25
v -0.15 0.3 -1.25
v -0.15 0.3 -1.35
v -0.05 -0.6 1.25
v -0.05 -0.6 1.15
v -0.05 -0.6 -1.15
v -0.05 -0.6 -1.25
v -0.05 -0.5 1.25
v -0.05 -0.5 1.15
v -0.05 -0.5 -1.15
v -0.05 -0.5 -1.25
v -0.05 -0.2 1.25
v -0.05 -0.2 1.15
v -0.05 0.2 1.25
v -0.05 0.2 1.15
v -0.05 0.2 -1.15
v -0.05 0.2 -1.25
v -0.05 0.3 1.35
v -0.05 0.3 1.25
v -0.05 0.3 -1.15
v -0.05 0.3 -1.25
v -0.05 0.3 -1.35
v -0.05 0.4 1.35
v -0.05 0.4 1.15
v -0.05 0.4 -1.15
v -0.05 0.4 -1.25
v -0.05 0.4 -1.35
v 0.15 0.4 1.35
v 0.15 0.4 1.25
v 0.15 0.4 1.15
v 0.15 0.4 -1.15
v 0.15 0.4 -1.35
v 0.15 0.5 1.35
v 0.15 0.5 1.25
v 0.15 0.5 1.15
v 0.15 0.5 -1.15
v 0.15 0.5 -1.35
v 0.25 0.5 1.35
v 0.25 0.5 1.25
v 0.25 0.5 -1.25
v 0.25 0.5 -1.35
v 0.25 0.6 1.35
v 0.25 0.6 1.25
v 0.25 0.6 -1.25
v 0.25 0.6 -1.35
v 0.35 -0.4 1.25
v 0.35 -0.4 1.15
v 0.35 -0.4 -1.15
v 0.35 -0.4 -1.25
v 0.35 -0.3 1.25
v 0.35 -0.3 1.15
v 0.35 -0.3 -1.15
v 0.35 -0.3 -1.25
v 0.35 0.2 1.25
v 0.35 0.2 1.15
v 0.35 0.2 -1.15
v 0.35 0.2 -1.25
v 0.35 0.3 1.25
v 0.35 0.3 1.15
v 0.35 0.4 1.25
v 0.35 0.4 1.15
v 0.35 0.5 1.25
v 0.35 0.5 1.15
v 0.35 0.6 1.25
v 0.35 0.6 1.15
v 0.35 0.6 -1.15
v 0.35 0.6 -1.25
v 0.45 0.6 1.35
v 0.45 0.6 1.25
v 0.45 0.6 1.15
v 0.45 0.6 -1.15
v 0.45 0.6 -1.25
v 0.45 0.6 -1.35
v 0.45 0.7 1.35
v 0.45 0.7 1.25
v 0.45 0.7 1.15
v 0.45 0.7 -1.15
v 0.45 0.7 -1.25
v 0.45 0.7 -1.35
v 0.55 0.7 1.35
v 0.55 0.7 1.25
v 0.55 0.7 1.15
v 0.55 0.7 -1.15
v 0.55 0.7 -1.25
v 0.55 0.7 -1.35
v 0.55 0.8 1.35
v 0.55 0.8 1.25
v 0.55 0.8 1.15
v 0.55 0.8 -1.15
v 0.55 0.8 -1.25
v 0.55 0.8 -1.35
v -0.55 0.1 1.35
v -0.55 0.2 1.35
v -0.45 0.1 1.35
v -0.45 0.2 1.35
v -0.35 0.1 1.35
v -0.35 0.2 1.35
v -0.35 0.3 1.35
v -0.25 0.2 1.35
v -0.25 0.3 1.35
v -0.15 0.2 1.35
v -0.15 0.3 1.35
v -0.15 0.4 1.35
v -0.05 0.3 1.35
v -0.05 0.4 1.35
v -0.05 0.5 1.35
v 0.05 0.4 1.35
v 0.05 0.5 1.35
v 0.15 0.4 1.35
v 0.15 0.5 1.35
v 0.15 0.6 1.35
v 0.25 0.5 1.35
v 0.25 0.6 1.35
v 0.25 0.7 1.35
v 0.45 0.6 1.35
v 0.45 0.7 1.35
v 0.45 0.8 1.35
v 0.55 0.7 1.35
v 0.55 0.8 1.35
v -0.45 -0.8 1.25
v -0.45 -0.7 1.25
v -0.45 -0.4 1.25
v -0.45 -0.3 1.25
v -0.45 -0.2 1.25
v -0.45 0.1 1.25
v -0.35 -0.8 1.25
v -0.35 -0.7 1.25
v -0.35 -0.4 1.25
v -0.35 -0.3 1.25
v -0.35 -0.2 1.25
v -0.35 0.1 1.25
v -0.15 -0.6 1.25
v -0.15 -0.5 1.25
v -0.15 -0.2 1.25
v -0.15 0.2 1.25
v -0.15 0.3 1.25
v -0.05 -0.6 1.25
v -0.05 -0.5 1.25
v -0.05 -0.2 1.25
v -0.05 0.2 1.25
v -0.05 0.3 1.25
v 0.25 -0.4 1.25
v 0.25 -0.3 1.25
v 0.25 0.2 1.25
v 0.25 0.3 1.25
v 0.25 0.4 1.25
v 0.25 0.5 1.25
v 0.25 0.6 1.25
v 0.35 -0.4 1.25
v 0.35 -0.3 1.25
v 0.35 0.2 1.25
v 0.35 0.3 1.25
v 0.35 0.4 1.25
v 0.35 0.5 1.25
v 0.35 0.6 1.25
v -0.55 0.1 -1.15
v -0.55 0.2 -1.15
v -0.45 -0.8 -1.15
v -0.45 -0.6 -1.15
v -0.45 -0.3 -1.15
v -0.45 0.1 -1.15
v -0.35 -0.8 -1.15
v -0.35 -0.6 -1.15
v -0.35 -0.3 -1.15
v -0.35 0.2 -1.15
v -0.35 0.3 -1.15
v -0.15 -0.6 -1.15
v -0.15 -0.5 -1.15
v -0.15 0.2 -1.15
v -0.15 0.3 -1.15
v -0.15 0.4 -1.15
v -0.05 -0.6 -1.15
v -0.05 -0.5 -1.15
v -0.05 0.2 -1.15
v -0.05 0.3 -1.15
v -0.05 0.4 -1.15
v -0.05 0.5 -1.15
v 0.15 0.4 -1.15
v 0.15 0.5 -1.15
v 0.15 0.6 -1.15
v 0.25 -0.4 -1.15
v 0.25 -0.3 -1.15
v 0.25 0.2 -1.15
v 0.25 0.5 -1.15
v 0.25 0.6 -1.15
v 0.25 0.7 -1.15
v 0.35 -0.4 -1.15
v 0.35 -0.3 -1.15
v 0.35 0.2 -1.15
v 0.35 0.6 -1.15
v 0.45 0.6 -1.15
v 0.45 0.7 -1.15
v 0.45 0.8 -1.15
v 0.55 0.7 -1.15
v 0.55 0.8 -1.15
v -0.55 0.1 1.15
v -0.55 0.2 1.15
v -0.45 -0.8 1.15
v -0.45 -0.7 1.15
v -0.45 -0.4 1.15
v -0.45 -0.3 1.15
v -0.45 -0.2 1.15
v -0.45 0.1 1.15
v -0.35 -0.8 1.15
v -0.35 -0.7 1.15
v -0.35 -0.4 1.15
v -0.35 -0.3 1.15
v -0.35 -0.2 1.15
v -0.35 0.1 1.15
v -0.35 0.2 1.15
v -0.35 0.3 1.15
v -0.15 -0.6 1.15
v -0.15 -0.5 1.15
v -0.15 -0.2 1.15
v -0.15 0.2 1.15
v -0.15 0.3 1.15
v -0.15 0.4 1.15
v -0.05 -0.6 1.15
v -0.05 -0.5 1.15
v -0.05 -0.2 1.15
v -0.05 0.2 1.15
v -0.05 0.4 1.15
v -0.05 0.5 1.15
v 0.15 0.4 1.15
v 0.15 0.5 1.15
v 0.15 0.6 1.15
v 0.25 -0.4 1.15
v 0.25 -0.3 1.15
v 0.25 0.2 1.15
v 0.25 0.3 1.15
v 0.25 0.4 1.15
v 0.25 0.5 1.15
v 0.25 0.6 1.15
v 0.25 0.7 1.15
v 0.35 -0.4 1.15
v 0.35 -0.3 1.15
v 0.35 0.2 1.15
v 0.35 0.3 1.15
v 0.35 0.4 1.15
v 0.35 0.5 1.15
v 0.35 0.6 1.15
v 0.45 0.6 1.15
v 0.45 0.7 1.15
v 0.45 0.8 1.15
v 0.55 0.7 1.15
v 0.55 0.8 1.15
v -0.45 -0.8 -1.25
v -0.45 -0.6 -1.25
v -0.45 -0.3 -1.25
v -0.45 0.1 -1.25
v -0.35 -0.8 -1.25
v -0.35 -0.6 -1.25
v -0.35 -0.3 -1.25
v -0.35 0.1 -1.25
v -0.15 -0.6 -1.25
v -0.15 -0.5 -1.25
v -0.15 0.2 -1.25
v -0.15 0.3 -1.25
v -0.05 -0.6 -1.25
v -0.05 -0.5 -1.25
v -0.05 0.2 -1.25
v -0.05 0.3 -1.25
v 0.25 -0.4 -1.25
v 0.25 -0.3 -1.25
v 0.25 0.2 -1.25
v 0.25 0.5 -1.25
v 0.25 0.6 -1.25
v 0.35 -0.4 -1.25
v 0.35 -0.3 -1.25
v 0.35 0.2 -1.25
v 0.35 0.6 -1.25
v -0.55 0.1 -1.35
v -0.55 0.2 -1.35
v -0.35 0.1 -1.35
v -0.35 0.2 -1.35
v -0.35 0.3 -1.35
v -0.15 0.2 -1.35
v -0.15 0.3 -1.35
v -0.15 0.4 -1.35
v -0.05 0.3 -1.35
v -0.05 0.4 -1.35
v -0.05 0.5 -1.35
v 0.15 0.4 -1.35
v 0.15 0.5 -1.35
v 0.15 0.6 -1.35
v 0.25 0.5 -1.35
v 0.25 0.6 -1.35
v 0.25 0.7 -1.35
v 0.45 0.6 -1.35
v 0.45 0.7 -1.35
v 0.45 0.8 -1.35
v 0.55 0.7 -1.35
v 0.55 0.8 -1.35
v -0.45 -0.8 1.25
v -0.35 -0.8 1.25
v -0.45 -0.8 1.15
v -0.35 -0.8 1.15
v -0.45 -0.8 -1.15
v -0.35 -0.8 -1.15
v -0.45 -0.8 -1.25
v -0.35 -0.8 -1.25
v -0.15 -0.6 1.25
v -0.05 -0.6 1.25
v -0.15 -0.6 1.15
v -0.05 -0.6 1.15
v -0.15 -0.6 -1.15
v -0.05 -0.6 -1.15
v -0.15 -0.6 -1.25
v -0.05 -0.6 -1.25
v 0.25 -0.4 1.25
v 0.35 -0.4 1.25
v 0.25 -0.4 1.15
v 0.35 -0.4 1.15
v 0.25 -0.4 -1.15
v 0.35 -0.4 -1.15
v 0.25 -0.4 -1.25
v 0.35 -0.4 -1.25
v -0.55 0.1 1.35
v -0.45 0.1 1.35
v -0.35 0.1 1.35
v -0.45 0.1 1.25
v -0.35 0.1 1.25
v -0.55 0.1 1.15
v -0.45 0.1 1.15
v -0.55 0.1 -1.15
v -0.45 0.1 -1.15
v -0.55 0.1 -1.25
v -0.45 0.1 -1.25
v -0.35 0.1 -1.25
v -0.55 0.1 -1.35
v -0.35 0.1 -1.35
v -0.35 0.2 1.35
v -0.25 0.2 1.35
v -0.15 0.2 1.35
v -0.35 0.2 1.25
v -0.25 0.2 1.25
v -0.15 0.2 1.25
v -0.35 0.2 1.15
v -0.15 0.2 1.15
v -0.35 0.2 -1.15
v -0.15 0.2 -1.15
v -0.35 0.2 -1.25
v -0.15 0.2 -1.25
v -0.35 0.2 -1.35
v -0.15 0.2 -1.35
v -0.15 0.3 1.35
v -0.05 0.3 1.35
v -0.15 0.3 1.25
v -0.05 0.3 1.25
v -0.15 0.3 -1.25
v -0.05 0.3 -1.25
v -0.15 0.3 -1.35
v -0.05 0.3 -1.35
v -0.05 0.4 1.35
v 0.05 0.4 1.35
v 0.15 0.4 1.35
v 0.05 0.4 1.25
v 0.15 0.4 1.25
v -0.05 0.4 1.15
v 0.15 0.4 1.15
v -0.05 0.4 -1.15
v 0.15 0.4 -1.15
v -0.05 0.4 -1.25
v -0.05 0.4 -1.35
v 0.15 0.4 -1.35
v 0.15 0.5 1.35
v 0.25 0.5 1.35
v 0.15 0.5 1.25
v 0.25 0.5 1.25
v 0.15 0.5 1.15
v 0.25 0.5 1.15
v 0.15 0.5 -1.15
v 0.25 0.5 -1.15
v 0.25 0.5 -1.25
v 0.15 0.5 -1.35
v 0.25 0.5 -1.35
v 0.25 0.6 1.35
v 0.45 0.6 1.35
v 0.25 0.6 1.25
v 0.35 0.6 1.25
v 0.45 0.6 1.25
v 0.35 0.6 1.15
v 0.45 0.6 1.15
v 0.35 0.6 -1.15
v 0.45 0.6 -1.15
v 0.25 0.6 -1.25
v 0.35 0.6 -1.25
v 0.45 0.6 -1.25
v 0.25 0.6 -1.35
v 0.45 0.6 -1.35
v 0.45 0.7 1.35
v 0.55 0.7 1.35
v 0.45 0.7 1.25
v 0.55 0.7 1.25
v 0.45 0.7 1.15
v 0.55 0.7 1.15
v 0.45 0.7 -1.15
v 0.55 0.7 -1.15
v 0.45 0.7 -1.25
v 0.55 0.7 -1.25
v 0.45 0.7 -1.35
v 0.55 0.7 -1.35
v -0.55 0.2 1.35
v -0.45 0.2 1.35
v -0.35 0.2 1.35
v -0.45 0.2 1.25
v -0.35 0.2 1.25
v -0.55 0.2 1.15
v -0.35 0.2 1.15
v -0.55 0.2 -1.15
v -0.35 0.2 -1.15
v -0.55 0.2 -1.25
v -0.35 0.2 -1.25
v -0.55 0.2 -1.35
v -0.35 0.2 -1.35
v -0.35 0.3 1.35
v -0.25 0.3 1.35
v -0.15 0.3 1.35
v -0.35 0.3 1.25
v -0.25 0.3 1.25
v -0.35 0.3 1.15
v -0.15 0.3 1.15
v -0.35 0.3 -1.15
v -0.15 0.3 -1.15
v -0.15 0.3 -1.25
v -0.35 0.3 -1.35
v -0.15 0.3 -1.35
v -0.15 0.4 1.35
v -0.05 0.4 1.35
v -0.15 0.4 1.15
v -0.05 0.4 1.15
v -0.15 0.4 -1.15
v -0.05 0.4 -1.15
v -0.15 0.4 -1.25
v -0.05 0.4 -1.25
v -0.15 0.4 -1.35
v -0.05 0.4 -1.35
v -0.05 0.5 1.35
v 0.05 0.5 1.35
v 0.15 0.5 1.35
v 0.05 0.5 1.25
v 0.15 0.5 1.25
v -0.05 0.5 1.15
v 0.15 0.5 1.15
v -0.05 0.5 -1.15
v 0.15 0.5 -1.15
v -0.05 0.5 -1.35
v 0.15 0.5 -1.35
v 0.15 0.6 1.35
v 0.25 0.6 1.35
v 0.25 0.6 1.25
v 0.15 0.6 1.15
v 0.25 0.6 1.15
v 0.15 0.6 -1.15
v 0.25 0.6 -1.15
v 0.25 0.6 -1.25
v 0.15 0.6 -1.35
v 0.25 0.6 -1.35
v 0.25 0.7 1.35
v 0.45 0.7 1.35
v 0.25 0.7 1.25
v 0.45 0.7 1.25
v 0.25 0.7 1.15
v 0.45 0.7 1.15
v 0.25 0.7 -1.15
v 0.45 0.7 -1.15
v 0.25 0.7 -1.25
v 0.45 0.7 -1.25
v 0.25 0.7 -1.35
v 0.45 0.7 -1.35
v 0.45 0.8 1.35
v 0.55 0.8 1.35
v 0.45 0.8 1.25
v 0.55 0.8 1.25
v 0.45 0.8 1.15
v 0.55 0.8 1.15
v 0.45 0.8 -1.15
v 0.55 0.8 -1.15
v 0.45 0.8 -1.25
v 0.55 0.8 -1.25
v 0.45 0.8 -1.35
v 0.55 0.8 -1.35

# faces
f 6/2/1 2/2/1 1/2/1
f 7/2/1 2/2/1 6/2/1
f 8/1/1 4/1/1 3/1/1
f 9/2/1 5/2/1 4/2/1
f 9/1/1 4/1/1 8/1/1
f 10/2/1 5/2/1 9/2/1
f 15/1/1 12/1/1 11/1/1
f 16/1/1 12/1/1 15/1/1
f 17/1/1 14/1/1 13/1/1
f 18/1/1 14/1/1 17/1/1
f 19/2/1 16/2/1 15/2/1
f 20/2/1 16/2/1 19/2/1
f 21/1/1 20/1/1 19/1/1
f 22/1/1 20/1/1 21/1/1
f 23/2/1 18/2/1 17/2/1
f 24/2/1 18/2/1 23/2/1
f 25/2/1 22/2/1 21/2/1
f 26/2/1 22/2/1 25/2/1
f 27/1/1 26/1/1 25/1/1
f 28/1/1 26/1/1 27/1/1
f 29/1/1 24/1/1 23/1/1
f 30/1/1 24/1/1 29/1/1
f 37/1/1 32/1/1 31/1/1
f 38/2/1 33/2/1 32/2/1
f 38/1/1 32/1/1 37/1/1
f 39/2/1 33/2/1 38/2/1
f 40/2/1 36/2/1 35/2/1
f 40/2/1 35/2/1 34/2/1
f 41/2/1 36/2/1 40/2/1
f 46/1/1 43/1/1 42/1/1
f 47/1/1 43/1/1 46/1/1
f 48/1/1 45/1/1 44/1/1
f 49/1/1 45/1/1 48/1/1
f 50/2/1 47/2/1 46/2/1
f 51/2/1 47/2/1 50/2/1
f 52/1/1 51/1/1 50/1/1
f 53/1/1 51/1/1 52/1/1
f 54/2/1 49/2/1 48/2/1
f 55/2/1 49/2/1 54/2/1
f 61/2/1 57/2/1 56/2/1
f 62/2/1 57/2/1 61/2/1
f 63/2/1 59/2/1 58/2/1
f 64/1/1 60/1/1 59/1/1
f 64/2/1 59/2/1 63/2/1
f 65/1/1 60/1/1 64/1/1
f 71/2/1 67/2/1 66/2/1
f 72/2/1 67/2/1 71/2/1
f 73/2/1 70/2/1 69/2/1
f 73/2/1 69/2/1 68/2/1
f 74/2/1 70/2/1 73/2/1
f 80/2/1 76/2/1 75/2/1
f 80/2/1 77/2/1 76/2/1
f 81/2/1 77/2/1 80/2/1
f 82/1/1 79/1/1 78/1/1
f 83/1/1 79/1/1 82/1/1
f 88/1/1 85/1/1 84/1/1
f 89/1/1 85/1/1 88/1/1
f 90/1/1 87/1/1 86/1/1
f 91/1/1 87/1/1 90/1/1
f 92/2/1 89/2/1 88/2/1
f 93/2/1 89/2/1 92/2/1
f 94/2/1 91/2/1 90/2/1
f 95/2/1 91/2/1 94/2/1
f 96/1/1 93/1/1 92/1/1
f 97/1/1 93/1/1 96/1/1
f 98/2/1 97/2/1 96/2/1
f 99/2/1 97/2/1 98/2/1
f 100/1/1 99/1/1 98/1/1
f 101/1/1 99/1/1 100/1/1
f 102/1/1 95/1/1 94/1/1
f 103/1/1 95/1/1 102/1/1
f 110/2/1 105/2/1 104/2/1
f 111/1/1 106/1/1 105/1/1
f 111/2/1 105/2/1 110/2/1
f 112/1/1 106/1/1 111/1/1
f 113/1/1 108/1/1 107/1/1
f 114/2/1 109/2/1 108/2/1
f 114/1/1 108/1/1 113/1/1
f 115/2/1 109/2/1 114/2/1
f 122/2/1 117/2/1 116/2/1
f 123/1/1 118/1/1 117/1/1
f 123/2/1 117/2/1 122/2/1
f 124/1/1 118/1/1 123/1/1
f 125/1/1 120/1/1 119/1/1
f 126/2/1 121/2/1 120/2/1
f 126/1/1 120/1/1 125/1/1
f 127/2/1 121/2/1 126/2/1
f 128/1/2 129/1/2 132/1/2
f 132/1/2 129/1/2 133/1/2
f 130/1/2 131/1/2 134/1/2
f 134/1/2 131/1/2 135/1/2
f 132/2/2 133/2/2 136/2/2
f 136/2/2 133/2/2 137/2/2
f 136/1/2 137/1/2 138/1/2
f 138/1/2 137/1/2 139/1/2
f 134/2/2 135/2/2 140/2/2
f 140/2/2 135/2/2 141/2/2
f 138/2/2 139/2/2 142/2/2
f 142/2/2 139/2/2 143/2/2
f 142/1/2 143/1/2 145/1/2
f 145/1/2 143/1/2 146/1/2
f 140/1/2 141/1/2 147/1/2
f 144/1/2 145/1/2 149/1/2
f 145/2/2 146/2/2 150/2/2
f 149/1/2 145/1/2 150/1/2
f 150/2/2 146/2/2 151/2/2
f 140/1/2 147/1/2 152/1/2
f 147/2/2 148/2/2 153/2/2
f 152/1/2 147/1/2 153/1/2
f 153/2/2 148/2/2 154/2/2
f 155/2/2 156/2/2 159/2/2
f 159/2/2 156/2/2 160/2/2
f 157/2/2 158/2/2 161/2/2
f 161/2/2 158/2/2 162/2/2
f 163/1/2 164/1/2 167/1/2
f 167/1/2 164/1/2 168/1/2
f 165/1/2 166/1/2 169/1/2
f 169/1/2 166/1/2 170/1/2
f 167/2/2 168/2/2 171/2/2
f 171/2/2 168/2/2 172/2/2
f 171/1/2 172/1/2 173/1/2
f 173/1/2 172/1/2 174/1/2
f 169/2/2 170/2/2 175/2/2
f 175/2/2 170/2/2 176/2/2
f 173/2/2 174/2/2 178/2/2
f 175/1/2 176/1/2 179/1/2
f 179/1/2 176/1/2 180/1/2
f 177/2/2 178/2/2 182/2/2
f 178/2/2 174/2/2 183/2/2
f 182/2/2 178/2/2 183/2/2
f 179/2/2 180/2/2 184/2/2
f 180/1/2 181/1/2 185/1/2
f 184/2/2 180/2/2 185/2/2
f 185/1/2 181/1/2 186/1/2
f 187/1/2 188/1/2 192/1/2
f 188/2/2 189/2/2 193/2/2
f 192/1/2 188/1/2 193/1/2
f 193/2/2 189/2/2 194/2/2
f 190/2/2 191/2/2 195/2/2
f 195/2/2 191/2/2 196/2/2
f 197/2/2 198/2/2 201/2/2
f 201/2/2 198/2/2 202/2/2
f 199/1/2 200/1/2 203/1/2
f 203/1/2 200/1/2 204/1/2
f 205/1/2 206/1/2 209/1/2
f 209/1/2 206/1/2 210/1/2
f 207/1/2 208/1/2 211/1/2
f 211/1/2 208/1/2 212/1/2
f 209/2/2 210/2/2 213/2/2
f 213/2/2 210/2/2 214/2/2
f 211/2/2 212/2/2 215/2/2
f 215/2/2 212/2/2 216/2/2
f 213/1/2 214/1/2 217/1/2
f 217/1/2 214/1/2 218/1/2
f 217/2/2 218/2/2 219/2/2
f 219/2/2 218/2/2 220/2/2
f 219/1/2 220/1/2 221/1/2
f 221/1/2 220/1/2 222/1/2
f 221/2/2 222/2/2 223/2/2
f 223/2/2 222/2/2 224/2/2
f 215/1/2 216/1/2 225/1/2
f 225/1/2 216/1/2 226/1/2
f 227/2/2 228/2/2 233/2/2
f 228/1/2 229/1/2 234/1/2
f 233/2/2 228/2/2 234/2/2
f 234/1/2 229/1/2 235/1/2
f 230/1/2 231/1/2 236/1/2
f 231/2/2 232/2/2 237/2/2
f 236/1/2 231/1/2 237/1/2
f 237/2/2 232/2/2 238/2/2
f 239/2/2 240/2/2 245/2/2
f 240/1/2 241/1/2 246/1/2
f 245/2/2 240/2/2 246/2/2
f 246/1/2 241/1/2 247/1/2
f 242/1/2 243/1/2 248/1/2
f 243/2/2 244/2/2 249/2/2
f 248/1/2 243/1/2 249/1/2
f 249/2/2 244/2/2 250/2/2
f 253/2/3 252/2/3 251/2/3
f 254/2/3 252/2/3 253/2/3
f 255/1/3 254/1/3 253/1/3
f 256/1/3 254/1/3 255/1/3
f 258/1/3 257/1/3 256/1/3
f 259/1/3 257/1/3 258/1/3
f 260/2/3 259/2/3 258/2/3
f 261/2/3 259/2/3 260/2/3
f 263/2/3 262/2/3 261/2/3
f 264/2/3 262/2/3 263/2/3
f 266/2/3 265/2/3 264/2/3
f 267/2/3 265/2/3 266/2/3
f 268/1/3 267/1/3 266/1/3
f 269/1/3 267/1/3 268/1/3
f 271/2/3 270/2/3 269/2/3
f 272/2/3 270/2/3 271/2/3
f 274/2/3 273/2/3 272/2/3
f 275/2/3 273/2/3 274/2/3
f 277/2/3 276/2/3 275/2/3
f 278/2/3 276/2/3 277/2/3
f 285/1/3 280/1/3 279/1/3
f 286/2/3 281/2/3 280/2/3
f 286/1/3 280/1/3 285/1/3
f 287/1/3 282/1/3 281/1/3
f 287/2/3 281/2/3 286/2/3
f 288/2/3 283/2/3 282/2/3
f 288/1/3 282/1/3 287/1/3
f 289/1/3 284/1/3 283/1/3
f 289/2/3 283/2/3 288/2/3
f 290/1/3 284/1/3 289/1/3
f 296/1/3 292/1/3 291/1/3
f 297/2/3 293/2/3 292/2/3
f 297/1/3 292/1/3 296/1/3
f 298/1/3 294/1/3 293/1/3
f 298/2/3 293/2/3 297/2/3
f 299/2/3 295/2/3 294/2/3
f 299/1/3 294/1/3 298/1/3
f 300/2/3 295/2/3 299/2/3
f 308/1/3 302/1/3 301/1/3
f 309/2/3 303/2/3 302/2/3
f 309/1/3 302/1/3 308/1/3
f 310/1/3 304/1/3 303/1/3
f 310/2/3 303/2/3 309/2/3
f 311/2/3 305/2/3 304/2/3
f 311/1/3 304/1/3 310/1/3
f 312/1/3 306/1/3 305/1/3
f 312/2/3 305/2/3 311/2/3
f 313/2/3 307/2/3 306/2/3
f 313/1/3 306/1/3 312/1/3
f 314/2/3 307/2/3 313/2/3
f 320/1/3 316/1/3 315/1/3
f 321/1/3 318/1/3 317/1/3
f 322/2/3 319/2/3 318/2/3
f 322/1/3 318/1/3 321/1/3
f 323/1/3 320/1/3 319/1/3
f 323/2/3 319/2/3 322/2/3
f 324/1/3 316/1/3 320/1/3
f 324/1/3 320/1/3 323/1/3
f 328/2/3 325/2/3 324/2/3
f 329/2/3 325/2/3 328/2/3
f 331/1/3 327/1/3 326/1/3
f 332/2/3 328/2/3 327/2/3
f 332/1/3 327/1/3 331/1/3
f 333/1/3 329/1/3 328/1/3
f 333/2/3 328/2/3 332/2/3
f 334/2/3 330/2/3 329/2/3
f 334/1/3 329/1/3 333/1/3
f 335/2/3 330/2/3 334/2/3
f 337/2/3 336/2/3 335/2/3
f 338/2/3 336/2/3 337/2/3
f 343/1/3 339/1/3 338/1/3
f 344/1/3 339/1/3 343/1/3
f 346/1/3 341/1/3 340/1/3
f 347/2/3 342/2/3 341/2/3
f 347/1/3 341/1/3 346/1/3
f 348/1/3 345/1/3 344/1/3
f 348/2/3 342/2/3 347/2/3
f 348/1/3 343/1/3 342/1/3
f 348/1/3 344/1/3 343/1/3
f 349/1/3 345/1/3 348/1/3
f 350/1/3 345/1/3 349/1/3
f 351/1/3 345/1/3 350/1/3
f 353/1/3 352/1/3 351/1/3
f 354/1/3 352/1/3 353/1/3
f 355/2/4 356/2/4 362/2/4
f 357/1/4 358/1/4 363/1/4
f 358/2/4 359/2/4 364/2/4
f 363/1/4 358/1/4 364/1/4
f 359/1/4 360/1/4 365/1/4
f 364/2/4 359/2/4 365/2/4
f 360/2/4 361/2/4 366/2/4
f 365/1/4 360/1/4 366/1/4
f 361/1/4 362/1/4 367/1/4
f 366/2/4 361/2/4 367/2/4
f 362/2/4 356/2/4 368/2/4
f 367/1/4 362/1/4 368/1/4
f 368/2/4 356/2/4 369/2/4
f 369/2/4 370/2/4 374/2/4
f 374/2/4 370/2/4 375/2/4
f 371/1/4 372/1/4 377/1/4
f 372/2/4 373/2/4 378/2/4
f 377/1/4 372/1/4 378/1/4
f 373/1/4 374/1/4 379/1/4
f 378/2/4 373/2/4 379/2/4
f 375/2/4 376/2/4 380/2/4
f 379/1/4 374/1/4 380/1/4
f 374/2/4 375/2/4 380/2/4
f 380/2/4 376/2/4 381/2/4
f 381/2/4 382/2/4 383/2/4
f 383/2/4 382/2/4 384/2/4
f 384/2/4 385/2/4 391/2/4
f 391/2/4 385/2/4 392/2/4
f 386/1/4 387/1/4 394/1/4
f 387/2/4 388/2/4 395/2/4
f 394/1/4 387/1/4 395/1/4
f 388/1/4 389/1/4 396/1/4
f 395/2/4 388/2/4 396/2/4
f 389/2/4 390/2/4 397/2/4
f 396/1/4 389/1/4 397/1/4
f 390/1/4 391/1/4 398/1/4
f 397/2/4 390/2/4 398/2/4
f 391/2/4 392/2/4 399/2/4
f 398/1/4 391/1/4 399/1/4
f 392/1/4 393/1/4 400/1/4
f 399/2/4 392/2/4 400/2/4
f 400/1/4 393/1/4 401/1/4
f 401/1/4 393/1/4 402/1/4
f 402/1/4 403/1/4 404/1/4
f 404/1/4 403/1/4 405/1/4
f 406/1/4 407/1/4 410/1/4
f 407/2/4 408/2/4 411/2/4
f 410/1/4 407/1/4 411/1/4
f 408/1/4 409/1/4 412/1/4
f 411/2/4 408/2/4 412/2/4
f 412/1/4 409/1/4 413/1/4
f 414/1/4 415/1/4 418/1/4
f 415/2/4 416/2/4 419/2/4
f 418/1/4 415/1/4 419/1/4
f 416/1/4 417/1/4 420/1/4
f 419/2/4 416/2/4 420/2/4
f 420/1/4 417/1/4 421/1/4
f 422/1/4 423/1/4 427/1/4
f 423/2/4 424/2/4 428/2/4
f 427/1/4 423/1/4 428/1/4
f 425/1/4 426/1/4 429/1/4
f 428/2/4 424/2/4 429/2/4
f 424/1/4 425/1/4 429/1/4
f 429/1/4 426/1/4 430/1/4
f 431/2/4 432/2/4 433/2/4
f 433/2/4 432/2/4 434/2/4
f 434/2/4 435/2/4 436/2/4
f 436/2/4 435/2/4 437/2/4
f 437/1/4 438/1/4 439/1/4
f 439/1/4 438/1/4 440/1/4
f 440/2/4 441/2/4 442/2/4
f 442/2/4 441/2/4 443/2/4
f 443/1/4 444/1/4 445/1/4
f 445/1/4 444/1/4 446/1/4
f 446/2/4 447/2/4 448/2/4
f 448/2/4 447/2/4 449/2/4
f 449/2/4 450/2/4 451/2/4
f 451/2/4 450/2/4 452/2/4
f 455/1/5 454/1/5 453/1/5
f 456/1/5 454/1/5 455/1/5
f 459/1/5 458/1/5 457/1/5
f 460/1/5 458/1/5 459/1/5
f 463/1/5 462/1/5 461/1/5
f 464/1/5 462/1/5 463/1/5
f 467/1/5 466/1/5 465/1/5
f 468/1/5 466/1/5 467/1/5
f 471/1/5 470/1/5 469/1/5
f 472/1/5 470/1/5 471/1/5
f 475/1/5 474/1/5 473/1/5
f 476/1/5 474/1/5 475/1/5
f 480/2/5 478/2/5 477/2/5
f 480/1/5 479/1/5 478/1/5
f 481/1/5 479/1/5 480/1/5
f 482/2/5 480/2/5 477/2/5
f 483/2/5 480/2/5 482/2/5
f 486/1/5 485/1/5 484/1/5
f 487/1/5 485/1/5 486/1/5
f 489/2/5 487/2/5 486/2/5
f 489/2/5 488/2/5 487/2/5
f 490/2/5 488/2/5 489/2/5
f 494/1/5 492/1/5 491/1/5
f 495/2/5 493/2/5 492/2/5
f 495/1/5 492/1/5 494/1/5
f 496/2/5 493/2/5 495/2/5
f 497/2/5 495/2/5 494/2/5
f 497/2/5 496/2/5 495/2/5
f 498/2/5 496/2/5 497/2/5
f 501/2/5 500/2/5 499/2/5
f 502/2/5 500/2/5 501/2/5
f 503/2/5 502/2/5 501/2/5
f 504/2/5 502/2/5 503/2/5
f 507/2/5 506/2/5 505/2/5
f 508/2/5 506/2/5 507/2/5
f 511/1/5 510/1/5 509/1/5
f 512/1/5 510/1/5 511/1/5
f 516/2/5 514/2/5 513/2/5
f 516/1/5 515/1/5 514/1/5
f 517/1/5 515/1/5 516/1/5
f 518/2/5 516/2/5 513/2/5
f 518/2/5 517/2/5 516/2/5
f 519/2/5 517/2/5 518/2/5
f 522/2/5 521/2/5 520/2/5
f 523/2/5 521/2/5 522/2/5
f 524/2/5 521/2/5 523/2/5
f 527/2/5 526/2/5 525/2/5
f 528/2/5 526/2/5 527/2/5
f 529/2/5 528/2/5 527/2/5
f 530/2/5 528/2/5 529/2/5
f 533/1/5 532/1/5 531/1/5
f 534/1/5 533/1/5 531/1/5
f 535/1/5 533/1/5 534/1/5
f 538/2/5 537/2/5 536/2/5
f 539/2/5 537/2/5 538/2/5
f 540/2/5 537/2/5 539/2/5
f 541/1/5 540/1/5 539/1/5
f 542/1/5 540/1/5 541/1/5
f 546/1/5 544/1/5 543/1/5
f 547/1/5 544/1/5 546/1/5
f 548/2/5 546/2/5 545/2/5
f 548/2/5 547/2/5 546/2/5
f 549/2/5 547/2/5 548/2/5
f 552/2/5 551/2/5 550/2/5
f 553/2/5 551/2/5 552/2/5
f 554/1/5 553/1/5 552/1/5
f 555/1/5 553/1/5 554/1/5
f 558/1/5 557/1/5 556/1/5
f 559/1/5 557/1/5 558/1/5
f 560/2/5 559/2/5 558/2/5
f 561/2/5 559/2/5 560/2/5
f 562/2/6 563/2/6 565/2/6
f 563/1/6 564/1/6 565/1/6
f 565/1/6 564/1/6 566/1/6
f 562/2/6 565/2/6 567/2/6
f 565/2/6 566/2/6 567/2/6
f 567/2/6 566/2/6 568/2/6
f 569/1/6 570/1/6 571/1/6
f 571/1/6 570/1/6 572/1/6
f 571/2/6 572/2/6 573/2/6
f 573/2/6 572/2/6 574/2/6
f 575/1/6 576/1/6 578/1/6
f 576/2/6 577/2/6 579/2/6
f 578/1/6 576/1/6 579/1/6
f 578/2/6 579/2/6 580/2/6
f 579/2/6 577/2/6 581/2/6
f 580/2/6 579/2/6 581/2/6
f 582/2/6 583/2/6 584/2/6
f 582/2/6 584/2/6 585/2/6
f 585/2/6 584/2/6 586/2/6
f 587/2/6 588/2/6 589/2/6
f 589/2/6 588/2/6 590/2/6
f 591/2/6 592/2/6 593/2/6
f 593/2/6 592/2/6 594/2/6
f 593/1/6 594/1/6 595/1/6
f 595/1/6 594/1/6 596/1/6
f 597/2/6 598/2/6 600/2/6
f 598/1/6 599/1/6 600/1/6
f 600/1/6 599/1/6 601/1/6
f 597/2/6 600/2/6 602/2/6
f 600/2/6 601/2/6 602/2/6
f 602/2/6 601/2/6 603/2/6
f 604/2/6 605/2/6 606/2/6
f 606/2/6 605/2/6 607/2/6
f 608/2/6 609/2/6 610/2/6
f 608/2/6 610/2/6 611/2/6
f 611/2/6 610/2/6 612/2/6
f 613/1/6 614/1/6 615/1/6
f 613/1/6 615/1/6 616/1/6
f 616/1/6 615/1/6 617/1/6
f 618/2/6 619/2/6 620/2/6
f 620/2/6 619/2/6 621/2/6
f 620/1/6 621/1/6 622/1/6
f 622/1/6 621/1/6 623/1/6
f 624/1/6 625/1/6 626/1/6
f 626/1/6 625/1/6 627/1/6
f 626/2/6 627/2/6 628/2/6
f 628/2/6 627/2/6 629/2/6
f 630/2/6 631/2/6 632/2/6
f 632/2/6 631/2/6 633/2/6
f 632/1/6 633/1/6 634/1/6
f 634/1/6 633/1/6 635/1/6
f 636/1/6 637/1/6 638/1/6
f 638/1/6 637/1/6 639/1/6
f 638/2/6 639/2/6 640/2/6
f 640/2/6 639/2/6 641/2/6
