# MagicaVoxel @ Ephtracy

# group
o 

# material
mtllib arm_left-0.mtl
usemtl palette

# normals
vn -1 0 0
vn 1 0 0
vn 0 0 1
vn 0 0 -1
vn 0 -1 0
vn 0 1 0

# texcoords
vt 0.916016 0.5
vt 0.978516 0.5
vt 0.982422 0.5

# verts
v -0.1 -0.7 0.7
v -0.1 -0.7 0.5
v -0.1 -0.5 0.7
v -0.1 -0.5 0.5
v -0.1 -0.4 0.7
v -0.1 -0.4 0.5
v -0.1 -0.2 0.7
v -0.1 -0.2 0.6
v -0.1 -0.1 0.7
v -0.1 -0.1 0.6
v -0.1 0.1 0.7
v -0.1 0.1 0.5
v -0.1 0.2 0.7
v -0.1 0.2 0.5
v -0.1 0.3 0.8
v -0.1 0.3 0.7
v -0.1 0.5 0.8
v -0.1 0.5 0.7
v -0.1 0.6 0.8
v -0.1 0.6 0.7
v -0.1 0.6 0.5
v 0 -0.8 0.7
v 0 -0.8 0.5
v 0 -0.7 0.8
v 0 -0.7 0.7
v 0 -0.7 0.5
v 0 -0.7 0.4
v 0 -0.5 0.8
v 0 -0.5 0.7
v 0 -0.5 0.5
v 0 -0.5 0.4
v 0 -0.4 0.8
v 0 -0.4 0.7
v 0 -0.4 0.5
v 0 -0.4 0.4
v 0 -0.2 0.8
v 0 -0.2 0.7
v 0 -0.1 0.8
v 0 -0.1 0.7
v 0 0.1 0.7
v 0 0.1 0.5
v 0 0.2 0.7
v 0 0.2 0.5
v 0 0.3 0.8
v 0 0.3 0.7
v 0 0.3 0.5
v 0 0.3 0.4
v 0 0.4 0.5
v 0 0.4 0.4
v 0 0.6 0.8
v 0 0.6 0.7
v 0 0.6 0.5
v 0 0.6 0.4
v 0 0.7 0.8
v 0 0.7 0.5
v 0.2 -0.8 0.7
v 0.2 -0.8 0.5
v 0.2 -0.7 0.8
v 0.2 -0.7 0.7
v 0.2 -0.7 0.5
v 0.2 -0.7 0.4
v 0.2 -0.5 0.8
v 0.2 -0.5 0.7
v 0.2 -0.5 0.5
v 0.2 -0.5 0.4
v 0.2 -0.4 0.8
v 0.2 -0.4 0.7
v 0.2 -0.4 0.5
v 0.2 -0.4 0.4
v 0.2 -0.2 0.5
v 0.2 -0.2 0.4
v 0.2 -0.1 0.5
v 0.2 -0.1 0.4
v 0.2 0.1 0.7
v 0.2 0.1 0.5
v 0.2 0.2 0.7
v 0.2 0.2 0.5
v 0.2 0.3 0.8
v 0.2 0.3 0.7
v 0.2 0.3 0.5
v 0.2 0.3 0.4
v 0.2 0.4 0.5
v 0.2 0.4 0.4
v 0.2 0.5 0.5
v 0.2 0.6 0.8
v 0.2 0.6 0.7
v 0.2 0.6 0.5
v 0.2 0.6 0.4
v 0.2 0.7 0.8
v 0.2 0.7 0.5
v 0.3 -0.7 0.7
v 0.3 -0.7 0.5
v 0.3 -0.5 0.7
v 0.3 -0.5 0.5
v 0.3 -0.4 0.7
v 0.3 -0.4 0.5
v 0.3 -0.2 0.6
v 0.3 -0.2 0.5
v 0.3 -0.1 0.6
v 0.3 -0.1 0.5
v 0.3 0.1 0.7
v 0.3 0.1 0.5
v 0.3 0.2 0.7
v 0.3 0.2 0.5
v 0.3 0.3 0.8
v 0.3 0.3 0.7
v 0.3 0.5 0.7
v 0.3 0.5 0.5
v 0.3 0.6 0.8
v 0.3 0.6 0.7
v 0.3 0.6 0.5
v -0.1 0.3 0.8
v -0.1 0.5 0.8
v -0.1 0.6 0.8
v 0 -0.7 0.8
v 0 -0.5 0.8
v 0 -0.4 0.8
v 0 -0.2 0.8
v 0 -0.1 0.8
v 0 0.3 0.8
v 0 0.5 0.8
v 0 0.6 0.8
v 0 0.7 0.8
v 0.1 -0.2 0.8
v 0.1 -0.1 0.8
v 0.2 -0.7 0.8
v 0.2 -0.5 0.8
v 0.2 -0.4 0.8
v 0.2 0.3 0.8
v 0.2 0.6 0.8
v 0.2 0.7 0.8
v 0.3 0.3 0.8
v 0.3 0.6 0.8
v -0.1 -0.7 0.7
v -0.1 -0.5 0.7
v -0.1 -0.4 0.7
v -0.1 -0.2 0.7
v -0.1 -0.1 0.7
v -0.1 0.1 0.7
v -0.1 0.2 0.7
v -0.1 0.3 0.7
v 0 -0.8 0.7
v 0 -0.7 0.7
v 0 -0.5 0.7
v 0 -0.4 0.7
v 0 -0.2 0.7
v 0 -0.1 0.7
v 0 0.1 0.7
v 0 0.2 0.7
v 0 0.3 0.7
v 0.2 -0.8 0.7
v 0.2 -0.7 0.7
v 0.2 -0.5 0.7
v 0.2 -0.4 0.7
v 0.2 0.1 0.7
v 0.2 0.2 0.7
v 0.2 0.3 0.7
v 0.3 -0.7 0.7
v 0.3 -0.5 0.7
v 0.3 -0.4 0.7
v 0.3 0.1 0.7
v 0.3 0.2 0.7
v 0.3 0.3 0.7
v -0.1 -0.7 0.5
v -0.1 -0.5 0.5
v -0.1 -0.4 0.5
v -0.1 0.1 0.5
v -0.1 0.2 0.5
v -0.1 0.6 0.5
v 0 -0.8 0.5
v 0 -0.7 0.5
v 0 -0.5 0.5
v 0 -0.4 0.5
v 0 0.1 0.5
v 0 0.2 0.5
v 0 0.3 0.5
v 0 0.4 0.5
v 0 0.6 0.5
v 0 0.7 0.5
v 0.2 -0.8 0.5
v 0.2 -0.7 0.5
v 0.2 -0.5 0.5
v 0.2 -0.4 0.5
v 0.2 -0.2 0.5
v 0.2 -0.1 0.5
v 0.2 0.1 0.5
v 0.2 0.2 0.5
v 0.2 0.3 0.5
v 0.2 0.4 0.5
v 0.2 0.5 0.5
v 0.2 0.6 0.5
v 0.2 0.7 0.5
v 0.3 -0.7 0.5
v 0.3 -0.5 0.5
v 0.3 -0.4 0.5
v 0.3 -0.2 0.5
v 0.3 -0.1 0.5
v 0.3 0.1 0.5
v 0.3 0.2 0.5
v 0.3 0.5 0.5
v 0.3 0.6 0.5
v 0 -0.7 0.4
v 0 -0.5 0.4
v 0 -0.4 0.4
v 0 0.3 0.4
v 0 0.4 0.4
v 0 0.6 0.4
v 0.1 -0.2 0.4
v 0.1 -0.1 0.4
v 0.2 -0.7 0.4
v 0.2 -0.5 0.4
v 0.2 -0.4 0.4
v 0.2 -0.2 0.4
v 0.2 -0.1 0.4
v 0.2 0.3 0.4
v 0.2 0.4 0.4
v 0.2 0.6 0.4
v 0 -0.8 0.7
v 0.2 -0.8 0.7
v 0 -0.8 0.5
v 0.2 -0.8 0.5
v 0 -0.7 0.8
v 0.2 -0.7 0.8
v -0.1 -0.7 0.7
v 0 -0.7 0.7
v 0.2 -0.7 0.7
v 0.3 -0.7 0.7
v -0.1 -0.7 0.5
v 0 -0.7 0.5
v 0.2 -0.7 0.5
v 0.3 -0.7 0.5
v 0 -0.7 0.4
v 0.2 -0.7 0.4
v 0 -0.4 0.8
v 0.2 -0.4 0.8
v -0.1 -0.4 0.7
v 0 -0.4 0.7
v 0.2 -0.4 0.7
v 0.3 -0.4 0.7
v -0.1 -0.4 0.5
v 0 -0.4 0.5
v 0.2 -0.4 0.5
v 0.3 -0.4 0.5
v 0 -0.4 0.4
v 0.2 -0.4 0.4
v -0.1 0.3 0.8
v 0 0.3 0.8
v 0.2 0.3 0.8
v 0.3 0.3 0.8
v -0.1 0.3 0.7
v 0 0.3 0.7
v 0.2 0.3 0.7
v 0.3 0.3 0.7
v 0 -0.5 0.8
v 0.2 -0.5 0.8
v -0.1 -0.5 0.7
v 0 -0.5 0.7
v 0.2 -0.5 0.7
v 0.3 -0.5 0.7
v -0.1 -0.5 0.5
v 0 -0.5 0.5
v 0.2 -0.5 0.5
v 0.3 -0.5 0.5
v 0 -0.5 0.4
v 0.2 -0.5 0.4
v -0.1 0.6 0.8
v 0 0.6 0.8
v 0.2 0.6 0.8
v 0.3 0.6 0.8
v -0.1 0.6 0.7
v 0 0.6 0.7
v 0.2 0.6 0.7
v 0.3 0.6 0.7
v -0.1 0.6 0.5
v 0 0.6 0.5
v 0.2 0.6 0.5
v 0.3 0.6 0.5
v 0 0.6 0.4
v 0.2 0.6 0.4
v 0 0.7 0.8
v 0.2 0.7 0.8
v 0 0.7 0.5
v 0.2 0.7 0.5

# faces
f 3/3/1 2/3/1 1/3/1
f 4/3/1 2/3/1 3/3/1
f 7/2/1 6/2/1 5/2/1
f 8/2/1 6/2/1 7/2/1
f 9/1/1 8/1/1 7/1/1
f 10/2/1 6/2/1 8/2/1
f 10/1/1 8/1/1 9/1/1
f 11/2/1 10/2/1 9/2/1
f 12/2/1 6/2/1 10/2/1
f 12/2/1 10/2/1 11/2/1
f 13/1/1 12/1/1 11/1/1
f 14/1/1 12/1/1 13/1/1
f 16/2/1 14/2/1 13/2/1
f 17/2/1 16/2/1 15/2/1
f 18/2/1 14/2/1 16/2/1
f 18/2/1 16/2/1 17/2/1
f 19/1/1 18/1/1 17/1/1
f 20/2/1 14/2/1 18/2/1
f 20/1/1 18/1/1 19/1/1
f 21/2/1 14/2/1 20/2/1
f 25/3/1 23/3/1 22/3/1
f 26/3/1 23/3/1 25/3/1
f 28/3/1 25/3/1 24/3/1
f 29/3/1 25/3/1 28/3/1
f 30/3/1 27/3/1 26/3/1
f 31/3/1 27/3/1 30/3/1
f 33/3/1 30/3/1 29/3/1
f 34/3/1 30/3/1 33/3/1
f 36/2/1 33/2/1 32/2/1
f 37/2/1 33/2/1 36/2/1
f 38/1/1 37/1/1 36/1/1
f 39/1/1 37/1/1 38/1/1
f 40/2/1 39/2/1 38/2/1
f 41/2/1 35/2/1 34/2/1
f 42/2/1 40/2/1 38/2/1
f 43/2/1 35/2/1 41/2/1
f 44/2/1 42/2/1 38/2/1
f 45/2/1 42/2/1 44/2/1
f 46/2/1 35/2/1 43/2/1
f 47/2/1 35/2/1 46/2/1
f 48/1/1 47/1/1 46/1/1
f 49/1/1 47/1/1 48/1/1
f 52/2/1 49/2/1 48/2/1
f 53/2/1 49/2/1 52/2/1
f 54/2/1 51/2/1 50/2/1
f 54/2/1 52/2/1 51/2/1
f 55/2/1 52/2/1 54/2/1
f 56/3/2 57/3/2 59/3/2
f 59/3/2 57/3/2 60/3/2
f 58/3/2 59/3/2 62/3/2
f 62/3/2 59/3/2 63/3/2
f 60/3/2 61/3/2 64/3/2
f 64/3/2 61/3/2 65/3/2
f 63/3/2 64/3/2 67/3/2
f 67/3/2 64/3/2 68/3/2
f 68/2/2 69/2/2 70/2/2
f 70/2/2 69/2/2 71/2/2
f 70/1/2 71/1/2 72/1/2
f 72/1/2 71/1/2 73/1/2
f 66/2/2 67/2/2 74/2/2
f 72/2/2 73/2/2 75/2/2
f 66/2/2 74/2/2 76/2/2
f 75/2/2 73/2/2 77/2/2
f 66/2/2 76/2/2 78/2/2
f 78/2/2 76/2/2 79/2/2
f 77/2/2 73/2/2 80/2/2
f 80/2/2 73/2/2 81/2/2
f 80/1/2 81/1/2 82/1/2
f 82/1/2 81/1/2 83/1/2
f 82/2/2 83/2/2 84/2/2
f 84/2/2 83/2/2 87/2/2
f 87/2/2 83/2/2 88/2/2
f 85/2/2 86/2/2 89/2/2
f 86/2/2 87/2/2 89/2/2
f 89/2/2 87/2/2 90/2/2
f 91/3/2 92/3/2 93/3/2
f 93/3/2 92/3/2 94/3/2
f 95/2/2 96/2/2 97/2/2
f 97/2/2 96/2/2 98/2/2
f 95/2/2 97/2/2 99/2/2
f 97/1/2 98/1/2 99/1/2
f 99/1/2 98/1/2 100/1/2
f 95/2/2 99/2/2 101/2/2
f 99/2/2 100/2/2 101/2/2
f 101/2/2 100/2/2 102/2/2
f 101/1/2 102/1/2 103/1/2
f 103/1/2 102/1/2 104/1/2
f 103/2/2 104/2/2 106/2/2
f 106/2/2 104/2/2 107/2/2
f 105/2/2 106/2/2 107/2/2
f 107/2/2 104/2/2 108/2/2
f 105/2/2 107/2/2 109/2/2
f 107/1/2 108/1/2 110/1/2
f 109/2/2 107/2/2 110/2/2
f 110/1/2 108/1/2 111/1/2
f 120/2/3 113/2/3 112/2/3
f 121/1/3 114/1/3 113/1/3
f 121/2/3 113/2/3 120/2/3
f 122/1/3 114/1/3 121/1/3
f 124/1/3 119/1/3 118/1/3
f 124/2/3 118/2/3 117/2/3
f 125/2/3 123/2/3 122/2/3
f 125/1/3 119/1/3 124/1/3
f 125/2/3 120/2/3 119/2/3
f 125/2/3 121/2/3 120/2/3
f 125/2/3 122/2/3 121/2/3
f 126/3/3 116/3/3 115/3/3
f 127/3/3 116/3/3 126/3/3
f 128/2/3 124/2/3 117/2/3
f 128/2/3 125/2/3 124/2/3
f 129/2/3 123/2/3 125/2/3
f 129/2/3 125/2/3 128/2/3
f 130/2/3 123/2/3 129/2/3
f 131/2/3 123/2/3 130/2/3
f 132/2/3 130/2/3 129/2/3
f 133/2/3 130/2/3 132/2/3
f 143/3/3 135/3/3 134/3/3
f 144/3/3 135/3/3 143/3/3
f 145/2/3 137/2/3 136/2/3
f 146/1/3 138/1/3 137/1/3
f 146/2/3 137/2/3 145/2/3
f 147/2/3 139/2/3 138/2/3
f 147/1/3 138/1/3 146/1/3
f 148/1/3 140/1/3 139/1/3
f 148/2/3 139/2/3 147/2/3
f 149/2/3 141/2/3 140/2/3
f 149/1/3 140/1/3 148/1/3
f 150/2/3 141/2/3 149/2/3
f 151/3/3 143/3/3 142/3/3
f 152/3/3 143/3/3 151/3/3
f 153/3/3 145/3/3 144/3/3
f 154/3/3 145/3/3 153/3/3
f 158/3/3 153/3/3 152/3/3
f 159/3/3 153/3/3 158/3/3
f 160/2/3 155/2/3 154/2/3
f 161/1/3 156/1/3 155/1/3
f 161/2/3 155/2/3 160/2/3
f 162/2/3 157/2/3 156/2/3
f 162/1/3 156/1/3 161/1/3
f 163/2/3 157/2/3 162/2/3
f 164/3/4 165/3/4 171/3/4
f 171/3/4 165/3/4 172/3/4
f 166/2/4 167/2/4 173/2/4
f 167/1/4 168/1/4 174/1/4
f 173/2/4 167/2/4 174/2/4
f 168/2/4 169/2/4 175/2/4
f 174/1/4 168/1/4 175/1/4
f 175/2/4 169/2/4 176/2/4
f 176/2/4 169/2/4 177/2/4
f 177/2/4 169/2/4 178/2/4
f 170/3/4 171/3/4 180/3/4
f 180/3/4 171/3/4 181/3/4
f 172/3/4 173/3/4 182/3/4
f 182/3/4 173/3/4 183/3/4
f 178/2/4 179/2/4 191/2/4
f 191/2/4 179/2/4 192/2/4
f 181/3/4 182/3/4 193/3/4
f 193/3/4 182/3/4 194/3/4
f 183/2/4 184/2/4 195/2/4
f 184/1/4 185/1/4 196/1/4
f 195/2/4 184/2/4 196/2/4
f 185/2/4 186/2/4 197/2/4
f 196/1/4 185/1/4 197/1/4
f 186/1/4 187/1/4 198/1/4
f 197/2/4 186/2/4 198/2/4
f 189/2/4 190/2/4 199/2/4
f 198/1/4 187/1/4 199/1/4
f 187/2/4 188/2/4 199/2/4
f 188/2/4 189/2/4 199/2/4
f 190/1/4 191/1/4 200/1/4
f 199/2/4 190/2/4 200/2/4
f 200/1/4 191/1/4 201/1/4
f 204/2/4 205/2/4 208/2/4
f 208/2/4 205/2/4 209/2/4
f 202/3/4 203/3/4 210/3/4
f 210/3/4 203/3/4 211/3/4
f 204/2/4 208/2/4 212/2/4
f 208/1/4 209/1/4 213/1/4
f 212/2/4 208/2/4 213/2/4
f 209/2/4 205/2/4 214/2/4
f 213/1/4 209/1/4 214/1/4
f 205/1/4 206/1/4 215/1/4
f 214/2/4 205/2/4 215/2/4
f 206/2/4 207/2/4 216/2/4
f 215/1/4 206/1/4 216/1/4
f 216/2/4 207/2/4 217/2/4
f 220/3/5 219/3/5 218/3/5
f 221/3/5 219/3/5 220/3/5
f 225/3/5 223/3/5 222/3/5
f 226/3/5 223/3/5 225/3/5
f 228/3/5 225/3/5 224/3/5
f 229/3/5 225/3/5 228/3/5
f 230/3/5 227/3/5 226/3/5
f 231/3/5 227/3/5 230/3/5
f 232/3/5 230/3/5 229/3/5
f 233/3/5 230/3/5 232/3/5
f 237/2/5 235/2/5 234/2/5
f 238/2/5 235/2/5 237/2/5
f 240/2/5 237/2/5 236/2/5
f 241/2/5 237/2/5 240/2/5
f 242/2/5 239/2/5 238/2/5
f 243/2/5 239/2/5 242/2/5
f 244/2/5 242/2/5 241/2/5
f 245/2/5 242/2/5 244/2/5
f 250/2/5 247/2/5 246/2/5
f 251/2/5 247/2/5 250/2/5
f 252/2/5 249/2/5 248/2/5
f 253/2/5 249/2/5 252/2/5
f 254/3/6 255/3/6 257/3/6
f 257/3/6 255/3/6 258/3/6
f 256/3/6 257/3/6 260/3/6
f 260/3/6 257/3/6 261/3/6
f 258/3/6 259/3/6 262/3/6
f 262/3/6 259/3/6 263/3/6
f 261/3/6 262/3/6 264/3/6
f 264/3/6 262/3/6 265/3/6
f 266/1/6 267/1/6 270/1/6
f 270/1/6 267/1/6 271/1/6
f 268/2/6 269/2/6 272/2/6
f 272/2/6 269/2/6 273/2/6
f 270/2/6 271/2/6 274/2/6
f 274/2/6 271/2/6 275/2/6
f 272/1/6 273/1/6 276/1/6
f 276/1/6 273/1/6 277/1/6
f 275/2/6 276/2/6 278/2/6
f 278/2/6 276/2/6 279/2/6
f 280/2/6 281/2/6 282/2/6
f 282/2/6 281/2/6 283/2/6
