# MagicaVoxel @ Ephtracy

# group
o 

# material
mtllib head-0.mtl
usemtl palette

# normals
vn -1 0 0
vn 1 0 0
vn 0 0 1
vn 0 0 -1
vn 0 -1 0
vn 0 1 0

# texcoords
vt 0.888672 0.5
vt 0.919922 0.5
vt 0.947266 0.5
vt 0.951172 0.5
vt 0.982422 0.5

# verts
v -0.4 -0.4 0.1
v -0.4 -0.4 -0.1
v -0.4 -0.3 0.1
v -0.4 -0.3 -0.1
v -0.4 0.2 0.4
v -0.4 0.2 -0.4
v -0.4 0.3 0.4
v -0.4 0.3 -0.4
v -0.3 -0.8 0.3
v -0.3 -0.8 -0.3
v -0.3 -0.7 0.2
v -0.3 -0.7 -0.2
v -0.3 -0.6 0.2
v -0.3 -0.6 -0.2
v -0.3 -0.4 0.1
v -0.3 -0.4 -0.1
v -0.3 -0.3 0.3
v -0.3 -0.3 0.2
v -0.3 -0.3 0.1
v -0.3 -0.3 -0.1
v -0.3 -0.2 0.3
v -0.3 -0.2 0.2
v -0.3 -0.2 -0.2
v -0.3 -0.2 -0.3
v -0.3 -0.1 0.2
v -0.3 -0.1 0.1
v -0.3 -0.1 -0.1
v -0.3 -0.1 -0.2
v -0.3 -0.1 -0.3
v -0.3 0 0.5
v -0.3 0 0.4
v -0.3 0 0.2
v -0.3 0 0.1
v -0.3 0 -0.1
v -0.3 0 -0.2
v -0.3 0 -0.4
v -0.3 0 -0.5
v -0.3 0.1 0.3
v -0.3 0.1 -0.3
v -0.3 0.2 0.5
v -0.3 0.2 0.4
v -0.3 0.2 -0.4
v -0.3 0.2 -0.5
v -0.2 -0.8 0.4
v -0.2 -0.8 0.3
v -0.2 -0.8 -0.3
v -0.2 -0.8 -0.4
v -0.2 -0.6 -0.3
v -0.2 -0.6 -0.4
v -0.2 -0.5 -0.3
v -0.2 -0.5 -0.4
v -0.2 -0.3 0.4
v -0.2 -0.3 0.3
v -0.2 -0.2 0.4
v -0.2 -0.2 0.3
v -0.2 -0.2 -0.3
v -0.2 -0.2 -0.4
v -0.2 -0.1 -0.3
v -0.2 -0.1 -0.4
v -0.2 0 0.4
v -0.2 0 -0.4
v -0.2 0.1 0.3
v -0.2 0.1 0.1
v -0.2 0.1 -0.3
v -0.2 0.2 0.4
v -0.2 0.2 0.3
v -0.2 0.2 0.1
v -0.2 0.2 -0.4
v 0 -0.3 0.5
v 0 -0.3 0.4
v 0 -0.3 -0.4
v 0 -0.3 -0.5
v 0 -0.2 0.5
v 0 -0.2 0.4
v 0 -0.2 -0.4
v 0 -0.2 -0.5
v 0.1 -0.5 0.5
v 0.1 -0.5 0.4
v 0.1 -0.5 -0.4
v 0.1 -0.5 -0.5
v 0.1 -0.4 0.5
v 0.1 -0.4 0.4
v 0.1 -0.4 -0.4
v 0.1 -0.4 -0.5
v 0.1 -0.2 0.5
v 0.1 -0.2 0.4
v 0.1 -0.2 -0.4
v 0.1 -0.2 -0.5
v 0.1 -0.1 0.5
v 0.1 -0.1 0.4
v 0.1 -0.1 -0.4
v 0.1 -0.1 -0.5
v 0.2 -0.4 0.5
v 0.2 -0.4 0.4
v 0.2 -0.4 -0.4
v 0.2 -0.4 -0.5
v 0.2 -0.2 0.5
v 0.2 -0.2 0.4
v 0.2 -0.2 -0.4
v 0.2 -0.2 -0.5
v 0.3 -0.1 0.5
v 0.3 -0.1 0.4
v 0.3 -0.1 -0.4
v 0.3 -0.1 -0.5
v 0.3 0 0.5
v 0.3 0 0.4
v 0.3 0 -0.4
v 0.3 0 -0.5
v 0.4 -0.2 0.5
v 0.4 -0.2 0.4
v 0.4 -0.2 -0.4
v 0.4 -0.2 -0.5
v 0.4 -0.1 0.5
v 0.4 -0.1 0.4
v 0.4 -0.1 -0.4
v 0.4 -0.1 -0.5
v 0.1 -0.3 0.5
v 0.1 -0.3 0.4
v 0.1 -0.3 -0.4
v 0.1 -0.3 -0.5
v 0.1 -0.2 0.5
v 0.1 -0.2 0.4
v 0.1 -0.2 -0.4
v 0.1 -0.2 -0.5
v 0.2 -0.5 0.5
v 0.2 -0.5 0.4
v 0.2 -0.5 -0.4
v 0.2 -0.5 -0.5
v 0.2 -0.4 0.5
v 0.2 -0.4 0.4
v 0.2 -0.4 -0.4
v 0.2 -0.4 -0.5
v 0.2 -0.2 0.5
v 0.2 -0.2 0.4
v 0.2 -0.2 -0.4
v 0.2 -0.2 -0.5
v 0.2 -0.1 0.5
v 0.2 -0.1 0.4
v 0.2 -0.1 -0.4
v 0.2 -0.1 -0.5
v 0.3 -0.4 0.5
v 0.3 -0.4 0.4
v 0.3 -0.4 -0.4
v 0.3 -0.4 -0.5
v 0.3 -0.2 0.5
v 0.3 -0.2 0.4
v 0.3 -0.2 -0.4
v 0.3 -0.2 -0.5
v 0.5 -0.8 0.4
v 0.5 -0.8 -0.4
v 0.5 -0.7 0.2
v 0.5 -0.7 -0.2
v 0.5 -0.7 -0.3
v 0.5 -0.7 -0.4
v 0.5 -0.6 0.4
v 0.5 -0.6 0.3
v 0.5 -0.6 0.2
v 0.5 -0.6 -0.2
v 0.5 -0.6 -0.3
v 0.5 -0.6 -0.4
v 0.5 -0.5 0.4
v 0.5 -0.5 0.3
v 0.5 -0.4 0.4
v 0.5 -0.4 0.3
v 0.5 -0.4 -0.3
v 0.5 -0.4 -0.4
v 0.5 -0.2 0.5
v 0.5 -0.2 0.4
v 0.5 -0.2 -0.4
v 0.5 -0.2 -0.5
v 0.5 0.2 0.5
v 0.5 0.2 0.4
v 0.5 0.2 -0.4
v 0.5 0.2 -0.5
v 0.5 0.3 0.4
v 0.5 0.3 -0.4
v 0.6 -0.7 0.2
v 0.6 -0.7 -0.2
v 0.6 -0.6 0.3
v 0.6 -0.6 0.2
v 0.6 -0.6 -0.2
v 0.6 -0.6 -0.3
v 0.6 -0.4 0.4
v 0.6 -0.4 0.3
v 0.6 -0.4 -0.3
v 0.6 -0.4 -0.4
v 0.6 0.2 0.4
v 0.6 0.2 -0.4
v -0.3 0 0.5
v -0.3 0.2 0.5
v 0 -0.3 0.5
v 0 -0.2 0.5
v 0.1 -0.5 0.5
v 0.1 -0.4 0.5
v 0.1 -0.3 0.5
v 0.1 -0.2 0.5
v 0.1 -0.1 0.5
v 0.2 -0.5 0.5
v 0.2 -0.4 0.5
v 0.2 -0.2 0.5
v 0.2 -0.1 0.5
v 0.3 -0.4 0.5
v 0.3 -0.2 0.5
v 0.3 -0.1 0.5
v 0.3 0 0.5
v 0.4 -0.2 0.5
v 0.4 -0.1 0.5
v 0.5 -0.2 0.5
v 0.5 0.2 0.5
v -0.4 0.2 0.4
v -0.4 0.3 0.4
v -0.3 0.2 0.4
v -0.2 -0.8 0.4
v -0.2 -0.3 0.4
v -0.2 -0.2 0.4
v -0.2 0 0.4
v -0.1 -0.7 0.4
v -0.1 -0.6 0.4
v -0.1 -0.3 0.4
v -0.1 -0.2 0.4
v 0 -0.3 0.4
v 0 -0.2 0.4
v 0.1 -0.7 0.4
v 0.1 -0.6 0.4
v 0.1 -0.5 0.4
v 0.1 -0.4 0.4
v 0.1 -0.3 0.4
v 0.1 -0.2 0.4
v 0.1 -0.1 0.4
v 0.2 -0.5 0.4
v 0.2 -0.4 0.4
v 0.2 -0.2 0.4
v 0.2 -0.1 0.4
v 0.3 -0.6 0.4
v 0.3 -0.5 0.4
v 0.3 -0.4 0.4
v 0.3 -0.2 0.4
v 0.3 -0.1 0.4
v 0.3 0 0.4
v 0.4 -0.2 0.4
v 0.4 -0.1 0.4
v 0.5 -0.8 0.4
v 0.5 -0.6 0.4
v 0.5 -0.5 0.4
v 0.5 -0.4 0.4
v 0.5 -0.2 0.4
v 0.5 0.2 0.4
v 0.5 0.3 0.4
v 0.6 -0.4 0.4
v 0.6 0.2 0.4
v -0.3 -0.8 0.3
v -0.3 -0.3 0.3
v -0.3 -0.2 0.3
v -0.3 0.1 0.3
v -0.2 -0.8 0.3
v -0.2 -0.3 0.3
v -0.2 -0.2 0.3
v -0.2 0.1 0.3
v 0.5 -0.6 0.3
v 0.5 -0.5 0.3
v 0.5 -0.4 0.3
v 0.6 -0.6 0.3
v 0.6 -0.4 0.3
v 0.5 -0.7 0.2
v 0.5 -0.6 0.2
v 0.6 -0.7 0.2
v 0.6 -0.6 0.2
v -0.4 -0.4 0.1
v -0.4 -0.3 0.1
v -0.3 -0.4 0.1
v -0.3 -0.3 0.1
v -0.3 0 -0.4
v -0.3 0.2 -0.4
v -0.2 0 -0.4
v -0.2 0.2 -0.4
v -0.3 0 0.4
v -0.3 0.2 0.4
v -0.2 0 0.4
v -0.2 0.2 0.4
v -0.4 -0.4 -0.1
v -0.4 -0.3 -0.1
v -0.3 -0.4 -0.1
v -0.3 -0.3 -0.1
v 0.5 -0.7 -0.2
v 0.5 -0.6 -0.2
v 0.6 -0.7 -0.2
v 0.6 -0.6 -0.2
v -0.3 -0.8 -0.3
v -0.3 -0.2 -0.3
v -0.3 -0.1 -0.3
v -0.3 0.1 -0.3
v -0.2 -0.8 -0.3
v -0.2 -0.6 -0.3
v -0.2 -0.5 -0.3
v -0.2 -0.2 -0.3
v -0.2 -0.1 -0.3
v -0.2 0.1 -0.3
v 0.5 -0.6 -0.3
v 0.5 -0.4 -0.3
v 0.6 -0.6 -0.3
v 0.6 -0.4 -0.3
v -0.4 0.2 -0.4
v -0.4 0.3 -0.4
v -0.3 0.2 -0.4
v -0.2 -0.8 -0.4
v -0.2 -0.6 -0.4
v -0.2 -0.5 -0.4
v -0.2 -0.2 -0.4
v -0.2 -0.1 -0.4
v -0.2 0 -0.4
v -0.1 -0.2 -0.4
v -0.1 -0.1 -0.4
v 0 -0.6 -0.4
v 0 -0.5 -0.4
v 0 -0.3 -0.4
v 0 -0.2 -0.4
v 0.1 -0.5 -0.4
v 0.1 -0.4 -0.4
v 0.1 -0.3 -0.4
v 0.1 -0.2 -0.4
v 0.1 -0.1 -0.4
v 0.2 -0.5 -0.4
v 0.2 -0.4 -0.4
v 0.2 -0.2 -0.4
v 0.2 -0.1 -0.4
v 0.3 -0.7 -0.4
v 0.3 -0.6 -0.4
v 0.3 -0.4 -0.4
v 0.3 -0.2 -0.4
v 0.3 -0.1 -0.4
v 0.3 0 -0.4
v 0.4 -0.2 -0.4
v 0.4 -0.1 -0.4
v 0.5 -0.8 -0.4
v 0.5 -0.7 -0.4
v 0.5 -0.6 -0.4
v 0.5 -0.4 -0.4
v 0.5 -0.2 -0.4
v 0.5 0.2 -0.4
v 0.5 0.3 -0.4
v 0.6 -0.4 -0.4
v 0.6 0.2 -0.4
v -0.3 0 -0.5
v -0.3 0.2 -0.5
v 0 -0.3 -0.5
v 0 -0.2 -0.5
v 0.1 -0.5 -0.5
v 0.1 -0.4 -0.5
v 0.1 -0.3 -0.5
v 0.1 -0.2 -0.5
v 0.1 -0.1 -0.5
v 0.2 -0.5 -0.5
v 0.2 -0.4 -0.5
v 0.2 -0.2 -0.5
v 0.2 -0.1 -0.5
v 0.3 -0.4 -0.5
v 0.3 -0.2 -0.5
v 0.3 -0.1 -0.5
v 0.3 0 -0.5
v 0.4 -0.2 -0.5
v 0.4 -0.1 -0.5
v 0.5 -0.2 -0.5
v 0.5 0.2 -0.5
v -0.2 -0.8 0.4
v 0.5 -0.8 0.4
v -0.3 -0.8 0.3
v -0.2 -0.8 0.3
v -0.3 -0.8 -0.3
v -0.2 -0.8 -0.3
v -0.2 -0.8 -0.4
v 0.5 -0.8 -0.4
v 0.5 -0.7 0.2
v 0.6 -0.7 0.2
v 0.5 -0.7 -0.2
v 0.6 -0.7 -0.2
v 0.5 -0.6 0.3
v 0.6 -0.6 0.3
v 0.5 -0.6 0.2
v 0.6 -0.6 0.2
v 0.5 -0.6 -0.2
v 0.6 -0.6 -0.2
v 0.5 -0.6 -0.3
v 0.6 -0.6 -0.3
v 0.1 -0.5 0.5
v 0.2 -0.5 0.5
v 0.1 -0.5 0.4
v 0.2 -0.5 0.4
v 0.1 -0.5 -0.4
v 0.2 -0.5 -0.4
v 0.1 -0.5 -0.5
v 0.2 -0.5 -0.5
v 0.2 -0.4 0.5
v 0.3 -0.4 0.5
v 0.2 -0.4 0.4
v 0.3 -0.4 0.4
v 0.5 -0.4 0.4
v 0.6 -0.4 0.4
v 0.5 -0.4 0.3
v 0.6 -0.4 0.3
v -0.4 -0.4 0.1
v -0.3 -0.4 0.1
v -0.4 -0.4 -0.1
v -0.3 -0.4 -0.1
v 0.5 -0.4 -0.3
v 0.6 -0.4 -0.3
v 0.2 -0.4 -0.4
v 0.3 -0.4 -0.4
v 0.5 -0.4 -0.4
v 0.6 -0.4 -0.4
v 0.2 -0.4 -0.5
v 0.3 -0.4 -0.5
v 0 -0.3 0.5
v 0.1 -0.3 0.5
v 0 -0.3 0.4
v 0.1 -0.3 0.4
v 0 -0.3 -0.4
v 0.1 -0.3 -0.4
v 0 -0.3 -0.5
v 0.1 -0.3 -0.5
v 0.1 -0.2 0.5
v 0.2 -0.2 0.5
v 0.4 -0.2 0.5
v 0.5 -0.2 0.5
v 0.1 -0.2 0.4
v 0.2 -0.2 0.4
v 0.4 -0.2 0.4
v 0.5 -0.2 0.4
v 0.1 -0.2 -0.4
v 0.2 -0.2 -0.4
v 0.4 -0.2 -0.4
v 0.5 -0.2 -0.4
v 0.1 -0.2 -0.5
v 0.2 -0.2 -0.5
v 0.4 -0.2 -0.5
v 0.5 -0.2 -0.5
v 0.3 -0.1 0.5
v 0.4 -0.1 0.5
v 0.3 -0.1 0.4
v 0.4 -0.1 0.4
v 0.3 -0.1 -0.4
v 0.4 -0.1 -0.4
v 0.3 -0.1 -0.5
v 0.4 -0.1 -0.5
v -0.3 0 0.5
v 0.3 0 0.5
v -0.3 0 0.4
v -0.2 0 0.4
v 0.3 0 0.4
v -0.3 0 -0.4
v -0.2 0 -0.4
v 0.3 0 -0.4
v -0.3 0 -0.5
v 0.3 0 -0.5
v -0.4 0.2 0.4
v -0.3 0.2 0.4
v -0.2 0.2 0.4
v -0.2 0.2 0.3
v -0.2 0.2 0.1
v -0.4 0.2 -0.4
v -0.3 0.2 -0.4
v -0.2 0.2 -0.4
v 0.1 -0.4 0.5
v 0.2 -0.4 0.5
v 0.1 -0.4 0.4
v 0.2 -0.4 0.4
v 0.1 -0.4 -0.4
v 0.2 -0.4 -0.4
v 0.1 -0.4 -0.5
v 0.2 -0.4 -0.5
v -0.4 -0.3 0.1
v -0.3 -0.3 0.1
v -0.4 -0.3 -0.1
v -0.3 -0.3 -0.1
v 0 -0.2 0.5
v 0.1 -0.2 0.5
v 0.2 -0.2 0.5
v 0.3 -0.2 0.5
v 0 -0.2 0.4
v 0.1 -0.2 0.4
v 0.2 -0.2 0.4
v 0.3 -0.2 0.4
v 0 -0.2 -0.4
v 0.1 -0.2 -0.4
v 0.2 -0.2 -0.4
v 0.3 -0.2 -0.4
v 0 -0.2 -0.5
v 0.1 -0.2 -0.5
v 0.2 -0.2 -0.5
v 0.3 -0.2 -0.5
v 0.1 -0.1 0.5
v 0.2 -0.1 0.5
v 0.1 -0.1 0.4
v 0.2 -0.1 0.4
v 0.1 -0.1 -0.4
v 0.2 -0.1 -0.4
v 0.1 -0.1 -0.5
v 0.2 -0.1 -0.5
v -0.3 0.1 0.3
v -0.2 0.1 0.3
v -0.2 0.1 0.1
v -0.3 0.1 -0.3
v -0.2 0.1 -0.3
v -0.3 0.2 0.5
v 0.5 0.2 0.5
v -0.3 0.2 0.4
v 0.5 0.2 0.4
v 0.6 0.2 0.4
v -0.3 0.2 -0.4
v 0.5 0.2 -0.4
v 0.6 0.2 -0.4
v -0.3 0.2 -0.5
v 0.5 0.2 -0.5
v -0.4 0.3 0.4
v 0.5 0.3 0.4
v -0.4 0.3 -0.4
v 0.5 0.3 -0.4

# faces
f 3/5/1 2/5/1 1/5/1
f 4/5/1 2/5/1 3/5/1
f 7/2/1 6/2/1 5/2/1
f 8/2/1 6/2/1 7/2/1
f 11/5/1 10/5/1 9/5/1
f 12/5/1 10/5/1 11/5/1
f 13/5/1 11/5/1 9/5/1
f 13/3/1 12/3/1 11/3/1
f 14/5/1 10/5/1 12/5/1
f 14/3/1 12/3/1 13/3/1
f 15/5/1 14/5/1 13/5/1
f 16/5/1 14/5/1 15/5/1
f 17/5/1 13/5/1 9/5/1
f 17/5/1 15/5/1 13/5/1
f 18/5/1 15/5/1 17/5/1
f 19/5/1 15/5/1 18/5/1
f 20/5/1 14/5/1 16/5/1
f 21/1/1 18/1/1 17/1/1
f 22/5/1 19/5/1 18/5/1
f 22/1/1 18/1/1 21/1/1
f 22/5/1 20/5/1 19/5/1
f 23/5/1 10/5/1 14/5/1
f 23/5/1 20/5/1 22/5/1
f 23/5/1 14/5/1 20/5/1
f 24/5/1 10/5/1 23/5/1
f 25/5/1 22/5/1 21/5/1
f 25/5/1 23/5/1 22/5/1
f 26/5/1 23/5/1 25/5/1
f 27/5/1 23/5/1 26/5/1
f 28/1/1 24/1/1 23/1/1
f 28/5/1 23/5/1 27/5/1
f 29/1/1 24/1/1 28/1/1
f 32/5/1 25/5/1 21/5/1
f 32/4/1 26/4/1 25/4/1
f 33/5/1 27/5/1 26/5/1
f 33/4/1 26/4/1 32/4/1
f 34/4/1 28/4/1 27/4/1
f 34/5/1 27/5/1 33/5/1
f 35/5/1 29/5/1 28/5/1
f 35/4/1 28/4/1 34/4/1
f 38/5/1 32/5/1 21/5/1
f 38/5/1 35/5/1 34/5/1
f 38/5/1 34/5/1 33/5/1
f 38/5/1 33/5/1 32/5/1
f 39/5/1 29/5/1 35/5/1
f 39/5/1 35/5/1 38/5/1
f 40/2/1 31/2/1 30/2/1
f 41/2/1 31/2/1 40/2/1
f 42/2/1 37/2/1 36/2/1
f 43/2/1 37/2/1 42/2/1
f 48/5/1 47/5/1 46/5/1
f 49/5/1 47/5/1 48/5/1
f 50/1/1 49/1/1 48/1/1
f 51/1/1 49/1/1 50/1/1
f 52/5/1 45/5/1 44/5/1
f 53/5/1 45/5/1 52/5/1
f 54/1/1 53/1/1 52/1/1
f 55/1/1 53/1/1 54/1/1
f 56/5/1 51/5/1 50/5/1
f 57/5/1 51/5/1 56/5/1
f 58/1/1 57/1/1 56/1/1
f 59/1/1 57/1/1 58/1/1
f 60/5/1 55/5/1 54/5/1
f 61/5/1 59/5/1 58/5/1
f 62/5/1 55/5/1 60/5/1
f 64/5/1 61/5/1 58/5/1
f 65/5/1 62/5/1 60/5/1
f 66/1/1 63/1/1 62/1/1
f 66/5/1 62/5/1 65/5/1
f 67/5/1 64/5/1 63/5/1
f 67/1/1 63/1/1 66/1/1
f 68/5/1 61/5/1 64/5/1
f 68/5/1 64/5/1 67/5/1
f 73/5/1 70/5/1 69/5/1
f 74/5/1 70/5/1 73/5/1
f 75/5/1 72/5/1 71/5/1
f 76/5/1 72/5/1 75/5/1
f 81/5/1 78/5/1 77/5/1
f 82/5/1 78/5/1 81/5/1
f 83/5/1 80/5/1 79/5/1
f 84/5/1 80/5/1 83/5/1
f 89/5/1 86/5/1 85/5/1
f 90/5/1 86/5/1 89/5/1
f 91/5/1 88/5/1 87/5/1
f 92/5/1 88/5/1 91/5/1
f 97/5/1 94/5/1 93/5/1
f 98/5/1 94/5/1 97/5/1
f 99/5/1 96/5/1 95/5/1
f 100/5/1 96/5/1 99/5/1
f 105/2/1 102/2/1 101/2/1
f 106/2/1 102/2/1 105/2/1
f 107/2/1 104/2/1 103/2/1
f 108/2/1 104/2/1 107/2/1
f 113/2/1 110/2/1 109/2/1
f 114/2/1 110/2/1 113/2/1
f 115/2/1 112/2/1 111/2/1
f 116/2/1 112/2/1 115/2/1
f 117/5/2 118/5/2 121/5/2
f 121/5/2 118/5/2 122/5/2
f 119/5/2 120/5/2 123/5/2
f 123/5/2 120/5/2 124/5/2
f 125/5/2 126/5/2 129/5/2
f 129/5/2 126/5/2 130/5/2
f 127/5/2 128/5/2 131/5/2
f 131/5/2 128/5/2 132/5/2
f 133/5/2 134/5/2 137/5/2
f 137/5/2 134/5/2 138/5/2
f 135/5/2 136/5/2 139/5/2
f 139/5/2 136/5/2 140/5/2
f 141/5/2 142/5/2 145/5/2
f 145/5/2 142/5/2 146/5/2
f 143/5/2 144/5/2 147/5/2
f 147/5/2 144/5/2 148/5/2
f 149/5/2 150/5/2 151/5/2
f 151/5/2 150/5/2 152/5/2
f 152/5/2 150/5/2 153/5/2
f 153/5/2 150/5/2 154/5/2
f 149/5/2 151/5/2 155/5/2
f 155/5/2 151/5/2 156/5/2
f 156/5/2 151/5/2 157/5/2
f 152/5/2 153/5/2 158/5/2
f 153/1/2 154/1/2 159/1/2
f 158/5/2 153/5/2 159/5/2
f 159/1/2 154/1/2 160/1/2
f 155/1/2 156/1/2 161/1/2
f 161/1/2 156/1/2 162/1/2
f 161/5/2 162/5/2 163/5/2
f 163/5/2 162/5/2 164/5/2
f 159/5/2 160/5/2 165/5/2
f 165/5/2 160/5/2 166/5/2
f 167/2/2 168/2/2 171/2/2
f 171/2/2 168/2/2 172/2/2
f 169/2/2 170/2/2 173/2/2
f 173/2/2 170/2/2 174/2/2
f 172/2/2 173/2/2 175/2/2
f 175/2/2 173/2/2 176/2/2
f 177/2/2 178/2/2 180/2/2
f 180/2/2 178/2/2 181/2/2
f 179/2/2 180/2/2 184/2/2
f 181/2/2 182/2/2 184/2/2
f 180/2/2 181/2/2 184/2/2
f 184/2/2 182/2/2 185/2/2
f 183/2/2 184/2/2 187/2/2
f 185/2/2 186/2/2 187/2/2
f 184/2/2 185/2/2 187/2/2
f 187/2/2 186/2/2 188/2/2
f 195/5/3 192/5/3 191/5/3
f 196/5/3 192/5/3 195/5/3
f 198/5/3 194/5/3 193/5/3
f 199/5/3 194/5/3 198/5/3
f 200/5/3 197/5/3 196/5/3
f 201/5/3 197/5/3 200/5/3
f 202/5/3 200/5/3 199/5/3
f 203/5/3 200/5/3 202/5/3
f 205/2/3 190/2/3 189/2/3
f 207/2/3 205/2/3 204/2/3
f 208/2/3 207/2/3 206/2/3
f 209/2/3 190/2/3 205/2/3
f 209/2/3 207/2/3 208/2/3
f 209/2/3 205/2/3 207/2/3
f 212/2/3 211/2/3 210/2/3
f 217/5/3 214/5/3 213/5/3
f 218/5/3 214/5/3 217/5/3
f 219/1/3 215/1/3 214/1/3
f 219/5/3 214/5/3 218/5/3
f 220/5/3 216/5/3 215/5/3
f 220/1/3 215/1/3 219/1/3
f 221/5/3 219/5/3 218/5/3
f 221/5/3 220/5/3 219/5/3
f 222/5/3 216/5/3 220/5/3
f 222/5/3 220/5/3 221/5/3
f 223/1/3 218/1/3 217/1/3
f 223/5/3 217/5/3 213/5/3
f 224/5/3 221/5/3 218/5/3
f 224/1/3 218/1/3 223/1/3
f 225/5/3 221/5/3 224/5/3
f 226/5/3 221/5/3 225/5/3
f 227/5/3 221/5/3 226/5/3
f 228/5/3 216/5/3 222/5/3
f 229/5/3 216/5/3 228/5/3
f 230/5/3 224/5/3 223/5/3
f 230/5/3 225/5/3 224/5/3
f 231/1/3 227/1/3 226/1/3
f 231/1/3 228/1/3 227/1/3
f 232/1/3 228/1/3 231/1/3
f 233/5/3 216/5/3 229/5/3
f 234/5/3 230/5/3 223/5/3
f 234/5/3 231/5/3 230/5/3
f 235/5/3 231/5/3 234/5/3
f 236/5/3 231/5/3 235/5/3
f 237/5/3 233/5/3 232/5/3
f 238/5/3 216/5/3 233/5/3
f 238/5/3 233/5/3 237/5/3
f 239/5/3 216/5/3 238/5/3
f 240/5/3 236/5/3 235/5/3
f 240/5/3 237/5/3 236/5/3
f 240/5/3 238/5/3 237/5/3
f 241/5/3 238/5/3 240/5/3
f 242/5/3 223/5/3 213/5/3
f 242/5/3 234/5/3 223/5/3
f 243/1/3 235/1/3 234/1/3
f 243/5/3 234/5/3 242/5/3
f 244/5/3 240/5/3 235/5/3
f 244/1/3 235/1/3 243/1/3
f 245/5/3 240/5/3 244/5/3
f 246/5/3 240/5/3 245/5/3
f 247/2/3 211/2/3 212/2/3
f 248/2/3 211/2/3 247/2/3
f 249/2/3 246/2/3 245/2/3
f 249/2/3 247/2/3 246/2/3
f 250/2/3 247/2/3 249/2/3
f 255/5/3 252/5/3 251/5/3
f 256/1/3 253/1/3 252/1/3
f 256/5/3 252/5/3 255/5/3
f 257/5/3 254/5/3 253/5/3
f 257/1/3 253/1/3 256/1/3
f 258/5/3 254/5/3 257/5/3
f 262/2/3 260/2/3 259/2/3
f 262/2/3 261/2/3 260/2/3
f 263/2/3 261/2/3 262/2/3
f 266/2/3 265/2/3 264/2/3
f 267/2/3 265/2/3 266/2/3
f 270/5/3 269/5/3 268/5/3
f 271/5/3 269/5/3 270/5/3
f 274/2/3 273/2/3 272/2/3
f 275/2/3 273/2/3 274/2/3
f 276/2/4 277/2/4 278/2/4
f 278/2/4 277/2/4 279/2/4
f 280/5/4 281/5/4 282/5/4
f 282/5/4 281/5/4 283/5/4
f 284/2/4 285/2/4 286/2/4
f 286/2/4 285/2/4 287/2/4
f 288/5/4 289/5/4 292/5/4
f 292/5/4 289/5/4 293/5/4
f 293/5/4 289/5/4 294/5/4
f 289/1/4 290/1/4 295/1/4
f 294/5/4 289/5/4 295/5/4
f 290/5/4 291/5/4 296/5/4
f 295/1/4 290/1/4 296/1/4
f 296/5/4 291/5/4 297/5/4
f 298/2/4 299/2/4 300/2/4
f 300/2/4 299/2/4 301/2/4
f 302/2/4 303/2/4 304/2/4
f 307/5/4 308/5/4 311/5/4
f 308/1/4 309/1/4 311/1/4
f 309/5/4 310/5/4 312/5/4
f 311/1/4 309/1/4 312/1/4
f 305/5/4 306/5/4 313/5/4
f 306/1/4 307/1/4 313/1/4
f 311/5/4 312/5/4 314/5/4
f 313/1/4 307/1/4 314/1/4
f 307/5/4 311/5/4 314/5/4
f 314/5/4 312/5/4 315/5/4
f 315/5/4 312/5/4 316/5/4
f 313/5/4 314/5/4 317/5/4
f 314/5/4 315/5/4 317/5/4
f 317/5/4 315/5/4 318/5/4
f 318/5/4 315/5/4 319/5/4
f 316/5/4 312/5/4 320/5/4
f 312/5/4 310/5/4 321/5/4
f 320/5/4 312/5/4 321/5/4
f 313/5/4 317/5/4 322/5/4
f 319/1/4 320/1/4 323/1/4
f 318/1/4 319/1/4 323/1/4
f 323/1/4 320/1/4 324/1/4
f 321/5/4 310/5/4 325/5/4
f 313/5/4 322/5/4 326/5/4
f 305/5/4 313/5/4 326/5/4
f 322/5/4 323/5/4 326/5/4
f 326/5/4 323/5/4 327/5/4
f 327/5/4 323/5/4 328/5/4
f 324/5/4 325/5/4 329/5/4
f 325/5/4 310/5/4 330/5/4
f 329/5/4 325/5/4 330/5/4
f 330/5/4 310/5/4 331/5/4
f 327/5/4 328/5/4 332/5/4
f 328/5/4 329/5/4 332/5/4
f 329/5/4 330/5/4 332/5/4
f 332/5/4 330/5/4 333/5/4
f 305/5/4 326/5/4 334/5/4
f 326/1/4 327/1/4 335/1/4
f 334/5/4 326/5/4 335/5/4
f 327/5/4 332/5/4 336/5/4
f 335/1/4 327/1/4 336/1/4
f 336/5/4 332/5/4 337/5/4
f 337/5/4 332/5/4 338/5/4
f 304/2/4 303/2/4 339/2/4
f 339/2/4 303/2/4 340/2/4
f 337/2/4 338/2/4 341/2/4
f 338/2/4 339/2/4 341/2/4
f 341/2/4 339/2/4 342/2/4
f 345/5/4 346/5/4 349/5/4
f 349/5/4 346/5/4 350/5/4
f 347/5/4 348/5/4 352/5/4
f 352/5/4 348/5/4 353/5/4
f 350/5/4 351/5/4 354/5/4
f 354/5/4 351/5/4 355/5/4
f 353/5/4 354/5/4 356/5/4
f 356/5/4 354/5/4 357/5/4
f 343/2/4 344/2/4 359/2/4
f 358/2/4 359/2/4 361/2/4
f 360/2/4 361/2/4 362/2/4
f 359/2/4 344/2/4 363/2/4
f 362/2/4 361/2/4 363/2/4
f 361/2/4 359/2/4 363/2/4
f 367/5/5 365/5/5 364/5/5
f 368/5/5 367/5/5 366/5/5
f 369/5/5 365/5/5 367/5/5
f 369/5/5 367/5/5 368/5/5
f 370/5/5 365/5/5 369/5/5
f 371/5/5 365/5/5 370/5/5
f 374/2/5 373/2/5 372/2/5
f 375/2/5 373/2/5 374/2/5
f 378/2/5 377/2/5 376/2/5
f 379/2/5 377/2/5 378/2/5
f 382/2/5 381/2/5 380/2/5
f 383/2/5 381/2/5 382/2/5
f 386/5/5 385/5/5 384/5/5
f 387/5/5 385/5/5 386/5/5
f 390/5/5 389/5/5 388/5/5
f 391/5/5 389/5/5 390/5/5
f 394/5/5 393/5/5 392/5/5
f 395/5/5 393/5/5 394/5/5
f 398/2/5 397/2/5 396/2/5
f 399/2/5 397/2/5 398/2/5
f 402/5/5 401/5/5 400/5/5
f 403/5/5 401/5/5 402/5/5
f 408/2/5 405/2/5 404/2/5
f 409/2/5 405/2/5 408/2/5
f 410/5/5 407/5/5 406/5/5
f 411/5/5 407/5/5 410/5/5
f 414/5/5 413/5/5 412/5/5
f 415/5/5 413/5/5 414/5/5
f 418/5/5 417/5/5 416/5/5
f 419/5/5 417/5/5 418/5/5
f 424/5/5 421/5/5 420/5/5
f 425/5/5 421/5/5 424/5/5
f 426/2/5 423/2/5 422/2/5
f 427/2/5 423/2/5 426/2/5
f 432/5/5 429/5/5 428/5/5
f 433/5/5 429/5/5 432/5/5
f 434/2/5 431/2/5 430/2/5
f 435/2/5 431/2/5 434/2/5
f 438/2/5 437/2/5 436/2/5
f 439/2/5 437/2/5 438/2/5
f 442/2/5 441/2/5 440/2/5
f 443/2/5 441/2/5 442/2/5
f 446/2/5 445/2/5 444/2/5
f 447/2/5 445/2/5 446/2/5
f 448/2/5 445/2/5 447/2/5
f 452/2/5 450/2/5 449/2/5
f 452/2/5 451/2/5 450/2/5
f 453/2/5 451/2/5 452/2/5
f 457/2/5 455/2/5 454/2/5
f 457/2/5 456/2/5 455/2/5
f 458/2/5 457/2/5 454/2/5
f 459/2/5 458/2/5 454/2/5
f 460/2/5 458/2/5 459/2/5
f 461/2/5 458/2/5 460/2/5
f 462/5/6 463/5/6 464/5/6
f 464/5/6 463/5/6 465/5/6
f 466/5/6 467/5/6 468/5/6
f 468/5/6 467/5/6 469/5/6
f 470/5/6 471/5/6 472/5/6
f 472/5/6 471/5/6 473/5/6
f 474/5/6 475/5/6 478/5/6
f 478/5/6 475/5/6 479/5/6
f 476/5/6 477/5/6 480/5/6
f 480/5/6 477/5/6 481/5/6
f 482/5/6 483/5/6 486/5/6
f 486/5/6 483/5/6 487/5/6
f 484/5/6 485/5/6 488/5/6
f 488/5/6 485/5/6 489/5/6
f 490/5/6 491/5/6 492/5/6
f 492/5/6 491/5/6 493/5/6
f 494/5/6 495/5/6 496/5/6
f 496/5/6 495/5/6 497/5/6
f 498/5/6 499/5/6 500/5/6
f 498/5/6 500/5/6 501/5/6
f 501/5/6 500/5/6 502/5/6
f 503/2/6 504/2/6 505/2/6
f 505/2/6 504/2/6 506/2/6
f 506/2/6 507/2/6 509/2/6
f 509/2/6 507/2/6 510/2/6
f 508/2/6 509/2/6 511/2/6
f 511/2/6 509/2/6 512/2/6
f 513/2/6 514/2/6 515/2/6
f 515/2/6 514/2/6 516/2/6
