# MagicaVoxel @ Ephtracy

# group
o 

# material
mtllib head_female-0.mtl
usemtl palette

# normals
vn -1 0 0
vn 1 0 0
vn 0 0 1
vn 0 0 -1
vn 0 -1 0
vn 0 1 0

# texcoords
vt 0.888672 0.5
vt 0.919922 0.5
vt 0.947266 0.5
vt 0.951172 0.5
vt 0.982422 0.5

# verts
v -0.4 -0.4 0.1
v -0.4 -0.4 -0.1
v -0.4 -0.3 0.1
v -0.4 -0.3 -0.1
v -0.3 -0.7 0.3
v -0.3 -0.7 -0.3
v -0.3 -0.6 0.2
v -0.3 -0.6 -0.2
v -0.3 -0.5 0.3
v -0.3 -0.5 0.2
v -0.3 -0.5 -0.2
v -0.3 -0.4 0.3
v -0.3 -0.4 0.2
v -0.3 -0.4 0.1
v -0.3 -0.4 -0.1
v -0.3 -0.3 0.1
v -0.3 -0.3 -0.1
v -0.3 -0.3 -0.2
v -0.3 -0.3 -0.3
v -0.3 -0.2 -0.2
v -0.3 -0.2 -0.3
v -0.3 -0.1 0.2
v -0.3 -0.1 0.1
v -0.3 -0.1 -0.1
v -0.3 -0.1 -0.2
v -0.3 0 0.3
v -0.3 0 0.2
v -0.3 0 0.1
v -0.3 0 -0.1
v -0.3 0 -0.2
v -0.3 0.1 0.3
v -0.3 0.1 0.2
v -0.3 0.1 -0.3
v -0.2 -0.8 0.3
v -0.2 -0.8 0.2
v -0.2 -0.8 0
v -0.2 -0.8 -0.2
v -0.2 -0.8 -0.3
v -0.2 -0.7 0.5
v -0.2 -0.7 0.4
v -0.2 -0.7 0.3
v -0.2 -0.7 0.2
v -0.2 -0.7 0
v -0.2 -0.7 -0.2
v -0.2 -0.7 -0.3
v -0.2 -0.7 -0.4
v -0.2 -0.7 -0.5
v -0.2 -0.5 0.4
v -0.2 -0.5 0.3
v -0.2 -0.4 0.4
v -0.2 -0.4 0.3
v -0.2 -0.3 -0.3
v -0.2 -0.3 -0.4
v -0.2 -0.2 -0.3
v -0.2 -0.2 -0.4
v -0.2 0 0.4
v -0.2 0 0.3
v -0.2 0.1 0.4
v -0.2 0.1 0.3
v -0.2 0.1 0.2
v -0.2 0.1 -0.3
v -0.2 0.1 -0.4
v -0.2 0.2 0.5
v -0.2 0.2 0.4
v -0.2 0.2 0.3
v -0.2 0.2 -0.3
v -0.2 0.2 -0.4
v -0.2 0.2 -0.5
v -0.2 0.3 0.4
v -0.2 0.3 -0.4
v -0.1 -0.8 0.5
v -0.1 -0.8 0.4
v -0.1 -0.8 -0.4
v -0.1 -0.8 -0.5
v -0.1 -0.7 0.5
v -0.1 -0.7 0.4
v -0.1 -0.7 -0.4
v -0.1 -0.7 -0.5
v -0.1 0.1 0.4
v -0.1 0.1 0.3
v -0.1 0.1 -0.3
v -0.1 0.1 -0.4
v -0.1 0.2 0.4
v -0.1 0.2 0.3
v -0.1 0.2 -0.3
v -0.1 0.2 -0.4
v 0.5 -0.8 0.4
v 0.5 -0.8 -0.4
v 0.5 -0.7 0.4
v 0.5 -0.7 -0.4
v 0.4 -0.8 0.3
v 0.4 -0.8 -0.3
v 0.4 -0.7 0.3
v 0.4 -0.7 -0.3
v 0.5 0.2 0.4
v 0.5 0.2 -0.4
v 0.5 0.3 0.4
v 0.5 0.3 -0.4
v 0.6 -0.8 0.5
v 0.6 -0.8 -0.5
v 0.6 0.2 0.5
v 0.6 0.2 -0.5
v -0.2 -0.7 0.5
v -0.2 0.2 0.5
v -0.1 -0.8 0.5
v -0.1 -0.7 0.5
v 0.6 -0.8 0.5
v 0.6 0.2 0.5
v -0.2 0.2 0.4
v -0.2 0.3 0.4
v 0.5 0.2 0.4
v 0.5 0.3 0.4
v -0.3 -0.7 0.3
v -0.3 -0.5 0.3
v -0.3 -0.4 0.3
v -0.3 0 0.3
v -0.3 0.1 0.3
v -0.2 -0.8 0.3
v -0.2 -0.7 0.3
v -0.2 -0.5 0.3
v -0.2 -0.4 0.3
v -0.2 0 0.3
v -0.2 0.1 0.3
v -0.2 0.2 0.3
v -0.1 0.1 0.3
v -0.1 0.2 0.3
v 0.4 -0.8 0.3
v 0.4 -0.7 0.3
v -0.4 -0.4 0.1
v -0.4 -0.3 0.1
v -0.3 -0.4 0.1
v -0.3 -0.3 0.1
v -0.2 0.1 -0.4
v -0.2 0.2 -0.4
v -0.1 -0.8 -0.4
v -0.1 -0.7 -0.4
v -0.1 0.1 -0.4
v -0.1 0.2 -0.4
v 0.5 -0.8 -0.4
v 0.5 -0.7 -0.4
v -0.2 0.1 0.4
v -0.2 0.2 0.4
v -0.1 -0.8 0.4
v -0.1 -0.7 0.4
v -0.1 0.1 0.4
v -0.1 0.2 0.4
v 0.5 -0.8 0.4
v 0.5 -0.7 0.4
v -0.4 -0.4 -0.1
v -0.4 -0.3 -0.1
v -0.3 -0.4 -0.1
v -0.3 -0.3 -0.1
v -0.3 -0.7 -0.3
v -0.3 -0.3 -0.3
v -0.3 -0.2 -0.3
v -0.3 0.1 -0.3
v -0.2 -0.8 -0.3
v -0.2 -0.7 -0.3
v -0.2 -0.3 -0.3
v -0.2 -0.2 -0.3
v -0.2 0.1 -0.3
v -0.2 0.2 -0.3
v -0.1 0.1 -0.3
v -0.1 0.2 -0.3
v 0 -0.8 -0.3
v 0 -0.7 -0.3
v 0.4 -0.8 -0.3
v 0.4 -0.7 -0.3
v -0.2 0.2 -0.4
v -0.2 0.3 -0.4
v 0.5 0.2 -0.4
v 0.5 0.3 -0.4
v -0.2 -0.7 -0.5
v -0.2 0.2 -0.5
v -0.1 -0.8 -0.5
v -0.1 -0.7 -0.5
v 0.6 -0.8 -0.5
v 0.6 0.2 -0.5
v -0.1 -0.8 0.5
v 0.6 -0.8 0.5
v -0.1 -0.8 0.4
v 0.5 -0.8 0.4
v -0.2 -0.8 0.3
v 0.4 -0.8 0.3
v -0.2 -0.8 0.2
v -0.1 -0.8 0.2
v -0.2 -0.8 0
v -0.1 -0.8 0
v -0.2 -0.8 -0.2
v 0 -0.8 -0.2
v -0.2 -0.8 -0.3
v 0 -0.8 -0.3
v 0.4 -0.8 -0.3
v -0.1 -0.8 -0.4
v 0.5 -0.8 -0.4
v -0.1 -0.8 -0.5
v 0.6 -0.8 -0.5
v -0.2 -0.7 0.5
v -0.1 -0.7 0.5
v -0.2 -0.7 0.4
v -0.1 -0.7 0.4
v 0.5 -0.7 0.4
v -0.3 -0.7 0.3
v -0.2 -0.7 0.3
v 0.4 -0.7 0.3
v -0.2 -0.7 0.2
v -0.2 -0.7 0
v -0.2 -0.7 -0.2
v -0.3 -0.7 -0.3
v -0.2 -0.7 -0.3
v 0 -0.7 -0.3
v 0.4 -0.7 -0.3
v -0.2 -0.7 -0.4
v -0.1 -0.7 -0.4
v 0.5 -0.7 -0.4
v -0.2 -0.7 -0.5
v -0.1 -0.7 -0.5
v -0.4 -0.4 0.1
v -0.3 -0.4 0.1
v -0.4 -0.4 -0.1
v -0.3 -0.4 -0.1
v -0.2 0.2 0.4
v -0.1 0.2 0.4
v -0.2 0.2 0.3
v -0.1 0.2 0.3
v -0.2 0.2 -0.3
v -0.1 0.2 -0.3
v -0.2 0.2 -0.4
v -0.1 0.2 -0.4
v -0.4 -0.3 0.1
v -0.3 -0.3 0.1
v -0.4 -0.3 -0.1
v -0.3 -0.3 -0.1
v -0.2 0.1 0.4
v -0.1 0.1 0.4
v -0.3 0.1 0.3
v -0.2 0.1 0.3
v -0.1 0.1 0.3
v -0.3 0.1 0.2
v -0.2 0.1 0.2
v -0.3 0.1 -0.3
v -0.2 0.1 -0.3
v -0.1 0.1 -0.3
v -0.2 0.1 -0.4
v -0.1 0.1 -0.4
v -0.2 0.2 0.5
v 0.6 0.2 0.5
v -0.2 0.2 0.4
v 0.5 0.2 0.4
v -0.2 0.2 -0.4
v 0.5 0.2 -0.4
v -0.2 0.2 -0.5
v 0.6 0.2 -0.5
v -0.2 0.3 0.4
v 0.5 0.3 0.4
v -0.2 0.3 -0.4
v 0.5 0.3 -0.4

# faces
f 3/5/1 2/5/1 1/5/1
f 4/5/1 2/5/1 3/5/1
f 7/5/1 6/5/1 5/5/1
f 8/5/1 6/5/1 7/5/1
f 9/5/1 7/5/1 5/5/1
f 10/3/1 8/3/1 7/3/1
f 10/5/1 7/5/1 9/5/1
f 11/5/1 6/5/1 8/5/1
f 11/3/1 8/3/1 10/3/1
f 12/1/1 10/1/1 9/1/1
f 13/5/1 11/5/1 10/5/1
f 13/1/1 10/1/1 12/1/1
f 14/5/1 11/5/1 13/5/1
f 15/5/1 11/5/1 14/5/1
f 16/5/1 13/5/1 12/5/1
f 16/5/1 14/5/1 13/5/1
f 17/5/1 11/5/1 15/5/1
f 18/5/1 6/5/1 11/5/1
f 18/5/1 11/5/1 17/5/1
f 19/5/1 6/5/1 18/5/1
f 20/5/1 17/5/1 16/5/1
f 20/5/1 18/5/1 17/5/1
f 20/1/1 19/1/1 18/1/1
f 21/1/1 19/1/1 20/1/1
f 22/5/1 16/5/1 12/5/1
f 22/5/1 20/5/1 16/5/1
f 22/5/1 21/5/1 20/5/1
f 23/5/1 21/5/1 22/5/1
f 24/5/1 21/5/1 23/5/1
f 25/5/1 21/5/1 24/5/1
f 26/5/1 22/5/1 12/5/1
f 27/4/1 23/4/1 22/4/1
f 27/5/1 22/5/1 26/5/1
f 28/5/1 24/5/1 23/5/1
f 28/4/1 23/4/1 27/4/1
f 29/4/1 25/4/1 24/4/1
f 29/5/1 24/5/1 28/5/1
f 30/5/1 21/5/1 25/5/1
f 30/4/1 25/4/1 29/4/1
f 31/1/1 27/1/1 26/1/1
f 32/5/1 29/5/1 28/5/1
f 32/1/1 27/1/1 31/1/1
f 32/5/1 28/5/1 27/5/1
f 32/5/1 30/5/1 29/5/1
f 33/5/1 21/5/1 30/5/1
f 33/5/1 30/5/1 32/5/1
f 41/5/1 35/5/1 34/5/1
f 42/1/1 36/1/1 35/1/1
f 42/5/1 35/5/1 41/5/1
f 43/5/1 37/5/1 36/5/1
f 43/1/1 36/1/1 42/1/1
f 44/1/1 38/1/1 37/1/1
f 44/5/1 37/5/1 43/5/1
f 45/1/1 38/1/1 44/1/1
f 48/2/1 40/2/1 39/2/1
f 48/5/1 41/5/1 40/5/1
f 49/5/1 41/5/1 48/5/1
f 50/2/1 48/2/1 39/2/1
f 50/1/1 49/1/1 48/1/1
f 51/1/1 49/1/1 50/1/1
f 52/5/1 46/5/1 45/5/1
f 53/2/1 47/2/1 46/2/1
f 53/5/1 46/5/1 52/5/1
f 54/1/1 53/1/1 52/1/1
f 55/2/1 47/2/1 53/2/1
f 55/1/1 53/1/1 54/1/1
f 56/5/1 51/5/1 50/5/1
f 56/2/1 50/2/1 39/2/1
f 57/5/1 51/5/1 56/5/1
f 58/2/1 56/2/1 39/2/1
f 58/1/1 57/1/1 56/1/1
f 59/1/1 57/1/1 58/1/1
f 61/5/1 55/5/1 54/5/1
f 62/2/1 47/2/1 55/2/1
f 62/5/1 55/5/1 61/5/1
f 63/2/1 58/2/1 39/2/1
f 64/2/1 58/2/1 63/2/1
f 65/5/1 61/5/1 60/5/1
f 65/5/1 60/5/1 59/5/1
f 66/5/1 61/5/1 65/5/1
f 67/2/1 47/2/1 62/2/1
f 68/2/1 47/2/1 67/2/1
f 69/2/1 66/2/1 65/2/1
f 69/2/1 67/2/1 66/2/1
f 69/2/1 65/2/1 64/2/1
f 70/2/1 67/2/1 69/2/1
f 75/2/1 72/2/1 71/2/1
f 76/2/1 72/2/1 75/2/1
f 77/2/1 74/2/1 73/2/1
f 78/2/1 74/2/1 77/2/1
f 83/5/1 80/5/1 79/5/1
f 84/5/1 80/5/1 83/5/1
f 85/5/1 82/5/1 81/5/1
f 86/5/1 82/5/1 85/5/1
f 89/2/1 88/2/1 87/2/1
f 90/2/1 88/2/1 89/2/1
f 91/5/2 92/5/2 93/5/2
f 93/5/2 92/5/2 94/5/2
f 95/2/2 96/2/2 97/2/2
f 97/2/2 96/2/2 98/2/2
f 99/2/2 100/2/2 101/2/2
f 101/2/2 100/2/2 102/2/2
f 106/2/3 104/2/3 103/2/3
f 107/2/3 106/2/3 105/2/3
f 108/2/3 104/2/3 106/2/3
f 108/2/3 106/2/3 107/2/3
f 111/2/3 110/2/3 109/2/3
f 112/2/3 110/2/3 111/2/3
f 119/5/3 114/5/3 113/5/3
f 120/1/3 115/1/3 114/1/3
f 120/5/3 114/5/3 119/5/3
f 121/5/3 116/5/3 115/5/3
f 121/1/3 115/1/3 120/1/3
f 122/1/3 117/1/3 116/1/3
f 122/5/3 116/5/3 121/5/3
f 123/1/3 117/1/3 122/1/3
f 125/5/3 124/5/3 123/5/3
f 126/5/3 124/5/3 125/5/3
f 127/5/3 119/5/3 118/5/3
f 128/5/3 119/5/3 127/5/3
f 131/5/3 130/5/3 129/5/3
f 132/5/3 130/5/3 131/5/3
f 137/2/3 134/2/3 133/2/3
f 138/2/3 134/2/3 137/2/3
f 139/2/3 136/2/3 135/2/3
f 140/2/3 136/2/3 139/2/3
f 141/2/4 142/2/4 145/2/4
f 145/2/4 142/2/4 146/2/4
f 143/2/4 144/2/4 147/2/4
f 147/2/4 144/2/4 148/2/4
f 149/5/4 150/5/4 151/5/4
f 151/5/4 150/5/4 152/5/4
f 153/5/4 154/5/4 158/5/4
f 154/1/4 155/1/4 159/1/4
f 158/5/4 154/5/4 159/5/4
f 155/5/4 156/5/4 160/5/4
f 159/1/4 155/1/4 160/1/4
f 160/5/4 156/5/4 161/5/4
f 161/5/4 162/5/4 163/5/4
f 163/5/4 162/5/4 164/5/4
f 157/1/4 158/1/4 165/1/4
f 165/1/4 158/1/4 166/1/4
f 165/5/4 166/5/4 167/5/4
f 167/5/4 166/5/4 168/5/4
f 169/2/4 170/2/4 171/2/4
f 171/2/4 170/2/4 172/2/4
f 173/2/4 174/2/4 176/2/4
f 175/2/4 176/2/4 177/2/4
f 176/2/4 174/2/4 178/2/4
f 177/2/4 176/2/4 178/2/4
f 181/2/5 180/2/5 179/2/5
f 182/2/5 180/2/5 181/2/5
f 185/5/5 184/5/5 183/5/5
f 186/5/5 184/5/5 185/5/5
f 187/1/5 186/1/5 185/1/5
f 188/5/5 184/5/5 186/5/5
f 188/1/5 186/1/5 187/1/5
f 189/5/5 188/5/5 187/5/5
f 190/5/5 184/5/5 188/5/5
f 190/5/5 188/5/5 189/5/5
f 191/1/5 190/1/5 189/1/5
f 192/5/5 184/5/5 190/5/5
f 192/1/5 190/1/5 191/1/5
f 193/5/5 184/5/5 192/5/5
f 195/2/5 180/2/5 182/2/5
f 196/2/5 195/2/5 194/2/5
f 197/2/5 180/2/5 195/2/5
f 197/2/5 195/2/5 196/2/5
f 200/2/5 199/2/5 198/2/5
f 201/2/5 199/2/5 200/2/5
f 204/5/5 201/5/5 200/5/5
f 204/5/5 202/5/5 201/5/5
f 205/5/5 202/5/5 204/5/5
f 206/5/5 204/5/5 203/5/5
f 207/5/5 206/5/5 203/5/5
f 208/5/5 207/5/5 203/5/5
f 209/5/5 208/5/5 203/5/5
f 210/5/5 208/5/5 209/5/5
f 212/5/5 202/5/5 205/5/5
f 213/5/5 211/5/5 210/5/5
f 213/5/5 212/5/5 211/5/5
f 214/5/5 212/5/5 213/5/5
f 215/5/5 202/5/5 212/5/5
f 215/5/5 212/5/5 214/5/5
f 216/2/5 214/2/5 213/2/5
f 217/2/5 214/2/5 216/2/5
f 220/5/5 219/5/5 218/5/5
f 221/5/5 219/5/5 220/5/5
f 224/2/5 223/2/5 222/2/5
f 225/2/5 223/2/5 224/2/5
f 228/2/5 227/2/5 226/2/5
f 229/2/5 227/2/5 228/2/5
f 230/5/6 231/5/6 232/5/6
f 232/5/6 231/5/6 233/5/6
f 234/1/6 235/1/6 237/1/6
f 237/1/6 235/1/6 238/1/6
f 236/1/6 237/1/6 239/1/6
f 239/1/6 237/1/6 240/1/6
f 239/5/6 240/5/6 241/5/6
f 241/5/6 240/5/6 242/5/6
f 242/5/6 243/5/6 244/5/6
f 244/5/6 243/5/6 245/5/6
f 246/2/6 247/2/6 248/2/6
f 248/2/6 247/2/6 249/2/6
f 249/2/6 247/2/6 251/2/6
f 250/2/6 251/2/6 252/2/6
f 251/2/6 247/2/6 253/2/6
f 252/2/6 251/2/6 253/2/6
f 254/2/6 255/2/6 256/2/6
f 256/2/6 255/2/6 257/2/6
