# MagicaVoxel @ Ephtracy

# group
o 

# material
mtllib ExtraProps-6.mtl
usemtl palette

# normals
vn -1 0 0
vn 1 0 0
vn 0 0 1
vn 0 0 -1
vn 0 -1 0
vn 0 1 0

# texcoords
vt 0.505859 0.5
vt 0.521484 0.5

# verts
v -1.6 -0.1 0.85
v -1.6 -0.1 0.75
v -1.6 0 0.85
v -1.6 0 0.75
v -1.3 -0.1 0.95
v -1.3 -0.1 0.85
v -1.3 0 0.95
v -1.3 0 0.85
v -1.1 -0.1 0.85
v -1.1 -0.1 0.75
v -1.1 0 0.85
v -1.1 0 0.75
v -0.6 -0.1 0.75
v -0.6 -0.1 0.65
v -0.6 0 0.75
v -0.6 0 0.65
v -0.5 -0.1 0.65
v -0.5 -0.1 0.55
v -0.5 0 0.65
v -0.5 0 0.55
v -0.4 -0.1 -0.85
v -0.4 -0.1 -0.95
v -0.4 0 -0.85
v -0.4 0 -0.95
v -0.2 -0.1 0.55
v -0.2 -0.1 0.45
v -0.2 0 0.55
v -0.2 0 0.45
v -0.1 -0.1 -0.75
v -0.1 -0.1 -0.85
v -0.1 0 -0.75
v -0.1 0 -0.85
v 0 -0.1 -0.65
v 0 -0.1 -0.75
v 0 0 -0.65
v 0 0 -0.75
v 0.2 -0.1 -0.55
v 0.2 -0.1 -0.65
v 0.2 -0.1 -0.75
v 0.2 -0.1 -0.85
v 0.2 0 -0.55
v 0.2 0 -0.65
v 0.2 0 -0.75
v 0.2 0 -0.85
v 0.2 0.1 -0.65
v 0.2 0.1 -0.75
v 0.3 -0.1 0.65
v 0.3 -0.1 0.55
v 0.3 -0.1 0.45
v 0.3 -0.1 0.35
v 0.3 0 0.65
v 0.3 0 0.55
v 0.3 0 0.45
v 0.3 0 0.35
v 0.3 0.1 0.55
v 0.3 0.1 0.45
v 0.5 -0.1 -0.75
v 0.5 -0.1 -0.85
v 0.5 0 -0.75
v 0.5 0 -0.85
v 0.7 -0.1 0.45
v 0.7 -0.1 0.35
v 0.7 0 0.45
v 0.7 0 0.35
v 1 -0.1 0.35
v 1 -0.1 0.25
v 1 0 0.35
v 1 0 0.25
v 1.1 -0.1 -0.65
v 1.1 -0.1 -0.75
v 1.1 0 -0.65
v 1.1 0 -0.75
v 1.2 -0.1 -0.55
v 1.2 -0.1 -0.65
v 1.2 0 -0.55
v 1.2 0 -0.65
v 1.3 -0.1 0.25
v 1.3 -0.1 0.15
v 1.3 -0.1 -0.45
v 1.3 -0.1 -0.55
v 1.3 0 0.25
v 1.3 0 0.15
v 1.3 0 -0.45
v 1.3 0 -0.55
v 1.4 -0.1 0.15
v 1.4 -0.1 0.0500001
v 1.4 -0.1 -0.25
v 1.4 -0.1 -0.45
v 1.4 0 0.15
v 1.4 0 0.0500001
v 1.4 0 -0.25
v 1.4 0 -0.45
v 1.5 -0.1 0.0500001
v 1.5 -0.1 -0.25
v 1.5 0 0.0500001
v 1.5 0 -0.25
v -1.3 -0.1 0.85
v -1.3 -0.1 0.75
v -1.3 0 0.85
v -1.3 0 0.75
v -1.1 -0.1 0.95
v -1.1 -0.1 0.85
v -1.1 0 0.95
v -1.1 0 0.85
v -0.5 -0.1 0.85
v -0.5 -0.1 0.75
v -0.5 0 0.85
v -0.5 0 0.75
v -0.4 -0.1 0.75
v -0.4 -0.1 0.65
v -0.4 0 0.75
v -0.4 0 0.65
v -0.2 -0.1 0.65
v -0.2 -0.1 0.55
v -0.2 0 0.65
v -0.2 0 0.55
v -0.1 -0.1 -0.85
v -0.1 -0.1 -0.95
v -0.1 0 -0.85
v -0.1 0 -0.95
v 0.1 -0.1 -0.75
v 0.1 -0.1 -0.85
v 0.1 0 -0.75
v 0.1 0 -0.85
v 0.3 -0.1 -0.55
v 0.3 -0.1 -0.65
v 0.3 -0.1 -0.75
v 0.3 -0.1 -0.85
v 0.3 0 -0.55
v 0.3 0 -0.65
v 0.3 0 -0.75
v 0.3 0 -0.85
v 0.3 0.1 -0.65
v 0.3 0.1 -0.75
v 0.4 -0.1 0.65
v 0.4 -0.1 0.55
v 0.4 -0.1 0.45
v 0.4 -0.1 0.35
v 0.4 0 0.65
v 0.4 0 0.55
v 0.4 0 0.45
v 0.4 0 0.35
v 0.4 0.1 0.55
v 0.4 0.1 0.45
v 0.6 -0.1 -0.65
v 0.6 -0.1 -0.75
v 0.6 0 -0.65
v 0.6 0 -0.75
v 0.7 -0.1 0.55
v 0.7 -0.1 0.45
v 0.7 0 0.55
v 0.7 0 0.45
v 1.1 -0.1 0.45
v 1.1 -0.1 0.35
v 1.1 0 0.45
v 1.1 0 0.35
v 1.2 -0.1 -0.75
v 1.2 -0.1 -0.85
v 1.2 0 -0.75
v 1.2 0 -0.85
v 1.3 -0.1 -0.65
v 1.3 -0.1 -0.75
v 1.3 0 -0.65
v 1.3 0 -0.75
v 1.4 -0.1 0.35
v 1.4 -0.1 0.25
v 1.4 -0.1 -0.55
v 1.4 -0.1 -0.65
v 1.4 0 0.35
v 1.4 0 0.25
v 1.4 0 -0.55
v 1.4 0 -0.65
v 1.5 -0.1 0.25
v 1.5 -0.1 0.15
v 1.5 -0.1 -0.35
v 1.5 -0.1 -0.55
v 1.5 0 0.25
v 1.5 0 0.15
v 1.5 0 -0.35
v 1.5 0 -0.55
v 1.6 -0.1 0.15
v 1.6 -0.1 -0.35
v 1.6 0 0.15
v 1.6 0 -0.35
v -1.3 -0.1 0.95
v -1.3 0 0.95
v -1.1 -0.1 0.95
v -1.1 0 0.95
v -1.6 -0.1 0.85
v -1.6 0 0.85
v -1.3 -0.1 0.85
v -1.3 0 0.85
v -1.1 -0.1 0.85
v -1.1 0 0.85
v -0.5 -0.1 0.85
v -0.5 0 0.85
v -0.5 -0.1 0.75
v -0.5 0 0.75
v -0.4 -0.1 0.75
v -0.4 0 0.75
v -0.4 -0.1 0.65
v -0.4 0 0.65
v -0.2 -0.1 0.65
v -0.2 0 0.65
v 0.3 -0.1 0.65
v 0.3 0 0.65
v 0.4 -0.1 0.65
v 0.4 0 0.65
v -0.2 -0.1 0.55
v -0.2 0 0.55
v 0.3 -0.1 0.55
v 0.3 0 0.55
v 0.3 0.1 0.55
v 0.4 -0.1 0.55
v 0.4 0 0.55
v 0.4 0.1 0.55
v 0.7 -0.1 0.55
v 0.7 0 0.55
v 0.7 -0.1 0.45
v 0.7 0 0.45
v 1.1 -0.1 0.45
v 1.1 0 0.45
v 1.1 -0.1 0.35
v 1.1 0 0.35
v 1.4 -0.1 0.35
v 1.4 0 0.35
v 1.4 -0.1 0.25
v 1.4 0 0.25
v 1.5 -0.1 0.25
v 1.5 0 0.25
v 1.5 -0.1 0.15
v 1.5 0 0.15
v 1.6 -0.1 0.15
v 1.6 0 0.15
v 1.4 -0.1 -0.25
v 1.4 0 -0.25
v 1.5 -0.1 -0.25
v 1.5 0 -0.25
v 1.3 -0.1 -0.45
v 1.3 0 -0.45
v 1.4 -0.1 -0.45
v 1.4 0 -0.45
v 0.2 -0.1 -0.55
v 0.2 0 -0.55
v 0.3 -0.1 -0.55
v 0.3 0 -0.55
v 1.2 -0.1 -0.55
v 1.2 0 -0.55
v 1.3 -0.1 -0.55
v 1.3 0 -0.55
v 0 -0.1 -0.65
v 0 0 -0.65
v 0.2 -0.1 -0.65
v 0.2 0 -0.65
v 0.2 0.1 -0.65
v 0.3 -0.1 -0.65
v 0.3 0 -0.65
v 0.3 0.1 -0.65
v 0.6 -0.1 -0.65
v 0.6 0 -0.65
v 1.1 -0.1 -0.65
v 1.1 0 -0.65
v 1.2 -0.1 -0.65
v 1.2 0 -0.65
v -0.1 -0.1 -0.75
v -0.1 0 -0.75
v 0 -0.1 -0.75
v 0 0 -0.75
v 0.6 -0.1 -0.75
v 0.6 0 -0.75
v 1.1 -0.1 -0.75
v 1.1 0 -0.75
v -0.4 -0.1 -0.85
v -0.4 0 -0.85
v -0.1 -0.1 -0.85
v -0.1 0 -0.85
v -1.3 -0.1 0.85
v -1.3 0 0.85
v -1.1 -0.1 0.85
v -1.1 0 0.85
v -1.6 -0.1 0.75
v -1.6 0 0.75
v -1.3 -0.1 0.75
v -1.3 0 0.75
v -1.1 -0.1 0.75
v -1.1 0 0.75
v -0.6 -0.1 0.75
v -0.6 0 0.75
v -0.6 -0.1 0.65
v -0.6 0 0.65
v -0.5 -0.1 0.65
v -0.5 0 0.65
v -0.5 -0.1 0.55
v -0.5 0 0.55
v -0.2 -0.1 0.55
v -0.2 0 0.55
v -0.2 -0.1 0.45
v -0.2 0 0.45
v 0.3 -0.1 0.45
v 0.3 0 0.45
v 0.3 0.1 0.45
v 0.4 -0.1 0.45
v 0.4 0 0.45
v 0.4 0.1 0.45
v 0.7 -0.1 0.45
v 0.7 0 0.45
v 0.3 -0.1 0.35
v 0.3 0 0.35
v 0.4 -0.1 0.35
v 0.4 0 0.35
v 0.7 -0.1 0.35
v 0.7 0 0.35
v 1 -0.1 0.35
v 1 0 0.35
v 1 -0.1 0.25
v 1 0 0.25
v 1.3 -0.1 0.25
v 1.3 0 0.25
v 1.3 -0.1 0.15
v 1.3 0 0.15
v 1.4 -0.1 0.15
v 1.4 0 0.15
v 1.4 -0.1 0.0500001
v 1.4 0 0.0500001
v 1.5 -0.1 0.0500001
v 1.5 0 0.0500001
v 1.5 -0.1 -0.35
v 1.5 0 -0.35
v 1.6 -0.1 -0.35
v 1.6 0 -0.35
v 1.4 -0.1 -0.55
v 1.4 0 -0.55
v 1.5 -0.1 -0.55
v 1.5 0 -0.55
v 1.3 -0.1 -0.65
v 1.3 0 -0.65
v 1.4 -0.1 -0.65
v 1.4 0 -0.65
v 0.1 -0.1 -0.75
v 0.1 0 -0.75
v 0.2 -0.1 -0.75
v 0.2 0 -0.75
v 0.2 0.1 -0.75
v 0.3 -0.1 -0.75
v 0.3 0 -0.75
v 0.3 0.1 -0.75
v 0.5 -0.1 -0.75
v 0.5 0 -0.75
v 1.2 -0.1 -0.75
v 1.2 0 -0.75
v 1.3 -0.1 -0.75
v 1.3 0 -0.75
v -0.1 -0.1 -0.85
v -0.1 0 -0.85
v 0.1 -0.1 -0.85
v 0.1 0 -0.85
v 0.2 -0.1 -0.85
v 0.2 0 -0.85
v 0.3 -0.1 -0.85
v 0.3 0 -0.85
v 0.5 -0.1 -0.85
v 0.5 0 -0.85
v 1.2 -0.1 -0.85
v 1.2 0 -0.85
v -0.4 -0.1 -0.95
v -0.4 0 -0.95
v -0.1 -0.1 -0.95
v -0.1 0 -0.95
v -1.3 -0.1 0.95
v -1.1 -0.1 0.95
v -1.6 -0.1 0.85
v -1.3 -0.1 0.85
v -1.1 -0.1 0.85
v -0.5 -0.1 0.85
v -1.6 -0.1 0.75
v -1.3 -0.1 0.75
v -1.1 -0.1 0.75
v -0.6 -0.1 0.75
v -0.5 -0.1 0.75
v -0.4 -0.1 0.75
v -0.6 -0.1 0.65
v -0.5 -0.1 0.65
v -0.4 -0.1 0.65
v -0.2 -0.1 0.65
v 0.3 -0.1 0.65
v 0.4 -0.1 0.65
v -0.5 -0.1 0.55
v -0.2 -0.1 0.55
v 0.3 -0.1 0.55
v 0.4 -0.1 0.55
v 0.7 -0.1 0.55
v -0.2 -0.1 0.45
v 0.3 -0.1 0.45
v 0.4 -0.1 0.45
v 0.7 -0.1 0.45
v 1.1 -0.1 0.45
v 0.3 -0.1 0.35
v 0.4 -0.1 0.35
v 0.7 -0.1 0.35
v 1 -0.1 0.35
v 1.1 -0.1 0.35
v 1.4 -0.1 0.35
v 1 -0.1 0.25
v 1.3 -0.1 0.25
v 1.4 -0.1 0.25
v 1.5 -0.1 0.25
v 1.3 -0.1 0.15
v 1.4 -0.1 0.15
v 1.5 -0.1 0.15
v 1.6 -0.1 0.15
v 1.4 -0.1 0.0500001
v 1.5 -0.1 0.0500001
v 1.4 -0.1 -0.25
v 1.5 -0.1 -0.25
v 1.5 -0.1 -0.35
v 1.6 -0.1 -0.35
v 1.3 -0.1 -0.45
v 1.4 -0.1 -0.45
v 0.2 -0.1 -0.55
v 0.3 -0.1 -0.55
v 1.2 -0.1 -0.55
v 1.3 -0.1 -0.55
v 1.4 -0.1 -0.55
v 1.5 -0.1 -0.55
v 0 -0.1 -0.65
v 0.2 -0.1 -0.65
v 0.3 -0.1 -0.65
v 0.6 -0.1 -0.65
v 1.1 -0.1 -0.65
v 1.2 -0.1 -0.65
v 1.3 -0.1 -0.65
v 1.4 -0.1 -0.65
v -0.1 -0.1 -0.75
v 0 -0.1 -0.75
v 0.1 -0.1 -0.75
v 0.2 -0.1 -0.75
v 0.3 -0.1 -0.75
v 0.5 -0.1 -0.75
v 0.6 -0.1 -0.75
v 1.1 -0.1 -0.75
v 1.2 -0.1 -0.75
v 1.3 -0.1 -0.75
v -0.4 -0.1 -0.85
v -0.1 -0.1 -0.85
v 0.1 -0.1 -0.85
v 0.2 -0.1 -0.85
v 0.3 -0.1 -0.85
v 0.5 -0.1 -0.85
v 1.2 -0.1 -0.85
v -0.4 -0.1 -0.95
v -0.1 -0.1 -0.95
v -1.3 0 0.95
v -1.1 0 0.95
v -1.6 0 0.85
v -1.3 0 0.85
v -1.1 0 0.85
v -0.5 0 0.85
v -1.6 0 0.75
v -1.3 0 0.75
v -1.1 0 0.75
v -0.6 0 0.75
v -0.5 0 0.75
v -0.4 0 0.75
v -0.6 0 0.65
v -0.5 0 0.65
v -0.4 0 0.65
v -0.2 0 0.65
v 0.3 0 0.65
v 0.4 0 0.65
v -0.5 0 0.55
v -0.2 0 0.55
v 0.3 0 0.55
v 0.4 0 0.55
v 0.7 0 0.55
v -0.2 0 0.45
v 0.3 0 0.45
v 0.4 0 0.45
v 0.7 0 0.45
v 1.1 0 0.45
v 0.3 0 0.35
v 0.4 0 0.35
v 0.7 0 0.35
v 1 0 0.35
v 1.1 0 0.35
v 1.4 0 0.35
v 1 0 0.25
v 1.3 0 0.25
v 1.4 0 0.25
v 1.5 0 0.25
v 1.3 0 0.15
v 1.4 0 0.15
v 1.5 0 0.15
v 1.6 0 0.15
v 1.4 0 0.0500001
v 1.5 0 0.0500001
v 1.4 0 -0.25
v 1.5 0 -0.25
v 1.5 0 -0.35
v 1.6 0 -0.35
v 1.3 0 -0.45
v 1.4 0 -0.45
v 0.2 0 -0.55
v 0.3 0 -0.55
v 1.2 0 -0.55
v 1.3 0 -0.55
v 1.4 0 -0.55
v 1.5 0 -0.55
v 0 0 -0.65
v 0.2 0 -0.65
v 0.3 0 -0.65
v 0.6 0 -0.65
v 1.1 0 -0.65
v 1.2 0 -0.65
v 1.3 0 -0.65
v 1.4 0 -0.65
v -0.1 0 -0.75
v 0 0 -0.75
v 0.1 0 -0.75
v 0.2 0 -0.75
v 0.3 0 -0.75
v 0.5 0 -0.75
v 0.6 0 -0.75
v 1.1 0 -0.75
v 1.2 0 -0.75
v 1.3 0 -0.75
v -0.4 0 -0.85
v -0.1 0 -0.85
v 0.1 0 -0.85
v 0.2 0 -0.85
v 0.3 0 -0.85
v 0.5 0 -0.85
v 1.2 0 -0.85
v -0.4 0 -0.95
v -0.1 0 -0.95
v 0.3 0.1 0.55
v 0.4 0.1 0.55
v 0.3 0.1 0.45
v 0.4 0.1 0.45
v 0.2 0.1 -0.65
v 0.3 0.1 -0.65
v 0.2 0.1 -0.75
v 0.3 0.1 -0.75

# faces
f 3/1/1 2/1/1 1/1/1
f 4/1/1 2/1/1 3/1/1
f 7/1/1 6/1/1 5/1/1
f 8/1/1 6/1/1 7/1/1
f 11/1/1 10/1/1 9/1/1
f 12/1/1 10/1/1 11/1/1
f 15/1/1 14/1/1 13/1/1
f 16/1/1 14/1/1 15/1/1
f 19/1/1 18/1/1 17/1/1
f 20/1/1 18/1/1 19/1/1
f 23/1/1 22/1/1 21/1/1
f 24/1/1 22/1/1 23/1/1
f 27/1/1 26/1/1 25/1/1
f 28/1/1 26/1/1 27/1/1
f 31/1/1 30/1/1 29/1/1
f 32/1/1 30/1/1 31/1/1
f 35/1/1 34/1/1 33/1/1
f 36/1/1 34/1/1 35/1/1
f 41/2/1 38/2/1 37/2/1
f 42/2/1 38/2/1 41/2/1
f 43/2/1 40/2/1 39/2/1
f 44/2/1 40/2/1 43/2/1
f 45/2/1 43/2/1 42/2/1
f 46/2/1 43/2/1 45/2/1
f 51/2/1 48/2/1 47/2/1
f 52/2/1 48/2/1 51/2/1
f 53/2/1 50/2/1 49/2/1
f 54/2/1 50/2/1 53/2/1
f 55/2/1 53/2/1 52/2/1
f 56/2/1 53/2/1 55/2/1
f 59/1/1 58/1/1 57/1/1
f 60/1/1 58/1/1 59/1/1
f 63/1/1 62/1/1 61/1/1
f 64/1/1 62/1/1 63/1/1
f 67/1/1 66/1/1 65/1/1
f 68/1/1 66/1/1 67/1/1
f 71/1/1 70/1/1 69/1/1
f 72/1/1 70/1/1 71/1/1
f 75/1/1 74/1/1 73/1/1
f 76/1/1 74/1/1 75/1/1
f 81/1/1 78/1/1 77/1/1
f 82/1/1 78/1/1 81/1/1
f 83/1/1 80/1/1 79/1/1
f 84/1/1 80/1/1 83/1/1
f 89/1/1 86/1/1 85/1/1
f 90/1/1 86/1/1 89/1/1
f 91/1/1 88/1/1 87/1/1
f 92/1/1 88/1/1 91/1/1
f 95/1/1 94/1/1 93/1/1
f 96/1/1 94/1/1 95/1/1
f 97/1/2 98/1/2 99/1/2
f 99/1/2 98/1/2 100/1/2
f 101/1/2 102/1/2 103/1/2
f 103/1/2 102/1/2 104/1/2
f 105/1/2 106/1/2 107/1/2
f 107/1/2 106/1/2 108/1/2
f 109/1/2 110/1/2 111/1/2
f 111/1/2 110/1/2 112/1/2
f 113/1/2 114/1/2 115/1/2
f 115/1/2 114/1/2 116/1/2
f 117/1/2 118/1/2 119/1/2
f 119/1/2 118/1/2 120/1/2
f 121/1/2 122/1/2 123/1/2
f 123/1/2 122/1/2 124/1/2
f 125/2/2 126/2/2 129/2/2
f 129/2/2 126/2/2 130/2/2
f 127/2/2 128/2/2 131/2/2
f 131/2/2 128/2/2 132/2/2
f 130/2/2 131/2/2 133/2/2
f 133/2/2 131/2/2 134/2/2
f 135/2/2 136/2/2 139/2/2
f 139/2/2 136/2/2 140/2/2
f 137/2/2 138/2/2 141/2/2
f 141/2/2 138/2/2 142/2/2
f 140/2/2 141/2/2 143/2/2
f 143/2/2 141/2/2 144/2/2
f 145/1/2 146/1/2 147/1/2
f 147/1/2 146/1/2 148/1/2
f 149/1/2 150/1/2 151/1/2
f 151/1/2 150/1/2 152/1/2
f 153/1/2 154/1/2 155/1/2
f 155/1/2 154/1/2 156/1/2
f 157/1/2 158/1/2 159/1/2
f 159/1/2 158/1/2 160/1/2
f 161/1/2 162/1/2 163/1/2
f 163/1/2 162/1/2 164/1/2
f 165/1/2 166/1/2 169/1/2
f 169/1/2 166/1/2 170/1/2
f 167/1/2 168/1/2 171/1/2
f 171/1/2 168/1/2 172/1/2
f 173/1/2 174/1/2 177/1/2
f 177/1/2 174/1/2 178/1/2
f 175/1/2 176/1/2 179/1/2
f 179/1/2 176/1/2 180/1/2
f 181/1/2 182/1/2 183/1/2
f 183/1/2 182/1/2 184/1/2
f 187/1/3 186/1/3 185/1/3
f 188/1/3 186/1/3 187/1/3
f 191/1/3 190/1/3 189/1/3
f 192/1/3 190/1/3 191/1/3
f 195/1/3 194/1/3 193/1/3
f 196/1/3 194/1/3 195/1/3
f 199/1/3 198/1/3 197/1/3
f 200/1/3 198/1/3 199/1/3
f 203/1/3 202/1/3 201/1/3
f 204/1/3 202/1/3 203/1/3
f 207/2/3 206/2/3 205/2/3
f 208/2/3 206/2/3 207/2/3
f 211/1/3 210/1/3 209/1/3
f 212/1/3 210/1/3 211/1/3
f 215/2/3 213/2/3 212/2/3
f 216/2/3 213/2/3 215/2/3
f 217/1/3 215/1/3 214/1/3
f 218/1/3 215/1/3 217/1/3
f 221/1/3 220/1/3 219/1/3
f 222/1/3 220/1/3 221/1/3
f 225/1/3 224/1/3 223/1/3
f 226/1/3 224/1/3 225/1/3
f 229/1/3 228/1/3 227/1/3
f 230/1/3 228/1/3 229/1/3
f 233/1/3 232/1/3 231/1/3
f 234/1/3 232/1/3 233/1/3
f 237/1/3 236/1/3 235/1/3
f 238/1/3 236/1/3 237/1/3
f 241/1/3 240/1/3 239/1/3
f 242/1/3 240/1/3 241/1/3
f 245/2/3 244/2/3 243/2/3
f 246/2/3 244/2/3 245/2/3
f 249/1/3 248/1/3 247/1/3
f 250/1/3 248/1/3 249/1/3
f 253/1/3 252/1/3 251/1/3
f 254/1/3 252/1/3 253/1/3
f 257/2/3 255/2/3 254/2/3
f 258/2/3 255/2/3 257/2/3
f 259/1/3 257/1/3 256/1/3
f 260/1/3 257/1/3 259/1/3
f 263/1/3 262/1/3 261/1/3
f 264/1/3 262/1/3 263/1/3
f 267/1/3 266/1/3 265/1/3
f 268/1/3 266/1/3 267/1/3
f 271/1/3 270/1/3 269/1/3
f 272/1/3 270/1/3 271/1/3
f 275/1/3 274/1/3 273/1/3
f 276/1/3 274/1/3 275/1/3
f 277/1/4 278/1/4 279/1/4
f 279/1/4 278/1/4 280/1/4
f 281/1/4 282/1/4 283/1/4
f 283/1/4 282/1/4 284/1/4
f 285/1/4 286/1/4 287/1/4
f 287/1/4 286/1/4 288/1/4
f 289/1/4 290/1/4 291/1/4
f 291/1/4 290/1/4 292/1/4
f 293/1/4 294/1/4 295/1/4
f 295/1/4 294/1/4 296/1/4
f 297/1/4 298/1/4 299/1/4
f 299/1/4 298/1/4 300/1/4
f 300/2/4 301/2/4 303/2/4
f 303/2/4 301/2/4 304/2/4
f 302/1/4 303/1/4 305/1/4
f 305/1/4 303/1/4 306/1/4
f 307/2/4 308/2/4 309/2/4
f 309/2/4 308/2/4 310/2/4
f 311/1/4 312/1/4 313/1/4
f 313/1/4 312/1/4 314/1/4
f 315/1/4 316/1/4 317/1/4
f 317/1/4 316/1/4 318/1/4
f 319/1/4 320/1/4 321/1/4
f 321/1/4 320/1/4 322/1/4
f 323/1/4 324/1/4 325/1/4
f 325/1/4 324/1/4 326/1/4
f 327/1/4 328/1/4 329/1/4
f 329/1/4 328/1/4 330/1/4
f 331/1/4 332/1/4 333/1/4
f 333/1/4 332/1/4 334/1/4
f 335/1/4 336/1/4 337/1/4
f 337/1/4 336/1/4 338/1/4
f 339/1/4 340/1/4 341/1/4
f 341/1/4 340/1/4 342/1/4
f 342/2/4 343/2/4 345/2/4
f 345/2/4 343/2/4 346/2/4
f 344/1/4 345/1/4 347/1/4
f 347/1/4 345/1/4 348/1/4
f 349/1/4 350/1/4 351/1/4
f 351/1/4 350/1/4 352/1/4
f 353/1/4 354/1/4 355/1/4
f 355/1/4 354/1/4 356/1/4
f 357/2/4 358/2/4 359/2/4
f 359/2/4 358/2/4 360/2/4
f 361/1/4 362/1/4 363/1/4
f 363/1/4 362/1/4 364/1/4
f 365/1/4 366/1/4 367/1/4
f 367/1/4 366/1/4 368/1/4
f 372/1/5 370/1/5 369/1/5
f 373/1/5 370/1/5 372/1/5
f 375/1/5 372/1/5 371/1/5
f 376/1/5 372/1/5 375/1/5
f 377/1/5 374/1/5 373/1/5
f 378/1/5 374/1/5 377/1/5
f 379/1/5 374/1/5 378/1/5
f 381/1/5 380/1/5 379/1/5
f 381/1/5 379/1/5 378/1/5
f 382/1/5 380/1/5 381/1/5
f 383/1/5 380/1/5 382/1/5
f 387/1/5 383/1/5 382/1/5
f 387/1/5 384/1/5 383/1/5
f 388/1/5 384/1/5 387/1/5
f 389/2/5 386/2/5 385/2/5
f 390/2/5 386/2/5 389/2/5
f 392/1/5 391/1/5 390/1/5
f 392/1/5 390/1/5 389/1/5
f 392/1/5 389/1/5 388/1/5
f 393/1/5 391/1/5 392/1/5
f 394/1/5 391/1/5 393/1/5
f 395/1/5 391/1/5 394/1/5
f 397/2/5 394/2/5 393/2/5
f 398/2/5 394/2/5 397/2/5
f 399/1/5 396/1/5 395/1/5
f 400/1/5 396/1/5 399/1/5
f 401/1/5 396/1/5 400/1/5
f 403/1/5 402/1/5 401/1/5
f 403/1/5 401/1/5 400/1/5
f 404/1/5 402/1/5 403/1/5
f 405/1/5 402/1/5 404/1/5
f 407/1/5 406/1/5 405/1/5
f 407/1/5 405/1/5 404/1/5
f 408/1/5 406/1/5 407/1/5
f 409/1/5 406/1/5 408/1/5
f 411/1/5 410/1/5 409/1/5
f 411/1/5 409/1/5 408/1/5
f 412/1/5 410/1/5 411/1/5
f 414/1/5 410/1/5 412/1/5
f 415/1/5 410/1/5 414/1/5
f 415/1/5 414/1/5 413/1/5
f 416/1/5 410/1/5 415/1/5
f 418/1/5 415/1/5 413/1/5
f 422/1/5 418/1/5 417/1/5
f 423/1/5 415/1/5 418/1/5
f 423/1/5 418/1/5 422/1/5
f 424/1/5 415/1/5 423/1/5
f 426/2/5 420/2/5 419/2/5
f 427/2/5 420/2/5 426/2/5
f 430/1/5 422/1/5 421/1/5
f 430/1/5 423/1/5 422/1/5
f 431/1/5 423/1/5 430/1/5
f 432/1/5 423/1/5 431/1/5
f 434/1/5 428/1/5 427/1/5
f 434/1/5 427/1/5 426/1/5
f 434/1/5 426/1/5 425/1/5
f 435/1/5 428/1/5 434/1/5
f 436/1/5 428/1/5 435/1/5
f 437/1/5 428/1/5 436/1/5
f 438/1/5 428/1/5 437/1/5
f 439/1/5 428/1/5 438/1/5
f 440/1/5 431/1/5 430/1/5
f 440/1/5 430/1/5 429/1/5
f 441/1/5 431/1/5 440/1/5
f 442/1/5 431/1/5 441/1/5
f 444/1/5 434/1/5 433/1/5
f 444/1/5 435/1/5 434/1/5
f 445/1/5 435/1/5 444/1/5
f 446/2/5 437/2/5 436/2/5
f 447/2/5 437/2/5 446/2/5
f 448/1/5 439/1/5 438/1/5
f 448/1/5 440/1/5 439/1/5
f 448/1/5 441/1/5 440/1/5
f 449/1/5 441/1/5 448/1/5
f 450/1/5 444/1/5 443/1/5
f 451/1/5 444/1/5 450/1/5
f 452/1/6 453/1/6 455/1/6
f 455/1/6 453/1/6 456/1/6
f 454/1/6 455/1/6 458/1/6
f 458/1/6 455/1/6 459/1/6
f 456/1/6 457/1/6 460/1/6
f 460/1/6 457/1/6 461/1/6
f 461/1/6 457/1/6 462/1/6
f 462/1/6 463/1/6 464/1/6
f 461/1/6 462/1/6 464/1/6
f 464/1/6 463/1/6 465/1/6
f 465/1/6 463/1/6 466/1/6
f 465/1/6 466/1/6 470/1/6
f 466/1/6 467/1/6 470/1/6
f 470/1/6 467/1/6 471/1/6
f 468/2/6 469/2/6 472/2/6
f 472/2/6 469/2/6 473/2/6
f 471/1/6 472/1/6 475/1/6
f 475/1/6 472/1/6 476/1/6
f 473/1/6 474/1/6 477/1/6
f 477/1/6 474/1/6 478/1/6
f 476/2/6 477/2/6 480/2/6
f 480/2/6 477/2/6 481/2/6
f 478/1/6 479/1/6 482/1/6
f 482/1/6 479/1/6 483/1/6
f 483/1/6 479/1/6 484/1/6
f 484/1/6 485/1/6 486/1/6
f 483/1/6 484/1/6 486/1/6
f 486/1/6 485/1/6 487/1/6
f 487/1/6 485/1/6 488/1/6
f 488/1/6 489/1/6 490/1/6
f 487/1/6 488/1/6 490/1/6
f 490/1/6 489/1/6 491/1/6
f 491/1/6 489/1/6 492/1/6
f 492/1/6 493/1/6 494/1/6
f 491/1/6 492/1/6 494/1/6
f 494/1/6 493/1/6 495/1/6
f 495/1/6 493/1/6 497/1/6
f 497/1/6 493/1/6 498/1/6
f 496/1/6 497/1/6 498/1/6
f 498/1/6 493/1/6 499/1/6
f 496/1/6 498/1/6 501/1/6
f 500/1/6 501/1/6 505/1/6
f 501/1/6 498/1/6 506/1/6
f 505/1/6 501/1/6 506/1/6
f 506/1/6 498/1/6 507/1/6
f 502/2/6 503/2/6 509/2/6
f 509/2/6 503/2/6 510/2/6
f 504/1/6 505/1/6 513/1/6
f 505/1/6 506/1/6 513/1/6
f 513/1/6 506/1/6 514/1/6
f 514/1/6 506/1/6 515/1/6
f 508/1/6 509/1/6 517/1/6
f 517/1/6 509/1/6 518/1/6
f 518/1/6 509/1/6 519/1/6
f 510/1/6 511/1/6 520/1/6
f 520/1/6 511/1/6 521/1/6
f 521/1/6 511/1/6 522/1/6
f 513/1/6 514/1/6 523/1/6
f 512/1/6 513/1/6 523/1/6
f 523/1/6 514/1/6 524/1/6
f 524/1/6 514/1/6 525/1/6
f 516/1/6 517/1/6 527/1/6
f 517/1/6 518/1/6 527/1/6
f 527/1/6 518/1/6 528/1/6
f 519/2/6 520/2/6 529/2/6
f 529/2/6 520/2/6 530/2/6
f 521/1/6 522/1/6 531/1/6
f 523/1/6 524/1/6 531/1/6
f 522/1/6 523/1/6 531/1/6
f 531/1/6 524/1/6 532/1/6
f 526/1/6 527/1/6 533/1/6
f 533/1/6 527/1/6 534/1/6
f 535/2/6 536/2/6 537/2/6
f 537/2/6 536/2/6 538/2/6
f 539/2/6 540/2/6 541/2/6
f 541/2/6 540/2/6 542/2/6
