# MagicaVoxel @ Ephtracy

# group
o 

# material
mtllib ExtraProps-1.mtl
usemtl palette

# normals
vn -1 0 0
vn 1 0 0
vn 0 0 1
vn 0 0 -1
vn 0 -1 0
vn 0 1 0

# texcoords
vt 0.751953 0.5
vt 0.755859 0.5
vt 0.763672 0.5
vt 0.767578 0.5

# verts
v -0.4 -0.5 0.2
v -0.4 -0.5 0.1
v -0.4 -0.5 -0.1
v -0.4 -0.5 -0.2
v -0.4 -0.4 0.2
v -0.4 -0.4 0.1
v -0.4 -0.4 0
v -0.4 -0.4 -0.1
v -0.4 -0.4 -0.2
v -0.4 -0.3 0.1
v -0.4 -0.3 0
v -0.4 -0.3 -0.1
v -0.3 -0.5 0.3
v -0.3 -0.5 0.2
v -0.3 -0.5 -0.2
v -0.3 -0.5 -0.3
v -0.3 -0.4 0.3
v -0.3 -0.4 0.2
v -0.3 -0.4 0.1
v -0.3 -0.4 -0.1
v -0.3 -0.4 -0.2
v -0.3 -0.4 -0.3
v -0.3 -0.3 0.2
v -0.3 -0.3 0.1
v -0.3 -0.3 0
v -0.3 -0.3 -0.1
v -0.3 -0.3 -0.2
v -0.3 -0.2 0.1
v -0.3 -0.2 -0.1
v -0.2 -0.4 0.3
v -0.2 -0.4 0.2
v -0.2 -0.4 -0.2
v -0.2 -0.4 -0.3
v -0.2 -0.3 0.3
v -0.2 -0.3 0.2
v -0.2 -0.3 0.1
v -0.2 -0.3 -0.1
v -0.2 -0.3 -0.2
v -0.2 -0.3 -0.3
v -0.2 -0.2 0.2
v -0.2 -0.2 0.1
v -0.2 -0.2 0
v -0.2 -0.2 -0.1
v -0.2 -0.2 -0.2
v -0.2 -0.1 0.1
v -0.2 -0.1 0
v -0.2 0 0.1
v -0.2 0 0
v -0.2 0.1 0.1
v -0.2 0.1 0
v -0.2 0.2 0.3
v -0.2 0.2 0.1
v -0.2 0.2 0
v -0.2 0.2 -0.2
v -0.2 0.3 0.3
v -0.2 0.3 0.1
v -0.2 0.3 0
v -0.2 0.3 -0.2
v -0.2 0.5 0.1
v -0.2 0.5 0
v -0.1 -0.5 0.4
v -0.1 -0.5 0.3
v -0.1 -0.4 0.4
v -0.1 -0.4 0.3
v 0.3 -0.5 0.3
v 0.3 -0.5 0.2
v 0.3 -0.5 -0.3
v 0.3 -0.5 -0.4
v 0.3 -0.4 0.3
v 0.3 -0.4 0.2
v 0.3 -0.4 -0.3
v 0.3 -0.4 -0.4
v -0.1 -0.2 0.1
v -0.1 -0.2 0
v -0.1 -0.1 0.1
v -0.1 -0.1 0
v -0.1 0 0.1
v -0.1 0 0
v -0.1 0.1 0.1
v -0.1 0.1 0
v -0.1 0.2 0.3
v -0.1 0.2 0.1
v -0.1 0.2 0
v -0.1 0.2 -0.2
v -0.1 0.3 0.3
v -0.1 0.3 0.1
v -0.1 0.3 0
v -0.1 0.3 -0.2
v -0.1 0.5 0.1
v -0.1 0.5 0
v 0 -0.5 0.4
v 0 -0.5 0.3
v 0 -0.4 0.4
v 0 -0.4 0.3
v 0 -0.4 0.2
v 0 -0.4 -0.2
v 0 -0.4 -0.3
v 0 -0.3 0.3
v 0 -0.3 0.2
v 0 -0.3 0.1
v 0 -0.3 -0.1
v 0 -0.3 -0.2
v 0 -0.3 -0.3
v 0 -0.2 0.2
v 0 -0.2 0.1
v 0 -0.2 -0.1
v 0 -0.2 -0.2
v 0.1 -0.5 0.3
v 0.1 -0.5 0.2
v 0.1 -0.5 -0.2
v 0.1 -0.5 -0.3
v 0.1 -0.4 0.3
v 0.1 -0.4 0.2
v 0.1 -0.4 0.1
v 0.1 -0.4 -0.1
v 0.1 -0.4 -0.2
v 0.1 -0.4 -0.3
v 0.1 -0.3 0.2
v 0.1 -0.3 0.1
v 0.1 -0.3 0
v 0.1 -0.3 -0.1
v 0.1 -0.3 -0.2
v 0.1 -0.2 0.1
v 0.1 -0.2 0
v 0.1 -0.2 -0.1
v 0.3 -0.5 0.2
v 0.3 -0.5 0.1
v 0.3 -0.5 -0.1
v 0.3 -0.5 -0.2
v 0.3 -0.4 0.2
v 0.3 -0.4 0.1
v 0.3 -0.4 0
v 0.3 -0.4 -0.1
v 0.3 -0.4 -0.2
v 0.3 -0.3 0.1
v 0.3 -0.3 0
v 0.3 -0.3 -0.1
v 0.4 -0.5 0.3
v 0.4 -0.5 0.2
v 0.4 -0.5 0.1
v 0.4 -0.5 -0.1
v 0.4 -0.5 -0.3
v 0.4 -0.5 -0.4
v 0.4 -0.4 0.3
v 0.4 -0.4 0.2
v 0.4 -0.4 0.1
v 0.4 -0.4 -0.1
v 0.4 -0.4 -0.3
v 0.4 -0.4 -0.4
v -0.1 -0.5 0.4
v -0.1 -0.4 0.4
v 0 -0.5 0.4
v 0 -0.4 0.4
v -0.3 -0.5 0.3
v -0.3 -0.4 0.3
v -0.2 -0.4 0.3
v -0.2 -0.3 0.3
v -0.2 0.2 0.3
v -0.2 0.3 0.3
v -0.1 -0.5 0.3
v -0.1 -0.4 0.3
v -0.1 -0.3 0.3
v -0.1 0.2 0.3
v -0.1 0.3 0.3
v 0 -0.5 0.3
v 0 -0.4 0.3
v 0 -0.3 0.3
v 0.1 -0.5 0.3
v 0.1 -0.4 0.3
v 0.3 -0.5 0.3
v 0.3 -0.4 0.3
v 0.4 -0.5 0.3
v 0.4 -0.4 0.3
v -0.4 -0.5 0.2
v -0.4 -0.4 0.2
v -0.3 -0.5 0.2
v -0.3 -0.4 0.2
v -0.3 -0.3 0.2
v -0.2 -0.4 0.2
v -0.2 -0.3 0.2
v -0.2 -0.2 0.2
v -0.1 -0.3 0.2
v 0 -0.4 0.2
v 0 -0.3 0.2
v 0 -0.2 0.2
v 0.1 -0.5 0.2
v 0.1 -0.4 0.2
v 0.1 -0.3 0.2
v 0.3 -0.5 0.2
v 0.3 -0.4 0.2
v -0.4 -0.4 0.1
v -0.4 -0.3 0.1
v -0.3 -0.4 0.1
v -0.3 -0.3 0.1
v -0.3 -0.2 0.1
v -0.2 -0.3 0.1
v -0.2 -0.2 0.1
v -0.2 -0.1 0.1
v -0.2 0 0.1
v -0.2 0.1 0.1
v -0.2 0.2 0.1
v -0.2 0.3 0.1
v -0.2 0.5 0.1
v -0.1 -0.2 0.1
v -0.1 -0.1 0.1
v -0.1 0 0.1
v -0.1 0.1 0.1
v -0.1 0.2 0.1
v -0.1 0.3 0.1
v -0.1 0.5 0.1
v 0 -0.3 0.1
v 0 -0.2 0.1
v 0.1 -0.4 0.1
v 0.1 -0.3 0.1
v 0.1 -0.2 0.1
v 0.2 -0.4 0.1
v 0.2 -0.3 0.1
v 0.3 -0.5 0.1
v 0.3 -0.4 0.1
v 0.3 -0.3 0.1
v 0.4 -0.5 0.1
v 0.4 -0.4 0.1
v 0.3 -0.5 -0.3
v 0.3 -0.4 -0.3
v 0.4 -0.5 -0.3
v 0.4 -0.4 -0.3
v 0.3 -0.5 0.2
v 0.3 -0.4 0.2
v 0.4 -0.5 0.2
v 0.4 -0.4 0.2
v -0.2 -0.2 0
v -0.2 -0.1 0
v -0.2 0 0
v -0.2 0.1 0
v -0.2 0.2 0
v -0.2 0.3 0
v -0.2 0.5 0
v -0.1 -0.2 0
v -0.1 -0.1 0
v -0.1 0 0
v -0.1 0.1 0
v -0.1 0.2 0
v -0.1 0.3 0
v -0.1 0.5 0
v -0.4 -0.4 -0.1
v -0.4 -0.3 -0.1
v -0.3 -0.4 -0.1
v -0.3 -0.3 -0.1
v -0.3 -0.2 -0.1
v -0.2 -0.3 -0.1
v -0.2 -0.2 -0.1
v 0 -0.3 -0.1
v 0 -0.2 -0.1
v 0.1 -0.4 -0.1
v 0.1 -0.3 -0.1
v 0.1 -0.2 -0.1
v 0.3 -0.5 -0.1
v 0.3 -0.4 -0.1
v 0.3 -0.3 -0.1
v 0.4 -0.5 -0.1
v 0.4 -0.4 -0.1
v -0.4 -0.5 -0.2
v -0.4 -0.4 -0.2
v -0.3 -0.5 -0.2
v -0.3 -0.4 -0.2
v -0.3 -0.3 -0.2
v -0.2 -0.4 -0.2
v -0.2 -0.3 -0.2
v -0.2 -0.2 -0.2
v -0.2 0.2 -0.2
v -0.2 0.3 -0.2
v -0.1 -0.3 -0.2
v -0.1 0.2 -0.2
v -0.1 0.3 -0.2
v 0 -0.4 -0.2
v 0 -0.3 -0.2
v 0 -0.2 -0.2
v 0.1 -0.5 -0.2
v 0.1 -0.4 -0.2
v 0.1 -0.3 -0.2
v 0.3 -0.5 -0.2
v 0.3 -0.4 -0.2
v -0.3 -0.5 -0.3
v -0.3 -0.4 -0.3
v -0.2 -0.5 -0.3
v -0.2 -0.4 -0.3
v -0.2 -0.3 -0.3
v -0.1 -0.4 -0.3
v -0.1 -0.3 -0.3
v 0 -0.4 -0.3
v 0 -0.3 -0.3
v 0.1 -0.5 -0.3
v 0.1 -0.4 -0.3
v 0.3 -0.5 -0.4
v 0.3 -0.4 -0.4
v 0.4 -0.5 -0.4
v 0.4 -0.4 -0.4
v -0.1 -0.5 0.4
v 0 -0.5 0.4
v -0.3 -0.5 0.3
v -0.1 -0.5 0.3
v 0 -0.5 0.3
v 0.1 -0.5 0.3
v 0.3 -0.5 0.3
v 0.4 -0.5 0.3
v -0.4 -0.5 0.2
v -0.3 -0.5 0.2
v -0.1 -0.5 0.2
v 0 -0.5 0.2
v 0.1 -0.5 0.2
v 0.3 -0.5 0.2
v 0.4 -0.5 0.2
v -0.4 -0.5 0.1
v -0.3 -0.5 0.1
v 0.3 -0.5 0.1
v 0.4 -0.5 0.1
v 0.1 -0.5 0
v 0.2 -0.5 0
v -0.4 -0.5 -0.1
v -0.2 -0.5 -0.1
v 0.2 -0.5 -0.1
v 0.3 -0.5 -0.1
v 0.4 -0.5 -0.1
v -0.4 -0.5 -0.2
v -0.3 -0.5 -0.2
v 0.1 -0.5 -0.2
v 0.3 -0.5 -0.2
v -0.3 -0.5 -0.3
v -0.2 -0.5 -0.3
v 0.1 -0.5 -0.3
v 0.3 -0.5 -0.3
v 0.4 -0.5 -0.3
v 0.3 -0.5 -0.4
v 0.4 -0.5 -0.4
v -0.2 0.2 0.3
v -0.1 0.2 0.3
v -0.2 0.2 0.1
v -0.1 0.2 0.1
v -0.2 0.2 0
v -0.1 0.2 0
v -0.2 0.2 -0.2
v -0.1 0.2 -0.2
v -0.1 -0.4 0.4
v 0 -0.4 0.4
v -0.3 -0.4 0.3
v -0.2 -0.4 0.3
v -0.1 -0.4 0.3
v 0 -0.4 0.3
v 0.1 -0.4 0.3
v 0.3 -0.4 0.3
v 0.4 -0.4 0.3
v -0.4 -0.4 0.2
v -0.3 -0.4 0.2
v -0.2 -0.4 0.2
v 0 -0.4 0.2
v 0.1 -0.4 0.2
v 0.3 -0.4 0.2
v 0.4 -0.4 0.2
v -0.4 -0.4 0.1
v -0.3 -0.4 0.1
v 0.1 -0.4 0.1
v 0.2 -0.4 0.1
v 0.3 -0.4 0.1
v 0.4 -0.4 0.1
v 0.3 -0.4 0
v -0.4 -0.4 -0.1
v -0.3 -0.4 -0.1
v 0.1 -0.4 -0.1
v 0.3 -0.4 -0.1
v 0.4 -0.4 -0.1
v -0.4 -0.4 -0.2
v -0.3 -0.4 -0.2
v -0.2 -0.4 -0.2
v 0 -0.4 -0.2
v 0.1 -0.4 -0.2
v 0.3 -0.4 -0.2
v -0.3 -0.4 -0.3
v -0.2 -0.4 -0.3
v 0 -0.4 -0.3
v 0.1 -0.4 -0.3
v 0.3 -0.4 -0.3
v 0.4 -0.4 -0.3
v 0.3 -0.4 -0.4
v 0.4 -0.4 -0.4
v -0.2 -0.3 0.3
v -0.1 -0.3 0.3
v 0 -0.3 0.3
v -0.3 -0.3 0.2
v -0.2 -0.3 0.2
v -0.1 -0.3 0.2
v 0 -0.3 0.2
v 0.1 -0.3 0.2
v -0.4 -0.3 0.1
v -0.3 -0.3 0.1
v -0.2 -0.3 0.1
v 0 -0.3 0.1
v 0.1 -0.3 0.1
v 0.2 -0.3 0.1
v 0.3 -0.3 0.1
v -0.4 -0.3 0
v -0.3 -0.3 0
v 0.1 -0.3 0
v 0.2 -0.3 0
v 0.3 -0.3 0
v -0.4 -0.3 -0.1
v -0.3 -0.3 -0.1
v -0.2 -0.3 -0.1
v 0 -0.3 -0.1
v 0.1 -0.3 -0.1
v 0.3 -0.3 -0.1
v -0.3 -0.3 -0.2
v -0.2 -0.3 -0.2
v -0.1 -0.3 -0.2
v 0 -0.3 -0.2
v 0.1 -0.3 -0.2
v -0.2 -0.3 -0.3
v -0.1 -0.3 -0.3
v 0 -0.3 -0.3
v -0.2 -0.2 0.2
v 0 -0.2 0.2
v -0.3 -0.2 0.1
v -0.2 -0.2 0.1
v -0.1 -0.2 0.1
v 0 -0.2 0.1
v 0.1 -0.2 0.1
v -0.2 -0.2 0
v -0.1 -0.2 0
v 0 -0.2 0
v 0.1 -0.2 0
v -0.3 -0.2 -0.1
v -0.2 -0.2 -0.1
v -0.1 -0.2 -0.1
v 0 -0.2 -0.1
v 0.1 -0.2 -0.1
v -0.2 -0.2 -0.2
v 0 -0.2 -0.2
v -0.2 0.3 0.3
v -0.1 0.3 0.3
v -0.2 0.3 0.1
v -0.1 0.3 0.1
v -0.2 0.3 0
v -0.1 0.3 0
v -0.2 0.3 -0.2
v -0.1 0.3 -0.2
v -0.2 0.5 0.1
v -0.1 0.5 0.1
v -0.2 0.5 0
v -0.1 0.5 0

# faces
f 5/3/1 2/3/1 1/3/1
f 6/4/1 3/4/1 2/4/1
f 6/3/1 2/3/1 5/3/1
f 7/4/1 3/4/1 6/4/1
f 8/3/1 4/3/1 3/3/1
f 8/4/1 3/4/1 7/4/1
f 9/3/1 4/3/1 8/3/1
f 10/4/1 7/4/1 6/4/1
f 11/3/1 8/3/1 7/3/1
f 11/4/1 7/4/1 10/4/1
f 12/3/1 8/3/1 11/3/1
f 17/4/1 14/4/1 13/4/1
f 18/4/1 14/4/1 17/4/1
f 21/3/1 16/3/1 15/3/1
f 22/3/1 16/3/1 21/3/1
f 23/3/1 19/3/1 18/3/1
f 24/3/1 19/3/1 23/3/1
f 26/3/1 21/3/1 20/3/1
f 27/3/1 21/3/1 26/3/1
f 28/3/1 25/3/1 24/3/1
f 28/3/1 26/3/1 25/3/1
f 29/3/1 26/3/1 28/3/1
f 34/3/1 31/3/1 30/3/1
f 35/3/1 31/3/1 34/3/1
f 38/3/1 33/3/1 32/3/1
f 39/3/1 33/3/1 38/3/1
f 40/3/1 36/3/1 35/3/1
f 41/3/1 36/3/1 40/3/1
f 43/3/1 38/3/1 37/3/1
f 44/3/1 38/3/1 43/3/1
f 45/1/1 42/1/1 41/1/1
f 46/1/1 42/1/1 45/1/1
f 47/2/1 46/2/1 45/2/1
f 48/2/1 46/2/1 47/2/1
f 49/1/1 48/1/1 47/1/1
f 50/1/1 48/1/1 49/1/1
f 52/2/1 50/2/1 49/2/1
f 53/2/1 50/2/1 52/2/1
f 55/1/1 52/1/1 51/1/1
f 56/2/1 53/2/1 52/2/1
f 56/1/1 52/1/1 55/1/1
f 56/2/1 54/2/1 53/2/1
f 57/2/1 54/2/1 56/2/1
f 58/2/1 54/2/1 57/2/1
f 59/2/1 57/2/1 56/2/1
f 60/2/1 57/2/1 59/2/1
f 63/4/1 62/4/1 61/4/1
f 64/4/1 62/4/1 63/4/1
f 69/4/1 66/4/1 65/4/1
f 70/4/1 66/4/1 69/4/1
f 71/4/1 68/4/1 67/4/1
f 72/4/1 68/4/1 71/4/1
f 73/1/2 74/1/2 75/1/2
f 75/1/2 74/1/2 76/1/2
f 75/2/2 76/2/2 77/2/2
f 77/2/2 76/2/2 78/2/2
f 77/1/2 78/1/2 79/1/2
f 79/1/2 78/1/2 80/1/2
f 79/2/2 80/2/2 82/2/2
f 82/2/2 80/2/2 83/2/2
f 81/1/2 82/1/2 85/1/2
f 82/2/2 83/2/2 86/2/2
f 85/1/2 82/1/2 86/1/2
f 83/2/2 84/2/2 86/2/2
f 86/2/2 84/2/2 87/2/2
f 87/2/2 84/2/2 88/2/2
f 86/2/2 87/2/2 89/2/2
f 89/2/2 87/2/2 90/2/2
f 91/4/2 92/4/2 93/4/2
f 93/4/2 92/4/2 94/4/2
f 94/4/2 95/4/2 98/4/2
f 98/4/2 95/4/2 99/4/2
f 96/4/2 97/4/2 102/4/2
f 102/4/2 97/4/2 103/4/2
f 99/3/2 100/3/2 104/3/2
f 104/3/2 100/3/2 105/3/2
f 101/3/2 102/3/2 106/3/2
f 106/3/2 102/3/2 107/3/2
f 108/4/2 109/4/2 112/4/2
f 112/4/2 109/4/2 113/4/2
f 110/4/2 111/4/2 116/4/2
f 116/4/2 111/4/2 117/4/2
f 113/4/2 114/4/2 118/4/2
f 118/4/2 114/4/2 119/4/2
f 115/4/2 116/4/2 121/4/2
f 121/4/2 116/4/2 122/4/2
f 119/4/2 120/4/2 123/4/2
f 120/3/2 121/3/2 124/3/2
f 123/4/2 120/4/2 124/4/2
f 124/3/2 121/3/2 125/3/2
f 126/3/2 127/3/2 130/3/2
f 130/3/2 127/3/2 131/3/2
f 128/4/2 129/4/2 133/4/2
f 133/4/2 129/4/2 134/4/2
f 131/3/2 132/3/2 135/3/2
f 132/4/2 133/4/2 136/4/2
f 135/3/2 132/3/2 136/3/2
f 136/4/2 133/4/2 137/4/2
f 138/4/2 139/4/2 144/4/2
f 144/4/2 139/4/2 145/4/2
f 140/3/2 141/3/2 146/3/2
f 146/3/2 141/3/2 147/3/2
f 142/4/2 143/4/2 148/4/2
f 148/4/2 143/4/2 149/4/2
f 152/4/3 151/4/3 150/4/3
f 153/4/3 151/4/3 152/4/3
f 156/4/3 155/4/3 154/4/3
f 160/4/3 156/4/3 154/4/3
f 161/3/3 157/3/3 156/3/3
f 161/4/3 156/4/3 160/4/3
f 162/3/3 157/3/3 161/3/3
f 163/1/3 159/1/3 158/1/3
f 164/1/3 159/1/3 163/1/3
f 166/4/3 162/4/3 161/4/3
f 167/4/3 162/4/3 166/4/3
f 168/4/3 166/4/3 165/4/3
f 169/4/3 166/4/3 168/4/3
f 172/4/3 171/4/3 170/4/3
f 173/4/3 171/4/3 172/4/3
f 176/3/3 175/3/3 174/3/3
f 177/3/3 175/3/3 176/3/3
f 179/3/3 178/3/3 177/3/3
f 180/3/3 178/3/3 179/3/3
f 182/3/3 181/3/3 180/3/3
f 184/3/3 181/3/3 182/3/3
f 185/3/3 181/3/3 184/3/3
f 187/4/3 184/4/3 183/4/3
f 188/4/3 184/4/3 187/4/3
f 189/3/3 187/3/3 186/3/3
f 190/3/3 187/3/3 189/3/3
f 193/4/3 192/4/3 191/4/3
f 194/4/3 192/4/3 193/4/3
f 196/3/3 195/3/3 194/3/3
f 197/3/3 195/3/3 196/3/3
f 204/1/3 198/1/3 197/1/3
f 205/2/3 199/2/3 198/2/3
f 205/1/3 198/1/3 204/1/3
f 206/1/3 200/1/3 199/1/3
f 206/2/3 199/2/3 205/2/3
f 207/2/3 201/2/3 200/2/3
f 207/1/3 200/1/3 206/1/3
f 208/2/3 201/2/3 207/2/3
f 209/2/3 203/2/3 202/2/3
f 210/2/3 203/2/3 209/2/3
f 214/4/3 212/4/3 211/4/3
f 215/4/3 212/4/3 214/4/3
f 216/4/3 214/4/3 213/4/3
f 217/4/3 214/4/3 216/4/3
f 219/3/3 217/3/3 216/3/3
f 220/3/3 217/3/3 219/3/3
f 221/3/3 219/3/3 218/3/3
f 222/3/3 219/3/3 221/3/3
f 225/4/3 224/4/3 223/4/3
f 226/4/3 224/4/3 225/4/3
f 227/4/4 228/4/4 229/4/4
f 229/4/4 228/4/4 230/4/4
f 231/1/4 232/1/4 238/1/4
f 232/2/4 233/2/4 239/2/4
f 238/1/4 232/1/4 239/1/4
f 233/1/4 234/1/4 240/1/4
f 239/2/4 233/2/4 240/2/4
f 234/2/4 235/2/4 241/2/4
f 240/1/4 234/1/4 241/1/4
f 241/2/4 235/2/4 242/2/4
f 236/2/4 237/2/4 243/2/4
f 243/2/4 237/2/4 244/2/4
f 245/3/4 246/3/4 247/3/4
f 247/3/4 246/3/4 248/3/4
f 248/3/4 249/3/4 250/3/4
f 250/3/4 249/3/4 251/3/4
f 252/3/4 253/3/4 255/3/4
f 255/3/4 253/3/4 256/3/4
f 254/4/4 255/4/4 258/4/4
f 258/4/4 255/4/4 259/4/4
f 257/3/4 258/3/4 260/3/4
f 260/3/4 258/3/4 261/3/4
f 262/3/4 263/3/4 264/3/4
f 264/3/4 263/3/4 265/3/4
f 265/3/4 266/3/4 267/3/4
f 267/3/4 266/3/4 268/3/4
f 268/3/4 269/3/4 272/3/4
f 270/2/4 271/2/4 273/2/4
f 273/2/4 271/2/4 274/2/4
f 272/3/4 269/3/4 276/3/4
f 276/3/4 269/3/4 277/3/4
f 275/4/4 276/4/4 279/4/4
f 279/4/4 276/4/4 280/4/4
f 278/4/4 279/4/4 281/4/4
f 281/4/4 279/4/4 282/4/4
f 283/3/4 284/3/4 285/3/4
f 285/3/4 284/3/4 286/3/4
f 285/4/4 286/4/4 288/4/4
f 286/3/4 287/3/4 288/3/4
f 288/3/4 287/3/4 289/3/4
f 285/4/4 288/4/4 290/4/4
f 288/4/4 289/4/4 290/4/4
f 290/4/4 289/4/4 291/4/4
f 285/4/4 290/4/4 292/4/4
f 292/4/4 290/4/4 293/4/4
f 294/4/4 295/4/4 296/4/4
f 296/4/4 295/4/4 297/4/4
f 301/4/5 299/4/5 298/4/5
f 302/4/5 299/4/5 301/4/5
f 307/4/5 301/4/5 300/4/5
f 308/3/5 302/3/5 301/3/5
f 308/4/5 301/4/5 307/4/5
f 309/4/5 303/4/5 302/4/5
f 309/3/5 302/3/5 308/3/5
f 310/4/5 303/4/5 309/4/5
f 311/4/5 305/4/5 304/4/5
f 312/4/5 305/4/5 311/4/5
f 313/3/5 307/3/5 306/3/5
f 314/4/5 310/4/5 309/4/5
f 314/3/5 307/3/5 313/3/5
f 314/4/5 308/4/5 307/4/5
f 314/4/5 309/4/5 308/4/5
f 315/3/5 311/3/5 310/3/5
f 317/4/5 310/4/5 314/4/5
f 317/3/5 316/3/5 315/3/5
f 317/3/5 315/3/5 310/3/5
f 317/4/5 314/4/5 313/4/5
f 318/3/5 316/3/5 317/3/5
f 319/4/5 317/4/5 313/4/5
f 319/4/5 318/4/5 317/4/5
f 320/4/5 318/4/5 319/4/5
f 321/3/5 316/3/5 318/3/5
f 321/4/5 318/4/5 320/4/5
f 322/3/5 316/3/5 321/3/5
f 323/3/5 316/3/5 322/3/5
f 324/3/5 320/3/5 319/3/5
f 325/3/5 320/3/5 324/3/5
f 326/4/5 321/4/5 320/4/5
f 326/4/5 322/4/5 321/4/5
f 327/4/5 322/4/5 326/4/5
f 328/3/5 320/3/5 325/3/5
f 329/4/5 326/4/5 320/4/5
f 329/3/5 320/3/5 328/3/5
f 330/4/5 326/4/5 329/4/5
f 333/4/5 332/4/5 331/4/5
f 334/4/5 332/4/5 333/4/5
f 337/1/5 336/1/5 335/1/5
f 338/1/5 336/1/5 337/1/5
f 341/2/5 340/2/5 339/2/5
f 342/2/5 340/2/5 341/2/5
f 343/4/6 344/4/6 347/4/6
f 347/4/6 344/4/6 348/4/6
f 345/4/6 346/4/6 353/4/6
f 353/4/6 346/4/6 354/4/6
f 348/4/6 349/4/6 355/4/6
f 355/4/6 349/4/6 356/4/6
f 350/4/6 351/4/6 357/4/6
f 357/4/6 351/4/6 358/4/6
f 352/3/6 353/3/6 359/3/6
f 359/3/6 353/3/6 360/3/6
f 356/3/6 357/3/6 361/3/6
f 361/3/6 357/3/6 362/3/6
f 362/3/6 357/3/6 363/3/6
f 363/3/6 364/3/6 365/3/6
f 365/3/6 364/3/6 369/3/6
f 369/3/6 364/3/6 370/3/6
f 366/3/6 367/3/6 371/3/6
f 371/3/6 367/3/6 372/3/6
f 368/4/6 369/4/6 375/4/6
f 375/4/6 369/4/6 376/4/6
f 372/3/6 373/3/6 377/3/6
f 377/3/6 373/3/6 378/3/6
f 374/4/6 375/4/6 379/4/6
f 379/4/6 375/4/6 380/4/6
f 381/4/6 382/4/6 383/4/6
f 383/4/6 382/4/6 384/4/6
f 385/3/6 386/3/6 389/3/6
f 386/4/6 387/4/6 390/4/6
f 389/3/6 386/3/6 390/3/6
f 390/4/6 387/4/6 391/4/6
f 388/3/6 389/3/6 394/3/6
f 394/3/6 389/3/6 395/3/6
f 391/4/6 392/4/6 396/4/6
f 396/4/6 392/4/6 397/4/6
f 393/4/6 394/4/6 400/4/6
f 400/4/6 394/4/6 401/4/6
f 397/4/6 398/4/6 402/4/6
f 398/3/6 399/3/6 403/3/6
f 402/4/6 398/4/6 403/4/6
f 403/3/6 399/3/6 404/3/6
f 400/3/6 401/3/6 405/3/6
f 405/3/6 401/3/6 406/3/6
f 402/4/6 403/4/6 409/4/6
f 403/4/6 404/4/6 409/4/6
f 409/4/6 404/4/6 410/4/6
f 406/3/6 407/3/6 411/3/6
f 411/3/6 407/3/6 412/3/6
f 408/4/6 409/4/6 414/4/6
f 414/4/6 409/4/6 415/4/6
f 412/3/6 413/3/6 416/3/6
f 413/4/6 414/4/6 417/4/6
f 416/3/6 413/3/6 417/3/6
f 417/4/6 414/4/6 418/4/6
f 419/3/6 420/3/6 422/3/6
f 422/3/6 420/3/6 423/3/6
f 423/3/6 420/3/6 424/3/6
f 421/3/6 422/3/6 426/3/6
f 423/3/6 424/3/6 427/3/6
f 424/4/6 425/4/6 428/4/6
f 427/3/6 424/3/6 428/3/6
f 428/4/6 425/4/6 429/4/6
f 421/3/6 426/3/6 430/3/6
f 426/4/6 427/4/6 431/4/6
f 430/3/6 426/3/6 431/3/6
f 427/3/6 428/3/6 432/3/6
f 431/4/6 427/4/6 432/4/6
f 428/3/6 429/3/6 432/3/6
f 432/3/6 429/3/6 433/3/6
f 433/3/6 429/3/6 434/3/6
f 431/3/6 432/3/6 435/3/6
f 432/3/6 433/3/6 435/3/6
f 435/3/6 433/3/6 436/3/6
f 437/1/6 438/1/6 439/1/6
f 439/1/6 438/1/6 440/1/6
f 441/2/6 442/2/6 443/2/6
f 443/2/6 442/2/6 444/2/6
f 445/2/6 446/2/6 447/2/6
f 447/2/6 446/2/6 448/2/6
